<svg xmlns="http://www.w3.org/2000/svg" width="157.602" height="157.602" viewBox="0 0 157.602 157.602">
  <g id="img5" transform="translate(-1145.736 -29.486)">
    <g id="Grupo_121009" data-name="Grupo 121009" transform="translate(1145.736 29.486)">
      <path id="Trazado_158605" data-name="Trazado 158605" d="M1278.246,212.431a5.788,5.788,0,0,1-3.626-6.467,14.47,14.47,0,0,0-.088-3.489c-1.084-8.109-3.6-10.917-11.473-12.846a1.692,1.692,0,0,0-1.278.1c-3.583,3.029-7.556,5.749-10.527,9.3-2.121,2.538-3.966,4.517-7.357,4.211a6.91,6.91,0,0,1-1.838-13.234c4.884-2.274,7.194-6.829,9.523-11.216,1.158-2.181-2.733-8.854-5.223-9.314-3.416-.631-6.876-1.1-10.337-1.395-3.645-.3-5.636-1.834-5.688-4.808-.055-3.134,1.972-4.771,5.849-4.9,2.086-.069,4.168-.544,6.245-.506,6.059.113,7.872-4.115,9.285-8.809.123-.406.229-1.03.018-1.292-3.007-3.751-5.644-7.96-9.252-11.017-2.975-2.52-5.206-4.622-4.593-7.828a6.644,6.644,0,0,1,5.766-5.756c3.29-.58,5.238,1.461,7.783,4.573,2.855,3.49,6.851,6.067,10.478,8.876.425.329,1.674-.332,2.506-.631.653-.235,1.222-.808,1.878-.908,7.776-1.186,7.7-7.355,8.332-13.063.114-1.038,0-2.1.029-3.149.076-2.948,1.7-4.518,4.537-4.757,2.751-.232,4.7,1.659,5.076,4.636.489,3.911.841,7.852,1.632,11.7.234,1.139,1.655,2.132,2.709,2.97a8.122,8.122,0,0,0,2.575,1.036c2.111.683,4.932,2.513,6.22,1.757a35.612,35.612,0,0,0,10-8.35c2.531-3.233,4.365-5.255,7.672-4.707a6.606,6.606,0,0,1,5.866,5.641c.655,3.461-1.511,5.342-4.749,8.04-3.625,3.02-6.481,7.142-9.039,11.185-1.219,1.925,3.343,8.544,5.763,9a52.337,52.337,0,0,0,9.3,1.281c3.051.02,5.187.918,6.462,3.7v2.8c-1.586,2.468-3.82,3.279-6.754,3.337a53.925,53.925,0,0,0-9.275,1.315c-2.453.485-6.548,7.081-5.466,9.2,2.26,4.432,4.693,8.892,9.437,11.284,3.275,1.652,4.925,4.256,4.34,7.541a6.705,6.705,0,0,1-5.776,5.751c-3.122.59-5.446-1.65-7.667-4.283-2.976-3.53-6.936-6.235-10.514-9.245a1.706,1.706,0,0,0-1.279-.041c-8.368,2.225-11.292,6.066-11.425,14.965a8.289,8.289,0,0,0,0,1.048,6.609,6.609,0,0,1-3.254,6.757ZM1317.69,163.1c-1.712-.4-2.494-.646-3.294-.757-5.48-.759-10.177-2.358-10.751-9.037-.093-1.085-1.088-2.064-1.407-3.167a4.606,4.606,0,0,1-.181-2.975c3.1-5.979,6.108-12.073,12.608-15.3a2.675,2.675,0,0,0,1.3-2.066,2.49,2.49,0,0,0-1.646-1.784c-.677-.053-1.6.742-2.11,1.4-.753.972-.983,2.472-1.881,3.186a127.876,127.876,0,0,1-11.787,8.628c-1.189.741-3.445.289-5.018-.216-2.746-.883-5.258-2.555-8.029-3.284a4.656,4.656,0,0,1-3.812-3.915c-.636-2.735-1.439-5.43-2.33-8.735-.632,2.6-1.214,4.5-1.537,6.444-.6,3.621-1.983,6.14-6.159,6.765-2.308.346-4.391,2.044-6.648,2.951-1.091.438-2.638,1.018-3.487.58-5.87-3.025-11.868-5.973-14.937-12.438a2.936,2.936,0,0,0-2.1-1.376,2.2,2.2,0,0,0-1.651,1.437,2.708,2.708,0,0,0,.98,2.279c6.632,2.881,9.451,9,12.692,14.742a4.266,4.266,0,0,1,.5,2.95c-2.15,7.275-5.288,13.59-14.436,13.339a5.346,5.346,0,0,0-1.179.443c1.544.378,2.618.726,3.719.9,4.954.766,9.227,2.212,9.86,8.247.139,1.318,1.2,2.515,1.624,3.836.3.921.65,2.18.263,2.908-3.2,6.023-6.062,12.36-12.861,15.44a2.855,2.855,0,0,0-1.217,2.2,2.168,2.168,0,0,0,1.526,1.524c.754.024,2.021-.515,2.221-1.1,1.606-4.692,5.729-6.875,9.31-9.549,3.789-2.83,7.767-4.977,12.138-.88a2.231,2.231,0,0,0,1.26.571c7.222.514,8.658,5.789,9.555,11.53.092.588.272,1.162.64,2.692.531-2.3.917-3.631,1.137-4.986.734-4.525,2.238-8.129,7.671-8.751,1.952-.223,3.7-1.907,5.644-2.647,1.2-.457,2.929-.977,3.857-.459,5.63,3.144,11.663,5.9,14.514,12.387a2.879,2.879,0,0,0,2.2,1.229,2.126,2.126,0,0,0,1.514-1.485,2.8,2.8,0,0,0-1.077-2.248c-6.588-2.932-9.4-9.045-12.624-14.789-.889-1.582,2.917-12.768,4.506-13.608a11.157,11.157,0,0,1,2.317-.772C1311.648,164.689,1314.221,164.02,1317.69,163.1Z" transform="translate(-1171.076 -54.829)" fill="#1d272b"/>
      <path id="Trazado_158606" data-name="Trazado 158606" d="M1196.169,29.486a5.77,5.77,0,0,1,3.623,6.469,14.1,14.1,0,0,0,.042,3.145c.881,8.014,3.784,11.329,11.533,13.192a1.691,1.691,0,0,0,1.278-.11c3.577-3.036,7.536-5.766,10.513-9.316,2.126-2.536,3.991-4.5,7.381-4.192a6.906,6.906,0,0,1,1.786,13.239c-4.887,2.273-7.187,6.841-9.513,11.235-1.13,2.136,2.819,8.808,5.277,9.275a89,89,0,0,0,9.986,1.4c3.9.292,5.974,1.789,6.01,4.854.037,3.095-2.047,4.559-5.885,4.9-4.706.42-9.372,1.278-14.383,1.994l-1.332-4.02,10.486-2.81c-3.135-.834-5.81-1.534-8.478-2.264a9.386,9.386,0,0,1-2.305-.8c-1.9-1.122-5.221-12.41-4.005-14.233q3.96-5.934,8.348-11.578c.784-1.012,2.293-1.432,3.347-2.276a4.6,4.6,0,0,0,1.769-2.208c.1-.486-1.1-1.769-1.641-1.724a3.309,3.309,0,0,0-2.27,1.561c-3.271,6.294-9.2,9.268-15.074,12.337-4.914-2.061-10.388-3.378-14.514-6.486-2.209-1.664-2.1-6.411-3.16-10.223a74.231,74.231,0,0,1-2.506,9,7.615,7.615,0,0,1-3.455,3.295c-2.551,1.347-5.459,2.043-7.947,3.478-1.973,1.138-3.667,1.434-5.49.168-3.53-2.452-7.1-4.86-10.445-7.555-1.259-1.016-1.813-2.861-2.894-4.159a4.4,4.4,0,0,0-2.428-1.423c-.39-.07-1.409,1.035-1.39,1.582a2.886,2.886,0,0,0,1.211,2.2c6.663,3.052,9.511,9.266,12.655,15.19.443.834.1,2.241-.219,3.282-.4,1.322-1.565,2.51-1.661,3.811-.43,5.854-4.549,7.2-9.239,8.017-1.224.214-2.429.541-4.456,1,3.427.851,5.994,1.471,8.55,2.133a10.526,10.526,0,0,1,2.3.8c1.975,1.049,5.42,12.2,4.281,14.2-3.207,5.644-6.118,11.566-12.594,14.406a2.312,2.312,0,0,0-.831,2.015,2.367,2.367,0,0,0,1.5,1.589,2.3,2.3,0,0,0,2-.911c2.571-6.184,8.2-8.91,13.4-12.16a4.893,4.893,0,0,1,5.782.033,28.3,28.3,0,0,0,7.639,3.3,4.808,4.808,0,0,1,4.022,4.138,55.078,55.078,0,0,0,2.522,8.221c-.205-9.027,4.416-13.627,13.447-14.51l1.973,3.434c-1.054.579-1.9,1.374-2.854,1.517-7.489,1.135-7.353,7.118-8.072,12.542a30.512,30.512,0,0,0-.034,3.5c-.045,2.945-1.635,4.546-4.476,4.821-2.746.265-4.76-1.619-5.128-4.575-.473-3.8-.969-7.594-1.423-11.394-.232-1.94-1.044-3.261-3.168-3.516a6.806,6.806,0,0,1-1.969-.7c-3.179-1.481-6.28-3.939-9.682-.373-2.367,2.481-5.157,4.638-7.13,7.389-1.7,2.37-3.565,4.544-6.343,4.068-2.244-.384-5.11-1.863-6.069-3.705s-.01-4.748.408-7.135c.127-.725,1.168-1.554,1.97-1.853,5.16-1.926,7.376-6.553,9.985-10.773,1.4-2.272-1.6-9.517-4.21-10.082a55.461,55.461,0,0,0-10.322-1.533c-3.046-.072-5.183-.934-6.466-3.7v-2.8c1.56-2.515,3.827-3.266,6.746-3.333a55.3,55.3,0,0,0,9.283-1.294c2.481-.487,6.565-7.07,5.466-9.221-2.263-4.429-4.679-8.906-9.436-11.293-3.277-1.644-4.924-4.263-4.344-7.543a6.714,6.714,0,0,1,5.783-5.75c3.127-.6,5.432,1.633,7.663,4.289,2.969,3.534,6.936,6.234,10.515,9.244a1.7,1.7,0,0,0,1.279.039c8.373-2.232,11.293-6.071,11.424-14.972a8.548,8.548,0,0,0,0-1.048,6.536,6.536,0,0,1,3.254-6.748Z" transform="translate(-1145.736 -29.486)" fill="#868695"/>
      <path id="Trazado_158607" data-name="Trazado 158607" d="M1235.617,106.208a9.73,9.73,0,0,1-9.7,9.822,9.893,9.893,0,0,1-9.738-9.869,9.716,9.716,0,1,1,19.433.047Zm-9.547,4.939a5.138,5.138,0,0,0,4.85-5.008,5.028,5.028,0,0,0-5.3-4.859,5.106,5.106,0,0,0-4.707,5.128A5.3,5.3,0,0,0,1226.07,111.147Z" transform="translate(-1166.838 -49.54)" fill="#008f85"/>
      <path id="Trazado_158608" data-name="Trazado 158608" d="M1191.639,103.78a7.133,7.133,0,0,1,7.192-7.346,7.306,7.306,0,0,1,7.405,7.224,7.529,7.529,0,0,1-7.285,7.432A7.392,7.392,0,0,1,1191.639,103.78Zm10.769-.088c-1.612-1.1-2.612-2.316-3.5-2.237s-2.3,1.48-2.274,2.265a3.267,3.267,0,0,0,2.267,2.323C1199.791,106.114,1200.783,104.854,1202.408,103.691Z" transform="translate(-1159.486 -49.54)" fill="#1d272b"/>
      <path id="Trazado_158609" data-name="Trazado 158609" d="M1205.769,86.33a7.16,7.16,0,0,1-7.116-7.427,7.3,7.3,0,0,1,7.423-7.182,7.52,7.52,0,0,1,7.193,7.508A7.321,7.321,0,0,1,1205.769,86.33Zm.124-10.762c-1.1,1.587-2.33,2.581-2.251,3.457s1.472,2.321,2.255,2.3a3.285,3.285,0,0,0,2.36-2.254C1208.334,78.188,1207.06,77.189,1205.893,75.569Z" transform="translate(-1161.587 -42.137)" fill="#d93328"/>
      <path id="Trazado_158610" data-name="Trazado 158610" d="M1254.873,114.438l-2.352,5.156-4.161-2.418,2.054-4.266Z" transform="translate(-1176.477 -54.475)" fill="#1d272b"/>
      <path id="Trazado_158611" data-name="Trazado 158611" d="M1301.121,190.728c2.171-.255,4.053-.728,5.246,2.249,1.04,2.594,3.747,3.2,6.251,1.929,2.42-1.225,3.6-3.41,2.426-6.133-1.091-2.528-3.323-4.194-5.859-2.894-3,1.535-4.132-.1-5.623-1.869,3.474-3.731,8.214-4.344,12.273-1.671a9.776,9.776,0,0,1,3.666,12,9.915,9.915,0,0,1-11.532,5.667A8.959,8.959,0,0,1,1301.121,190.728Z" transform="translate(-1192.276 -74.781)" fill="#1d272b"/>
      <path id="Trazado_158612" data-name="Trazado 158612" d="M1283.015,195.318a7.414,7.414,0,0,1-7.2-7.451,7.545,7.545,0,0,1,7.554-7.165,7.357,7.357,0,0,1,7.128,7.526A7.217,7.217,0,0,1,1283.015,195.318Zm3.675-7.376c-1.689-1.125-2.739-2.365-3.567-2.231a3.343,3.343,0,0,0-2.219,2.426c0,.777,1.476,2.1,2.39,2.185C1284.134,190.4,1285.092,189.131,1286.69,187.942Z" transform="translate(-1184.699 -74.781)" fill="#1d272b"/>
      <path id="Trazado_158613" data-name="Trazado 158613" d="M1297.52,163.687a7.2,7.2,0,0,1-7.47,7.1,7.4,7.4,0,0,1-7.185-7.459,7.3,7.3,0,0,1,7.537-7.032A7.117,7.117,0,0,1,1297.52,163.687Zm-3.869-.113c-1.5-1.145-2.411-2.393-3.257-2.347-.913.049-1.761,1.308-2.637,2.04.826.926,1.514,2.3,2.529,2.616C1290.94,166.082,1292.074,164.714,1293.651,163.574Z" transform="translate(-1186.811 -67.471)" fill="#1d272b"/>
    </g>
  </g>
</svg>
