<svg id="icon13" xmlns="http://www.w3.org/2000/svg" xmlns:xlink="http://www.w3.org/1999/xlink" width="101.975" height="101.975" viewBox="0 0 101.975 101.975">
  <defs>
    <radialGradient id="radial-gradient" cx="0.076" cy="0.019" r="1.465" gradientTransform="translate(0.001)" gradientUnits="objectBoundingBox">
      <stop offset="0" stop-color="#f6f6f7"/>
      <stop offset="0.477" stop-color="#f9f9fa"/>
      <stop offset="0.715" stop-color="#fff"/>
    </radialGradient>
  </defs>
  <g id="Grupo_18423" data-name="Grupo 18423" transform="translate(0 0)">
    <g id="Grupo_18421" data-name="Grupo 18421">
      <g id="Grupo_18420" data-name="Grupo 18420">
        <g id="Grupo_18419" data-name="Grupo 18419">
          <path id="Trazado_40936" data-name="Trazado 40936" d="M296.6,2196.707a50.987,50.987,0,1,1-50.987-50.986A50.986,50.986,0,0,1,296.6,2196.707Z" transform="translate(-194.623 -2145.721)" fill="#fff"/>
        </g>
      </g>
    </g>
    <path id="Trazado_40937" data-name="Trazado 40937" d="M296.149,2196.218a50.986,50.986,0,1,0-50.987,50.988A50.787,50.787,0,0,0,296.149,2196.218Z" transform="translate(-194.174 -2145.232)" fill="url(#radial-gradient)"/>
    <path id="Trazado_40938" data-name="Trazado 40938" d="M280.132,2192.289a38.918,38.918,0,1,0-38.918,38.918A38.772,38.772,0,0,0,280.132,2192.289Z" transform="translate(-190.071 -2141.133)" fill="none" stroke="#008f85" stroke-miterlimit="10" stroke-width="4"/>
    <g id="Grupo_18422" data-name="Grupo 18422" transform="translate(9.033 28.626)">
      <path id="Trazado_40939" data-name="Trazado 40939" d="M288.331,2164.488a50.994,50.994,0,0,1-87.786,50.776,50.832,50.832,0,0,0,87.786-50.776Z" transform="translate(-200.545 -2164.488)" fill="#eceef0"/>
    </g>
  </g>
  <path id="Trazado_157848" data-name="Trazado 157848" d="M5210.321,1546.639h21.948c0,.837.005,1.669,0,2.5a108.607,108.607,0,0,1-1.147,14.971c-.5,3.431-.818,6.893-1.429,10.3-.672,3.75.181,7.216,1.422,10.681a18.275,18.275,0,0,1,1.227,6.466,38.16,38.16,0,0,1-.605,4.771c-.146,1-.341,1.988-.517,2.994h-7.923c-.048-.333-.074-.651-.142-.959a7.5,7.5,0,0,0-.333-1.212c-.5-1.206-.858-1.363-2.062-.943-.439.153-.868.335-1.286.5-.021,1.26-.1,1.411-1.315,1.707-.8.2-1.638.759-2.445-.006-.76,1.1-3.168,1.4-3.963.515-.92,1-3.321,1.065-4,.1-.891.924-3.3.8-4-.205a3.4,3.4,0,0,1-3.989-.651,4.388,4.388,0,0,1-3.449-.623,1.475,1.475,0,0,1-.252-.816,17.181,17.181,0,0,0-.072-2.187,5.217,5.217,0,0,1,.657-3.779.954.954,0,0,1,.95-.517,16.338,16.338,0,0,0,9.42-2.7,12.948,12.948,0,0,0,6.038-10.136,76.685,76.685,0,0,0-.446-13.587c-.42-3.792-.89-7.578-1.38-11.361-.216-1.668-.54-3.322-.81-4.984C5210.373,1547.218,5210.355,1546.949,5210.321,1546.639Zm21.521,4.616h-20.31c.02.247.022.442.05.634.227,1.543.516,3.078.677,4.628.461,4.426.968,8.852,1.27,13.29a37.863,37.863,0,0,1-.348,10.008.813.813,0,0,0,.221.612c1.786,1.817,3.679,3.537,5.363,5.441a9.125,9.125,0,0,0,7.411,3.245,12.673,12.673,0,0,0,5.267-1.146c-.113-.454-.2-.865-.319-1.264-.562-1.841-1.183-3.667-1.7-5.522-.745-2.7-.352-5.406.007-8.115.682-5.155,1.372-10.31,1.982-15.474C5231.663,1555.528,5231.7,1553.44,5231.842,1551.256Zm-18.794,29.3c-.361.772-.6,1.365-.908,1.925-3,5.534-7.885,7.9-13.947,8.192a1.42,1.42,0,0,0-1.549,1.111c-.076.26-.2.508-.261.771-.371,1.571-.077,2.111,1.411,2.609a33.254,33.254,0,0,0,11.277,1.53,35.235,35.235,0,0,0,10.489-1.8c3.935-1.3,7.9-2.5,11.853-3.757.174-.055.438-.257.431-.374-.051-.753-.167-1.5-.253-2.194-1.3.309-2.456.691-3.645.847-2.576.34-5.159.248-7.336-1.354a31.791,31.791,0,0,1-3.388-3.312C5215.847,1583.374,5214.478,1581.992,5213.048,1580.555Zm-2.231-33.485c.212,1.278.412,2.486.611,3.689h20.415v-3.689Zm20.048,51.8c.334-2.044.659-4.03,1.022-6.252l-9.341,2.886,1.324,3.367Zm-34.212-3.649-.157.193c.234.231.427.562.709.677a28.177,28.177,0,0,0,10.092,1.852,32.583,32.583,0,0,0,11.219-1.43,133.723,133.723,0,0,1,13.448-4.243c-.023-.258-.045-.489-.069-.755a8.5,8.5,0,0,0-.873.171c-3.321,1.037-6.674,1.985-9.949,3.151a36.184,36.184,0,0,1-10.768,2.266A33.344,33.344,0,0,1,5196.652,1595.219Zm14.565,3.066-3.072.143c-.107.644.219.872.733.875.568,0,1.136-.064,1.7-.084C5211.13,1599.2,5211.341,1598.933,5211.218,1598.286Zm.715.015c.233.314.4.709.542.7a18.126,18.126,0,0,0,2.482-.307c.124-.023.2-.4.249-.624.01-.046-.216-.215-.316-.2C5213.967,1597.987,5213.048,1598.133,5211.933,1598.3Zm-4.6.094-3.044-.175c-.269.587.022.857.546.921.589.072,1.186.086,1.781.1C5207.1,1599.257,5207.317,1598.984,5207.332,1598.394Zm-7.857-1.032-2.881-.958c-.27.5-.219.862.35,1.051s1.155.408,1.745.567C5199.152,1598.146,5199.447,1597.955,5199.475,1597.362Zm3.335,1.569.531-.552a2.212,2.212,0,0,0-.6-.361,17.292,17.292,0,0,0-1.827-.307,2.525,2.525,0,0,0-.684.108c.168.242.289.625.512.7A17.244,17.244,0,0,0,5202.811,1598.931Zm16.1-2.044c-.806.225-1.57.42-2.321.659a2.38,2.38,0,0,0-.578.4c.247.135.514.41.738.379a11.8,11.8,0,0,0,1.857-.472C5219.082,1597.7,5219.206,1597.383,5218.913,1596.887Z" transform="translate(-5166.115 -1522.19)" fill="#1d272b"/>
</svg>
