<svg id="icon1" xmlns="http://www.w3.org/2000/svg" xmlns:xlink="http://www.w3.org/1999/xlink" width="121.001" height="120.999" viewBox="0 0 121.001 120.999">
  <defs>
    <radialGradient id="radial-gradient" cx="0.077" cy="0.019" r="1.465" gradientTransform="matrix(1, 0, 0, -1, 0, 9.666)" gradientUnits="objectBoundingBox">
      <stop offset="0" stop-color="#f4f4f5"/>
      <stop offset="0.477" stop-color="#f7f8fa"/>
      <stop offset="0.715" stop-color="#fff"/>
    </radialGradient>
  </defs>
  <g id="Group_18531" data-name="Group 18531">
    <g id="Group_18423" data-name="Group 18423">
      <g id="Group_18421" data-name="Group 18421">
        <g id="Group_18420" data-name="Group 18420">
          <g id="Group_18419" data-name="Group 18419">
            <path id="Path_40936" data-name="Path 40936" d="M243.8,575.329a60.5,60.5,0,1,1-60.5-60.5h0A60.5,60.5,0,0,1,243.8,575.329Z" transform="translate(-122.8 -514.832)" fill="#fff"/>
          </g>
        </g>
      </g>
      <path id="Path_40937" data-name="Path 40937" d="M243.8,575.329a60.259,60.259,0,1,0,0,.477Z" transform="translate(-122.798 -514.832)" fill="url(#radial-gradient)"/>
      <path id="Path_40938" data-name="Path 40938" d="M221.969,567.828a46.18,46.18,0,1,0-46.179,46.179h0a46.008,46.008,0,0,0,46.179-45.836Z" transform="translate(-115.106 -507.129)" fill="none" stroke="#1d272d" stroke-miterlimit="10" stroke-width="3"/>
      <g id="Group_18422" data-name="Group 18422" transform="translate(10.719 33.966)">
        <path id="Path_40939" data-name="Path 40939" d="M232,530.78a60.506,60.506,0,0,1-104.163,60.246A60.314,60.314,0,0,0,232,530.78Z" transform="translate(-127.833 -530.78)" fill="#e7e9eb"/>
      </g>
    </g>
  </g>
  <g id="NsCIPH.tif" transform="translate(432.662 -296.334)">
    <g id="Grupo_91872" data-name="Grupo 91872" transform="translate(-403.992 327.604)">
      <path id="Trazado_150935" data-name="Trazado 150935" d="M-379.177,369.111a15.794,15.794,0,0,1-21.151-2.646,15.746,15.746,0,0,1-.107-20.064,15.776,15.776,0,0,1,21.262-2.787c0-.965-.047-1.871.016-2.769a5.3,5.3,0,0,1,.387-1.83,3.692,3.692,0,0,1,3.39-2.224c.886-.041,1.775-.007,2.724-.007,0-.682,0-1.494,0-2.306a3.905,3.905,0,0,1,4.192-4.21c.808,0,1.617.071,2.524.114.819-2.383,2.8-2.937,5.174-2.742a3.919,3.919,0,0,1,3.6,2.761c.814-.047,1.6-.084,2.379-.141a4.021,4.021,0,0,1,4.354,4.319c-.061,3.508-.015,7.017-.015,10.526v.775c.286.044.543.07.794.124a3.958,3.958,0,0,1,3.124,4.058c.009,3.917,0,7.834,0,11.75,0,2.346.026,4.693-.023,7.038a3.734,3.734,0,0,1-.439,1.668c-1.479,2.675-3.02,5.315-4.521,7.978a2.011,2.011,0,0,0-.242.915c-.026,1.387-.006,2.774-.013,4.162a1.344,1.344,0,0,1-1.5,1.525q-10.922.012-21.844,0a1.345,1.345,0,0,1-1.5-1.219q-1.266-5.665-2.521-11.333a3.2,3.2,0,0,1-.05-.668C-379.181,370.987-379.177,370.1-379.177,369.111Zm23.5-11.613v-.531c0-1.938-.017-3.876.006-5.814a5.012,5.012,0,0,1,2.148-4.186.967.967,0,0,0,.45-.9c-.013-3.672-.007-7.344-.008-11.015,0-1.958-.233-2.19-2.164-2.188-1.316,0-1.746.435-1.747,1.768q0,6.517,0,13.035c0,1.591.011,3.182-.011,4.773a1.278,1.278,0,0,1-1.256,1.314,1.306,1.306,0,0,1-1.331-1.313c-.022-.57,0-1.142,0-1.713q0-9.455,0-18.91c0-1.066-.461-1.529-1.519-1.551-.2,0-.408,0-.612,0-1.4,0-1.784.386-1.784,1.774q0,9.975,0,19.95c0,.184.009.368-.009.55a1.314,1.314,0,0,1-1.3,1.217,1.294,1.294,0,0,1-1.278-1.23c-.018-.223-.012-.448-.012-.673q0-6.793,0-13.586c0-1.285.008-2.57,0-3.855a1.363,1.363,0,0,0-1.537-1.547c-.2,0-.408,0-.612,0-1.362,0-1.763.393-1.764,1.734q0,7.527,0,15.054c0,.877.014,1.755,0,2.631a1.348,1.348,0,0,1-.892,1.391c-.946.323-1.733-.346-1.736-1.5q-.011-5.232,0-10.465c0-2.119-.235-2.365-2.345-2.326a1.386,1.386,0,0,0-1.569,1.588c-.008,1.509-.018,3.019.014,4.528a1.514,1.514,0,0,0,.318.869,15.457,15.457,0,0,1,.749,18.854,5.165,5.165,0,0,0-1.091,3.632,30.937,30.937,0,0,0,.14,3.471c.622,3.2,1.393,6.366,2.08,9.552.1.464.277.609.76.607,6.2-.018,12.4-.012,18.6-.014.2,0,.392-.022.637-.037,0-1.211-.033-2.371.016-3.527a3.066,3.066,0,0,1,.356-1.322c1.51-2.7,3.061-5.385,4.585-8.081a1.714,1.714,0,0,0,.238-.8q.02-9.332.007-18.665a1.365,1.365,0,0,0-1.858-1.444,2.631,2.631,0,0,0-2.053,2.748c-.009,2.468,0,4.937-.005,7.4,0,1.059-.48,1.5-1.535,1.539a17.544,17.544,0,0,0-2.859.194,9.067,9.067,0,0,0-7.345,8.746c-.065,1.009-.551,1.523-1.4,1.478-.785-.041-1.221-.618-1.208-1.6a11.684,11.684,0,0,1,7.864-10.758A37.814,37.814,0,0,1-355.676,357.5Zm-32.653-14.158a13.044,13.044,0,0,0-13.025,12.912,13.049,13.049,0,0,0,12.995,13.2,13.064,13.064,0,0,0,13.094-12.981A13.04,13.04,0,0,0-388.328,343.34Z" transform="translate(403.992 -327.604)" fill="#1d272b"/>
      <path id="Trazado_150936" data-name="Trazado 150936" d="M-340.091,490.277l2.519,1.049a7.531,7.531,0,0,1,.691-.9,1.283,1.283,0,0,1,1.856-.067,1.288,1.288,0,0,1-.029,1.906c-.279.3-.587.564-.837.8.294.753.545,1.436.833,2.1a.553.553,0,0,0,.39.263c.384.039.776-.007,1.161.029a1.3,1.3,0,0,1,1.246,1.271,1.212,1.212,0,0,1-1.247,1.306c-1.1-.087-1.572.264-1.939,1.35-.3.885-.276,1.38.435,1.93a1.24,1.24,0,0,1,.464,1.418,1.008,1.008,0,0,1-.945.827,2.631,2.631,0,0,1-1.325-.429,3.851,3.851,0,0,1-.773-.933l-2.5,1.045c0,.377.013.841,0,1.3a1.315,1.315,0,0,1-1.3,1.351,1.235,1.235,0,0,1-1.275-1.34c.1-1.018-.232-1.459-1.23-1.853-.918-.363-1.411-.318-2.028.4a1.25,1.25,0,0,1-1.939.1,1.318,1.318,0,0,1,.141-1.952c.285-.29.6-.547.837-.758-.312-.806-.561-1.491-.85-2.16a.566.566,0,0,0-.407-.25c-.363-.038-.735.006-1.1-.024a1.284,1.284,0,0,1-1.279-1.294,1.182,1.182,0,0,1,1.25-1.289,1.547,1.547,0,0,0,1.954-1.425,3.7,3.7,0,0,1,.558-1.023,10.644,10.644,0,0,1-1-.807,1.266,1.266,0,0,1-.03-1.856,1.241,1.241,0,0,1,1.851.042c.615.739,1.115.767,2.028.4.977-.4,1.341-.817,1.235-1.847a1.235,1.235,0,0,1,1.269-1.346,1.312,1.312,0,0,1,1.3,1.342C-340.077,489.406-340.091,489.854-340.091,490.277Zm.383,2.973a3.653,3.653,0,0,0-3.332,0c.412,1.572-.224,2.2-1.9,1.9a3.655,3.655,0,0,0,.025,3.271c1.48-.243,2.039.309,1.886,1.876a3.626,3.626,0,0,0,3.316-.033,1.364,1.364,0,0,1,.16-1.641,1.336,1.336,0,0,1,1.66-.168,3.67,3.67,0,0,0-.015-3.373,1.277,1.277,0,0,1-1.618-.147A1.377,1.377,0,0,1-339.709,493.25Z" transform="translate(357.074 -467.999)" fill="#008f85"/>
    </g>
  </g>
</svg>
