<svg id="icon10" xmlns="http://www.w3.org/2000/svg" xmlns:xlink="http://www.w3.org/1999/xlink" width="101.975" height="101.975" viewBox="0 0 101.975 101.975">
  <defs>
    <radialGradient id="radial-gradient" cx="0.076" cy="0.019" r="1.465" gradientTransform="translate(0.001)" gradientUnits="objectBoundingBox">
      <stop offset="0" stop-color="#f6f6f7"/>
      <stop offset="0.477" stop-color="#f9f9fa"/>
      <stop offset="0.715" stop-color="#fff"/>
    </radialGradient>
  </defs>
  <g id="Grupo_18423" data-name="Grupo 18423" transform="translate(0 0)">
    <g id="Grupo_18421" data-name="Grupo 18421">
      <g id="Grupo_18420" data-name="Grupo 18420">
        <g id="Grupo_18419" data-name="Grupo 18419">
          <path id="Trazado_40936" data-name="Trazado 40936" d="M296.6,2196.707a50.987,50.987,0,1,1-50.987-50.986A50.986,50.986,0,0,1,296.6,2196.707Z" transform="translate(-194.623 -2145.721)" fill="#fff"/>
        </g>
      </g>
    </g>
    <path id="Trazado_40937" data-name="Trazado 40937" d="M296.149,2196.218a50.986,50.986,0,1,0-50.987,50.988A50.787,50.787,0,0,0,296.149,2196.218Z" transform="translate(-194.174 -2145.232)" fill="url(#radial-gradient)"/>
    <path id="Trazado_40938" data-name="Trazado 40938" d="M280.132,2192.289a38.918,38.918,0,1,0-38.918,38.918A38.772,38.772,0,0,0,280.132,2192.289Z" transform="translate(-190.071 -2141.133)" fill="none" stroke="#008f85" stroke-miterlimit="10" stroke-width="4"/>
    <g id="Grupo_18422" data-name="Grupo 18422" transform="translate(9.033 28.626)">
      <path id="Trazado_40939" data-name="Trazado 40939" d="M288.331,2164.488a50.994,50.994,0,0,1-87.786,50.776,50.832,50.832,0,0,0,87.786-50.776Z" transform="translate(-200.545 -2164.488)" fill="#eceef0"/>
    </g>
  </g>
  <g id="Grupo_117566" data-name="Grupo 117566" transform="translate(-4962.632 -933.443)">
    <path id="Trazado_151094" data-name="Trazado 151094" d="M4986.993,980.894a21.993,21.993,0,0,1,.333-2.721,6.519,6.519,0,0,1,6.334-4.937q19.951-.025,39.9,0a6.5,6.5,0,0,1,6.576,6.4c.017.4.042.79.064,1.224a5.882,5.882,0,0,0,.585.081c2.257.068,2.434.243,2.438,2.465s0,4.455,0,6.682c0,1.315-.542,1.929-1.989,1.853a1.6,1.6,0,0,0-1.854,1.317c-1.979,6.031-9.359,9.927-15.715,8.783a60.4,60.4,0,0,1-7.86-2.257,6.787,6.787,0,0,0-4.378.008,53.041,53.041,0,0,1-7.966,2.274c-6.826,1.059-13.883-3.12-15.82-9.34a.914.914,0,0,0-1.1-.761,4.5,4.5,0,0,1-1.522-.084,1.474,1.474,0,0,1-1.011-1.628c0-2.3,0-4.592,0-6.888,0-2.078.286-2.363,2.4-2.423C4986.589,980.937,4986.766,980.913,4986.993,980.894Zm26.653-6.952c-6.579,0-13.158-.015-19.737.006a5.891,5.891,0,0,0-6.03,6.038c-.019,3.18-.1,6.365.045,9.537a11.21,11.21,0,0,0,1.012,4.429,13.478,13.478,0,0,0,9.545,7.179,16.085,16.085,0,0,0,10.262-1.236,10.773,10.773,0,0,1,9.667-.02,11.645,11.645,0,0,0,1.433.536c3.937,1.34,7.883,1.571,11.744-.193,4.748-2.169,7.706-5.7,7.851-11.12.077-2.883-.012-5.771-.022-8.656-.014-4.03-2.467-6.5-6.471-6.5Q5023.3,973.94,5013.646,973.942Zm26.51,17.261c2.553.159,2.412.144,2.331-2.012-.013-.363,0-.727,0-1.091,0-1.818-.01-3.636,0-5.453,0-.805-.507-1-1.149-.952-.429.035-1.162-.323-1.17.532C5040.139,985.194,5040.156,988.162,5040.156,991.2Zm-53.06-.04v-9.393c-1.919-.178-2.27-.035-2.288.932-.04,2.192-.087,4.385-.046,6.576.04,2.062.146,2.112,2.242,1.941C4987.037,991.216,4987.065,991.181,4987.1,991.162Z" transform="translate(0 0)" fill="#1d272b"/>
    <path id="Trazado_151095" data-name="Trazado 151095" d="M5037.017,988.781q9.477,0,18.954,0c2.854,0,3.976,1.13,3.983,3.981.006,2.478-.093,4.961.027,7.434.259,5.31-3.333,9.277-8.446,10.425a14.125,14.125,0,0,1-7.949-.762q-2.164-.766-4.335-1.5a9.2,9.2,0,0,0-6.095.423,51.728,51.728,0,0,1-6.152,1.883,11.453,11.453,0,0,1-10.086-2.727,8.963,8.963,0,0,1-3.088-6.985c-.062-2.81-.016-5.624-.012-8.436,0-2.46,1.229-3.722,3.7-3.728C5024.015,988.77,5030.516,988.781,5037.017,988.781Zm-.024.8q-9.75,0-19.5,0c-2.021,0-2.864.84-2.871,2.852-.01,2.884-.093,5.772.016,8.652a9.623,9.623,0,0,0,.8,3.773c1.675,3.431,6.622,5.917,10.435,5.2a45.9,45.9,0,0,0,6.9-1.99,11.171,11.171,0,0,1,8.214.024c1.015.4,2.051.759,3.084,1.115a12.775,12.775,0,0,0,7.832.536c3.988-1.132,7.551-4.538,7.339-8.68-.147-2.875-.06-5.762-.079-8.644-.013-2-.865-2.836-2.9-2.837Q5046.634,989.579,5036.993,989.582Z" transform="translate(-23.256 -12.145)" fill="#1d272b"/>
  </g>
</svg>
