<svg xmlns="http://www.w3.org/2000/svg" xmlns:xlink="http://www.w3.org/1999/xlink" width="101.975" height="101.976" viewBox="0 0 101.975 101.976">
  <defs>
    <radialGradient id="radial-gradient" cx="0.076" cy="0.019" r="1.465" gradientTransform="translate(0.001)" gradientUnits="objectBoundingBox">
      <stop offset="0" stop-color="#f6f6f7"/>
      <stop offset="0.477" stop-color="#f9f9fa"/>
      <stop offset="0.715" stop-color="#fff"/>
    </radialGradient>
  </defs>
  <g id="icon14" transform="translate(0 0.001)">
    <g id="Grupo_18423" data-name="Grupo 18423" transform="translate(0 0)">
      <g id="Grupo_18421" data-name="Grupo 18421">
        <g id="Grupo_18420" data-name="Grupo 18420">
          <g id="Grupo_18419" data-name="Grupo 18419">
            <path id="Trazado_40936" data-name="Trazado 40936" d="M296.6,2196.707a50.987,50.987,0,1,1-50.987-50.986A50.986,50.986,0,0,1,296.6,2196.707Z" transform="translate(-194.623 -2145.721)" fill="#fff"/>
          </g>
        </g>
      </g>
      <path id="Trazado_40937" data-name="Trazado 40937" d="M296.149,2196.218a50.986,50.986,0,1,0-50.987,50.988A50.787,50.787,0,0,0,296.149,2196.218Z" transform="translate(-194.174 -2145.232)" fill="url(#radial-gradient)"/>
      <path id="Trazado_40938" data-name="Trazado 40938" d="M280.132,2192.289a38.918,38.918,0,1,0-38.918,38.918A38.772,38.772,0,0,0,280.132,2192.289Z" transform="translate(-190.071 -2141.133)" fill="none" stroke="#008f85" stroke-miterlimit="10" stroke-width="4"/>
      <g id="Grupo_18422" data-name="Grupo 18422" transform="translate(9.033 28.626)">
        <path id="Trazado_40939" data-name="Trazado 40939" d="M288.331,2164.488a50.994,50.994,0,0,1-87.786,50.776,50.832,50.832,0,0,0,87.786-50.776Z" transform="translate(-200.545 -2164.488)" fill="#eceef0"/>
      </g>
    </g>
    <g id="myKCYe" transform="translate(-5589.087 -1402.195)">
      <g id="Grupo_117569" data-name="Grupo 117569" transform="translate(5617.161 1427.044)">
        <path id="Trazado_157849" data-name="Trazado 157849" d="M5645.335,1523.63l-1.012-1.971c.548-.292,1.079-.589,1.622-.861q5.822-2.917,11.647-5.826c1.136-.569,1.488-1.569.883-2.476a1.6,1.6,0,0,0-2.131-.439q-3.876,1.928-7.736,3.888c-2.032,1.025-4.06,2.058-6.091,3.083-.811.409-1.492.293-1.8-.293-.343-.65-.043-1.28.823-1.716q3.869-1.95,7.739-3.9c1.02-.514,2.045-1.018,3.052-1.559a1.453,1.453,0,0,0,.75-1.759,1.659,1.659,0,0,0-1.411-1.176,2.2,2.2,0,0,0-.971.27q-6.878,3.582-13.743,7.188c-2.019,1.057-4.043,2.1-6.057,3.168a1.143,1.143,0,0,1-1.406-.069,1.121,1.121,0,0,1-.3-1.467c.622-1.54,1.237-3.083,1.894-4.608a5.168,5.168,0,0,0-.745-5.459c-.757,1.385-1.494,2.717-2.215,4.057-.978,1.815-1.9,3.659-2.924,5.45a17.888,17.888,0,0,0-1.923,5.484c-.373,1.894-.775,3.782-1.189,5.668a1.172,1.172,0,0,1-1.279,1.056,1.207,1.207,0,0,1-.89-1.468c.665-3.082,1.262-6.186,2.107-9.22a20.889,20.889,0,0,1,1.973-4.027c1.611-3.014,3.277-6,4.869-9.022.519-.985,1.252-1.483,2.342-.482a4.887,4.887,0,0,0,1.126-5.933c-.835.883-1.666,1.74-2.472,2.618-1.314,1.432-2.571,2.92-3.929,4.309a22.361,22.361,0,0,0-4.423,6.463c-.67,1.481-1.358,2.955-2.091,4.406a1.868,1.868,0,0,1-.877.869,1.274,1.274,0,0,1-1.029-.259.921.921,0,0,1-.263-1.134c.592-1.3,1.161-2.608,1.79-3.889a34.011,34.011,0,0,1,2.315-4.4,44.5,44.5,0,0,1,3.667-4.373c2.019-2.241,4.088-4.437,6.137-6.651.223-.24.438-.488.676-.712a1.07,1.07,0,0,1,1.73.149c2.193,3.219,2.185,6.651-.348,9.7-.174.21-.348.42-.514.622.139.48.376.582.881.459q9.04-2.208,18.1-4.357a3.752,3.752,0,0,1,4.361,3.175,4.257,4.257,0,0,1-.767,3.067c-.143.2-.1.528-.157.841,2.419-.863,4.124-.467,5.209,1.157a3.359,3.359,0,0,1-.347,4.428c2.479,1.747,2.925,5.329-1.1,7.149a11.039,11.039,0,0,1,1.144,1.823,3.5,3.5,0,0,1-1.782,4.416c-2.243,1.247-4.531,2.416-6.818,3.583q-6.284,3.205-12.592,6.365a18.874,18.874,0,0,1-9.658,1.753c-.9-.047-1.8-.165-2.7-.261-.467-.05-.956-.186-1.106-.659a1.685,1.685,0,0,1,.047-1.12,1.06,1.06,0,0,1,1.17-.5c.684.074,1.367.17,2.053.224a18.065,18.065,0,0,0,10.054-1.84c5.789-3.017,11.633-5.927,17.444-8.9a7.5,7.5,0,0,0,1.562-1.064c.518-.461.485-.94.041-1.71-.37-.641-.69-.817-1.384-.619a10.384,10.384,0,0,0-1.716.657c-2.329,1.142-4.642,2.317-6.97,3.462a2.051,2.051,0,0,1-.975.247.956.956,0,0,1-.906-.808,1.1,1.1,0,0,1,.559-1.251c.522-.292,1.064-.547,1.6-.816,3.243-1.625,6.491-3.238,9.724-4.881a7.219,7.219,0,0,0,1.566-1.059c.568-.515.534-1.053.035-1.859a1.161,1.161,0,0,0-1.534-.549,5.16,5.16,0,0,0-.8.319C5653.09,1519.731,5649.247,1521.664,5645.335,1523.63Zm8.5-16.591c.083-1.375-.764-2.041-2.144-1.708q-7.39,1.783-14.785,3.55c-1.047.252-2.092.512-3.2.784.428,2.292-.52,4.248-1.409,6.289.142-.06.188-.075.23-.1q8.531-4.463,17.063-8.922a3.662,3.662,0,0,1,2.714-.46C5652.819,1506.615,5653.311,1506.841,5653.837,1507.038Z" transform="translate(-5617.161 -1488.55)" fill="#1d272b"/>
        <path id="Trazado_157850" data-name="Trazado 157850" d="M5969.412,1453.1a31.073,31.073,0,0,1,3.629,6.2,3.893,3.893,0,1,1-7.562,1.367,4.253,4.253,0,0,1,.319-1.523A27.109,27.109,0,0,1,5969.412,1453.1Zm.093,4.036-.25,0c-.468.989-.962,1.967-1.4,2.971a1.5,1.5,0,0,0,.46,1.8,1.707,1.707,0,0,0,2.067.028,1.51,1.51,0,0,0,.526-1.834C5970.478,1459.1,5969.978,1458.121,5969.505,1457.134Z" transform="translate(-5927.456 -1450.254)" fill="#1d272b"/>
        <path id="Trazado_157851" data-name="Trazado 157851" d="M5886.937,1427.044a22.26,22.26,0,0,1,3.2,5.517,3.31,3.31,0,0,1-2.966,4.239,3.355,3.355,0,0,1-3.553-3.294,4.48,4.48,0,0,1,.484-1.754,15.243,15.243,0,0,1,1.06-2.006C5885.712,1428.843,5886.321,1427.974,5886.937,1427.044Zm.094,4.118-.177.011c-.319.685-.675,1.356-.944,2.06a.914.914,0,0,0,.4,1.132,1.043,1.043,0,0,0,1.3-.024.906.906,0,0,0,.366-1.144C5887.683,1432.512,5887.35,1431.84,5887.031,1431.162Z" transform="translate(-5854.527 -1427.044)" fill="#1d272b"/>
      </g>
    </g>
  </g>
</svg>
