<svg xmlns="http://www.w3.org/2000/svg" xmlns:xlink="http://www.w3.org/1999/xlink" width="612.507" height="120.868" viewBox="0 0 612.507 120.868">
  <defs>
    <linearGradient id="linear-gradient" x1="0.5" x2="0.5" y2="1" gradientUnits="objectBoundingBox">
      <stop offset="0" stop-color="#fff"/>
      <stop offset="1" stop-color="#f8f8f8"/>
    </linearGradient>
    <filter id="Rectángulo_33309" x="0" y="0" width="159.478" height="64.426" filterUnits="userSpaceOnUse">
      <feOffset dy="3" input="SourceAlpha"/>
      <feGaussianBlur stdDeviation="3" result="blur"/>
      <feFlood flood-opacity="0.161"/>
      <feComposite operator="in" in2="blur"/>
      <feComposite in="SourceGraphic"/>
    </filter>
    <filter id="Rectángulo_33309-2" x="453.029" y="0" width="159.478" height="64.426" filterUnits="userSpaceOnUse">
      <feOffset dy="3" input="SourceAlpha"/>
      <feGaussianBlur stdDeviation="3" result="blur-2"/>
      <feFlood flood-opacity="0.161"/>
      <feComposite operator="in" in2="blur-2"/>
      <feComposite in="SourceGraphic"/>
    </filter>
    <filter id="Rectángulo_33309-3" x="151.359" y="0" width="159.478" height="64.426" filterUnits="userSpaceOnUse">
      <feOffset dy="3" input="SourceAlpha"/>
      <feGaussianBlur stdDeviation="3" result="blur-3"/>
      <feFlood flood-opacity="0.161"/>
      <feComposite operator="in" in2="blur-3"/>
      <feComposite in="SourceGraphic"/>
    </filter>
    <filter id="Rectángulo_33309-4" x="80.62" y="56.441" width="159.478" height="64.426" filterUnits="userSpaceOnUse">
      <feOffset dy="3" input="SourceAlpha"/>
      <feGaussianBlur stdDeviation="3" result="blur-4"/>
      <feFlood flood-opacity="0.161"/>
      <feComposite operator="in" in2="blur-4"/>
      <feComposite in="SourceGraphic"/>
    </filter>
    <filter id="Rectángulo_33309-5" x="301.67" y="0" width="159.478" height="64.426" filterUnits="userSpaceOnUse">
      <feOffset dy="3" input="SourceAlpha"/>
      <feGaussianBlur stdDeviation="3" result="blur-5"/>
      <feFlood flood-opacity="0.161"/>
      <feComposite operator="in" in2="blur-5"/>
      <feComposite in="SourceGraphic"/>
    </filter>
    <filter id="Rectángulo_33309-6" x="230.932" y="56.441" width="159.478" height="64.426" filterUnits="userSpaceOnUse">
      <feOffset dy="3" input="SourceAlpha"/>
      <feGaussianBlur stdDeviation="3" result="blur-6"/>
      <feFlood flood-opacity="0.161"/>
      <feComposite operator="in" in2="blur-6"/>
      <feComposite in="SourceGraphic"/>
    </filter>
    <filter id="Rectángulo_33309-7" x="381.243" y="56.441" width="159.478" height="64.426" filterUnits="userSpaceOnUse">
      <feOffset dy="3" input="SourceAlpha"/>
      <feGaussianBlur stdDeviation="3" result="blur-7"/>
      <feFlood flood-opacity="0.161"/>
      <feComposite operator="in" in2="blur-7"/>
      <feComposite in="SourceGraphic"/>
    </filter>
  </defs>
  <g id="img11" transform="translate(5711 4705.035)">
    <g id="Grupo_121107" data-name="Grupo 121107" transform="translate(-6426.065 -5123.259)">
      <g id="Grupo_91882" data-name="Grupo 91882" transform="translate(716.989 417.022)">
        <g transform="matrix(1, 0, 0, 1, -1.92, 1.2)" filter="url(#Rectángulo_33309)">
          <rect id="Rectángulo_33309-8" data-name="Rectángulo 33309" width="141.478" height="46.426" rx="5" transform="translate(9 6)" fill="url(#linear-gradient)"/>
        </g>
      </g>
      <path id="Trazado_158801" data-name="Trazado 158801" d="M-31.19,0h-2.49V-5.18h-4.856V0h-2.49V-12.086h2.49v4.9h4.856v-4.9h2.49Zm6.151.166a4.409,4.409,0,0,1-3.217-1.212A4.308,4.308,0,0,1-29.5-4.275v-.232a5.426,5.426,0,0,1,.523-2.42,3.838,3.838,0,0,1,1.482-1.644A4.159,4.159,0,0,1-25.3-9.147a3.727,3.727,0,0,1,2.9,1.162,4.722,4.722,0,0,1,1.058,3.3v.979h-5.719a2.229,2.229,0,0,0,.7,1.411,2.12,2.12,0,0,0,1.482.531,2.589,2.589,0,0,0,2.167-1l1.179,1.32A3.6,3.6,0,0,1-23-.261,4.793,4.793,0,0,1-25.039.166Zm-.274-7.379a1.5,1.5,0,0,0-1.158.484,2.5,2.5,0,0,0-.569,1.384H-23.7v-.192a1.786,1.786,0,0,0-.432-1.238A1.547,1.547,0,0,0-25.313-7.213ZM-11.9-4.408a5.387,5.387,0,0,1-.942,3.324A3.021,3.021,0,0,1-15.385.166a2.8,2.8,0,0,1-2.2-.946V3.453h-2.4V-8.981h2.225l.083.88A2.819,2.819,0,0,1-15.4-9.147a3.041,3.041,0,0,1,2.582,1.229A5.532,5.532,0,0,1-11.9-4.532Zm-2.4-.174a3.535,3.535,0,0,0-.444-1.934A1.446,1.446,0,0,0-16.033-7.2a1.571,1.571,0,0,0-1.552.863v3.677a1.6,1.6,0,0,0,1.569.888Q-14.3-1.768-14.3-4.582ZM-5.209,0a2.664,2.664,0,0,1-.241-.805A2.9,2.9,0,0,1-7.716.166,3.189,3.189,0,0,1-9.9-.6a2.456,2.456,0,0,1-.867-1.926A2.538,2.538,0,0,1-9.712-4.715a5.222,5.222,0,0,1,3.059-.772h1.1V-6a1.48,1.48,0,0,0-.32-1,1.257,1.257,0,0,0-1.009-.374,1.429,1.429,0,0,0-.95.291.987.987,0,0,0-.344.8h-2.4a2.41,2.41,0,0,1,.481-1.444A3.182,3.182,0,0,1-8.728-8.77a4.961,4.961,0,0,1,1.976-.378,3.92,3.92,0,0,1,2.635.834,2.918,2.918,0,0,1,.975,2.345v3.893A4.294,4.294,0,0,0-2.785-.141V0ZM-7.193-1.668a2.066,2.066,0,0,0,.979-.237,1.554,1.554,0,0,0,.664-.635V-4.084h-.9q-1.8,0-1.917,1.245l-.008.141a.96.96,0,0,0,.315.739A1.225,1.225,0,0,0-7.193-1.668Zm8.766-9.521v2.208H3.109v1.76H1.573v4.482a1.07,1.07,0,0,0,.191.714.959.959,0,0,0,.73.216A3.826,3.826,0,0,0,3.2-1.868V-.05A4.939,4.939,0,0,1,1.747.166,2.29,2.29,0,0,1-.826-2.382V-7.222H-2.137v-1.76H-.826v-2.208ZM6.977,0H4.57V-8.981H6.977ZM4.428-11.306a1.181,1.181,0,0,1,.361-.888,1.356,1.356,0,0,1,.984-.349,1.36,1.36,0,0,1,.979.349,1.175,1.175,0,0,1,.365.888,1.178,1.178,0,0,1-.369.9,1.363,1.363,0,0,1-.975.349,1.363,1.363,0,0,1-.975-.349A1.178,1.178,0,0,1,4.428-11.306Zm7.4.116v2.208H13.36v1.76H11.824v4.482a1.07,1.07,0,0,0,.191.714.959.959,0,0,0,.73.216,3.826,3.826,0,0,0,.706-.058V-.05A4.939,4.939,0,0,1,12,.166,2.29,2.29,0,0,1,9.426-2.382V-7.222H8.114v-1.76H9.426v-2.208ZM17.228,0H14.821V-8.981h2.407ZM14.68-11.306a1.181,1.181,0,0,1,.361-.888,1.356,1.356,0,0,1,.984-.349,1.36,1.36,0,0,1,.979.349,1.175,1.175,0,0,1,.365.888,1.178,1.178,0,0,1-.369.9,1.363,1.363,0,0,1-.975.349,1.363,1.363,0,0,1-.975-.349A1.178,1.178,0,0,1,14.68-11.306Zm9.388,8.824a.773.773,0,0,0-.436-.693,4.95,4.95,0,0,0-1.4-.452q-3.2-.672-3.2-2.723a2.468,2.468,0,0,1,.992-2,4,4,0,0,1,2.594-.8,4.307,4.307,0,0,1,2.735.805A2.538,2.538,0,0,1,26.376-6.25h-2.4a1.161,1.161,0,0,0-.332-.851,1.405,1.405,0,0,0-1.038-.336,1.436,1.436,0,0,0-.938.274.865.865,0,0,0-.332.7.739.739,0,0,0,.378.643,3.885,3.885,0,0,0,1.274.423A10.407,10.407,0,0,1,24.5-5a2.482,2.482,0,0,1,1.9,2.416A2.343,2.343,0,0,1,25.346-.594a4.548,4.548,0,0,1-2.723.76,4.75,4.75,0,0,1-2-.4,3.363,3.363,0,0,1-1.374-1.1,2.565,2.565,0,0,1-.5-1.515h2.274a1.252,1.252,0,0,0,.473.979,1.877,1.877,0,0,0,1.179.34A1.737,1.737,0,0,0,23.715-1.8.814.814,0,0,0,24.068-2.482ZM32.336,0V-12.086h4.233a5.559,5.559,0,0,1,3.337.843,2.881,2.881,0,0,1,1.137,2.469,2.731,2.731,0,0,1-.457,1.565,2.637,2.637,0,0,1-1.27.992,2.551,2.551,0,0,1,1.465.938,2.773,2.773,0,0,1,.535,1.727A3.19,3.19,0,0,1,40.2-.913,5.007,5.007,0,0,1,37.034,0Zm2.49-5.263V-2h2.133a2.059,2.059,0,0,0,1.374-.419,1.437,1.437,0,0,0,.494-1.158,1.518,1.518,0,0,0-1.718-1.685Zm0-1.76h1.843q1.884-.033,1.884-1.5a1.388,1.388,0,0,0-.477-1.183,2.51,2.51,0,0,0-1.507-.361H34.826Z" transform="translate(794.902 452.641)" fill="#12263f"/>
      <rect id="Rectángulo_34120" data-name="Rectángulo 34120" width="99" height="4" transform="translate(745.065 467.153)" fill="#b42218"/>
    </g>
    <g id="Grupo_121108" data-name="Grupo 121108" transform="translate(-5973.036 -5179.701)">
      <g id="Grupo_91890" data-name="Grupo 91890" transform="translate(716.989 473.464)">
        <g transform="matrix(1, 0, 0, 1, -454.95, 1.2)" filter="url(#Rectángulo_33309-2)">
          <rect id="Rectángulo_33309-9" data-name="Rectángulo 33309" width="141.478" height="46.426" rx="5" transform="translate(462.03 6)" fill="url(#linear-gradient)"/>
        </g>
      </g>
      <path id="Trazado_158804" data-name="Trazado 158804" d="M-49.763-10.069h-3.7V0h-2.49V-10.069h-3.652v-2.017h9.845Zm5.769,3.337a6.517,6.517,0,0,0-.863-.066,1.757,1.757,0,0,0-1.785.921V0h-2.4V-8.981h2.266l.066,1.071a2.223,2.223,0,0,1,2-1.237,2.514,2.514,0,0,1,.747.108ZM-40.309,0h-2.407V-8.981h2.407Zm-2.548-11.306a1.181,1.181,0,0,1,.361-.888,1.356,1.356,0,0,1,.984-.349,1.36,1.36,0,0,1,.979.349,1.175,1.175,0,0,1,.365.888,1.178,1.178,0,0,1-.369.9,1.363,1.363,0,0,1-.975.349,1.363,1.363,0,0,1-.975-.349A1.178,1.178,0,0,1-42.857-11.306Zm12.609,6.9a5.387,5.387,0,0,1-.942,3.324A3.021,3.021,0,0,1-33.734.166a2.8,2.8,0,0,1-2.2-.946V3.453h-2.4V-8.981h2.225l.083.88a2.819,2.819,0,0,1,2.274-1.046,3.041,3.041,0,0,1,2.582,1.229,5.532,5.532,0,0,1,.921,3.387Zm-2.4-.174a3.535,3.535,0,0,0-.444-1.934A1.446,1.446,0,0,0-34.382-7.2a1.571,1.571,0,0,0-1.552.863v3.677a1.6,1.6,0,0,0,1.569.888Q-32.647-1.768-32.647-4.582ZM-26.23,0h-2.407V-12.75h2.407Zm6.109.166a4.409,4.409,0,0,1-3.217-1.212,4.308,4.308,0,0,1-1.241-3.229v-.232a5.426,5.426,0,0,1,.523-2.42,3.838,3.838,0,0,1,1.482-1.644,4.159,4.159,0,0,1,2.187-.577,3.727,3.727,0,0,1,2.9,1.162,4.722,4.722,0,0,1,1.058,3.3v.979h-5.719a2.229,2.229,0,0,0,.7,1.411,2.12,2.12,0,0,0,1.482.531,2.589,2.589,0,0,0,2.167-1l1.179,1.32A3.6,3.6,0,0,1-18.079-.261,4.793,4.793,0,0,1-20.121.166ZM-20.4-7.213a1.5,1.5,0,0,0-1.158.484,2.5,2.5,0,0,0-.569,1.384h3.337v-.192a1.786,1.786,0,0,0-.432-1.238A1.547,1.547,0,0,0-20.4-7.213ZM-6.209-3l2.739-9.089H-.7L-4.906,0H-7.5L-11.7-12.086h2.764ZM2.814,0H.407V-8.981H2.814ZM.266-11.306a1.181,1.181,0,0,1,.361-.888,1.356,1.356,0,0,1,.984-.349,1.36,1.36,0,0,1,.979.349,1.175,1.175,0,0,1,.365.888,1.178,1.178,0,0,1-.369.9,1.363,1.363,0,0,1-.975.349,1.363,1.363,0,0,1-.975-.349A1.178,1.178,0,0,1,.266-11.306ZM9.836-6.732A6.517,6.517,0,0,0,8.973-6.8a1.757,1.757,0,0,0-1.785.921V0H4.79V-8.981H7.056l.066,1.071a2.223,2.223,0,0,1,2-1.237,2.514,2.514,0,0,1,.747.108ZM15.946,0a2.664,2.664,0,0,1-.241-.805,2.9,2.9,0,0,1-2.266.971A3.189,3.189,0,0,1,11.252-.6a2.456,2.456,0,0,1-.867-1.926,2.538,2.538,0,0,1,1.058-2.191A5.222,5.222,0,0,1,14.5-5.487h1.1V-6a1.48,1.48,0,0,0-.32-1,1.257,1.257,0,0,0-1.009-.374,1.429,1.429,0,0,0-.95.291.987.987,0,0,0-.344.8h-2.4a2.41,2.41,0,0,1,.481-1.444A3.182,3.182,0,0,1,12.426-8.77,4.961,4.961,0,0,1,14.4-9.147a3.92,3.92,0,0,1,2.635.834,2.918,2.918,0,0,1,.975,2.345v3.893A4.294,4.294,0,0,0,18.37-.141V0ZM13.962-1.668a2.066,2.066,0,0,0,.979-.237,1.554,1.554,0,0,0,.664-.635V-4.084h-.9q-1.8,0-1.917,1.245l-.008.141a.96.96,0,0,0,.315.739A1.225,1.225,0,0,0,13.962-1.668ZM22.387,0H19.98V-12.75h2.407ZM35.021-3.171a1.278,1.278,0,0,0-.5-1.083,6.533,6.533,0,0,0-1.793-.8,12.71,12.71,0,0,1-2.05-.826,3.35,3.35,0,0,1-2.059-3,2.919,2.919,0,0,1,.552-1.747,3.6,3.6,0,0,1,1.585-1.2,5.967,5.967,0,0,1,2.32-.432,5.432,5.432,0,0,1,2.308.469,3.674,3.674,0,0,1,1.573,1.324,3.464,3.464,0,0,1,.56,1.942h-2.49a1.63,1.63,0,0,0-.523-1.291,2.15,2.15,0,0,0-1.469-.461,2.3,2.3,0,0,0-1.419.386,1.217,1.217,0,0,0-.506,1.017,1.166,1.166,0,0,0,.594.988,6.705,6.705,0,0,0,1.747.747,7.55,7.55,0,0,1,3.1,1.585,3.157,3.157,0,0,1,.971,2.357A2.909,2.909,0,0,1,36.333-.726a5.2,5.2,0,0,1-3.2.892,6.171,6.171,0,0,1-2.54-.51,4.019,4.019,0,0,1-1.747-1.4,3.582,3.582,0,0,1-.6-2.059h2.5q0,2,2.391,2a2.326,2.326,0,0,0,1.386-.361A1.175,1.175,0,0,0,35.021-3.171Zm8.658-1.253H41.695V0H39.2V-12.086H43.7a5.076,5.076,0,0,1,3.3.955,3.3,3.3,0,0,1,1.162,2.7,3.718,3.718,0,0,1-.535,2.063A3.651,3.651,0,0,1,46-5.055L48.618-.116V0H45.945ZM41.695-6.441H43.7a2.057,2.057,0,0,0,1.453-.477,1.706,1.706,0,0,0,.515-1.316,1.826,1.826,0,0,0-.486-1.345,2.018,2.018,0,0,0-1.49-.49h-2ZM52.544-4.258V0h-2.49V-12.086h4.715a5.455,5.455,0,0,1,2.395.5,3.67,3.67,0,0,1,1.59,1.415,3.946,3.946,0,0,1,.556,2.088,3.47,3.47,0,0,1-1.216,2.8,5.065,5.065,0,0,1-3.366,1.025Zm0-2.017h2.225a2.187,2.187,0,0,0,1.507-.465,1.691,1.691,0,0,0,.519-1.328A1.994,1.994,0,0,0,56.271-9.5a1.953,1.953,0,0,0-1.444-.564H52.544Z" transform="translate(794.902 509.143)" fill="#12263f"/>
      <rect id="Rectángulo_34123" data-name="Rectángulo 34123" width="99" height="4" transform="translate(745.065 523.595)" fill="#b42218"/>
    </g>
    <g id="Grupo_121109" data-name="Grupo 121109" transform="translate(-6426.065 -5123.259)">
      <g id="Grupo_91888" data-name="Grupo 91888" transform="translate(868.348 417.022)">
        <g transform="matrix(1, 0, 0, 1, -153.28, 1.2)" filter="url(#Rectángulo_33309-3)">
          <rect id="Rectángulo_33309-10" data-name="Rectángulo 33309" width="141.478" height="46.426" rx="5" transform="translate(160.36 6)" fill="url(#linear-gradient)"/>
        </g>
      </g>
      <path id="Trazado_158802" data-name="Trazado 158802" d="M-16.672-10.069h-3.7V0h-2.49V-10.069h-3.652v-2.017h9.845Zm5.4,10.235a4.409,4.409,0,0,1-3.217-1.212,4.308,4.308,0,0,1-1.241-3.229v-.232a5.426,5.426,0,0,1,.523-2.42,3.838,3.838,0,0,1,1.482-1.644,4.159,4.159,0,0,1,2.187-.577,3.727,3.727,0,0,1,2.9,1.162,4.722,4.722,0,0,1,1.058,3.3v.979H-13.3A2.229,2.229,0,0,0-12.6-2.3a2.12,2.12,0,0,0,1.482.531,2.589,2.589,0,0,0,2.167-1l1.179,1.32A3.6,3.6,0,0,1-9.235-.261,4.793,4.793,0,0,1-11.277.166Zm-.274-7.379a1.5,1.5,0,0,0-1.158.484,2.5,2.5,0,0,0-.569,1.384H-9.94v-.192a1.786,1.786,0,0,0-.432-1.238A1.547,1.547,0,0,0-11.551-7.213Zm8.2-3.976v2.208h1.536v1.76H-3.349v4.482a1.07,1.07,0,0,0,.191.714.959.959,0,0,0,.73.216,3.826,3.826,0,0,0,.706-.058V-.05A4.939,4.939,0,0,1-3.175.166,2.29,2.29,0,0,1-5.748-2.382V-7.222H-7.06v-1.76h1.312v-2.208ZM4.727,0a2.664,2.664,0,0,1-.241-.805A2.9,2.9,0,0,1,2.22.166,3.189,3.189,0,0,1,.033-.6,2.456,2.456,0,0,1-.834-2.523,2.538,2.538,0,0,1,.224-4.715a5.222,5.222,0,0,1,3.059-.772h1.1V-6a1.48,1.48,0,0,0-.32-1,1.257,1.257,0,0,0-1.009-.374,1.429,1.429,0,0,0-.95.291.987.987,0,0,0-.344.8h-2.4A2.41,2.41,0,0,1-.154-7.728,3.182,3.182,0,0,1,1.208-8.77a4.961,4.961,0,0,1,1.976-.378,3.92,3.92,0,0,1,2.635.834,2.918,2.918,0,0,1,.975,2.345v3.893A4.294,4.294,0,0,0,7.151-.141V0ZM2.743-1.668a2.066,2.066,0,0,0,.979-.237,1.554,1.554,0,0,0,.664-.635V-4.084h-.9q-1.8,0-1.917,1.245L1.565-2.7a.96.96,0,0,0,.315.739A1.225,1.225,0,0,0,2.743-1.668Zm8.1-7.313.075,1.038a3.136,3.136,0,0,1,2.582-1.2,2.606,2.606,0,0,1,2.125.838A3.912,3.912,0,0,1,16.34-5.8V0h-2.4V-5.744a1.556,1.556,0,0,0-.332-1.108,1.486,1.486,0,0,0-1.1-.344,1.65,1.65,0,0,0-1.519.863V0h-2.4V-8.981Zm6.939,4.408A5.327,5.327,0,0,1,18.3-6.956a3.768,3.768,0,0,1,1.482-1.619,4.323,4.323,0,0,1,2.245-.573,4.09,4.09,0,0,1,2.968,1.112,4.464,4.464,0,0,1,1.282,3.021l.017.614a4.694,4.694,0,0,1-1.154,3.316,4.011,4.011,0,0,1-3.1,1.249,4.031,4.031,0,0,1-3.1-1.245,4.777,4.777,0,0,1-1.158-3.387Zm2.4.17a3.357,3.357,0,0,0,.481,1.958,1.588,1.588,0,0,0,1.378.678A1.592,1.592,0,0,0,23.4-2.437a3.674,3.674,0,0,0,.49-2.141,3.324,3.324,0,0,0-.49-1.945,1.592,1.592,0,0,0-1.378-.69,1.566,1.566,0,0,0-1.361.686A3.735,3.735,0,0,0,20.183-4.4Z" transform="translate(946.902 452.641)" fill="#12263f"/>
      <rect id="Rectángulo_34121" data-name="Rectángulo 34121" width="99" height="4" transform="translate(896.424 467.153)" fill="#b42218"/>
    </g>
    <g id="Grupo_121110" data-name="Grupo 121110" transform="translate(-6496.804 -5123.259)">
      <g id="Grupo_91891" data-name="Grupo 91891" transform="translate(868.348 473.464)">
        <g transform="matrix(1, 0, 0, 1, -82.54, -55.24)" filter="url(#Rectángulo_33309-4)">
          <rect id="Rectángulo_33309-11" data-name="Rectángulo 33309" width="141.478" height="46.426" rx="5" transform="translate(89.62 62.44)" fill="url(#linear-gradient)"/>
        </g>
      </g>
      <path id="Trazado_158807" data-name="Trazado 158807" d="M-25.571-3l2.739-9.089h2.772L-24.267,0h-2.6l-4.192-12.086h2.764Zm11.314,3A2.664,2.664,0,0,1-14.5-.805a2.9,2.9,0,0,1-2.266.971A3.189,3.189,0,0,1-18.951-.6a2.456,2.456,0,0,1-.867-1.926A2.538,2.538,0,0,1-18.76-4.715,5.222,5.222,0,0,1-15.7-5.487h1.1V-6a1.48,1.48,0,0,0-.32-1,1.257,1.257,0,0,0-1.009-.374,1.429,1.429,0,0,0-.95.291.987.987,0,0,0-.344.8h-2.4a2.41,2.41,0,0,1,.481-1.444A3.182,3.182,0,0,1-17.776-8.77,4.961,4.961,0,0,1-15.8-9.147a3.92,3.92,0,0,1,2.635.834,2.918,2.918,0,0,1,.975,2.345v3.893a4.294,4.294,0,0,0,.357,1.934V0ZM-16.24-1.668a2.066,2.066,0,0,0,.979-.237A1.554,1.554,0,0,0-14.6-2.54V-4.084h-.9q-1.8,0-1.917,1.245l-.008.141a.96.96,0,0,0,.315.739A1.225,1.225,0,0,0-16.24-1.668ZM-5.3-6.732A6.517,6.517,0,0,0-6.163-6.8a1.757,1.757,0,0,0-1.785.921V0h-2.4V-8.981h2.266l.066,1.071a2.223,2.223,0,0,1,2-1.237,2.514,2.514,0,0,1,.747.108ZM-1.615,0H-4.022V-8.981h2.407ZM-4.163-11.306a1.181,1.181,0,0,1,.361-.888,1.356,1.356,0,0,1,.984-.349,1.36,1.36,0,0,1,.979.349,1.175,1.175,0,0,1,.365.888,1.178,1.178,0,0,1-.369.9,1.363,1.363,0,0,1-.975.349,1.363,1.363,0,0,1-.975-.349A1.178,1.178,0,0,1-4.163-11.306ZM4.1-1.768a1.573,1.573,0,0,0,1.079-.365A1.28,1.28,0,0,0,5.607-3.1h2.25a3.077,3.077,0,0,1-.5,1.673A3.286,3.286,0,0,1,6.018-.253a4.2,4.2,0,0,1-1.88.419A3.9,3.9,0,0,1,1.1-1.058,4.845,4.845,0,0,1-.012-4.441V-4.6a4.79,4.79,0,0,1,1.1-3.312,3.854,3.854,0,0,1,3.03-1.237,3.778,3.778,0,0,1,2.7.959A3.4,3.4,0,0,1,7.857-5.636H5.607a1.648,1.648,0,0,0-.432-1.139,1.439,1.439,0,0,0-1.1-.438A1.445,1.445,0,0,0,2.814-6.6,3.541,3.541,0,0,0,2.386-4.62v.249a3.586,3.586,0,0,0,.423,2A1.463,1.463,0,0,0,4.1-1.768ZM13.36.166a4.409,4.409,0,0,1-3.217-1.212A4.308,4.308,0,0,1,8.9-4.275v-.232a5.426,5.426,0,0,1,.523-2.42,3.838,3.838,0,0,1,1.482-1.644,4.159,4.159,0,0,1,2.187-.577A3.727,3.727,0,0,1,16-7.985a4.722,4.722,0,0,1,1.058,3.3v.979H11.335a2.229,2.229,0,0,0,.7,1.411,2.12,2.12,0,0,0,1.482.531,2.589,2.589,0,0,0,2.167-1l1.179,1.32A3.6,3.6,0,0,1,15.4-.261,4.793,4.793,0,0,1,13.36.166Zm-.274-7.379a1.5,1.5,0,0,0-1.158.484,2.5,2.5,0,0,0-.569,1.384H14.7v-.192a1.786,1.786,0,0,0-.432-1.238A1.547,1.547,0,0,0,13.086-7.213ZM20.947,0H18.54V-12.75h2.407Zm7.18,0a2.664,2.664,0,0,1-.241-.805A2.9,2.9,0,0,1,25.62.166,3.189,3.189,0,0,1,23.433-.6a2.456,2.456,0,0,1-.867-1.926,2.538,2.538,0,0,1,1.058-2.191,5.222,5.222,0,0,1,3.059-.772h1.1V-6a1.48,1.48,0,0,0-.32-1,1.257,1.257,0,0,0-1.009-.374,1.429,1.429,0,0,0-.95.291.987.987,0,0,0-.344.8h-2.4a2.41,2.41,0,0,1,.481-1.444A3.182,3.182,0,0,1,24.608-8.77a4.961,4.961,0,0,1,1.976-.378,3.92,3.92,0,0,1,2.635.834,2.918,2.918,0,0,1,.975,2.345v3.893a4.294,4.294,0,0,0,.357,1.934V0ZM26.143-1.668a2.066,2.066,0,0,0,.979-.237,1.554,1.554,0,0,0,.664-.635V-4.084h-.9q-1.8,0-1.917,1.245l-.008.141a.96.96,0,0,0,.315.739A1.225,1.225,0,0,0,26.143-1.668Z" transform="translate(946.902 509.143)" fill="#12263f"/>
      <rect id="Rectángulo_34124" data-name="Rectángulo 34124" width="99" height="4" transform="translate(896.424 523.595)" fill="#b42218"/>
    </g>
    <g id="Grupo_121111" data-name="Grupo 121111" transform="translate(-6426.065 -5123.259)">
      <g id="Grupo_91889" data-name="Grupo 91889" transform="translate(1018.659 417.022)">
        <g transform="matrix(1, 0, 0, 1, -303.59, 1.2)" filter="url(#Rectángulo_33309-5)">
          <rect id="Rectángulo_33309-12" data-name="Rectángulo 33309" width="141.478" height="46.426" rx="5" transform="translate(310.67 6)" fill="url(#linear-gradient)"/>
        </g>
      </g>
      <path id="Trazado_158803" data-name="Trazado 158803" d="M-31.614-4.026a4.277,4.277,0,0,1-1.44,3.071A5.058,5.058,0,0,1-36.478.166,4.548,4.548,0,0,1-40.134-1.4a6.416,6.416,0,0,1-1.332-4.3v-.739A7.245,7.245,0,0,1-40.852-9.5,4.6,4.6,0,0,1-39.1-11.542a4.918,4.918,0,0,1,2.652-.71,4.927,4.927,0,0,1,3.37,1.121A4.6,4.6,0,0,1-31.6-7.985h-2.49a2.524,2.524,0,0,0-.652-1.7,2.413,2.413,0,0,0-1.706-.527,2.116,2.116,0,0,0-1.864.892,5,5,0,0,0-.635,2.768v.913a5.352,5.352,0,0,0,.594,2.864,2.077,2.077,0,0,0,1.872.9,2.458,2.458,0,0,0,1.722-.527A2.381,2.381,0,0,0-34.1-4.026Zm11.563-1.743a7.3,7.3,0,0,1-.631,3.129A4.751,4.751,0,0,1-22.487-.564a4.994,4.994,0,0,1-2.694.73,5.028,5.028,0,0,1-2.681-.722,4.8,4.8,0,0,1-1.826-2.063A7.087,7.087,0,0,1-30.344-5.7v-.6A7.258,7.258,0,0,1-29.7-9.442a4.79,4.79,0,0,1,1.818-2.083,5,5,0,0,1,2.685-.726,5,5,0,0,1,2.685.726,4.79,4.79,0,0,1,1.818,2.083,7.237,7.237,0,0,1,.643,3.134Zm-2.523-.548a5.086,5.086,0,0,0-.681-2.889,2.218,2.218,0,0,0-1.942-.988,2.219,2.219,0,0,0-1.934.975,5.028,5.028,0,0,0-.689,2.86v.589A5.15,5.15,0,0,0-27.139-2.9,2.212,2.212,0,0,0-25.18-1.876a2.192,2.192,0,0,0,1.926-.984,5.12,5.12,0,0,0,.681-2.868ZM-13.958-3l2.739-9.089h2.772L-12.655,0h-2.6l-4.192-12.086h2.764Zm9.3,3h-2.49V-12.086h2.49Zm2.308,0V-12.086H1.365a5.647,5.647,0,0,1,2.851.718A5.007,5.007,0,0,1,6.18-9.326a6.3,6.3,0,0,1,.706,3.009v.556a6.316,6.316,0,0,1-.693,3A4.964,4.964,0,0,1,4.238-.73,5.69,5.69,0,0,1,1.39,0ZM.137-10.069V-2h1.2a2.7,2.7,0,0,0,2.233-.955,4.314,4.314,0,0,0,.789-2.731v-.639A4.382,4.382,0,0,0,3.6-9.118a2.7,2.7,0,0,0-2.233-.95Zm17.3,5.86H12.762V-6.143h4.673ZM29.323,0h-2.4V-9.247l-2.864.888V-10.31L29.065-12.1h.257ZM38.86-4.831a3.029,3.029,0,0,1-2.191.921A3.24,3.24,0,0,1,34.1-5.01a4.347,4.347,0,0,1-.963-2.968,4.63,4.63,0,0,1,.519-2.179A3.806,3.806,0,0,1,35.108-11.7a4.019,4.019,0,0,1,2.092-.552,3.844,3.844,0,0,1,2.125.6,3.929,3.929,0,0,1,1.444,1.718,6.169,6.169,0,0,1,.523,2.565v.888a6.991,6.991,0,0,1-1.5,4.748A5.68,5.68,0,0,1,35.531.108l-.589.008v-2l.531-.008Q38.6-2.034,38.86-4.831Zm-1.6-.913a1.678,1.678,0,0,0,1-.3,2,2,0,0,0,.635-.722v-.988a3.3,3.3,0,0,0-.465-1.893,1.443,1.443,0,0,0-1.245-.672A1.4,1.4,0,0,0,36-9.658,2.806,2.806,0,0,0,35.531-8a2.731,2.731,0,0,0,.452,1.623A1.474,1.474,0,0,0,37.258-5.744Z" transform="translate(1096.902 452.641)" fill="#12263f"/>
      <rect id="Rectángulo_34122" data-name="Rectángulo 34122" width="99" height="4" transform="translate(1046.736 467.153)" fill="#b42218"/>
    </g>
    <g id="Grupo_121112" data-name="Grupo 121112" transform="translate(-6496.804 -5123.259)">
      <g id="Grupo_91892" data-name="Grupo 91892" transform="translate(1018.659 473.464)">
        <g transform="matrix(1, 0, 0, 1, -232.86, -55.24)" filter="url(#Rectángulo_33309-6)">
          <rect id="Rectángulo_33309-13" data-name="Rectángulo 33309" width="141.478" height="46.426" rx="5" transform="translate(239.93 62.44)" fill="url(#linear-gradient)"/>
        </g>
      </g>
      <path id="Trazado_158806" data-name="Trazado 158806" d="M-48.643-4.939h-4.781V0h-2.49V-12.086h7.869v2.017h-5.379v3.121h4.781ZM-44.227,0h-2.407V-8.981h2.407Zm-2.548-11.306a1.181,1.181,0,0,1,.361-.888,1.356,1.356,0,0,1,.984-.349,1.36,1.36,0,0,1,.979.349,1.175,1.175,0,0,1,.365.888,1.178,1.178,0,0,1-.369.9,1.363,1.363,0,0,1-.975.349,1.363,1.363,0,0,1-.975-.349A1.178,1.178,0,0,1-46.775-11.306ZM-38.117.166a4.409,4.409,0,0,1-3.217-1.212,4.308,4.308,0,0,1-1.241-3.229v-.232a5.426,5.426,0,0,1,.523-2.42A3.838,3.838,0,0,1-40.57-8.571a4.159,4.159,0,0,1,2.187-.577,3.727,3.727,0,0,1,2.9,1.162,4.722,4.722,0,0,1,1.058,3.3v.979h-5.719a2.229,2.229,0,0,0,.7,1.411,2.12,2.12,0,0,0,1.482.531,2.589,2.589,0,0,0,2.167-1l1.179,1.32A3.6,3.6,0,0,1-36.075-.261,4.793,4.793,0,0,1-38.117.166Zm-.274-7.379a1.5,1.5,0,0,0-1.158.484,2.5,2.5,0,0,0-.569,1.384h3.337v-.192a1.786,1.786,0,0,0-.432-1.238A1.547,1.547,0,0,0-38.391-7.213Zm13.422,2.806a5.439,5.439,0,0,1-.921,3.366A3.052,3.052,0,0,1-28.463.166,2.8,2.8,0,0,1-30.8-.955L-30.9,0h-2.158V-12.75h2.4v4.574a2.732,2.732,0,0,1,2.183-.971A3.077,3.077,0,0,1-25.9-7.94a5.446,5.446,0,0,1,.934,3.4Zm-2.4-.174A3.573,3.573,0,0,0-27.8-6.57,1.46,1.46,0,0,0-29.086-7.2a1.582,1.582,0,0,0-1.577.938v3.544a1.6,1.6,0,0,0,1.594.946,1.481,1.481,0,0,0,1.527-1.146A5.909,5.909,0,0,0-27.368-4.582Zm8.923-2.15a6.517,6.517,0,0,0-.863-.066,1.757,1.757,0,0,0-1.785.921V0h-2.4V-8.981h2.266l.066,1.071a2.223,2.223,0,0,1,2-1.237,2.514,2.514,0,0,1,.747.108Zm5.288,6.9a4.409,4.409,0,0,1-3.217-1.212,4.308,4.308,0,0,1-1.241-3.229v-.232a5.426,5.426,0,0,1,.523-2.42A3.838,3.838,0,0,1-15.61-8.571a4.159,4.159,0,0,1,2.187-.577,3.727,3.727,0,0,1,2.9,1.162,4.722,4.722,0,0,1,1.058,3.3v.979h-5.719a2.229,2.229,0,0,0,.7,1.411A2.12,2.12,0,0,0-13-1.768a2.589,2.589,0,0,0,2.167-1l1.179,1.32A3.6,3.6,0,0,1-11.115-.261,4.793,4.793,0,0,1-13.157.166Zm-.274-7.379a1.5,1.5,0,0,0-1.158.484,2.5,2.5,0,0,0-.569,1.384h3.337v-.192a1.786,1.786,0,0,0-.432-1.238A1.547,1.547,0,0,0-13.431-7.213ZM1.336,0A2.664,2.664,0,0,1,1.1-.805,2.9,2.9,0,0,1-1.17.166,3.189,3.189,0,0,1-3.358-.6a2.456,2.456,0,0,1-.867-1.926A2.538,2.538,0,0,1-3.167-4.715,5.222,5.222,0,0,1-.108-5.487H1V-6a1.48,1.48,0,0,0-.32-1A1.257,1.257,0,0,0-.332-7.371a1.429,1.429,0,0,0-.95.291.987.987,0,0,0-.344.8h-2.4a2.41,2.41,0,0,1,.481-1.444A3.182,3.182,0,0,1-2.183-8.77,4.961,4.961,0,0,1-.208-9.147a3.92,3.92,0,0,1,2.635.834A2.918,2.918,0,0,1,3.4-5.968v3.893A4.294,4.294,0,0,0,3.76-.141V0ZM-.647-1.668a2.066,2.066,0,0,0,.979-.237A1.554,1.554,0,0,0,1-2.54V-4.084H.1q-1.8,0-1.917,1.245l-.008.141a.96.96,0,0,0,.315.739A1.225,1.225,0,0,0-.647-1.668ZM7.5-8.981l.075,1a3.156,3.156,0,0,1,2.582-1.17,2.4,2.4,0,0,1,2.382,1.37,3.084,3.084,0,0,1,2.7-1.37,2.679,2.679,0,0,1,2.175.851,3.911,3.911,0,0,1,.714,2.561V0H15.713V-5.728a1.71,1.71,0,0,0-.3-1.116A1.324,1.324,0,0,0,14.36-7.2a1.5,1.5,0,0,0-1.494,1.029L12.875,0h-2.4V-5.719a1.689,1.689,0,0,0-.307-1.129A1.337,1.337,0,0,0,9.123-7.2a1.555,1.555,0,0,0-1.478.847V0h-2.4V-8.981ZM25.168,0a2.664,2.664,0,0,1-.241-.805,2.9,2.9,0,0,1-2.266.971A3.189,3.189,0,0,1,20.474-.6a2.456,2.456,0,0,1-.867-1.926,2.538,2.538,0,0,1,1.058-2.191,5.222,5.222,0,0,1,3.059-.772h1.1V-6a1.48,1.48,0,0,0-.32-1A1.257,1.257,0,0,0,23.5-7.371a1.429,1.429,0,0,0-.95.291.987.987,0,0,0-.344.8h-2.4a2.41,2.41,0,0,1,.481-1.444A3.182,3.182,0,0,1,21.648-8.77a4.961,4.961,0,0,1,1.976-.378,3.92,3.92,0,0,1,2.635.834,2.918,2.918,0,0,1,.975,2.345v3.893a4.294,4.294,0,0,0,.357,1.934V0ZM23.184-1.668a2.066,2.066,0,0,0,.979-.237,1.554,1.554,0,0,0,.664-.635V-4.084h-.9q-1.8,0-1.917,1.245l-.008.141a.96.96,0,0,0,.315.739A1.225,1.225,0,0,0,23.184-1.668Zm10.94-5.063a6.517,6.517,0,0,0-.863-.066,1.757,1.757,0,0,0-1.785.921V0h-2.4V-8.981h2.266l.066,1.071a2.223,2.223,0,0,1,2-1.237,2.514,2.514,0,0,1,.747.108ZM37.81,0H35.4V-8.981H37.81ZM35.262-11.306a1.181,1.181,0,0,1,.361-.888,1.356,1.356,0,0,1,.984-.349,1.36,1.36,0,0,1,.979.349,1.175,1.175,0,0,1,.365.888,1.178,1.178,0,0,1-.369.9,1.363,1.363,0,0,1-.975.349,1.363,1.363,0,0,1-.975-.349A1.178,1.178,0,0,1,35.262-11.306ZM42.317,0H39.91V-12.75h2.407Zm4.507,0H44.417V-12.75h2.407ZM54,0a2.664,2.664,0,0,1-.241-.805A2.9,2.9,0,0,1,51.5.166,3.189,3.189,0,0,1,49.311-.6a2.456,2.456,0,0,1-.867-1.926A2.538,2.538,0,0,1,49.5-4.715a5.222,5.222,0,0,1,3.059-.772h1.1V-6a1.48,1.48,0,0,0-.32-1,1.257,1.257,0,0,0-1.009-.374,1.429,1.429,0,0,0-.95.291.987.987,0,0,0-.344.8h-2.4a2.41,2.41,0,0,1,.481-1.444A3.182,3.182,0,0,1,50.485-8.77a4.961,4.961,0,0,1,1.976-.378,3.92,3.92,0,0,1,2.635.834,2.918,2.918,0,0,1,.975,2.345v3.893a4.294,4.294,0,0,0,.357,1.934V0ZM52.021-1.668A2.066,2.066,0,0,0,53-1.905a1.554,1.554,0,0,0,.664-.635V-4.084h-.9q-1.8,0-1.917,1.245l-.008.141a.96.96,0,0,0,.315.739A1.225,1.225,0,0,0,52.021-1.668Z" transform="translate(1096.902 509.143)" fill="#12263f"/>
      <rect id="Rectángulo_34125" data-name="Rectángulo 34125" width="99" height="4" transform="translate(1046.736 523.595)" fill="#b42218"/>
    </g>
    <g id="Grupo_121113" data-name="Grupo 121113" transform="translate(-6346.492 -5123.259)">
      <g id="Grupo_91892-2" data-name="Grupo 91892" transform="translate(1018.659 473.464)">
        <g transform="matrix(1, 0, 0, 1, -383.17, -55.24)" filter="url(#Rectángulo_33309-7)">
          <rect id="Rectángulo_33309-14" data-name="Rectángulo 33309" width="141.478" height="46.426" rx="5" transform="translate(390.24 62.44)" fill="url(#linear-gradient)"/>
        </g>
      </g>
      <path id="Trazado_158805" data-name="Trazado 158805" d="M-46.924-4.939h-4.781V0H-54.2V-12.086h7.869v2.017h-5.379v3.121h4.781ZM-42.508,0h-2.407V-8.981h2.407Zm-2.548-11.306a1.181,1.181,0,0,1,.361-.888,1.356,1.356,0,0,1,.984-.349,1.36,1.36,0,0,1,.979.349,1.175,1.175,0,0,1,.365.888,1.178,1.178,0,0,1-.369.9,1.363,1.363,0,0,1-.975.349,1.363,1.363,0,0,1-.975-.349A1.178,1.178,0,0,1-45.057-11.306ZM-36.4.166a4.409,4.409,0,0,1-3.217-1.212,4.308,4.308,0,0,1-1.241-3.229v-.232a5.426,5.426,0,0,1,.523-2.42,3.838,3.838,0,0,1,1.482-1.644,4.159,4.159,0,0,1,2.187-.577,3.727,3.727,0,0,1,2.9,1.162,4.722,4.722,0,0,1,1.058,3.3v.979h-5.719a2.229,2.229,0,0,0,.7,1.411,2.12,2.12,0,0,0,1.482.531,2.589,2.589,0,0,0,2.167-1l1.179,1.32A3.6,3.6,0,0,1-34.357-.261,4.793,4.793,0,0,1-36.4.166Zm-.274-7.379a1.5,1.5,0,0,0-1.158.484A2.5,2.5,0,0,0-38.4-5.346h3.337v-.192a1.786,1.786,0,0,0-.432-1.238A1.547,1.547,0,0,0-36.673-7.213ZM-23.25-4.408a5.439,5.439,0,0,1-.921,3.366A3.052,3.052,0,0,1-26.745.166,2.8,2.8,0,0,1-29.078-.955L-29.186,0h-2.158V-12.75h2.4v4.574a2.732,2.732,0,0,1,2.183-.971A3.077,3.077,0,0,1-24.184-7.94a5.446,5.446,0,0,1,.934,3.4Zm-2.4-.174a3.573,3.573,0,0,0-.432-1.988A1.46,1.46,0,0,0-27.368-7.2a1.582,1.582,0,0,0-1.577.938v3.544a1.6,1.6,0,0,0,1.594.946,1.481,1.481,0,0,0,1.527-1.146A5.909,5.909,0,0,0-25.649-4.582Zm8.923-2.15a6.517,6.517,0,0,0-.863-.066,1.757,1.757,0,0,0-1.785.921V0h-2.4V-8.981h2.266l.066,1.071a2.223,2.223,0,0,1,2-1.237,2.514,2.514,0,0,1,.747.108Zm5.288,6.9a4.409,4.409,0,0,1-3.217-1.212A4.308,4.308,0,0,1-15.9-4.275v-.232a5.426,5.426,0,0,1,.523-2.42,3.838,3.838,0,0,1,1.482-1.644A4.159,4.159,0,0,1-11.7-9.147,3.727,3.727,0,0,1-8.8-7.985a4.722,4.722,0,0,1,1.058,3.3v.979h-5.719a2.229,2.229,0,0,0,.7,1.411,2.12,2.12,0,0,0,1.482.531,2.589,2.589,0,0,0,2.167-1l1.179,1.32A3.6,3.6,0,0,1-9.4-.261,4.793,4.793,0,0,1-11.438.166Zm-.274-7.379a1.5,1.5,0,0,0-1.158.484,2.5,2.5,0,0,0-.569,1.384H-10.1v-.192a1.786,1.786,0,0,0-.432-1.238A1.547,1.547,0,0,0-11.712-7.213ZM.722-11.189v2.208H2.258v1.76H.722v4.482a1.07,1.07,0,0,0,.191.714.959.959,0,0,0,.73.216,3.826,3.826,0,0,0,.706-.058V-.05A4.939,4.939,0,0,1,.9.166,2.29,2.29,0,0,1-1.677-2.382V-7.222H-2.988v-1.76h1.312v-2.208ZM6.126,0H3.719V-8.981H6.126ZM3.578-11.306a1.181,1.181,0,0,1,.361-.888,1.356,1.356,0,0,1,.984-.349,1.36,1.36,0,0,1,.979.349,1.175,1.175,0,0,1,.365.888,1.178,1.178,0,0,1-.369.9,1.363,1.363,0,0,1-.975.349,1.363,1.363,0,0,1-.975-.349A1.178,1.178,0,0,1,3.578-11.306ZM8.757,0V-7.222H7.421v-1.76H8.757v-.764a3.1,3.1,0,0,1,.867-2.345,3.359,3.359,0,0,1,2.428-.834,5.608,5.608,0,0,1,1.22.166L13.248-10.9a3.058,3.058,0,0,0-.73-.075q-1.353,0-1.353,1.27v.722h1.785v1.76H11.165V0Zm5.063-4.574a5.327,5.327,0,0,1,.515-2.382,3.768,3.768,0,0,1,1.482-1.619,4.323,4.323,0,0,1,2.245-.573A4.09,4.09,0,0,1,21.03-8.035a4.464,4.464,0,0,1,1.282,3.021l.017.614a4.694,4.694,0,0,1-1.154,3.316,4.011,4.011,0,0,1-3.1,1.249,4.031,4.031,0,0,1-3.1-1.245,4.777,4.777,0,0,1-1.158-3.387Zm2.4.17A3.357,3.357,0,0,0,16.7-2.446a1.588,1.588,0,0,0,1.378.678,1.592,1.592,0,0,0,1.361-.669,3.674,3.674,0,0,0,.49-2.141,3.324,3.324,0,0,0-.49-1.945,1.592,1.592,0,0,0-1.378-.69,1.566,1.566,0,0,0-1.361.686A3.735,3.735,0,0,0,16.22-4.4ZM26.338,0H23.931V-8.981h2.407ZM23.79-11.306a1.181,1.181,0,0,1,.361-.888,1.356,1.356,0,0,1,.984-.349,1.36,1.36,0,0,1,.979.349,1.175,1.175,0,0,1,.365.888,1.178,1.178,0,0,1-.369.9,1.363,1.363,0,0,1-.975.349,1.363,1.363,0,0,1-.975-.349A1.178,1.178,0,0,1,23.79-11.306Zm4.15,6.749A5.413,5.413,0,0,1,28.883-7.9,3.057,3.057,0,0,1,31.46-9.147a2.751,2.751,0,0,1,2.167.979V-12.75h2.407V0H33.867l-.116-.955A2.823,2.823,0,0,1,31.443.166,3.049,3.049,0,0,1,28.9-1.083,5.587,5.587,0,0,1,27.94-4.557Zm2.4.179a3.546,3.546,0,0,0,.44,1.937,1.433,1.433,0,0,0,1.278.673,1.605,1.605,0,0,0,1.569-.939v-3.55A1.582,1.582,0,0,0,32.074-7.2Q30.339-7.2,30.339-4.379ZM42.027.166A4.409,4.409,0,0,1,38.81-1.046a4.308,4.308,0,0,1-1.241-3.229v-.232a5.426,5.426,0,0,1,.523-2.42,3.838,3.838,0,0,1,1.482-1.644,4.159,4.159,0,0,1,2.187-.577,3.727,3.727,0,0,1,2.9,1.162,4.722,4.722,0,0,1,1.058,3.3v.979H40A2.229,2.229,0,0,0,40.7-2.3a2.12,2.12,0,0,0,1.482.531,2.589,2.589,0,0,0,2.167-1l1.179,1.32A3.6,3.6,0,0,1,44.069-.261,4.793,4.793,0,0,1,42.027.166Zm-.274-7.379a1.5,1.5,0,0,0-1.158.484,2.5,2.5,0,0,0-.569,1.384h3.337v-.192a1.786,1.786,0,0,0-.432-1.238A1.547,1.547,0,0,0,41.753-7.213ZM52.287,0a2.664,2.664,0,0,1-.241-.805A2.9,2.9,0,0,1,49.78.166,3.189,3.189,0,0,1,47.593-.6a2.456,2.456,0,0,1-.867-1.926,2.538,2.538,0,0,1,1.058-2.191,5.222,5.222,0,0,1,3.059-.772h1.1V-6a1.48,1.48,0,0,0-.32-1,1.257,1.257,0,0,0-1.009-.374,1.429,1.429,0,0,0-.95.291.987.987,0,0,0-.344.8h-2.4a2.41,2.41,0,0,1,.481-1.444A3.182,3.182,0,0,1,48.767-8.77a4.961,4.961,0,0,1,1.976-.378,3.92,3.92,0,0,1,2.635.834,2.918,2.918,0,0,1,.975,2.345v3.893A4.294,4.294,0,0,0,54.71-.141V0ZM50.3-1.668a2.066,2.066,0,0,0,.979-.237,1.554,1.554,0,0,0,.664-.635V-4.084h-.9q-1.8,0-1.917,1.245l-.008.141a.96.96,0,0,0,.315.739A1.225,1.225,0,0,0,50.3-1.668Z" transform="translate(1096.902 509.143)" fill="#12263f"/>
      <rect id="Rectángulo_34125-2" data-name="Rectángulo 34125" width="99" height="4" transform="translate(1046.736 523.595)" fill="#b42218"/>
    </g>
  </g>
</svg>
