<svg xmlns="http://www.w3.org/2000/svg" width="72.074" height="212.125" viewBox="0 0 72.074 212.125">
  <g id="img15" transform="translate(-4136.572 -1481.417)">
    <g id="Grupo_103751" data-name="Grupo 103751" transform="translate(4136.572 1481.417)">
      <path id="Trazado_151088" data-name="Trazado 151088" d="M4172.2,1611.61c-.2,2.347-.456,4.692-.582,7.043q-1.52,28.611-2.982,57.224-.35,6.976-.36,13.967c-.007,2.535-1.307,3.625-3.579,3.641-8.016.056-16.033.106-24.046-.029-3.281-.055-4.351-2.215-2.878-5.178,1.664-3.347,4.521-5.306,7.761-6.935a3.643,3.643,0,0,0,1.906-2.451c.111-21.343.1-42.688.1-64.032a3.253,3.253,0,0,0-.124-.6c-7.225-1.822-7.908-7.838-8.922-13.8-2.894-17.019-1.265-34.192-1.9-51.286-.457-12.393,6.487-22.295,18.246-26.092,2.025-.654,2.669-1.655,2.526-3.573-.283-3.808-.38-7.636-.812-11.426-1-8.771,1.125-16.469,7.568-22.693,5.532-5.343,11.491-5.292,17,.083,6.505,6.349,8.487,14.165,7.458,23.012-.44,3.788-.494,7.62-.738,11.43-.111,1.734.636,2.58,2.353,3.139,12.277,4,18.6,13,18.448,25.805-.17,14.432-.216,28.866-.365,43.3-.013,1.238.685,2.917-1.441,3.406-.195.045-.115,1.133-.222,1.727-.692,3.894-1.068,7.887-2.212,11.646a6.751,6.751,0,0,1-6.644,4.951c-.05,1-.135,1.9-.136,2.811-.007,20.413.023,40.825-.05,61.237-.008,1.958.546,2.938,2.4,3.683a13.694,13.694,0,0,1,7.617,7.037c1.183,2.567.144,4.689-2.674,4.747-8.291.172-16.589.125-24.882.035-2.027-.022-3.066-1.251-3.164-3.46q-1.575-35.46-3.278-70.915c-.118-2.49-.383-4.974-.58-7.461Zm24.19,68.593V1552.8l1.006-.012v41.088h9.191c.17-2.634.452-5.117.472-7.6q.148-18.994.182-37.987c.041-12.06-6.4-20.755-18.071-24.115-2.117-.61-2.822-1.6-2.7-3.694q.505-8.366.8-16.746c.26-7.4-2.734-13.408-8.266-18.145-4.413-3.779-8.4-3.793-12.8-.044-5.451,4.651-8.516,10.544-8.312,17.842.164,5.864.475,11.725.794,17.583.1,1.79-.6,2.571-2.332,3.1-11.982,3.636-18.521,12.62-18.436,25.171q.135,19.708.331,39.416c.018,1.73.212,3.458.338,5.378a35.068,35.068,0,0,1,5.823.059c2.891.514,3.194-.846,3.178-3.222-.081-11.745-.037-23.49,0-35.235a19.5,19.5,0,0,1,.431-2.889l.9.109v127.295H4166.9c.391-6.85.8-13.53,1.15-20.213.81-15.354,1.54-30.713,2.466-46.06.092-1.528,1.369-4.276,2-4.247,2.269.1,2.1,2.466,2.19,4.132.843,15.352,1.59,30.709,2.394,46.063.354,6.762.771,13.522,1.167,20.385Zm-29.468,1.666c-5.814,0-11.293-.123-16.763.036-5.08.148-8.7,2.875-11.2,7.168-1.1,1.883-.288,2.908,1.68,2.923,8.009.062,16.02.088,24.026-.064a3.1,3.1,0,0,0,2.153-2.095A72.846,72.846,0,0,0,4166.919,1681.869Zm11.3.049a71.625,71.625,0,0,0,.1,7.894,3.114,3.114,0,0,0,2.141,2.12c8.007.154,16.019.126,24.029.068,1.951-.014,2.748-.979,1.722-2.918-2.056-3.883-5.373-6.612-9.535-7.016C4190.7,1681.485,4184.619,1681.917,4178.218,1681.917Zm-30.9-69.463c.315-1.988.389-3.308-1.4-4.916-1.571-1.41-1.894-4.21-2.768-6.4l1.132-.431c.429,1.026.854,2.053,1.288,3.077s.87,2.024,1.307,3.036l.579-.208V1595.5h-7.026C4138.888,1603.794,4141.833,1611.2,4147.317,1612.454Zm50.4-5.848.7.2,2.477-6.105,1.208.532c-.963,2.21-1.4,5-3.027,6.477-1.851,1.681-1.479,2.95-1.112,4.714,5.482-1.191,8.8-9.862,6.63-16.856h-6.874Z" transform="translate(-4136.571 -1481.417)" fill="#1d272b"/>
      <path id="Trazado_151089" data-name="Trazado 151089" d="M4192.866,1508.626c6.925.039,10.3,2.927,10.348,8.856.049,5.949-5.663,13.044-10.5,13.038-4.8-.006-10.532-7.143-10.483-13.054C4182.285,1511.424,4185.7,1508.585,4192.866,1508.626Zm8.811,8.032c-.013-3.656-2.235-5.86-6.619-6.562-5.493-.88-9.707.83-10.915,4.429-.03.088-.1.181-.089.262.2,1.36-.005,3.567.69,3.9,1.484.713,3.867,1.174,5.1.434,2.188-1.313,3.617-1.473,5.717.069C4197.989,1520.974,4201.685,1519.264,4201.677,1516.658Zm-.659,3.945c-2.71.743-5.313,1.049-7.6-1.027-.276-.252-1.043-.075-1.545.052-2.434.614-4.855,1.278-7.263,1.919,1.24,3.82,5.2,7.584,8.317,7.442S4200.023,1524.8,4201.018,1520.6Z" transform="translate(-4156.692 -1493.405)" fill="#1d272b"/>
      <path id="Trazado_151090" data-name="Trazado 151090" d="M4200.9,1570.025V1628.7C4199.564,1626.736,4199.29,1572.692,4200.9,1570.025Z" transform="translate(-4164.428 -1520.459)" fill="#1d272b"/>
      <path id="Trazado_151091" data-name="Trazado 151091" d="M4187.294,1556.1h15.033C4201.1,1558.863,4190.463,1559.083,4187.294,1556.1Z" transform="translate(-4158.921 -1514.326)" fill="#1d272b"/>
      <path id="Trazado_151092" data-name="Trazado 151092" d="M4200.825,1485.644v11.131l-.805.024c-.512-3.694-.192-7.414-.205-11.124Z" transform="translate(-4164.399 -1483.279)" fill="#1d272b"/>
    </g>
  </g>
</svg>
