<svg xmlns="http://www.w3.org/2000/svg" width="68.344" height="130.771" viewBox="0 0 68.344 130.771">
  <g id="img19" transform="translate(-5246.815 -978.001)">
    <path id="Trazado_151106" data-name="Trazado 151106" d="M5490.184,982.277V968.644c0-9.341-.018-18.682,0-28.023.019-7.43,4.4-10.385,10.719-7.769,1.51-2.09,2.734-4.292,4.466-5.971a5.808,5.808,0,0,1,4.061-1.061c3.838.28,5.633,2.656,6.521,8.033,7.04-2.9,11.549.342,11.67,7.722.5-.179.953-.32,1.389-.5,5.163-2.094,10.047.77,10.093,6.316.119,14.214,0,28.431-.1,42.646-.028,3.81-.183,7.637-.578,11.425-.664,6.372-3.991,11.48-8.448,15.82a6.048,6.048,0,0,0-2.065,4.837c.083,6.738.018,13.479.1,20.217a6.483,6.483,0,0,0,.873,2.856c1.6,2.933,1.5,5.345-1.339,7a31.327,31.327,0,0,1-28.58,1.739c-4.988-2.326-5.768-4.623-3.4-9.49a4.233,4.233,0,0,0,.455-1.771c.032-6.746.056-13.492-.029-20.238a3.4,3.4,0,0,0-1.081-2.345c-6.032-4.766-9.9-11.121-13.214-17.859-3.429-6.974-6.713-14.019-10.022-21.051a7.035,7.035,0,0,1,.736-7.893,5.826,5.826,0,0,1,6.66-2.195,11.451,11.451,0,0,1,4.63,3.354c2.127,2.5,3.874,5.327,5.78,8.017Zm36.756,67.566c-.534-2.048-1.223-3.479-1.229-4.915-.038-7.776.247-15.556.071-23.326-.051-2.307.307-3.84,2.127-5.337a24.174,24.174,0,0,0,8.943-17.79c.285-4.536-.037-9.108-.043-13.664-.015-12.243.05-24.487-.077-36.73-.015-1.5-.6-3.525-1.656-4.335-1.148-.875-3.6-1.325-4.7-.663a6.547,6.547,0,0,0-2.835,4.579c-.292,7.667-.109,15.352-.17,23.029a12.482,12.482,0,0,1-.706,2.859l-1.13-.229c-.068-1.1-.192-2.192-.194-3.288-.017-9.442,0-18.885-.029-28.326,0-1.231.163-2.8-.491-3.615-1.053-1.318-2.692-2.9-4.141-2.96s-3.266,1.359-4.348,2.622c-.733.854-.627,2.558-.634,3.884-.048,9.546-.012,19.091-.053,28.637a21.783,21.783,0,0,1-.493,3.251l-1.057-.032a25.887,25.887,0,0,1-.432-3.352c-.034-11.414-.021-22.828-.028-34.241a25.479,25.479,0,0,0-.1-3.728,4.568,4.568,0,0,0-4.971-4.117c-2.673.2-4.117,1.736-4.356,4.371-.1,1.133-.07,2.28-.071,3.421-.008,11.414,0,22.828-.041,34.241a23.1,23.1,0,0,1-.527,3.462l-1.212-.059a25.922,25.922,0,0,1-.445-3.369c-.037-10.169,0-20.337-.037-30.505-.012-3.922-2.412-6.123-5.791-5.347-3.025.694-3.64,2.963-3.635,5.694q.043,22.724-.02,45.446a8.628,8.628,0,0,1-.776,2.449,8.237,8.237,0,0,1-2.121-1.491c-2.639-3.592-5.115-7.3-7.764-10.89-1.609-2.179-3.657-3.463-6.42-1.848-2.3,1.343-2.953,3.853-1.561,6.812,3.7,7.873,7.376,15.764,11.3,23.525,2.918,5.767,6.571,11.035,11.877,14.995a4.1,4.1,0,0,1,1.127,2.917q.136,11.983.005,23.967c-.012,1.08-.7,2.152-1.273,3.78C5499.88,1056.046,5523.724,1056.062,5526.94,1049.843Z" transform="translate(-224 52.201)" fill="#1d272b"/>
  </g>
</svg>
