<svg xmlns="http://www.w3.org/2000/svg" width="103.443" height="93.435" viewBox="0 0 103.443 93.435">
  <g id="img18" transform="translate(-5021.227 -665.462)">
    <path id="Trazado_151096" data-name="Trazado 151096" d="M5120.339,701.072c5.725,11.454,5.919,23.391-.284,34.5,1.41,1.372,3.236,2.515,4,4.154.41.874-.789,2.767-1.639,3.92-2.943,3.991-4.911-.789-7.817-.853-11.328,11.07-25.441,16.171-41.483,16.1-15.982-.07-30.269-4.714-41.76-16.109-2.183.806-4.234,1.957-6.37,2.145-.8.071-1.948-2.013-2.677-3.266-1.347-2.315-1.125-2.586,3.738-5.771-6.383-11.425-6.3-23.055-.53-34.691-4.6-3.378-4.6-3.378-2.508-6.847,1.712-2.834,1.77-2.835,7.147-.187,9.489-7.578,19.049-15.031,28.4-22.733,9.37-7.715,18.508-8.015,28-.577q11.938,9.355,23.9,18.678a11.005,11.005,0,0,1,1.786,1.563c1.931,2.349,3.645,3.67,6.924,1.459,2.575-1.736,3.36,1.456,4.445,3.094,1.053,1.589.865,2.982-.906,3.984C5121.955,700.067,5121.221,700.537,5120.339,701.072Zm-92.929,1.29c-5.934,7.911-5.647,24.74.644,32.419,1.642-.691,3.357-2.158,5,.182,2.212,3.143,2.3,4.246.167,6.81,20.567,21.525,60.977,19.884,79.664-.341-3.507-1.715-1.439-3.785-.389-5.869,1.445-2.865,3.5-1.816,5.435-.786,6.755-9.159,6.111-24.647.478-32.507-1.891.6-3.8,2.765-5.679-.171-2.3-3.588-2.327-3.927.768-7a38.966,38.966,0,0,0-3.5-3.536c-8.771-6.913-17.483-13.91-26.471-20.532a21.363,21.363,0,0,0-8.664-3.418c-6.009-1.093-10.826,1.76-15.358,5.474-6.391,5.237-13.023,10.177-19.512,15.3-2.673,2.109-5.239,4.353-7.9,6.577,3.38,2.945,3.422,3.152,1.559,6.3C5032,704.058,5032,704.058,5027.41,702.362Zm-4.053-4.813,7.7,4.431,2.164-3.778-7.705-4.354Zm99.249.009c-.851-1.372-1.55-2.5-2.3-3.709l-7.617,4.378,2.177,3.729Zm-9.9,41.543,7.7,4.379,2.164-3.728-7.695-4.381Zm-79.469.007-2.251-3.719-7.611,4.382,2.173,3.7Z" fill="#1d272b"/>
    <path id="Trazado_151102" data-name="Trazado 151102" d="M5093.183,686.551a17.314,17.314,0,0,1,10.661,4.01c5.81,4.562,11.635,9.1,17.412,13.709.489.391.656,1.187.972,1.8-.691-.119-1.552-.014-2.045-.391-5.383-4.106-10.751-8.235-16.035-12.468-3.292-2.638-6.638-4.769-11.136-4.712-4.279.055-7.5,2.054-10.655,4.576-5.357,4.281-10.8,8.457-16.256,12.613-.483.368-1.329.259-2.007.372.325-.612.5-1.413,1-1.809,5.785-4.593,11.638-9.1,17.432-13.682A17.441,17.441,0,0,1,5093.183,686.551Z" transform="translate(-20.208 -9.942)" fill="#1d272b"/>
    <path id="Trazado_151103" data-name="Trazado 151103" d="M5097.9,793.168a12.1,12.1,0,0,1,2.181-.409c5.985-.034,11.971-.052,17.955.022a6.323,6.323,0,0,1,2.145.922c-.7.32-1.389.91-2.088.919-5.983.073-11.97.06-17.954.018a11.067,11.067,0,0,1-2.285-.5C5097.87,793.815,5097.887,793.492,5097.9,793.168Z" transform="translate(-36.124 -59.997)" fill="#1d272b"/>
    <path id="Trazado_151104" data-name="Trazado 151104" d="M5097.5,812.017h22.917C5118.416,813.864,5099.209,813.8,5097.5,812.017Z" transform="translate(-35.958 -69.09)" fill="#1d272b"/>
    <path id="Trazado_151105" data-name="Trazado 151105" d="M5112.344,803.831c-2.112,0-4.227.047-6.336-.04-.466-.019-.914-.517-1.369-.794.42-.328.837-.935,1.264-.942q6.467-.108,12.937,0c.427.007.843.624,1.265.958-.475.274-.939.765-1.424.786C5116.572,803.882,5114.457,803.832,5112.344,803.831Z" transform="translate(-39.323 -64.367)" fill="#1d272b"/>
  </g>
</svg>
