<svg xmlns="http://www.w3.org/2000/svg" xmlns:xlink="http://www.w3.org/1999/xlink" width="192.226" height="703.8" viewBox="0 0 192.226 703.8">
  <defs>
    <linearGradient id="linear-gradient" x1="0.5" x2="0.5" y2="1" gradientUnits="objectBoundingBox">
      <stop offset="0" stop-color="#fff"/>
      <stop offset="1" stop-color="#d2e6ee"/>
    </linearGradient>
  </defs>
  <g id="img14" transform="translate(-576.814 -198.281)">
    <g id="Grupo_121036" data-name="Grupo 121036" transform="translate(576.814 301.61)">
      <path id="Trazado_158690" data-name="Trazado 158690" d="M624.306,236.351c-1.719-3.609-12.978,32.787-12.978,32.787l-1.708-11.954-12.637-9.9s-6.148,7.514-7.514,12.637-15.027,66.258-12.3,75.821,1.366,30.4,15.028,38.593,28.006-16.052,34.495-23.566S631.137,250.7,624.306,236.351Z" transform="translate(-576.814 -236.099)" fill="#c1dee5"/>
      <path id="Trazado_158691" data-name="Trazado 158691" d="M590.451,249.682s-2.391,30.738.683,34.154-5.465,43.375-2.049,45.766,9.221-19.126,6.831-26.3,5.806,6.831,5.806-.342,3.757-36.2-11.612-54.646" transform="translate(-556.981 -214.935)" fill="#a7c6ce"/>
    </g>
    <g id="Grupo_121037" data-name="Grupo 121037" transform="translate(585.817 299.827)">
      <path id="Trazado_158692" data-name="Trazado 158692" d="M611.284,275.611c-.984-.219-4.59.82-8.607,1.284a20.122,20.122,0,0,1-8.005-.355c-11.394-3.415-14.563-11.858-14.563-11.858,3.5-3.661,13.006-29.235,13.006-29.235l10.492,2.131,4.59.929c-.382,2.35-.628,4.563-.792,6.667v.027a102.325,102.325,0,0,0,.191,15.82C607.9,265.72,613.88,276.13,611.284,275.611Z" transform="translate(-580.109 -235.446)" fill="#db8804"/>
      <path id="Trazado_158693" data-name="Trazado 158693" d="M598.58,237.155c-.383,2.35-.628,4.563-.792,6.667v.027a3.226,3.226,0,0,1-.519.3c-5.82,2.9-11.612-4.781-11.612-4.781l8.333-3.142Z" transform="translate(-570.5 -234.095)" fill="#f7b242"/>
      <path id="Trazado_158694" data-name="Trazado 158694" d="M601.568,263.067c-.984-.219-4.59.82-8.607,1.284-1.585-2.514-2.1-5.055-.956-7.432-2.049-3.279-6.284-13.361-6.284-13.361-.164-3.087,6.475,2.9,8.88,4.426a4.338,4.338,0,0,0,3.279.492C598.18,253.177,604.164,263.587,601.568,263.067Z" transform="translate(-570.393 -222.903)" fill="#f7b242"/>
    </g>
    <g id="Grupo_121038" data-name="Grupo 121038" transform="translate(581.595 252.299)">
      <path id="Trazado_158695" data-name="Trazado 158695" d="M621.679,243.554,617,257.983c-4.648,14.451-6.738,12.861-14.478,15.525-7.235,2.5-13.26-10.213-14.3-16.12-.915-4.986-10.017-14.1-9.653-18.426.145-1.746,1.363-.861,3.85,2.366a29.711,29.711,0,0,0,6.9,6.243c2.148-4.872-9.8-17.5-6.719-22.366,1.508-2.358,8.486,17.29,11.73,17.549,0,0,.945-1.7-1.7-11.607-1.511-5.691-3.12-11.538-1.691-12.817,2.612-2.312,3.719,10.156,10.148,22.825,0,0-.544-6.4-1.443-12.293-.847-5.38-2.2-10.32.232-10.467,1.992-.128,3.079,8.3,3.978,13.645a60.592,60.592,0,0,0,7.106,20.32,21.319,21.319,0,0,0,1.612,2.495C618.556,240.535,621.679,243.554,621.679,243.554Z" transform="translate(-578.564 -218.051)" fill="#db8804"/>
      <path id="Trazado_158696" data-name="Trazado 158696" d="M595.825,233.1s-6.115,2.71-7.317,7.675a8.254,8.254,0,0,1,5.7-10.17A21.319,21.319,0,0,0,595.825,233.1Z" transform="translate(-561.811 -196.299)" fill="#f7b242"/>
    </g>
    <g id="Grupo_121039" data-name="Grupo 121039" transform="translate(595.406 291.69)">
      <path id="Trazado_158697" data-name="Trazado 158697" d="M757.2,296.1a138.993,138.993,0,0,1-2.049,17.623q-1.393,8.115-3.279,16.148v.027a387.4,387.4,0,0,1-11.8,40.328c-2.732,7.9-5.41,16.339-9.426,23.689-1.8,3.306-4.945,6.2-5.41,10.055-.792,6.448,1.831,6.694-2.7,12.268-2.951,3.634-1.12,8.962.71,13.279.874,2.077,1.721,4.153,2.514,6.257,13.17,33.88,16.749,69.1,13.5,105.329-1.585,17.6-3.825,35.137-5.929,52.678-1.093,8.935-3.771,19.782-1.967,28.771,1.967,9.918-2.4,105.111-15.574,157.079a134.743,134.743,0,0,1-6.394,19.754l-20.847-.6s-9.1-115.685-9.563-161.2c-.3-31.175-6.585-72.788-10.519-95.93-1.831-10.683-3.142-17.459-3.142-17.459s5.027,71.476,5.027,87.433c0,15.929-4.563,34.154-4.563,34.154s10.027,110.193,6.831,159.374l-20.246,1.284-1.147.082s-.41-1.12-1.12-3.224c-1.94-5.6-6.2-18.224-11.2-34.755-.191-.6-.355-1.2-.519-1.749-.055-.164-.082-.3-.137-.464q-1.229-4.057-2.377-8.115c-1.093-3.689-2.159-7.4-3.2-11.12q-.7-2.5-1.393-5.082c-.519-1.776-.984-3.552-1.448-5.328-.929-3.552-1.885-7.186-2.814-10.847-2.323-9.181-4.563-18.689-6.585-28.252-.792-3.825-1.585-7.65-2.3-11.476-.383-1.913-.71-3.825-1.066-5.738-7.241-40.547-9.29-60.984-9.863-70.138a61.673,61.673,0,0,1-.164-6.366s-20.492-51.913-23.224-113.827c-1.53-34.645,6.339-59.618,13.607-74.864,5.683-12.022,10.984-18.033,10.984-18.033a.3.3,0,0,1-.055-.109c-.355-1.011-2.978-8.634-.847-9.918a17.2,17.2,0,0,0,1.721-1.175,23.986,23.986,0,0,0,2.377-2.022s-2.24-14.263-4.317-33.908c-3.852-36.2-7.158-90.63,5.246-107.378,9.181-12.432,26.831-10.355,32.3-9.426,1.585.273,5.656,2.377,10.656,5.219,12.213,6.967,29.891,18.443,29.891,18.443s24.508-4.454,38.307-2.951a26.465,26.465,0,0,1,4.044.683c12.3,3.2,23.224,9.563,28.689,30.52A39.566,39.566,0,0,1,757.2,296.1Z" transform="translate(-583.619 -232.468)" fill="url(#linear-gradient)"/>
      <path id="Trazado_158698" data-name="Trazado 158698" d="M678.117,250.138c-21.749,5.246-51.421,23.306-58.225,22.213-8.552-1.366-13.661-14.017-6.5-8.907,7.159,5.137,31.421-3.06,31.421-3.06s-24.263,1.694-29.727-7.869c-3.415-5.956-4.7-13.224-5.164-17.869,12.213,6.967,29.891,18.443,29.891,18.443S664.319,248.635,678.117,250.138Z" transform="translate(-538.059 -228.695)" fill="#c1dee5"/>
      <path id="Trazado_158699" data-name="Trazado 158699" d="M616.73,312.081c2.131.929-15.383,1.885-28.061-1.312,5.683-12.022,10.984-18.033,10.984-18.033S613.642,310.714,616.73,312.081Z" transform="translate(-574.87 -128.067)" fill="#c1dee5"/>
      <path id="Trazado_158700" data-name="Trazado 158700" d="M682.472,320.842c-2.077,1.475-55.684,39.263-88.253-9.426a23.986,23.986,0,0,0,2.377-2.022s-2.24-14.263-4.317-33.908c4.071,12.76,12.268,30.9,29.481,42.9C647.089,336.061,680.887,321.525,682.472,320.842Z" transform="translate(-568.616 -157.949)" fill="#c1dee5"/>
      <path id="Trazado_158701" data-name="Trazado 158701" d="M700.83,622.434a134.743,134.743,0,0,1-6.394,19.754l-20.847-.6s-9.1-115.685-9.563-161.2c-.3-31.175-6.585-72.788-10.519-95.93-1.831-10.683-3.142-17.459-3.142-17.459s5.027,71.476,5.027,87.433c0,15.929-4.563,34.154-4.563,34.154s10.027,110.193,6.831,159.374l-20.246,1.284a24.252,24.252,0,0,1-2.268-3.142c-6.12-9.809-8.607-25.192-11.2-34.755-.191-.6-.355-1.2-.519-1.749-.055-.164-.082-.3-.137-.464q-1.229-4.057-2.377-8.115c-1.093-3.689-2.159-7.4-3.2-11.12q-.7-2.5-1.393-5.082c-.519-1.776-.984-3.552-1.448-5.328-.984-3.607-1.913-7.213-2.814-10.847q-3.607-14.058-6.585-28.252c-.792-3.825-1.585-7.65-2.3-11.476-.383-1.913-.71-3.825-1.066-5.738-7.241-40.547-9.29-60.984-9.863-70.138,2.158,2.213,3.989,4.18,5.3,5.71,7.514,8.88,4.781,26.64,19.126,31.421s19.809-25.957,19.809-34.837-23.907-36.2-19.126-40.3,15.711-26.64,15.711-26.64-28.006,13.661-33.47,4.1,16.394-4.781,21.175-4.781,20.492-5.465,12.3-8.88-25.957-3.415-28.689-7.514,15.028-12.978,21.175-10.246c2.131.956-.9-1.175-1.284-1.53-2.76-2.459-6.12-4.372-9.044-6.612-4.262-3.279-8.935-6.53-12.049-10.984-1.476-2.131-5.629-11.2,1.065-8.8,1.667.574,3.006,1.94,4.727,2.268.82.164,1.667.109,2.486.273,3.115.71,4.29,4.645,6.995,6.284,2.022,1.23,4.563,1.011,6.885.765a9.323,9.323,0,0,0-3.689-3.661c-4.208-2.869-8.415-5.71-12.6-8.579-.027-.027-8.47-6.8-3.607-7.24,5.437-.492,10.055,4.071,15.437,4.945,4.426.738,9.044-1.093,13.443-.191a34.7,34.7,0,0,1,6.066,2.322c9.809,4.016,21.011,2.377,31.257-.383q-7.09,6.23-14.126,12.514c6.394-1.038,15.028-5.164,21.148-4.618-.465,8.825-17.787,18.579-24.427,23.224,6.175,2.131,13.333,3.689,18.88,6.94-4.481,5.3-6.366,10.82-7.077,17.9-2.131,21.148-4.208,43.006,2.268,63.225,1.749,5.547,4.153,10.929,5.027,16.667.9,6.12.027,12.4,1.147,18.5s5.137,12.4,11.284,13.2a5.55,5.55,0,0,1,2.678.656c2.377,1.694-.191,5.164-1.913,7.514-3.579,4.809-2.9,11.64-.3,17.022,2.6,5.355,6.8,9.754,10.328,14.563a8.721,8.721,0,0,1,2.022,4.344c.191,2.24-1.2,4.235-2.35,6.148-4.208,7.077-5.574,15.41-6.885,23.5-.492,3.142-1.011,6.394-.246,9.481.492,1.913,1.421,3.689,1.995,5.574,1.831,6.011-.219,12.569,1.011,18.743C693.4,611.423,697.988,616.559,700.83,622.434Z" transform="translate(-568.668 -75.273)" fill="#c1dee5"/>
      <path id="Trazado_158702" data-name="Trazado 158702" d="M687.369,257.817a138.993,138.993,0,0,1-2.049,17.623q-1.393,8.115-3.279,16.148v.027a387.4,387.4,0,0,1-11.8,40.328c-2.732,7.9-5.41,16.339-9.426,23.689-1.8,3.306-4.945,6.2-5.41,10.055-.792,6.448,1.831,6.694-2.7,12.268-2.951,3.634-1.12,8.962.71,13.279.874,2.077,1.721,4.153,2.514,6.257-1.967,3.169-3.989,5.055-6.011,5.3-17.077,2.049-18.443-8.88-9.563-13.661s10.246-16.394,10.246-16.394-15.028,10.929-21.858,10.929-9.235-11.612,12.623-26.64c16.093-11.038,30.711-87.925,45.083-102.46C686.8,255.632,687.1,256.725,687.369,257.817Z" transform="translate(-513.786 -194.188)" fill="#c1dee5"/>
    </g>
    <g id="Grupo_121040" data-name="Grupo 121040" transform="translate(648.878 826.293)">
      <path id="Trazado_158703" data-name="Trazado 158703" d="M648,484.109c-3.243-3.44-4.047-45.744-5.53-53.422,0,0-6.918-3.926-21.175-2.049-12.978,1.708-18.1,7.514-18.1,7.514,1.729,4.648,14.771,38.965,13.377,45.681-1.178,5.683-7.287,12.978-2.391,22.085h38.386S657.01,493.672,648,484.109Z" transform="translate(-603.189 -428.13)" fill="#db8804"/>
      <path id="Trazado_158704" data-name="Trazado 158704" d="M607.763,455.1s10.473-13.6,31.877-2.732c0,0,.91,9.563-9.109,7.741S614.594,465.576,607.763,455.1Z" transform="translate(-595.266 -393.431)" fill="#f7b242"/>
    </g>
    <g id="Grupo_121041" data-name="Grupo 121041" transform="translate(695.668 824.577)">
      <path id="Trazado_158705" data-name="Trazado 158705" d="M649.694,480.186c-2.661-3.489,5.921-42.088,6.481-47.044,0,0-4.443-3.732-15.027-5.123-12.978-1.708-20.834,1.366-20.834,1.366.953,5.937,4.514,48.167,3.421,55.812-2.276,15.9,3.634,19.809,3.634,19.809h38.386C676.725,486.754,654.183,486.071,649.694,480.186Z" transform="translate(-620.314 -427.502)" fill="#db8804"/>
      <path id="Trazado_158706" data-name="Trazado 158706" d="M624.718,454.352s12.749-12.56,32.88-.574c0,0-.093,7.4-10.112,5.582S631.549,464.824,624.718,454.352Z" transform="translate(-612.685 -390.963)" fill="#f7b242"/>
    </g>
    <g id="Grupo_121047" data-name="Grupo 121047" transform="translate(654.135 198.281)">
      <path id="Trazado_158707" data-name="Trazado 158707" d="M645.417,209.483c19.645.221,40.074,20.948,40.984,34.153s-11.839,50.094-38.252,48.727-42.083-41.214-40.735-53.279S625.155,209.257,645.417,209.483Z" transform="translate(-601.267 -178.879)" fill="#a7c6ce"/>
      <path id="Trazado_158708" data-name="Trazado 158708" d="M633.576,223.235s7.978-9.273,9.809.719c2.118,11.574-8.123,17.079-10.476,13.528S633.576,223.235,633.576,223.235Z" transform="translate(-558.516 -161.837)" fill="#ff8b66"/>
      <path id="Trazado_158709" data-name="Trazado 158709" d="M616.558,224.539s-9.29-7.956-9.585,2.194c-.344,11.762,10.612,15.656,12.4,11.787S616.558,224.539,616.558,224.539Z" transform="translate(-601.906 -157.931)" fill="#ff8b66"/>
      <path id="Trazado_158710" data-name="Trazado 158710" d="M645.736,288.6c19.156-1.459,29.014-14.793,26.156-52.32-1.473-19.358-12.227-30.481-33.683-28.847S608.62,221.624,610.1,240.983C613.164,281.308,625.946,290.106,645.736,288.6Z" transform="translate(-596.774 -182.705)" fill="#ff8b66"/>
      <path id="Trazado_158711" data-name="Trazado 158711" d="M612.693,226.317c-.191,1.951,1.634,3.724,4.074,3.962s4.571-1.153,4.76-3.1-1.634-3.724-4.074-3.962S612.881,224.366,612.693,226.317Z" transform="translate(-592.008 -155.137)" fill="#db614d"/>
      <path id="Trazado_158712" data-name="Trazado 158712" d="M627.151,226.278c.276,1.94,2.467,3.232,4.894,2.888s4.172-2.2,3.9-4.137-2.467-3.235-4.893-2.891S626.875,224.335,627.151,226.278Z" transform="translate(-566.987 -157.049)" fill="#db614d"/>
      <g id="Grupo_121042" data-name="Grupo 121042" transform="translate(26.931 45.544)">
        <path id="Trazado_158713" data-name="Trazado 158713" d="M615.522,220.358a.956.956,0,0,0,1.15-.262c2.44-2.981,7.12-3.224,7.167-3.224a.961.961,0,1,0-.085-1.921c-.227.011-5.59.29-8.568,3.932a.959.959,0,0,0,.137,1.35A.971.971,0,0,0,615.522,220.358Z" transform="translate(-614.97 -214.95)" fill="#0c476b"/>
      </g>
      <g id="Grupo_121043" data-name="Grupo 121043" transform="translate(54.68 43.986)">
        <path id="Trazado_158714" data-name="Trazado 158714" d="M625.681,216.255a.955.955,0,0,0,.505.085c.047-.005,4.716-.47,7.577,2.1a.96.96,0,1,0,1.284-1.426c-3.5-3.156-8.839-2.612-9.066-2.588a.96.96,0,0,0-.3,1.825Z" transform="translate(-625.126 -214.38)" fill="#0c476b"/>
      </g>
      <path id="Trazado_158715" data-name="Trazado 158715" d="M616.25,223.484c.183,2.38,1.4,4.227,2.721,4.123s2.246-2.109,2.066-4.486-1.4-4.227-2.721-4.126S616.07,221.1,616.25,223.484Z" transform="translate(-585.86 -162.406)" fill="#1a4850"/>
      <path id="Trazado_158716" data-name="Trazado 158716" d="M626.139,222.771c.18,2.38,1.4,4.227,2.719,4.126s2.249-2.112,2.066-4.489-1.4-4.227-2.721-4.126S625.956,220.391,626.139,222.771Z" transform="translate(-568.731 -163.641)" fill="#1a4850"/>
      <path id="Trazado_158717" data-name="Trazado 158717" d="M636.89,228.533s-11.8,2.577-18.186-.159c0,0,4.145,8.571,10.6,7.282A9.572,9.572,0,0,0,636.89,228.533Z" transform="translate(-581.57 -146.151)" fill="#1a4850"/>
      <path id="Trazado_158718" data-name="Trazado 158718" d="M625.934,224.017s-2.191-5.727-4.459-5.131-3.634,5.749-3.634,5.749l-3.538-1.544,3.435.186s1.374-5.369,3.648-5.552C624.623,217.463,625.934,224.017,625.934,224.017Z" transform="translate(-589.194 -164.611)" fill="#1a4850"/>
      <path id="Trazado_158719" data-name="Trazado 158719" d="M625.388,224.15s1.3-5.992,3.631-5.746,4.459,5.131,4.459,5.131l3.265-2.063-3.366.7s-2.172-5.1-4.445-4.937C625.688,217.473,625.388,224.15,625.388,224.15Z" transform="translate(-569.992 -165.444)" fill="#1a4850"/>
      <g id="Grupo_121044" data-name="Grupo 121044" transform="translate(42.39 64.997)">
        <path id="Trazado_158720" data-name="Trazado 158720" d="M623.186,230.4a5.986,5.986,0,0,0,1.393.445l.388-2.036c-1.732-.331-2.183-1.352-2.257-2.15a2.56,2.56,0,0,1,1.112-2.473q.537-.2,1.188.648l1.648-1.257c-1.443-1.893-2.989-1.555-3.59-1.32a4.549,4.549,0,0,0-2.421,4.59A4.245,4.245,0,0,0,623.186,230.4Z" transform="translate(-620.628 -222.069)" fill="#db614d"/>
      </g>
      <path id="Trazado_158721" data-name="Trazado 158721" d="M616.232,224.909l-2.4,9.656s-7.167-1.915-4.014-13.353S616.232,224.909,616.232,224.909Z" transform="translate(-598.35 -165.962)" fill="#0c476b"/>
      <path id="Trazado_158722" data-name="Trazado 158722" d="M643.953,213.833S620.671,255.7,608.39,249.981c0,0-3.265-44.793,32.287-44.793s42.593,20.014,42.487,39.834c0,0-4.967,7.331-9.366,6.29C673.8,251.312,679.317,214.675,643.953,213.833Z" transform="translate(-599.573 -186.315)" fill="#0c476b"/>
      <path id="Trazado_158723" data-name="Trazado 158723" d="M626.066,242.459s-15.94-9.79-18.787-25.331" transform="translate(-601.362 -165.632)" fill="none" stroke="#ffd5a2" stroke-linecap="round" stroke-miterlimit="10" stroke-width="0.5"/>
      <path id="Trazado_158724" data-name="Trazado 158724" d="M629.905,249.821s16.62-15.254,17.757-36.943" transform="translate(-562.167 -172.994)" fill="none" stroke="#ffd5a2" stroke-linecap="round" stroke-miterlimit="10" stroke-width="0.5"/>
      <path id="Trazado_158725" data-name="Trazado 158725" d="M611.216,231.284c6.32,22.372,49.864,33.927,58.744-4.156" transform="translate(-594.542 -148.309)" fill="none" stroke="#ffd5a2" stroke-linecap="round" stroke-miterlimit="10" stroke-width="0.5"/>
      <path id="Trazado_158726" data-name="Trazado 158726" d="M637.063,221.172c11.822-.754,24.361,10.473,25.957,17.987s-7.743,25.5-23,26.64c-14.115,1.055-26.866-15.711-26.866-23.678S626.36,221.855,637.063,221.172Z" transform="translate(-591.183 -158.689)" fill="#fff"/>
      <path id="Trazado_158727" data-name="Trazado 158727" d="M620.363,223.365s4.44-3.189,8.765-.342" transform="translate(-578.697 -157.467)" fill="none" stroke="#ffd5a2" stroke-linecap="round" stroke-linejoin="round" stroke-width="0.5"/>
      <path id="Trazado_158728" data-name="Trazado 158728" d="M612.331,222.246a5.714,5.714,0,0,0,.82.383.084.084,0,0,1-.054.027S612.8,222.492,612.331,222.246Z" transform="translate(-592.61 -156.766)" fill="#4ba6c6"/>
      <g id="Grupo_121045" data-name="Grupo 121045" transform="translate(5.624 47.237)">
        <path id="Trazado_158729" data-name="Trazado 158729" d="M632.155,219.165l.453,8.995a33.917,33.917,0,0,0,9.563-3.872c1.066-.7,3.189-6.374,2.62-7.514C644.792,216.774,640.805,219.05,632.155,219.165Z" transform="translate(-563.894 -213.482)" fill="#23687a"/>
        <path id="Trazado_158730" data-name="Trazado 158730" d="M616.916,218.973a61.59,61.59,0,0,1-9.448-1.366s-.8,5.238.227,7.4,8.995,3.3,8.995,3.3Z" transform="translate(-607.172 -212.039)" fill="#23687a"/>
        <path id="Trazado_158731" data-name="Trazado 158731" d="M668.081,230.181c-.082,2.049-6.23,5.383-8.661,5.574-2.432.219-10.465-7.459-18.825-7.623s-15.192,7.514-17.159,8.2a4.5,4.5,0,0,1-2.1-.137c-3.361-.792-9.044-3.47-9.754-4.481-.956-1.257-.629-12.76.765-12.978a229.2,229.2,0,0,1,24.754-2.3l2.323-.082c2.869-.082,5.574-.109,8.115-.109,10.929.027,18.47.765,19.536,1.038C669.119,217.8,668.163,228.131,668.081,230.181Z" transform="translate(-600.486 -214.397)" fill="#fff" opacity="0.25"/>
        <path id="Trazado_158732" data-name="Trazado 158732" d="M637.1,216.316,621.331,236.07c-3.361-.792-9.044-3.47-9.754-4.481-.956-1.257-.629-12.76.765-12.978A229.2,229.2,0,0,1,637.1,216.316Z" transform="translate(-600.486 -214.275)" fill="#fff" opacity="0.25"/>
        <path id="Trazado_158733" data-name="Trazado 158733" d="M634.681,216.246l-16.23,12.022s4.563-6.257,8.115-11.913C629.435,216.273,632.14,216.246,634.681,216.246Z" transform="translate(-587.633 -214.397)" fill="#fff" opacity="0.25"/>
        <path id="Trazado_158734" data-name="Trazado 158734" d="M669.781,218.074c-1.831-2.732-11.94-2.623-27.323-2.4-13.661.219-28.689,2.4-30.738,3.989-1.858,1.448-1.639,9.645-.765,13.2.027,0,.027,0,0,.027a8.658,8.658,0,0,0,.3.9c1.147,2.732,11.612,6.366,14.126,6.148,2.514-.246,7.978-8.579,16.612-9.126,9.235-.546,14.7,6.612,17.213,7.76,2.486,1.12,9.426-2.514,11.148-5.246.082-.137.164-.3.246-.464v-.027C671.994,229.577,671.5,220.67,669.781,218.074Zm-56.012,3.279c1.011-1.12,8.306-2.268,27.214-3.06,18.88-.792,26.175.464,26.968,1.257.71.683.9,8.06.464,10.465a1.789,1.789,0,0,1-.219.683c-.683.929-6.5,5.027-7.869,4.563s-8.771-7.186-18.224-6.94c-9.426.219-16.148,7.842-17.514,8.415-.9.383-5.055-1.148-7.924-2.541a5.714,5.714,0,0,1-.82-.383.027.027,0,0,0-.027-.027,6.152,6.152,0,0,1-1.94-1.257C613.3,231.49,612.813,222.419,613.769,221.353Z" transform="translate(-601.749 -215.569)" fill="#1d272b"/>
        <path id="Trazado_158735" data-name="Trazado 158735" d="M667.987,227.924a4.234,4.234,0,0,1-.683,1.148c.437-2.4.246-9.782-.464-10.465-.792-.792-8.088-2.049-26.968-1.257-18.907.792-26.2,1.94-27.214,3.06-.956,1.066-.464,10.137.109,11.175a5.27,5.27,0,0,1-1.257-1.148c-.792-1.148-.683-8.306-.109-10.246.464-1.557,9.563-3.525,28.361-3.989,18.771-.437,26.64.82,27.541,1.721S668.67,226.012,667.987,227.924Z" transform="translate(-600.638 -214.627)" fill="#4ba6c6"/>
        <path id="Trazado_158736" data-name="Trazado 158736" d="M670.187,223.7c-.082.164-.164.328-.246.464-1.721,2.732-8.661,6.366-11.148,5.246-2.514-1.148-7.978-8.306-17.213-7.76-8.634.546-14.1,8.88-16.612,9.126-2.514.219-12.978-3.415-14.126-6.148a8.658,8.658,0,0,1-.3-.9,7.626,7.626,0,0,0,2.814,2.7c2.623,1.257,10.246,3.88,11.394,3.306,1.12-.574,8.743-9.1,17.65-8.88,8.853.246,15.465,7.186,16.94,7.732C660.542,229.055,667.017,226.269,670.187,223.7Z" transform="translate(-601.335 -206.413)" fill="#4ba6c6"/>
      </g>
      <path id="Trazado_158737" data-name="Trazado 158737" d="M694.022,232.886c-3.415-4.454-2.4-9.918-7.514-16.394-5.109-6.5-23.252-19.454-40.3-18.115-17.432,1.366-12.623,8.552-22.186,11.94-9.563,3.443-16.066,22.9-14.7,25.629s-4.781,5.792-4.1,24.591a36.845,36.845,0,0,0,2.76,13.333c3.2,7.459,8.06,10.164,8.771,10.519a.339.339,0,0,1,.082.055c-.355,2.377,5.817,10.243,5.82,10.246-.213-.273-3.926,3.287-4.033,3.771-.582,2.683,3.2,4.995,4.893,6.85,2.169,2.377,3.618,5.309,5.5,7.921s4.429,5.019,7.607,5.525c2.557.407,5.117-.473,7.626-1.115,8.183-2.087,16.681-1.68,25.041-2.118,2.724-.145,11.14.281,13.118-1.792,2.3-2.4-1.989-5.175-4.093-6.746,2.049,0,2.732-13.333,5.82-15.028,3.06-1.694,9.563-16.722,10.929-22.186s0-11.967,2.022-15.028C699.158,251.656,697.437,237.312,694.022,232.886Zm-40.055,71.285a29.489,29.489,0,0,1-5.137.082,25.419,25.419,0,0,1-5.055-.929c-20.465-5.738-30.547-34.864-27.3-47.569,3.771-14.672,19.126-14.672,33.5-15.711,15-1.066,27.979,2.4,33.115,13.989C688.229,265.673,681.208,301.357,653.967,304.171Z" transform="translate(-605.016 -198.281)" fill="url(#linear-gradient)"/>
      <path id="Trazado_158738" data-name="Trazado 158738" d="M678.688,226.988c-6.612-18.443-16.4-12.525-35.52-13.88-31.49-2.235-36.441,15.454-34.391,29.361,2.049,13.883,14.582,28.017,14.582,28.017l-5.7-4.792s14.79,21.91,23.9,21.623c21.413-.675,30.82-15.757,33.479-21.85l-5.473,5.456S685.273,245.431,678.688,226.988Zm-30.274,51.831c-27.214,2.814-41.23-33.744-37.487-48.416,3.771-14.672,19.126-14.672,33.5-15.711,15-1.066,27.979,2.4,33.115,13.989C682.677,240.322,675.655,276.005,648.414,278.819Z" transform="translate(-599.464 -172.929)" fill="#c1dee5"/>
      <path id="Trazado_158739" data-name="Trazado 158739" d="M612.606,217.979s7.057-4.325,10.929-4.325,12.749.227,17.3-.23,11.612-1.137,16.167.683,7.514,2.962,7.514,2.962-11.842-7.743-20.492-7.06-12.751.683-16.394.683S615.338,213.2,612.606,217.979Z" transform="translate(-592.134 -178.038)" fill="#c1dee5"/>
      <path id="Trazado_158740" data-name="Trazado 158740" d="M637.282,218.732s1.6,10.246-1.593,19.126A16.372,16.372,0,0,0,637.282,218.732Z" transform="translate(-552.148 -162.854)" fill="#c1dee5"/>
      <path id="Trazado_158741" data-name="Trazado 158741" d="M615.039,244.191c-.71-.355-5.574-3.06-8.771-10.519a22.971,22.971,0,0,1,2.022-12.186s0,9.1,3.415,13.88A17.194,17.194,0,0,1,615.039,244.191Z" transform="translate(-603.302 -158.083)" fill="#c1dee5"/>
      <g id="Grupo_121046" data-name="Grupo 121046" transform="translate(0 105.043)">
        <path id="Trazado_158742" data-name="Trazado 158742" d="M647.534,242.956a1.163,1.163,0,0,0-.219,1.257,2.518,2.518,0,0,0,.847,1.011,6.419,6.419,0,0,1-3.006,1.2c-1.393.383-1.311.055-2.35,1.366-1.366,1.694-2.65,3.443-3.962,5.164-2.049,2.7-4.071,5.437-6.038,8.169-.629.82-1.2,1.667-1.8,2.486-13.279,18.743-24.946,40.383-22.951,64.1,3.115,20.328,2.678,41.012,2.24,61.039-.328,14.918-.683,30.383.492,45.52,1.694,6.694.3,14.508-1.066,22.077a81.715,81.715,0,0,0-1.667,13.552c0,5.355,2.7,13.252,5.246,17.268l-2.3,1.448c-2.732-4.317-5.683-12.705-5.683-18.716a83.344,83.344,0,0,1,1.721-14.044c1.284-7.268,2.65-14.782,1.038-21.148-1.2-15.519-.847-31.039-.519-46.039.437-19.891.874-40.465-2.213-60.629-1.995-23.689,9.044-45.383,22.214-64.291,1.12-1.612,2.268-3.224,3.443-4.809,1.557-2.159,3.142-4.262,4.727-6.366,1.366-1.831,2.678-3.661,4.126-5.437,1.366-1.667,2.869-1.749,4.781-2.7a.826.826,0,0,0,.492-.464c.082-.383-.41-.628-.71-.874a1.553,1.553,0,0,1,.054-2.377c.41-.246,1.011-.492.929-.956a.879.879,0,0,0-.328-.492,3.942,3.942,0,0,1-1.2-2.541,25.419,25.419,0,0,0,5.055.929c.082.874.055,1.831.191,2.76.082.71.137,1.557-.437,1.995C648.326,242.655,647.862,242.682,647.534,242.956Z" transform="translate(-605.113 -236.726)" fill="#a7c6ce"/>
      </g>
    </g>
    <g id="Grupo_121048" data-name="Grupo 121048" transform="translate(627.205 334.268)">
      <path id="Trazado_158743" data-name="Trazado 158743" d="M736.822,270.277c-.328,21.53-29.7,109.291-57.378,113.39-10.109,1.5-21.995-5.547-33.2-15.355-.027-.027-.055-.055-.082-.055-19.427-17.049-36.749-42.378-39.126-46.066-3.743-5.792-13.552-20.82-11.5-30.383s9.126-9.891,9.126-9.891,2.924,2.377,4.973,3.743,17.568,16.749,21.312,18.771c3.771,2.077,29.044,20.164,29.044,20.164s3.415-10.246,7.514-9.891c4.1.328,6.148-1.721,7.514-4.454A244.3,244.3,0,0,1,687.531,282.6c10.191-18.771,25.984-39.208,45.028-33.607.082,0,1.011.055,2.022,1.995v.027C735.7,253.228,737.013,258.474,736.822,270.277Z" transform="translate(-595.257 -248.051)" fill="#c1dee5"/>
      <path id="Trazado_158744" data-name="Trazado 158744" d="M646.928,295.86c-3.06-.328-13.333-2.732-16.394-2.732s-7.869,5.465-8.2,8.2,11.967,9.891,16.394,16.394-2.4,12.3-6.5,4.1-13.279-19.126-13.279-19.126,3.415-10.246,7.514-9.891c4.1.328,6.148-1.721,7.514-4.454A244.3,244.3,0,0,1,646.49,260.7C641.272,275.7,649.961,296.188,646.928,295.86Z" transform="translate(-554.216 -226.147)" fill="#a7c6ce"/>
      <path id="Trazado_158745" data-name="Trazado 158745" d="M704.494,268.4c-.328,21.53-29.7,109.291-57.378,113.39-10.109,1.5-21.995-5.547-33.2-15.355,5.328,3.033,18.634,10.273,26.694,11.612,10.246,1.721,22.186-7.514,22.9-13.661.656-6.148-2.4-14.344,1.366-14.344,3.743,0,11.585-2.049,11.585-6.5,0-4.344,33.2-67.187,25.793-94.4C703.374,251.349,704.685,256.6,704.494,268.4Z" transform="translate(-562.93 -246.173)" fill="#a7c6ce"/>
    </g>
    <g id="Grupo_121049" data-name="Grupo 121049" transform="translate(605.305 325.716)">
      <path id="Trazado_158746" data-name="Trazado 158746" d="M590.418,247.625c.112-1.159,2.153-2.068,2.153-2.068s1.033,3.76,3.049,5.148,4.735,4.648,6.735,8.53,4.265,16.94,4.265,16.94-12-12.56-12.355-14.836S590.418,247.625,590.418,247.625Z" transform="translate(-581.74 -243.821)" fill="#f7b242"/>
      <path id="Trazado_158747" data-name="Trazado 158747" d="M635.6,300.645s-3.189,20.036-17.987,24.591c0,0-13.123-30.137-13.645-32.735-.112-.729-.238-1.21-.238-1.21-13.907-8.517-13.008-16.153-13.008-16.153s-4.56-2.068-.915-7.292a6.23,6.23,0,0,1-1.8-3.8c-.071-1.008,3.2-3.691,3.2-3.691s-1.822-3.243-.855-3.863c2.374-1.519,5.669-.863,5.669-.863s-3.24-4.213-4.77-5.055c-4.369-2.358-6.246-7.224.033-5.153,3.137,1,11.8,9.495,14.355,13.544,2.615,4.014,7.139,19.421,8.487,21.992C615.442,283.563,635.6,300.645,635.6,300.645Z" transform="translate(-587.242 -244.922)" fill="#db8804"/>
      <path id="Trazado_158748" data-name="Trazado 158748" d="M588.687,250.642a6.913,6.913,0,0,1,4.656.82C595.739,252.825,588.687,250.642,588.687,250.642Z" transform="translate(-584.738 -235.198)" fill="#4ba6c6"/>
      <path id="Trazado_158749" data-name="Trazado 158749" d="M588.179,253.316s3.44-.148,4.079.765S590.556,254.392,588.179,253.316Z" transform="translate(-585.618 -230.396)" fill="#4ba6c6"/>
      <path id="Trazado_158750" data-name="Trazado 158750" d="M603.56,273.524c-.232.169-.88.123-1.792-.18-.112-.729-.238-1.21-.238-1.21-13.907-8.517-13.008-16.153-13.008-16.153l1.749.459s4.139,7.369,6.448,10.088,4.6,5.224,7.383,4.26C606.915,269.822,604.8,272.483,603.56,273.524Z" transform="translate(-585.046 -225.765)" fill="#f7b242"/>
    </g>
  </g>
</svg>
