<svg id="icon2" xmlns="http://www.w3.org/2000/svg" xmlns:xlink="http://www.w3.org/1999/xlink" width="114.636" height="114.636" viewBox="0 0 114.636 114.636">
  <defs>
    <radialGradient id="radial-gradient" cx="0.076" cy="0.019" r="1.465" gradientTransform="translate(0.001)" gradientUnits="objectBoundingBox">
      <stop offset="0" stop-color="#f6f6f7"/>
      <stop offset="0.477" stop-color="#f9f9fa"/>
      <stop offset="0.715" stop-color="#fff"/>
    </radialGradient>
  </defs>
  <g id="Grupo_18423" data-name="Grupo 18423" transform="translate(0 0)">
    <g id="Grupo_18421" data-name="Grupo 18421">
      <g id="Grupo_18420" data-name="Grupo 18420">
        <g id="Grupo_18419" data-name="Grupo 18419">
          <path id="Trazado_40936" data-name="Trazado 40936" d="M309.259,2203.037a57.318,57.318,0,1,1-57.317-57.316A57.317,57.317,0,0,1,309.259,2203.037Z" transform="translate(-194.623 -2145.721)" fill="#fff"/>
        </g>
      </g>
    </g>
    <path id="Trazado_40937" data-name="Trazado 40937" d="M308.648,2202.372a57.316,57.316,0,1,0-57.317,57.319A57.091,57.091,0,0,0,308.648,2202.372Z" transform="translate(-194.013 -2145.056)" fill="url(#radial-gradient)"/>
    <path id="Trazado_40938" data-name="Trazado 40938" d="M289.672,2196.986a43.75,43.75,0,1,0-43.75,43.75A43.587,43.587,0,0,0,289.672,2196.986Z" transform="translate(-188.43 -2139.479)" fill="none" stroke="#00223d" stroke-miterlimit="10" stroke-width="4"/>
    <g id="Grupo_18422" data-name="Grupo 18422" transform="translate(10.154 32.18)">
      <path id="Trazado_40939" data-name="Trazado 40939" d="M299.231,2164.488a57.325,57.325,0,0,1-98.686,57.081,57.143,57.143,0,0,0,98.686-57.081Z" transform="translate(-200.545 -2164.488)" fill="#eceef0"/>
    </g>
  </g>
  <g id="PCI1SL" transform="translate(-3373.53 -156.536)">
    <g id="Grupo_121013" data-name="Grupo 121013" transform="translate(3405.187 183.837)">
      <path id="Trazado_158635" data-name="Trazado 158635" d="M3417.825,226.946l6,8.558c.193-.011.325.021.406-.03,2.276-1.423,2.281-1.427,3.794.737q7.276,10.405,14.557,20.806c.884,1.255,1.823,2.722.779,3.966a10.717,10.717,0,0,1-4.28,2.917c-.675.259-2.216-.58-2.769-1.349-5.333-7.418-10.529-14.937-15.793-22.406-1.317-1.868.66-2.2,1.449-3.214-1.849-2.638-3.756-5.254-5.537-7.954-.675-1.023-1.349-.434-2.036-.278a7.382,7.382,0,0,1-8.374-10.446,7.371,7.371,0,1,1,12.951,7.023C3418.656,225.8,3418.276,226.292,3417.825,226.946Zm-.159-5.39a5.064,5.064,0,0,0-10.127-.053,5.064,5.064,0,1,0,10.127.053Z" transform="translate(-3405.187 -203.954)"/>
      <path id="Trazado_158636" data-name="Trazado 158636" d="M3466.151,205.535c2.605-1.515,2.614-1.521,4.307.893q7.3,10.394,14.577,20.8c1.579,2.256,1.286,3.784-1,5.4-2.708,1.917-4.188,1.8-5.838-.548q-7.356-10.456-14.68-20.936c-1.648-2.35-1.652-2.347.717-4.241l-7.923-11.341a26.3,26.3,0,0,1-5,.544,4.2,4.2,0,0,1-3.622-3.329,4.493,4.493,0,0,1,1.253-4.942,51.488,51.488,0,0,1,5.458-3.913c.358-.232,1.079.1,1.632.166-.147.588-.1,1.409-.476,1.721-1.333,1.106-2.818,2.027-4.231,3.039-1.632,1.169-2.006,2.651-1.043,4.018s2.434,1.5,4.135.381c2.106-1.387,2.15-1.379,3.564.638Z" transform="translate(-3433.216 -183.837)"/>
      <path id="Trazado_158637" data-name="Trazado 158637" d="M3433.263,231a7.013,7.013,0,0,0-.614-2.146,5.817,5.817,0,0,0-1.61-1.046c-.183.6-.391,1.187-.543,1.791-.212.84-.414,1.684-.558,2.537a14.95,14.95,0,0,0-.1,1.655c.564.009,1.406.256,1.64-.017A20.783,20.783,0,0,0,3433.263,231Z" transform="translate(-3421.536 -213.003)" fill="#fff"/>
      <path id="Trazado_158638" data-name="Trazado 158638" d="M3433.263,231a20.783,20.783,0,0,1-1.789,2.773c-.233.273-1.076.026-1.64.017a14.95,14.95,0,0,1,.1-1.655c.145-.853.347-1.7.558-2.537.152-.6.36-1.194.543-1.791a5.817,5.817,0,0,1,1.61,1.046A7.013,7.013,0,0,1,3433.263,231Z" transform="translate(-3421.536 -213.003)"/>
    </g>
  </g>
</svg>
