<svg xmlns="http://www.w3.org/2000/svg" xmlns:xlink="http://www.w3.org/1999/xlink" width="292.412" height="215.124" viewBox="0 0 292.412 215.124">
  <defs>
    <linearGradient id="linear-gradient" x1="0.5" x2="0.5" y2="1" gradientUnits="objectBoundingBox">
      <stop offset="0.25" stop-color="#f5f5f5"/>
      <stop offset="1" stop-color="#e6eded"/>
    </linearGradient>
    <linearGradient id="linear-gradient-2" x1="0.5" x2="0.5" y2="1" gradientUnits="objectBoundingBox">
      <stop offset="0" stop-color="#f5f5f5"/>
      <stop offset="0.25" stop-color="#f5f5f5"/>
      <stop offset="1" stop-color="#eeeef2"/>
    </linearGradient>
    <linearGradient id="linear-gradient-3" x1="0.5" x2="0.5" y2="1" gradientUnits="objectBoundingBox">
      <stop offset="0" stop-color="#f5f5f5"/>
      <stop offset="0.25" stop-color="#f5f5f5"/>
      <stop offset="1" stop-color="#a7b3cf"/>
    </linearGradient>
    <clipPath id="clip-path">
      <path id="Trazado_150181" data-name="Trazado 150181" d="M-2523.465,1330.569c-118.912-2.059-137.436,2.378-138.128-10.62s-4.461-186.782,24.047-196.331,104.02-16.851,109.8,41.851S-2523.465,1330.569-2523.465,1330.569Z" transform="translate(2662.136 -1117.15)" fill="none"/>
    </clipPath>
    <radialGradient id="radial-gradient" cx="0.5" cy="0.5" r="0.5" gradientUnits="objectBoundingBox">
      <stop offset="0" stop-color="#f5f5f5"/>
      <stop offset="0.25" stop-color="#f5f5f5"/>
      <stop offset="1" stop-color="#4c5872"/>
    </radialGradient>
  </defs>
  <g id="img10" transform="translate(-159.234 -6621.266)">
    <g id="Grupo_121050" data-name="Grupo 121050" transform="translate(215.631 6623.716)">
      <path id="Trazado_151846" data-name="Trazado 151846" d="M335.825,305.864c11.112-13.424,14.273-30.847,8.389-46.231-3.72-9.727-10.859-18.763-11.771-28.906-1.826-20.279,21.186-36.674,25.959-56.646,2.1-8.778-.191-19-9.185-24.336-8.884-5.266-21.563-4.191-31.62-.5s-18.567,9.592-28.223,13.908-21.546,6.984-31.743,3.549c-10.329-3.48-16.188-12.25-19.469-20.8s-4.893-17.653-10.493-25.4c-9.231-12.764-28.913-19.723-47.254-17.922s-34.728,11.665-43.518,24.625-10.326,28.635-5.951,42.949c2.22,7.26,5.876,14.212,7.87,21.514s2.176,15.293-2.275,21.87c-9.308,13.753-33.864,15.67-46.723,27.464-10.613,9.734-10.946,24.589-4.923,36.56s17.342,21.683,28.628,30.924c52.64,1.411,106.224,1.5,158.864,2.915C292.847,311.952,315.39,306.823,335.825,305.864Z" transform="translate(-137.358 -99.212)" fill="#a4a4b4" opacity="0.354" style="mix-blend-mode: multiply;isolation: isolate"/>
      <path id="Trazado_151847" data-name="Trazado 151847" d="M359.21,165.947c-.111,11.871,11.173,22.2,9.209,33.909-1.05,6.264-5.823,12.614-3.049,18.327,2.454,5.056,9.483,5.932,14.857,4.289,12.58-3.849,20.226-16.707,23.883-29.345,3.44-11.887,4.293-25.164-1.215-36.245-4.439-8.928-14.68-16.81-25.079-16.081C368.29,141.47,359.293,157.006,359.21,165.947Z" transform="translate(-170.845 -111.634)" fill="#a4a4b4" opacity="0.31" style="mix-blend-mode: multiply;isolation: isolate"/>
      <path id="Trazado_151848" data-name="Trazado 151848" d="M113.132,135a48.148,48.148,0,0,0-.961,46.851c2.472,4.535,5.81,8.761,10.317,11.283s10.322,3.084,14.808.525c6.8-3.881,8.308-13.035,7.767-20.849s-2.312-16.006.7-23.237c1.962-4.714,5.728-8.389,9.07-12.249s6.46-8.366,6.633-13.469c.447-13.228-13.6-12.24-22.06-9.492A48.1,48.1,0,0,0,113.132,135Z" transform="translate(-145.626 -102.559)" fill="#a4a4b4" opacity="0.31" style="mix-blend-mode: multiply;isolation: isolate"/>
      <g id="Grupo_107069" data-name="Grupo 107069" transform="translate(-51.695)" style="mix-blend-mode: multiply;isolation: isolate">
        <path id="Trazado_151849" data-name="Trazado 151849" d="M335.847,307.1l-1.139-.824c3.135-2.714,8.139-8.935,6.445-20.121-.754-4.979-2.623-9.9-4.431-14.654-.807-2.125-1.642-4.322-2.371-6.5-7.774-23.281-4.373-48.964,9.329-70.462,1.217-1.908,2.534-3.822,3.808-5.673,3.777-5.487,7.682-11.163,9.361-17.292,2.945-10.757-2.877-18.82-9.532-21.758-6.385-2.821-15.4-2.39-24.727,1.183-3.413,1.307-6.729,2.9-9.937,4.45a101.838,101.838,0,0,1-13.328,5.651c-18.516,5.884-41.666.883-53.847-11.63-5.854-6.013-9.16-13.281-12.356-20.31-1.238-2.723-2.52-5.54-3.928-8.235-4.381-8.379-12.4-18.9-25.719-21.412-11.7-2.212-23.557,2.649-31.439,7.116-15.079,8.546-25.709,20.12-29.931,32.589-2.847,8.409-2.961,17.561-3.072,26.411-.165,13.181-.336,26.81-9.733,37.786-4.275,4.993-10.155,8.977-15.84,12.831-5.325,3.608-10.832,7.34-14.937,11.862-9.3,10.248-11.581,24.757-6.255,39.806,4.786,13.522,14.542,25.52,23.976,37.123l-1.3.661c-9.5-11.678-19.316-23.755-24.164-37.454-5.453-15.409-3.089-30.3,6.488-40.849,4.213-4.643,9.792-8.422,15.185-12.078,5.609-3.8,11.409-7.731,15.566-12.588,9.136-10.672,9.3-23.515,9.467-37.113.112-8.927.227-18.158,3.126-26.716,4.314-12.741,15.155-24.555,30.523-33.266,8.142-4.614,20.423-9.628,32.694-7.31,13.953,2.635,22.268,13.491,26.785,22.133,1.423,2.721,2.71,5.552,3.954,8.289,3.156,6.94,6.419,14.116,12.127,19.978,11.775,12.1,34.153,16.93,52.052,11.242a100.686,100.686,0,0,0,13.1-5.56c3.238-1.561,6.587-3.175,10.066-4.507,9.787-3.748,19.318-4.169,26.15-1.151,7.136,3.152,13.4,11.72,10.288,23.084-1.726,6.3-5.685,12.055-9.515,17.619-1.268,1.843-2.58,3.748-3.785,5.638-13.535,21.234-16.894,46.6-9.215,69.6.721,2.162,1.553,4.35,2.356,6.465,1.826,4.806,3.715,9.776,4.486,14.861C344.452,297.683,339.159,304.237,335.847,307.1Z" transform="translate(-87.906 -97.739)" fill="#a4a4b4"/>
      </g>
      <g id="Grupo_121051" data-name="Grupo 121051" transform="translate(14.199 28.118)">
        <path id="Trazado_150767" data-name="Trazado 150767" d="M-2127.966,259.674s-10.078,20.162-20.315,34.079c-4.073,5.539-8.172,10.088-11.67,11.986a27.89,27.89,0,0,0-8.722,7.938,63.689,63.689,0,0,0-9.079,18.638l-26.178-39.6s.893-38.714,4.036-45.189c4.581-9.437,6.794-28.5,8.554-32.3,1.305-2.816,5.034-17.362,5.391-18.431.156-.461,1.4-1.167,3.007-1.166a4.688,4.688,0,0,1,4.042,3.818,43.5,43.5,0,0,1-.532,21.921c.988,9.975-1.981,17.38.1,19.341.078.073.221.038.425-.092,3.609-2.317,26.008-34.972,28.766-35.677C-2147.227,204.193-2127.966,259.674-2127.966,259.674Z" transform="translate(2252.194 -181.232)" fill="#ffb27d"/>
        <path id="Trazado_150768" data-name="Trazado 150768" d="M-2453.4,1266.956s-.356,17.6-1.377,41.3h-66.032c15.094-32.187,28.216-59.277,28.216-59.277S-2455,1250.13-2453.4,1266.956Z" transform="translate(2535.72 -1123.711)" fill="#868695"/>
        <path id="Trazado_150769" data-name="Trazado 150769" d="M-1486.531,74.906l-8.107,11.884-7.955,11.663a1.821,1.821,0,0,1-1.654.73c-1.909-.181-4.271-2.934-6.111-4.459l-.187-.153a5.742,5.742,0,0,1-.762-8.062l12.159-14.7h0l3.606-4.358a5.742,5.742,0,0,1,8.062-.762l.187.153A5.744,5.744,0,0,1-1486.531,74.906Z" transform="translate(1633.646 -64.698)" fill="#ffb27d"/>
        <path id="Trazado_150770" data-name="Trazado 150770" d="M-1423.507,141.446l-7.955,11.663a1.82,1.82,0,0,1-1.654.73l5.1-27.372C-1428.006,126.62-1427.139,138.9-1423.507,141.446Z" transform="translate(1562.516 -119.354)" fill="#efa26f"/>
        <path id="Trazado_150771" data-name="Trazado 150771" d="M-1949.475,1107.152c-4.073,5.539-8.172,10.088-11.67,11.986a27.885,27.885,0,0,0-8.722,7.938c-2.759-1.286-5.9-2.8-8.978-4.289a5.12,5.12,0,0,1-.22-9.1l.105-.058c3.436-1.966,6.957-8.908,6.957-8.908Z" transform="translate(2053.387 -994.631)" fill="#efa26f"/>
        <path id="Trazado_150772" data-name="Trazado 150772" d="M-2052.863,212.419l-2.121,8.563a4.5,4.5,0,0,0,3.045.17C-2050.748,220.563-2049.776,212.88-2052.863,212.419Z" transform="translate(2118.926 -196.258)" fill="#ffc197"/>
        <g id="Grupo_106672" data-name="Grupo 106672" transform="translate(73.294 0)">
          <rect id="Rectángulo_33963" data-name="Rectángulo 33963" width="61.924" height="116.568" rx="6" transform="translate(0)" fill="#1d272b"/>
          <g id="Grupo_106671" data-name="Grupo 106671" transform="translate(3.07 2.889)">
            <path id="Trazado_150773" data-name="Trazado 150773" d="M-1881.189,92.379v97.93a6.036,6.036,0,0,1-6,6.04h-43.795a6.035,6.035,0,0,1-5.995-6.04V92.379a6.035,6.035,0,0,1,5.995-6.04h43.795A6.036,6.036,0,0,1-1881.189,92.379Z" transform="translate(1936.975 -86.339)" fill="url(#linear-gradient)"/>
          </g>
          <path id="Rectángulo_33964" data-name="Rectángulo 33964" d="M2.924,0H20.8a2.924,2.924,0,0,1,2.924,2.924v0A2.924,2.924,0,0,1,20.8,5.848H2.924A2.924,2.924,0,0,1,0,2.924v0A2.924,2.924,0,0,1,2.924,0Z" transform="translate(19.1 0.683)" fill="url(#linear-gradient-2)"/>
        </g>
        <g id="Grupo_106676" data-name="Grupo 106676" transform="translate(82.358 16.623)">
          <g id="Grupo_106675" data-name="Grupo 106675" transform="translate(0 47.234)">
            <rect id="Rectángulo_33965" data-name="Rectángulo 33965" width="17.998" height="2.496" rx="1.248" transform="translate(0)" fill="#1d272b"/>
            <g id="Grupo_106674" data-name="Grupo 106674" transform="translate(0 9.84)">
              <path id="Trazado_150776" data-name="Trazado 150776" d="M-1862.841,760.656h-16.371a.816.816,0,0,1-.813-.813h0a.816.816,0,0,1,.813-.814h16.371a.816.816,0,0,1,.813.814h0A.816.816,0,0,1-1862.841,760.656Z" transform="translate(1880.026 -759.029)" fill="#1d272b"/>
              <path id="Rectángulo_33966" data-name="Rectángulo 33966" d="M.814,0H9.747a.814.814,0,0,1,.814.814v0a.814.814,0,0,1-.814.814H.814A.814.814,0,0,1,0,.814v0A.814.814,0,0,1,.814,0Z" transform="translate(0 3.851)" fill="#1d272b"/>
              <rect id="Rectángulo_33967" data-name="Rectángulo 33967" width="16.614" height="1.627" rx="0.814" transform="translate(13.088 3.851)" fill="#1d272b"/>
              <path id="Trazado_150777" data-name="Trazado 150777" d="M-1661.064,760.656h-21.466a.816.816,0,0,1-.814-.813h0a.816.816,0,0,1,.814-.814h21.466a.816.816,0,0,1,.814.814h0A.816.816,0,0,1-1661.064,760.656Z" transform="translate(1704.047 -759.029)" fill="#1d272b"/>
              <path id="Trazado_150778" data-name="Trazado 150778" d="M-1862.841,833.821h-16.371a.816.816,0,0,1-.813-.813h0a.816.816,0,0,1,.813-.814h16.371a.816.816,0,0,1,.813.814h0A.816.816,0,0,1-1862.841,833.821Z" transform="translate(1880.026 -824.493)" fill="#1d272b"/>
              <path id="Trazado_150779" data-name="Trazado 150779" d="M-1661.064,833.821h-21.466a.816.816,0,0,1-.814-.813h0a.816.816,0,0,1,.814-.814h21.466a.816.816,0,0,1,.814.814h0A.816.816,0,0,1-1661.064,833.821Z" transform="translate(1704.047 -824.493)" fill="#1d272b"/>
            </g>
            <path id="Rectángulo_33968" data-name="Rectángulo 33968" d="M1.248,0h10.71a1.248,1.248,0,0,1,1.248,1.248v0A1.248,1.248,0,0,1,11.958,2.5H1.248A1.248,1.248,0,0,1,0,1.248v0A1.248,1.248,0,0,1,1.248,0Z" transform="translate(20.228)" fill="#1d272b"/>
          </g>
        </g>
        <g id="Grupo_106677" data-name="Grupo 106677" transform="translate(126.122 44.064)">
          <path id="Trazado_150780" data-name="Trazado 150780" d="M-1447.3,488.526l-1.209.459-8.129,3.089a5.2,5.2,0,0,1-.576.183,5.553,5.553,0,0,1-6.565-3.392l-.119-.312a5.553,5.553,0,0,1,3.209-7.143l7.579-2.88.551-.21,1.209-.46a5.552,5.552,0,0,1,7.141,3.209l.119.312A5.553,5.553,0,0,1-1447.3,488.526Z" transform="translate(1464.258 -477.503)" fill="#ffb27d"/>
          <path id="Trazado_150781" data-name="Trazado 150781" d="M-1435.161,527.2a32.443,32.443,0,0,1-5.127,1.615,2.165,2.165,0,0,1-1.7-.849,5.013,5.013,0,0,1-1.022-1.844,5.867,5.867,0,0,1-.278-1.177,4.976,4.976,0,0,1,.045-1.4,1.4,1.4,0,0,1,.776-1l.006,0a32.047,32.047,0,0,1,4.93-1.933,2.142,2.142,0,0,1,2.657,1.187l.171.467.872,2.389A2.047,2.047,0,0,1-1435.161,527.2Z" transform="translate(1445.518 -515.988)" fill="#ffd3b6"/>
          <path id="Trazado_150782" data-name="Trazado 150782" d="M-1428.088,538.563a32.432,32.432,0,0,1-5.126,1.615,2.165,2.165,0,0,1-1.7-.849c-.068-.159-.131-.327-.19-.507a5.876,5.876,0,0,1-.278-1.177,4.962,4.962,0,0,1,.045-1.4,1.4,1.4,0,0,1,.776-1l.006,0a32.049,32.049,0,0,1,4.93-1.933,2.337,2.337,0,0,1,2,.317l.872,2.389A2.047,2.047,0,0,1-1428.088,538.563Z" transform="translate(1438.445 -527.354)" fill="#ffc197"/>
        </g>
        <g id="Grupo_106678" data-name="Grupo 106678" transform="translate(128.397 58.754)">
          <path id="Trazado_150783" data-name="Trazado 150783" d="M-1431.649,624.824l-6.269,1.707a3.6,3.6,0,0,1-4.406-2.521l-.193-.71a3.6,3.6,0,0,1,2.521-4.406l6.269-1.707a3.6,3.6,0,0,1,4.406,2.521l.193.71A3.6,3.6,0,0,1-1431.649,624.824Z" transform="translate(1442.643 -617.062)" fill="#ffb27d"/>
          <path id="Trazado_150784" data-name="Trazado 150784" d="M-1425.617,643.28a28.294,28.294,0,0,1-4.324.909,2.113,2.113,0,0,1-1.71-1.357,4.229,4.229,0,0,1-.321-.884,4.191,4.191,0,0,1-.14-.921,3.586,3.586,0,0,1,.14-1.073,1.111,1.111,0,0,1,.709-.716l.006,0a28.008,28.008,0,0,1,4.188-1.168,1.774,1.774,0,0,1,2.092,1.083l.162.565.483,1.7A1.59,1.59,0,0,1-1425.617,643.28Z" transform="translate(1433.221 -635.826)" fill="#ffd3b6"/>
          <path id="Trazado_150785" data-name="Trazado 150785" d="M-1422.775,651.286a28.308,28.308,0,0,1-4.324.91,2.114,2.114,0,0,1-1.711-1.357,4.008,4.008,0,0,1-.126-.865,3.6,3.6,0,0,1,.14-1.073,1.114,1.114,0,0,1,.709-.716s0,0,.006,0a27.842,27.842,0,0,1,4.188-1.166,1.893,1.893,0,0,1,1.92.706l.483,1.7A1.59,1.59,0,0,1-1422.775,651.286Z" transform="translate(1430.379 -643.832)" fill="#ffc197"/>
        </g>
        <path id="Trazado_150786" data-name="Trazado 150786" d="M-2313.829,1225.555s12.9,12.359,21.6,17.13l6.586-4.672v6.891s12.952,2.291,17.038,0v-18.793l-36.381-18.238Z" transform="translate(2350.524 -1086.931)" fill="#1d272b"/>
        <path id="Trazado_150787" data-name="Trazado 150787" d="M-2306.4,1151.1c-5.011,1.028-15.812-2.909-15.812-2.909l1.742-16.827-12.206,13.979c-6.211-2.312-15.926-8.344-21.7-12.1-2.874-1.87-4.771-3.174-4.771-3.174,8.145-13.107,16.338-25.365,16.338-25.365,2.405,4.811,8.1,8.988,14.267,12.33a121.339,121.339,0,0,0,21.827,8.8C-2306.718,1135.838-2306.4,1151.1-2306.4,1151.1Z" transform="translate(2391.071 -994.625)" fill="url(#linear-gradient-3)"/>
        <g id="Grupo_106679" data-name="Grupo 106679" transform="translate(125.51 29.245)">
          <path id="Trazado_150788" data-name="Trazado 150788" d="M-1452.7,350.549c-.044.016-.089.031-.135.046l-8.219,2.11a6.794,6.794,0,0,1-8.3-4.345l-.489-1.7a6.3,6.3,0,0,1,4.412-7.6l2.714-.7,5.505-1.413a6.794,6.794,0,0,1,8.305,4.345l.489,1.7A6.288,6.288,0,0,1-1452.7,350.549Z" transform="translate(1470.074 -336.722)" fill="#ffb27d"/>
          <path id="Trazado_150789" data-name="Trazado 150789" d="M-1406.352,375.465l-3.993,1.8-.025.006a4.285,4.285,0,0,1-.483.1c-.067.01-.135.018-.2.025a.544.544,0,0,1-.085,0,.635.635,0,0,1-.551-.9,3.972,3.972,0,0,0,.226-2.707l-.1-.348a.031.031,0,0,0,0-.01l-.309-1.134a4.249,4.249,0,0,0-1.447-2.207c-.082-.067-.167-.129-.253-.189a1.147,1.147,0,0,1,.336-2.042l.025-.007,4.382-.663a2.086,2.086,0,0,1,2.422,1.623l.352,1.291.749,2.753C-1405.012,373.945-1405.269,375.171-1406.352,375.465Z" transform="translate(1419.958 -363.932)" fill="#ffd3b6"/>
          <path id="Trazado_150790" data-name="Trazado 150790" d="M-1400.038,390.622l-3.993,1.8-.025.006c-.094.018-.386.067-.77.126a.635.635,0,0,1-.551-.9,3.973,3.973,0,0,0,.226-2.707l-.1-.348a.028.028,0,0,0,0-.01l-.309-1.134a4.25,4.25,0,0,0-1.447-2.207,1.113,1.113,0,0,1,.629-.447l.025-.007,4.382-.663a1.993,1.993,0,0,1,2.229,1.131l.749,2.753C-1398.7,389.1-1398.955,390.327-1400.038,390.622Z" transform="translate(1413.645 -379.089)" fill="#ffc197"/>
        </g>
        <path id="Trazado_150791" data-name="Trazado 150791" d="M-2011.642,485.84s-1.793-15.652-3.447-18.7-3.054-9.165-.509-13.706,3.424-13.281,3.424-13.281c.988,9.975-1.981,17.38.1,19.341.078.073.221.038.425-.092Z" transform="translate(2084.935 -400.017)" fill="#efa26f"/>
        <path id="Trazado_150792" data-name="Trazado 150792" d="M-1451.067,836.069h-48.427c-2.322-1.557-14.382-9.783-19.372-15.916-1.057-1.3-4.925-12.5-7.9-21.593-1.856-5.68-3.363-10.541-3.618-11.656a14.53,14.53,0,0,1-.183-2.2v-.011c-.126-3.719.046-10.89.224-16.587v-.026l0-.075c.009-.251.016-.5.024-.741v-.008c0-.024,0-.049,0-.074.033-.99.064-1.922.094-2.77.075-2.12.138-3.715.164-4.339l.01-.291h0c.077-.043,2.406-1.286,5.52.957a8.1,8.1,0,0,1,2.08,3.56c.405,1.091.785,2.343,1.139,3.663,1.36,5.077,2.336,11.146,2.857,12.771.84,2.626,10.741,14.176,11.36,14.894.01.013.02.024.029.036V777.424l-7.475-20-3.068-8.21-1.542-4.126a74.4,74.4,0,0,1-4.349-8.555,40.369,40.369,0,0,1-2.157-6.325c-.118-.5-.218-.988-.3-1.469v0a10.667,10.667,0,0,1,.094-4.73,3.423,3.423,0,0,1,3.6-2.769c.129,0,.255.016.376.03a2.56,2.56,0,0,1,.36.069,2.511,2.511,0,0,1,.622.259s0,0,0,0a2.519,2.519,0,0,1,.813.76s1.057,1.38,2.475,3.235c.933,1.221,2.022,2.647,3.068,4.022,1.863,2.449,3.594,4.735,4.069,5.4,2.572,3.62,9.5,15.417,9.5,15.417l8.1.34a5.376,5.376,0,0,1,3.445,1.442c2.882,2.692,9.1,8.516,9.858,9.382,0,.284,4.829,2.606,8.559,4.674,2.668,1.127,7.737,5.123,7.737,5.123a8.935,8.935,0,0,1,2.256,2.733c1.738,3.782,6.452,36.675,8.705,52.936C-1451.574,832.29-1451.1,835.8-1451.067,836.069Z" transform="translate(1649.746 -651.514)" fill="#ffb27d"/>
        <path id="Trazado_150793" data-name="Trazado 150793" d="M-1248.983,998.641s7.509,12.257,8.5,12.809,4.859,1.325,5.3,0S-1248.983,998.641-1248.983,998.641Z" transform="translate(1397.766 -899.721)" fill="#efa26f"/>
        <path id="Trazado_150794" data-name="Trazado 150794" d="M-1028.469,1115.469l-.038-.034s-5.069-4-7.737-5.123c-3.424-1.9-7.775-4.011-8.464-4.564.8.909,6.387,7.237,8.539,7.711C-1034.28,1113.876-1029.988,1115.05-1028.469,1115.469Z" transform="translate(1214.993 -995.554)" fill="#efa26f"/>
        <path id="Trazado_150795" data-name="Trazado 150795" d="M-1306.846,1273.29v-18.239s4.333,7.248,4.664,11.223S-1303.982,1276.684-1306.846,1273.29Z" transform="translate(1449.537 -1129.141)" fill="#efa26f"/>
        <path id="Trazado_150796" data-name="Trazado 150796" d="M-1475.05,728.262a32.76,32.76,0,0,1-2.158-4.158,2.08,2.08,0,0,1,.286-1.6,3.611,3.611,0,0,1,1.137-1.18,3.773,3.773,0,0,1,.8-.43,3.1,3.1,0,0,1,1.021-.188,1.083,1.083,0,0,1,.872.507l0,0a31.791,31.791,0,0,1,2.35,3.937,2.02,2.02,0,0,1-.346,2.483l-.3.223-1.56,1.139A1.483,1.483,0,0,1-1475.05,728.262Z" transform="translate(1602.021 -651.043)" fill="#ffd3b6"/>
        <path id="Trazado_150797" data-name="Trazado 150797" d="M-1475.05,736.2a32.756,32.756,0,0,1-2.158-4.158,2.08,2.08,0,0,1,.286-1.6c.1-.085.211-.166.33-.246a3.77,3.77,0,0,1,.8-.43,3.1,3.1,0,0,1,1.021-.188,1.084,1.084,0,0,1,.872.507l0,0a31.768,31.768,0,0,1,2.35,3.937,2.4,2.4,0,0,1,.156,1.772l-1.56,1.139A1.483,1.483,0,0,1-1475.05,736.2Z" transform="translate(1602.021 -658.982)" fill="#ffc197"/>
        <g id="Grupo_106680" data-name="Grupo 106680" transform="translate(0 80.301)">
          <path id="Trazado_150798" data-name="Trazado 150798" d="M-2657.77,821.759h30.412a4.421,4.421,0,0,1,4.408,4.408v13.342a4.06,4.06,0,0,1-4.049,4.049h-.781l1.466,6.189-9.2-6.189h-22.518a4.417,4.417,0,0,1-4.4-4.4V826.425A4.68,4.68,0,0,1-2657.77,821.759Z" transform="translate(2662.437 -821.759)" fill="#fff"/>
          <path id="Trazado_150799" data-name="Trazado 150799" d="M-2632.533,900.413h31.71a.788.788,0,0,0,.785-.785h0a.788.788,0,0,0-.785-.785h-31.71a.788.788,0,0,0-.785.785h0A.788.788,0,0,0-2632.533,900.413Z" transform="translate(2636.383 -890.728)" fill="#a4a4b4"/>
          <path id="Trazado_150800" data-name="Trazado 150800" d="M-2632.533,933.807h31.71a.788.788,0,0,0,.785-.785h0a.788.788,0,0,0-.785-.785h-31.71a.788.788,0,0,0-.785.785h0A.788.788,0,0,0-2632.533,933.807Z" transform="translate(2636.383 -920.607)" fill="#a4a4b4"/>
          <path id="Trazado_150801" data-name="Trazado 150801" d="M-2632.533,967.2h31.71a.788.788,0,0,0,.785-.785h0a.788.788,0,0,0-.785-.785h-31.71a.788.788,0,0,0-.785.785h0A.788.788,0,0,0-2632.533,967.2Z" transform="translate(2636.383 -950.485)" fill="#a4a4b4"/>
          <path id="Trazado_150802" data-name="Trazado 150802" d="M-2469.679,846h13.462a.938.938,0,0,0,.935-.935h0a.938.938,0,0,0-.935-.935h-13.462a.937.937,0,0,0-.934.935h0A.937.937,0,0,0-2469.679,846Z" transform="translate(2490.805 -841.78)" fill="#a4a4b4"/>
          <path id="Rectángulo_33969" data-name="Rectángulo 33969" d="M.935,0H8.643a.935.935,0,0,1,.935.935v0a.935.935,0,0,1-.935.935H.935A.935.935,0,0,1,0,.935v0A.935.935,0,0,1,.935,0Z" transform="translate(18.397 4.225) rotate(180)" fill="#a4a4b4"/>
        </g>
        <g id="Grupo_106681" data-name="Grupo 106681" transform="translate(159.772 22.114)">
          <path id="Trazado_150803" data-name="Trazado 150803" d="M-1118.876,268.974h-22.455a3.264,3.264,0,0,0-3.255,3.255v9.851a3,3,0,0,0,2.989,2.989h.577l-1.082,4.57,6.792-4.57h16.627a3.261,3.261,0,0,0,3.252-3.252v-9.4A3.456,3.456,0,0,0-1118.876,268.974Z" transform="translate(1144.586 -268.974)" fill="#fff"/>
          <path id="Trazado_150804" data-name="Trazado 150804" d="M-1098.564,327.05h-23.414a.581.581,0,0,1-.58-.58h0a.582.582,0,0,1,.58-.58h23.414a.581.581,0,0,1,.58.58h0A.581.581,0,0,1-1098.564,327.05Z" transform="translate(1124.877 -319.899)" fill="#868695"/>
          <path id="Trazado_150805" data-name="Trazado 150805" d="M-1098.564,351.707h-23.414a.582.582,0,0,1-.58-.58h0a.581.581,0,0,1,.58-.58h23.414a.581.581,0,0,1,.58.58h0A.581.581,0,0,1-1098.564,351.707Z" transform="translate(1124.877 -341.961)" fill="#868695"/>
          <path id="Trazado_150806" data-name="Trazado 150806" d="M-1098.564,376.364h-23.414a.582.582,0,0,1-.58-.58h0a.581.581,0,0,1,.58-.58h23.414a.581.581,0,0,1,.58.58h0A.581.581,0,0,1-1098.564,376.364Z" transform="translate(1124.877 -364.022)" fill="#868695"/>
          <path id="Trazado_150807" data-name="Trazado 150807" d="M-1106.158,286.876h-9.94a.692.692,0,0,1-.69-.69h0a.692.692,0,0,1,.69-.69h9.94a.692.692,0,0,1,.69.69h0A.692.692,0,0,1-1106.158,286.876Z" transform="translate(1119.714 -283.757)" fill="#868695"/>
          <rect id="Rectángulo_33970" data-name="Rectángulo 33970" width="7.072" height="1.38" rx="0.69" transform="translate(15.572 1.739)" fill="#868695"/>
        </g>
        <g id="Grupo_106682" data-name="Grupo 106682" transform="translate(147.242 74.916)">
          <path id="Trazado_150808" data-name="Trazado 150808" d="M-1153.62,818.051l19.128,6.254-11.458-11.167-1.163,2.729-4.924.024Z" transform="translate(1165.199 -808.659)" fill="#1d272b"/>
          <path id="Trazado_150809" data-name="Trazado 150809" d="M-1232.91,792.441l-14.845-11.293-15.861-3.623Z" transform="translate(1263.616 -776.796)" fill="#fff"/>
          <path id="Trazado_150810" data-name="Trazado 150810" d="M-1080.754,775.078l11.458,11.167-7.637-15.645Z" transform="translate(1100.003 -770.6)" fill="#fff"/>
        </g>
        <g id="Grupo_106683" data-name="Grupo 106683" transform="translate(43.833 -6.319)">
          <path id="Trazado_150811" data-name="Trazado 150811" d="M-2435.889,165.416l-17.879,2.55,11.865-8.087.6,2.592,4.348.787Z" transform="translate(2453.768 -155.328)" fill="#1d272b"/>
          <path id="Trazado_150812" data-name="Trazado 150812" d="M-2453.768,165.268l14.878-7.671,14.582-.733Z" transform="translate(2453.768 -152.629)" fill="#fff"/>
          <path id="Trazado_150813" data-name="Trazado 150813" d="M-2441.9,121.188l-11.865,8.087,9.185-12.639Z" transform="translate(2453.768 -116.636)" fill="#fff"/>
        </g>
        <path id="Trazado_150814" data-name="Trazado 150814" d="M-1442.718,1485.84l-14.466,7.49h-9.63c-2.322-1.557-14.382-9.783-19.372-15.916-1.057-1.3-4.925-12.5-7.9-21.593v0c.395,1.207,8.69,18.875,11.052,20.884s14.764,13.7,18.189,13.582c3.318-.114,20.981-4.179,22.075-4.43Z" transform="translate(1617.068 -1308.774)" fill="#efa26f"/>
        <path id="Trazado_150815" data-name="Trazado 150815" d="M-1172.882,1726.64h-52.153a209.565,209.565,0,0,1,23-7.478l.049-.011c8.91-2.254,18.081-3.62,23.062-1.571l.036.053Z" transform="translate(1376.338 -1542.084)" fill="url(#linear-gradient-3)"/>
        <path id="Trazado_150816" data-name="Trazado 150816" d="M-1529.94,1155.475h0c.879-.322,2.113-.535,2.713.468.934,1.56-2.537,15.324-2.97,17.055Z" transform="translate(1649.376 -1039.807)" fill="#efa26f"/>
        <path id="Trazado_150817" data-name="Trazado 150817" d="M-1527.76,1087.449l-.3,8.325a4.265,4.265,0,0,0,2.746-.458C-1524.317,1094.573-1524.844,1087.351-1527.76,1087.449Z" transform="translate(1647.464 -979.18)" fill="#ffc197"/>
        <path id="Trazado_150819" data-name="Trazado 150819" d="M-2184.779,1383.148a2.032,2.032,0,0,1,2.05-2.013,2.031,2.031,0,0,1,2.013,2.05,2.032,2.032,0,0,1-2.05,2.013A2.032,2.032,0,0,1-2184.779,1383.148Z" transform="translate(2235.058 -1241.953)" fill="#1d272b"/>
        <g id="YwcdIO" transform="translate(-3323.914 -232.431)">
          <g id="Grupo_122194" data-name="Grupo 122194" transform="translate(3408.086 245.517)">
            <path id="Trazado_159671" data-name="Trazado 159671" d="M3447.143,253.038v17.489c-.043.127-.1.251-.128.381a9.318,9.318,0,0,1-2.565,4.633,8.528,8.528,0,0,1-4.226,2.288,13.524,13.524,0,0,1-2.434.187c-1.727.033-3.455.031-5.182.032q-5.38,0-10.758-.007c-1.3,0-2.6.008-3.9-.01a14.194,14.194,0,0,1-2.463-.115,8.74,8.74,0,0,1-6.959-5.987c-.175-.486-.292-.992-.437-1.489V253.125c.1-.346.191-.692.291-1.037a8.9,8.9,0,0,1,4.508-5.586,7.292,7.292,0,0,1,2.592-.869,20.169,20.169,0,0,1,2.25-.1q5.466-.021,10.933-.02,4.34,0,8.68.016a12.909,12.909,0,0,1,2.42.11,8.773,8.773,0,0,1,7.026,6.224C3446.916,252.254,3447.024,252.648,3447.143,253.038Zm-19.457-5.886c-3.52,0-7.039.009-10.559-.006a7.019,7.019,0,0,0-2.91.535,7.255,7.255,0,0,0-4.173,4.539,5,5,0,0,0-.338,1.487c-.024,5.416-.015,10.833-.014,16.249a.7.7,0,0,0,.011.215,17.922,17.922,0,0,0,.695,2.043,7.167,7.167,0,0,0,4.2,3.811,6.393,6.393,0,0,0,2.221.4q11.1-.023,22.194-.01a1.306,1.306,0,0,0,.281-.012,9.064,9.064,0,0,0,2.208-.744,7.292,7.292,0,0,0,3.657-4.233,5.037,5.037,0,0,0,.365-1.568c.026-5.3.019-10.6.01-15.9a4.231,4.231,0,0,0-.13-1.023,7.4,7.4,0,0,0-3.759-4.95,5.87,5.87,0,0,0-3.115-.835c-.339.019-.679.005-1.018.005Z" transform="translate(-3408.086 -245.517)" fill="#1d272b"/>
            <path id="Trazado_159672" data-name="Trazado 159672" d="M3745.285,441.156c0-1.69-.007-3.38,0-5.07.005-.794.018-1.59.08-2.381.047-.587.071-.636.554-.769a.65.65,0,0,1,.466.073q4.329,2.734,8.646,5.489c.979.625,1.945,1.273,2.915,1.913a.68.68,0,0,1,.024,1.216c-1.3.88-2.594,1.756-3.91,2.6-2.42,1.561-4.852,3.1-7.281,4.648a2.238,2.238,0,0,1-.559.273.674.674,0,0,1-.86-.61c-.033-.533-.055-1.068-.059-1.6-.012-1.82-.014-3.641-.019-5.461C3745.285,441.373,3745.285,441.264,3745.285,441.156Zm1.632,5.66.063.04,8.985-5.811-9.048-5.835Z" transform="translate(-3730.649 -424.788)" fill="#008f85"/>
            <path id="Trazado_159673" data-name="Trazado 159673" d="M3782.946,497.294V485.689l9.049,5.835-8.985,5.811Z" transform="translate(-3766.679 -475.266)" fill="#008f85"/>
          </g>
        </g>
      </g>
      <g id="Grupo_122196" data-name="Grupo 122196" transform="translate(-49.351 -2.45)">
        <g id="Grupo_90984" data-name="Grupo 90984" transform="translate(0 0)" clip-path="url(#clip-path)">
          <g id="Grupo_91824" data-name="Grupo 91824" transform="translate(-43.654 6.281)">
            <path id="Trazado_150872" data-name="Trazado 150872" d="M1072.214,1090.529c-9-38.859-23.3-113.662-23.3-113.662l-81-.875c-12.847,7.394-10.4,97.872-13.593,106.619s-37.235,63.416-33.67,82.948,34.672,3.58,34.672,3.58,28.257-42.95,35.626-53.675c8.307-12.087,10.755-19.982,10.755-19.982,9.149-17.657,13.514-46.865,13.514-46.865,1.393,30.1,12.367,53.975,11.2,58.758,0,0,14.584,64.555,19.367,69.34s26.158,4.776,34.331-10.366C1080.106,1166.349,1078.139,1116.144,1072.214,1090.529Z" transform="translate(-895.539 -767.224)" fill="url(#linear-gradient-3)"/>
            <path id="Trazado_150873" data-name="Trazado 150873" d="M983.9,995.006c5.864-3.593,47.525,2.617,66.813-8.974-1.115-5.744-1.767-9.165-1.767-9.165l-81-.875c-12.847,7.394-10.4,97.872-13.593,106.619-3.146,8.628-36.258,61.851-33.768,82.073l39.085-2.1c.127-.188.243-.371.371-.561-6.541-.987-21.737-4.1-22.65-11.955-1.165-10.019,14.838-2.847,14.808-10.808s-7.239-15.946-3.238-20.727,22.7-6.244,22.12-20.258-7.389-29.155,0-40.317,18.391-16.735,16.078-29.485S977.387,998.99,983.9,995.006Z" transform="translate(-895.574 -767.224)" fill="url(#radial-gradient)"/>
            <path id="Trazado_150874" data-name="Trazado 150874" d="M1155.645,1224.182c4.781,4.778,26.158,4.776,34.331-10.366,0,0-.2-4.93-.648-12.481-3.637,1.507-22.024,8.736-27.738,3.722-6.344-5.583,6.878-23.909,3.854-37.461s-13.813-12.865-16.388-23.97,7.84-19.068,4.627-27.037-15.173-27.9-12.778-36.666-8.834-15.435-8.834-15.435-3.167,14.847-6.851,34.034c1.847,28.938,12.2,51.668,11.058,56.321C1136.278,1154.843,1150.862,1219.4,1155.645,1224.182Z" transform="translate(-1005.41 -814.692)" fill="#7999c6"/>
            <path id="Trazado_150875" data-name="Trazado 150875" d="M1149,1202.652s24.946,23.234,37.187,27.1" transform="translate(-1018.166 -888.801)" fill="none" stroke="#5179aa" stroke-linecap="round" stroke-miterlimit="10" stroke-width="2.579"/>
            <path id="Trazado_150876" data-name="Trazado 150876" d="M1157.326,1248.207s28.681,7.635,39.846,11.589" transform="translate(-1022.631 -913.235)" fill="none" stroke="#5179aa" stroke-linecap="round" stroke-miterlimit="10" stroke-width="2.579"/>
            <g id="Grupo_91823" data-name="Grupo 91823" transform="translate(47.925 0)">
              <g id="Grupo_91822" data-name="Grupo 91822" transform="translate(0)">
                <g id="Grupo_91821" data-name="Grupo 91821">
                  <path id="Trazado_150881" data-name="Trazado 150881" d="M1198.726,716.621s9.568,3.952,12.552,8.072-1.079,58.045-8.912,71.163S1198.726,716.621,1198.726,716.621Z" transform="translate(-1092.162 -628.102)" fill="url(#linear-gradient-3)"/>
                  <g id="Grupo_91819" data-name="Grupo 91819" transform="translate(12.033 80.779)">
                    <g id="Grupo_91818" data-name="Grupo 91818" transform="translate(0)">
                      <g id="Grupo_91817" data-name="Grupo 91817">
                        <path id="Trazado_150886" data-name="Trazado 150886" d="M1100.9,957.935s-.012,11.728-2.807,12.572c0,0-47.925,11.779-84.98-5.712l-1.041-10.87Z" transform="translate(-1004.677 -836.167)" fill="#1d272b"/>
                        <path id="Trazado_150887" data-name="Trazado 150887" d="M1036.64,699.926s-34.791,7.806-39.534,13.376,9.162,51.355,10.456,56.538-5.094,44.813-3.8,50.423,60.118,15.24,88.582,1.431c0,0,1.6-60.926,1.6-62.223s7.766-52.8-5.515-53.388c-3.461-.148-18.2-6.157-18.2-6.157Z" transform="translate(-996.122 -699.926)" fill="#ecedea"/>
                        <path id="Trazado_150888" data-name="Trazado 150888" d="M1012.4,826.082c1.295,5.607,60.118,15.24,88.582,1.431,0,0,1.6-60.926,1.6-62.223s7.766-52.8-5.515-53.388a22.33,22.33,0,0,1-4.614-1.129l-7.981,6.663h-38.477s-26.175,8.6-28.431,15.176c-1.241,3.62-1.441,21.268-2.26,39.773.432,1.534.75,2.677.9,3.273C1017.5,780.83,1011.106,820.472,1012.4,826.082Z" transform="translate(-1004.761 -705.744)" fill="url(#linear-gradient-3)"/>
                        <path id="Trazado_150890" data-name="Trazado 150890" d="M1193.482,711.742s4.475,67.8,5.266,95.515c0,0,7.478-64.67,1.7-87.617C1198.506,711.92,1198.01,711.742,1193.482,711.742Z" transform="translate(-1101.983 -706.264)" fill="#1d272b"/>
                        <path id="Trazado_150891" data-name="Trazado 150891" d="M1012.255,715.7s32.709,52.413-2.68,99.305c0,0-4.855,5.44,0,7.637,0,0,27.458-21.247,23.876-62.925,0,0-4.088-31.617-15.991-45.813C1017.46,713.906,1013.375,711.775,1012.255,715.7Z" transform="translate(-1002.181 -707.115)" fill="#1d272b"/>
                        <path id="Trazado_150892" data-name="Trazado 150892" d="M1097.3,794.59H1079.47V782.7H1097.3Z" transform="translate(-1040.829 -744.324)" fill="#008f85"/>
                        <rect id="Rectángulo_34024" data-name="Rectángulo 34024" width="14.618" height="1.845" transform="translate(41.233 43.397)" fill="#1d272b"/>
                        <path id="Trazado_150893" data-name="Trazado 150893" d="M1100.46,770.918l-1.19,7.673h-3.253l-.243-7.673Z" transform="translate(-1049.574 -738.005)" fill="#1d272b"/>
                      </g>
                    </g>
                  </g>
                  <path id="Trazado_150894" data-name="Trazado 150894" d="M1102.633,534.411c-2.508-2.036-11.672-7.472-26.125-8.671-9.966-.821-20.121,8.785-27.265,17.335-5.355,6.417-2.588,25.854-1.125,34.477,0,0-2.624,25.584-.3,32.772,0,0,41.836,8.642,46.722,7.78s11.518-5.462,13.811-10.062,2.1-27.464,2.1-27.464S1108.672,539.307,1102.633,534.411Z" transform="translate(-1010.89 -525.691)" fill="#ecedea"/>
                  <path id="Trazado_150895" data-name="Trazado 150895" d="M1110.051,570.59s.826-16.444-2.588-20.327-25.6-4.187-30.943-2.1-7.141,24.431-6.844,30.6c0,0-10.761-5.876-12.25-3.74s12.552,4.356,11.65,6.831-9.859,1.61-10.455,4.732,11.054-1.438,11.654.995,2.094,1-.6,3.656-14.044,4.453-10.458,6.244,13.811-4.087,13.48-1.593-17.364,7.865-14.076,9.513,14.678-4.352,14.363-1.651-17.076,7.914-12.288,8.441,9.314-2.322,12.288,0c2.164,1.695,1.039,8.577.254,13.316,11.657,2.189,24.718,4.422,27.32,3.963,4.019-.708,9.2-3.943,12.2-7.619.27-7.273,1.059-26.359-1.625-38.826Z" transform="translate(-1016.912 -537.057)" fill="url(#linear-gradient-3)"/>
                  <path id="Trazado_150896" data-name="Trazado 150896" d="M1127.9,581.105a25.774,25.774,0,0,1,.237,11.424,14.163,14.163,0,0,0,.234,6.9c1.109,3.258,2.248,18-1.914,24.84-2.932,4.816-20.03,9.014-28.317,0-6.882-7.479-7.809-23.6-7.617-28.965s1.661-19.856,15.377-18.568C1118.651,577.934,1127.244,575.806,1127.9,581.105Z" transform="translate(-1034.71 -553.029)" fill="#fca977"/>
                  <path id="Trazado_150897" data-name="Trazado 150897" d="M1121.235,592.587s2.778.454.766,1.893-7.244.508-10.261,1.081a5.207,5.207,0,0,1,2.486-2.058C1116.239,592.491,1121.235,592.587,1121.235,592.587Z" transform="translate(-1046.105 -561.572)" fill="#1a1715"/>
                  <path id="Trazado_150898" data-name="Trazado 150898" d="M1159.16,595.8s-1.87.453-.517,1.889,4.088.358,6.12.935a.98.98,0,0,0,.031-1.8C1163.439,595.829,1159.16,595.8,1159.16,595.8Z" transform="translate(-1070.999 -563.299)" fill="#1a1715"/>
                  <path id="Trazado_150899" data-name="Trazado 150899" d="M1124.935,612.817c0,1.348.627,2.445,1.391,2.445s1.391-1.1,1.391-2.445-.621-2.446-1.391-2.446S1124.935,611.464,1124.935,612.817Z" transform="translate(-1053.182 -571.112)" fill="#1a1715"/>
                  <path id="Trazado_150900" data-name="Trazado 150900" d="M1161.244,612.817c0,1.348.438,2.445.98,2.445s.985-1.1.985-2.445-.438-2.446-.985-2.446S1161.244,611.465,1161.244,612.817Z" transform="translate(-1072.658 -571.112)" fill="#1a1715"/>
                  <path id="Trazado_150901" data-name="Trazado 150901" d="M1105.134,609.989s-.449,7.979,1.53,9.715,18.269-2.219,19.424-2.963c0,0,10.578,3.019,10.671,2.4s.965-8.284.464-10.88l-26.972-.683Z" transform="translate(-1042.538 -569.616)" fill="#8e2f2b" opacity="0.5" style="mix-blend-mode: multiply;isolation: isolate"/>
                  <g id="Grupo_91820" data-name="Grupo 91820" transform="translate(61.234 37.718)">
                    <path id="Trazado_150902" data-name="Trazado 150902" d="M1117.162,607.049l-.1,0h0Z" transform="translate(-1110.195 -607.047)" fill="#1d272b"/>
                    <path id="Trazado_150903" data-name="Trazado 150903" d="M1136.784,608.034l-1.538-.056c.127,1.079.916,8.56-1.224,9.495,0,0-7.2-1.873-9.794-1.873s-14.492,3.667-17.167,2.845-1.934-8.728-1.934-8.728l3.946-2.64-6.387,2.64s-1.942,10.486,2.349,11.382,17.437-4.332,20.127-3.584,9.352,3.03,10.5,2.262S1136.784,608.034,1136.784,608.034Z" transform="translate(-1102.248 -607.063)" fill="#1d272b"/>
                  </g>
                  <path id="Trazado_150904" data-name="Trazado 150904" d="M1090.544,611.208s8.061-3.7,11.264-4.421,27.451-.571,28.7,0c0,0,.822,1.166-1.548,1.4,0,0-21.837-1.385-27.149,0l-10.951,4.111Z" transform="translate(-1034.736 -568.93)" fill="#1d272b"/>
                  <path id="Trazado_150905" data-name="Trazado 150905" d="M1133.4,632.972a8.177,8.177,0,0,0-5.478,0c-3.825,1.172-12.831,6.658-13.092,8.852s5.219,14.345,11.43,16.037c4.5,1.23,12.438-1.6,15.719-12.8,0,0,.665-4.749-.811-7.319S1133.4,632.972,1133.4,632.972Z" transform="translate(-1047.758 -582.994)" fill="#eeebf5"/>
                  <path id="Trazado_150906" data-name="Trazado 150906" d="M1103.243,640.593s-10.877-6.858-12.128-8.07l.13,2.675,10.87,6.626Z" transform="translate(-1035.042 -582.994)" fill="#eeebf5"/>
                  <path id="Trazado_150907" data-name="Trazado 150907" d="M1109.753,667.565s-8.958-.927-11.013-1.585l.726,1.585,10.851,1.719Z" transform="translate(-1039.132 -600.939)" fill="#eeebf5"/>
                  <path id="Trazado_150908" data-name="Trazado 150908" d="M1105.05,693.134l5.151,7.369s-6.521,15.109-22.815,16.906-49.169-16.136-49.169-16.136l4.45-10.484s32.725,16.687,46.358,13.371C1104.077,700.5,1105.05,693.134,1105.05,693.134Z" transform="translate(-1006.668 -614.246)" fill="#008f85"/>
                  <path id="Trazado_150909" data-name="Trazado 150909" d="M1074.21,708.715l-32.43-13.461-3.564,8.414s23.125,12.61,40.2,15.62Z" transform="translate(-1006.668 -616.641)" fill="#008f85"/>
                  <path id="Trazado_150910" data-name="Trazado 150910" d="M1092.595,704.16c-13.633,3.316-46.358-13.371-46.358-13.371l-1.364,3.2c8.939,4.535,32.578,15.714,45.6,14.282,10.41-1.15,16.83-7.722,20.109-12.329l-1.967-2.811S1107.648,700.5,1092.595,704.16Z" transform="translate(-1010.239 -614.246)" fill="#1d272b"/>
                  <path id="Trazado_150911" data-name="Trazado 150911" d="M983.185,728.538s8.37-2.394,14.345,9.135,10.39,52.354,10.39,52.354,37.783,50.84,41.3,52.552-.547,13.2-11.165,14.95c-7.267,1.2-50.565-39.026-54.19-45.58,0,0-1.791,1.2-13.233-58.412C968.644,743.18,973.119,728.33,983.185,728.538Z" transform="translate(-970.168 -634.384)" fill="#ecedea"/>
                  <path id="Trazado_151028" data-name="Trazado 151028" d="M1033.636,728.538s-7.9-2.394-13.534,9.135-9.8,52.354-9.8,52.354-35.648,50.84-38.965,52.552.516,13.2,10.534,14.95c6.857,1.2,47.708-39.026,51.129-45.58,0,0,1.69,1.2,12.486-58.412C1047.356,743.18,1043.134,728.33,1033.636,728.538Z" transform="translate(-914.382 -634.384)" fill="#ecedea"/>
                </g>
              </g>
              <path id="Trazado_150913" data-name="Trazado 150913" d="M1021.2,838.906s-21.813,3.674-21.5,16.286" transform="translate(-986.008 -693.694)" fill="none" stroke="#868695" stroke-linecap="round" stroke-miterlimit="10" stroke-width="2.579"/>
              <line id="Línea_1693" data-name="Línea 1693" x1="24.258" y1="2.26" transform="translate(8.697 140.764)" fill="none" stroke="#868695" stroke-linecap="round" stroke-miterlimit="10" stroke-width="2.579"/>
              <path id="Trazado_150914" data-name="Trazado 150914" d="M1004.063,808.43s-17.487-11.833-22.12-14.9" transform="translate(-976.484 -669.355)" fill="none" stroke="#868695" stroke-linecap="round" stroke-miterlimit="10" stroke-width="2.579"/>
            </g>
            <path id="Trazado_150917" data-name="Trazado 150917" d="M1355.029,832.1a1.789,1.789,0,0,0,1.789,1.793h0a1.791,1.791,0,0,0,1.791-1.793v-7.572a1.789,1.789,0,0,0-1.791-1.793h0a1.787,1.787,0,0,0-1.789,1.793Z" transform="translate(-1128.675 -685.018)" fill="#f7b242"/>
            <path id="Trazado_150918" data-name="Trazado 150918" d="M1362.127,829.67a1.794,1.794,0,0,0,1.8,1.793h0a1.791,1.791,0,0,0,1.793-1.793V822.1a1.791,1.791,0,0,0-1.793-1.791h0a1.794,1.794,0,0,0-1.8,1.791Z" transform="translate(-1132.482 -683.719)" fill="#f7b242"/>
            <path id="Trazado_150919" data-name="Trazado 150919" d="M1369.873,827.858a1.79,1.79,0,0,0,1.787,1.789h0a1.8,1.8,0,0,0,1.8-1.789v-7.575a1.793,1.793,0,0,0-1.8-1.791h0a1.787,1.787,0,0,0-1.787,1.791Z" transform="translate(-1136.637 -682.744)" fill="#f7b242"/>
            <path id="Trazado_150920" data-name="Trazado 150920" d="M1377.607,827.046a1.79,1.79,0,0,0,1.791,1.795h0a1.792,1.792,0,0,0,1.793-1.795v-7.568a1.793,1.793,0,0,0-1.793-1.8h0a1.791,1.791,0,0,0-1.791,1.8Z" transform="translate(-1140.786 -682.308)" fill="#f7b242"/>
            <path id="Trazado_150922" data-name="Trazado 150922" d="M1118.272,975.992l10.749,13.53s1.843-.109,5.48,2,6.076,1.334,6.8,3.8,1.212,1.882.737,3.471,3.965,4.346,3.677,7.179-5.995,5.683-10.087,7.523c-1.031.458-7.889,1.128-10.729-.556s-6.207-12.476-7.646-14.93-13.2-12.12-13.2-12.12A28.168,28.168,0,0,1,1118.272,975.992Z" transform="translate(-994.056 -767.224)" fill="#f7b242"/>
            <path id="Trazado_150923" data-name="Trazado 150923" d="M906.518,1406.994s20.691,19.856,21.937,20.794.5,3.37-.328,4.343-50.384-19.544-53.418-20.826-6.92-2.4-7.766-3.986,1.976-10.466,7.425-17.063l16.323-33.531s-.172-4.891,3.09-5.256c0,0,19.486,11.38,36.316,16.109,0,0-3.577,5.853-6.628,8.6C916.939,1382.046,906.518,1406.994,906.518,1406.994Z" transform="translate(-866.796 -968.623)" fill="#00111c"/>
            <path id="Trazado_150924" data-name="Trazado 150924" d="M1222.815,1423.939s28.256,4.9,29.813,4.978,2.308,2.51,2.152,3.78-52.7,11.967-55.926,12.6-7.079,1.88-8.671,1.034-4.21-9.785-3.383-18.3l-5.216-36.926s-2.872-3.959-.37-6.085c0,0,22.511-1.454,39.116-6.947,0,0,.3,6.855-.693,10.839C1217.5,1397.428,1222.815,1423.939,1222.815,1423.939Z" transform="translate(-1034.895 -982.893)" fill="#00111c"/>
            <path id="Trazado_150925" data-name="Trazado 150925" d="M1003.334,1209.52s6.184,19.772,12.2,35.868" transform="translate(-940.033 -892.484)" fill="none" stroke="#5179aa" stroke-linecap="round" stroke-miterlimit="10" stroke-width="2.579"/>
            <path id="Trazado_150926" data-name="Trazado 150926" d="M981.943,1240.6s14.756,24.928,22.12,30.224" transform="translate(-928.559 -909.156)" fill="none" stroke="#5179aa" stroke-linecap="round" stroke-miterlimit="10" stroke-width="2.579"/>
          </g>
        </g>
      </g>
    </g>
  </g>
</svg>
