<svg xmlns="http://www.w3.org/2000/svg" xmlns:xlink="http://www.w3.org/1999/xlink" width="446.212" height="595.724" viewBox="0 0 446.212 595.724">
  <defs>
    <linearGradient id="linear-gradient" x1="0.5" x2="0.5" y2="1" gradientUnits="objectBoundingBox">
      <stop offset="0" stop-color="#f5f5f5"/>
      <stop offset="0.25" stop-color="#f5f5f5"/>
      <stop offset="1" stop-color="#a7b3cf"/>
    </linearGradient>
    <linearGradient id="linear-gradient-2" x1="0.5" x2="0.5" y2="1" gradientUnits="objectBoundingBox">
      <stop offset="0" stop-color="#f5f5f5"/>
      <stop offset="0.25" stop-color="#f5f5f5"/>
      <stop offset="1" stop-color="#eeeef2"/>
    </linearGradient>
  </defs>
  <g id="img4" transform="translate(-197.646 -1869.834)">
    <g id="Grupo_121030" data-name="Grupo 121030" transform="translate(-623.269 152.5)">
      <g id="Grupo_121029" data-name="Grupo 121029" transform="translate(915.221 1717.334)">
        <g id="Grupo_121028" data-name="Grupo 121028">
          <path id="Trazado_158642" data-name="Trazado 158642" d="M1340.181,2126.493l-101.231-96.054,2.685-2.818,101.231,96.048Z" transform="translate(-992.96 -1787.944)" fill="#b8d0da"/>
          <g id="Grupo_121027" data-name="Grupo 121027">
            <path id="Trazado_158643" data-name="Trazado 158643" d="M1091.885,2051.981s-.809,35.894-2.354,53.59-15.443,141.507-15.443,141.507-1.819,37.348-9.689,47.179-30.568,3.926-37.092,1.961-6.512-244.238-6.512-244.238Z" transform="translate(-943.317 -1793.488)" fill="url(#linear-gradient)"/>
            <path id="Trazado_158644" data-name="Trazado 158644" d="M1027.309,2296.219a85.848,85.848,0,0,0,18,3.433c-2.748-13.324-9.194-51.337-7.938-61.417,1.482-11.8,22.12-140.532,27.032-147.412,3.207-4.487,17.446-14.079,26.939-20.2.362-10.467.546-18.644.546-18.644H1020.8S1020.8,2294.257,1027.309,2296.219Z" transform="translate(-943.317 -1793.488)" fill="url(#linear-gradient-2)"/>
            <path id="Trazado_158645" data-name="Trazado 158645" d="M1040.225,2056.162s-8.373,46.193-14.089,71.743-33.728,170.992-43.806,175.9-43.784,6.333-42.5-5.289c3.63-33.031,15.026-172.709,15.026-183.52s.076-46.06,13.82-64.553C977.211,2038.948,1040.225,2056.162,1040.225,2056.162Z" transform="translate(-924.884 -1792.238)" fill="url(#linear-gradient)"/>
            <path id="Trazado_158646" data-name="Trazado 158646" d="M976.578,2166.759s1.509-26.531-2.7-30.955-40.32-5.893-47.7,0-5.467,30.955-5.467,30.955h5.467s-1.587-30.955,12.845-28.74,29.154.815,30.8,2.209c2.819,2.384-.084,26.531-.084,26.531Z" transform="translate(-920.491 -1811.679)" fill="#00111c"/>
            <path id="Trazado_158647" data-name="Trazado 158647" d="M1128.793,1967.051s32.267,20.971,34.768,25.835-1.672,22.467-19.468,19.8-66.426-24.893-64.532-30.209S1109.464,1953.792,1128.793,1967.051Z" transform="translate(-956.677 -1773.247)" fill="url(#linear-gradient-2)"/>
            <path id="Trazado_158648" data-name="Trazado 158648" d="M1114.212,1858.637s11.789,4.876,15.479,9.951-1.33,71.571-10.986,87.753S1114.212,1858.637,1114.212,1858.637Z" transform="translate(-964.262 -1749.49)" fill="url(#linear-gradient-2)"/>
            <g id="Grupo_121025" data-name="Grupo 121025" transform="translate(33.387 99.606)">
              <g id="Grupo_121024" data-name="Grupo 121024">
                <g id="Grupo_121023" data-name="Grupo 121023">
                  <path id="Trazado_158649" data-name="Trazado 158649" d="M1085.047,2039.2s-.012,14.469-3.467,15.509c0,0-59.085,14.517-104.776-7.045l-1.288-13.4Z" transform="translate(-966.399 -1889.063)" fill="#1d272d"/>
                  <path id="Trazado_158650" data-name="Trazado 158650" d="M1013.67,1846.285s-42.895,9.614-48.745,16.484,11.3,63.328,12.9,69.722c1.6,6.379-6.276,55.262-4.692,62.178,1.6,6.909,74.136,18.789,109.23,1.756,0,0,1.967-75.123,1.967-76.715s9.577-65.1-6.8-65.829c-4.267-.19-22.443-7.595-22.443-7.595Z" transform="translate(-963.714 -1846.285)" fill="url(#linear-gradient)"/>
                  <path id="Trazado_158651" data-name="Trazado 158651" d="M975.844,1996.5c1.6,6.909,74.136,18.789,109.23,1.756,0,0,1.967-75.123,1.967-76.715s9.577-65.1-6.8-65.829a27.3,27.3,0,0,1-5.685-1.391l-9.836,8.213h-47.448s-32.282,10.606-35.065,18.708c-1.526,4.465-1.768,26.223-2.781,49.037.531,1.9.926,3.311,1.107,4.044C982.132,1940.7,974.259,1989.58,975.844,1996.5Z" transform="translate(-966.426 -1848.113)" fill="url(#linear-gradient)"/>
                  <path id="Trazado_158652" data-name="Trazado 158652" d="M1109.781,1855.031s5.516,83.592,6.491,117.77c0,0,9.221-79.751,2.1-108.042C1115.973,1855.246,1115.36,1855.031,1109.781,1855.031Z" transform="translate(-996.953 -1848.275)" fill="#1d272d"/>
                  <path id="Trazado_158653" data-name="Trazado 158653" d="M978.036,1859.126s40.339,64.631-3.3,122.447c0,0-5.986,6.713,0,9.426,0,0,33.866-26.206,29.44-77.594,0,0-5.03-39-19.721-56.491C984.451,1856.915,979.415,1854.284,978.036,1859.126Z" transform="translate(-965.616 -1848.542)" fill="#1d272d"/>
                  <path id="Trazado_158654" data-name="Trazado 158654" d="M1047.387,1922.2h-21.981v-14.661h21.981Z" transform="translate(-977.753 -1860.224)" fill="#008f85"/>
                  <rect id="Rectángulo_34390" data-name="Rectángulo 34390" width="18.019" height="2.281" transform="translate(50.849 53.506)" fill="#1d272b"/>
                  <path id="Trazado_158655" data-name="Trazado 158655" d="M1043.244,1898.824l-1.457,9.459h-4.025l-.293-9.459Z" transform="translate(-980.498 -1858.241)" fill="#1d272b"/>
                </g>
              </g>
            </g>
            <path id="Trazado_158656" data-name="Trazado 158656" d="M1070.426,1728.083c-3.1-2.51-14.408-9.215-32.228-10.687-12.277-1.02-24.808,10.827-33.61,21.381-6.6,7.905-3.192,31.866-1.39,42.508,0,0-3.238,31.54-.372,40.4,0,0,51.581,10.66,57.613,9.592s14.2-6.735,17.036-12.4c2.815-5.676,2.577-33.864,2.577-33.864S1077.861,1734.124,1070.426,1728.083Z" transform="translate(-938.743 -1717.334)" fill="url(#linear-gradient)"/>
            <path id="Trazado_158657" data-name="Trazado 158657" d="M1074.02,1762.253s1.023-20.283-3.186-25.068-31.562-5.165-38.158-2.586-8.8,30.125-8.427,37.729c0,0-13.273-7.248-15.113-4.616s15.485,5.379,14.374,8.427-12.163,1.985-12.9,5.835,13.638-1.768,14.366,1.22,2.585,1.237-.728,4.52-17.325,5.486-12.9,7.7,17.03-5.039,16.623-1.964-21.411,9.692-17.359,11.722,18.107-5.362,17.712-2.031-21.055,9.758-15.147,10.409,11.49-2.866,15.147,0c2.673,2.089,1.288,10.576.32,16.42,14.365,2.7,30.478,5.449,33.685,4.879,4.945-.875,11.339-4.858,15.039-9.393.329-8.965,1.309-32.5-2.007-47.879Z" transform="translate(-940.632 -1720.903)" fill="#f5f5f5"/>
            <path id="Trazado_158658" data-name="Trazado 158658" d="M1079.678,1760.536a31.792,31.792,0,0,1,.293,14.089,17.394,17.394,0,0,0,.29,8.511c1.363,4.019,2.772,22.2-2.357,30.626-3.624,5.935-24.712,11.115-34.926,0-8.484-9.231-9.625-29.093-9.4-35.711s2.052-24.482,18.967-22.9C1068.269,1756.622,1078.866,1754,1079.678,1760.536Z" transform="translate(-946.221 -1725.917)" fill="#fca977"/>
            <path id="Trazado_158659" data-name="Trazado 158659" d="M1060.988,1766.851s3.427.549.941,2.326-8.934.616-12.652,1.334c0,0,.592-1.3,3.075-2.547C1054.835,1766.736,1060.988,1766.851,1060.988,1766.851Z" transform="translate(-949.798 -1728.602)" fill="#1a1715"/>
            <path id="Trazado_158660" data-name="Trazado 158660" d="M1084.876,1769.219s-2.308.564-.63,2.332,5.03.444,7.543,1.15a1.206,1.206,0,0,0,.036-2.209C1090.147,1769.246,1084.876,1769.219,1084.876,1769.219Z" transform="translate(-957.617 -1729.141)" fill="#1a1715"/>
            <path id="Trazado_158661" data-name="Trazado 158661" d="M1059.055,1783.021c0,1.657.76,3.015,1.713,3.015s1.714-1.358,1.714-3.015c0-1.675-.769-3.017-1.714-3.017S1059.055,1781.346,1059.055,1783.021Z" transform="translate(-952.023 -1731.596)" fill="#1a1715"/>
            <path id="Trazado_158662" data-name="Trazado 158662" d="M1085.914,1783.021c0,1.657.54,3.015,1.21,3.015s1.214-1.358,1.214-3.015c0-1.675-.543-3.017-1.214-3.017S1085.914,1781.346,1085.914,1783.021Z" transform="translate(-958.135 -1731.596)" fill="#1a1715"/>
            <path id="Trazado_158663" data-name="Trazado 158663" d="M1044.414,1780.9s-.555,9.84,1.882,11.982,22.533-2.737,23.952-3.654c0,0,13.053,3.717,13.159,2.965s1.189-10.207.579-13.418l-33.263-.844Z" transform="translate(-948.679 -1731.125)" fill="#8e2f2b" opacity="0.5" style="mix-blend-mode: multiply;isolation: isolate"/>
            <g id="Grupo_121026" data-name="Grupo 121026" transform="translate(94.057 46.501)">
              <path id="Trazado_158664" data-name="Trazado 158664" d="M1053.346,1777.544l-.124-.009h0Z" transform="translate(-1044.753 -1777.535)" fill="#232c4a"/>
              <path id="Trazado_158665" data-name="Trazado 158665" d="M1084.839,1778.744l-1.892-.066c.154,1.334,1.131,10.555-1.518,11.7,0,0-8.875-2.3-12.063-2.3s-17.878,4.523-21.17,3.5-2.387-10.757-2.387-10.757l4.859-3.25-7.87,3.25s-2.393,12.935,2.894,14.043,21.5-5.338,24.814-4.421,11.536,3.724,12.957,2.779S1084.839,1778.744,1084.839,1778.744Z" transform="translate(-1042.258 -1777.543)" fill="#1d272b"/>
            </g>
            <path id="Trazado_158666" data-name="Trazado 158666" d="M1033.59,1783.045s9.945-4.565,13.895-5.443c3.949-.9,33.846-.714,35.381,0,0,0,1.016,1.424-1.91,1.717,0,0-26.926-1.708-33.471,0l-13.5,5.066Z" transform="translate(-946.228 -1730.911)" fill="#1d272b"/>
            <path id="Trazado_158667" data-name="Trazado 158667" d="M1074.47,1796.954a10.085,10.085,0,0,0-6.753,0c-4.717,1.451-15.827,8.213-16.143,10.917s6.43,17.685,14.085,19.776c5.542,1.512,15.343-1.97,19.386-15.793,0,0,.824-5.86-1-9.021S1074.47,1796.954,1074.47,1796.954Z" transform="translate(-950.318 -1735.327)" fill="#eeebf5"/>
            <path id="Trazado_158668" data-name="Trazado 158668" d="M1048.976,1806.346s-13.418-8.464-14.96-9.948l.16,3.3,13.406,8.171Z" transform="translate(-946.325 -1735.326)" fill="#eeebf5"/>
            <path id="Trazado_158669" data-name="Trazado 158669" d="M1053.245,1823.116s-11.053-1.149-13.593-1.952l.9,1.952,13.383,2.113Z" transform="translate(-947.608 -1740.962)" fill="#eeebf5"/>
            <path id="Trazado_158670" data-name="Trazado 158670" d="M1077.279,1842.417l6.351,9.084s-8.041,18.629-28.134,20.844-60.633-19.9-60.633-19.9l5.483-12.923s40.36,20.575,57.167,16.489C1076.078,1851.5,1077.279,1842.417,1077.279,1842.417Z" transform="translate(-937.415 -1745.139)" fill="#1d272b"/>
            <path id="Trazado_158672" data-name="Trazado 158672" d="M1058.634,1856.009c-16.807,4.085-57.167-16.489-57.167-16.489l-1.675,3.946c11.023,5.591,40.16,19.377,56.243,17.613,12.833-1.421,20.745-9.523,24.784-15.2l-2.419-3.464S1077.2,1851.5,1058.634,1856.009Z" transform="translate(-938.537 -1745.139)" fill="#008f85"/>
            <path id="Trazado_158673" data-name="Trazado 158673" d="M964.67,1966.061s13.741-67.8,10.343-83.462c-3.386-15.642-14.121-15.5-14.121-15.5-11.906-3.491-20.493,12.944-23.01,25.7-10.027,50.821-10.027,62.492-10.027,62.492s5.169,82.313,9.221,89.681,18.3,7.86,24.929,0Z" transform="translate(-922.167 -1751.307)" fill="url(#linear-gradient-2)"/>
            <path id="Trazado_158674" data-name="Trazado 158674" d="M1174.275,1995.953s-15.377,9.278-11.116,20.982l20.183,4.318s6.2,8.331,8.473,10.1,9.643,5.208,12.25,4.53,10.485-8.56,11.6-12.232.046-5.863-1.424-8.047-5.613-5.715-7.463-7.076-4.885-1.093-6.677-.438-10.431-1.5-12.468-2.248S1174.275,1995.953,1174.275,1995.953Z" transform="translate(-975.544 -1780.738)" fill="#db8804"/>
            <path id="Trazado_158675" data-name="Trazado 158675" d="M958.265,2209.868c.272-2.215,7.109-16.215,6.457-19.908s-1.556-10.313,0-13.261,5.812-11.058,2.665-19.166,1.68-55.278.09-67.806c-.812-6.46-4.092-11.873-7.067-15.6-5.509,18.01-5.555,39.21-5.555,47.164,0,10.811-11.4,150.489-15.026,183.52-.29,2.642,1.24,4.61,3.889,6.017,6.143-20.235,15.669-65.654,18.077-74.423C964.837,2225.345,958.015,2212.071,958.265,2209.868Z" transform="translate(-924.884 -1798.527)" fill="#fff"/>
            <path id="Trazado_158676" data-name="Trazado 158676" d="M963.707,2162.07s18.043,45.7,31.749,61.174" transform="translate(-930.325 -1818.54)" fill="none" stroke="#5179aa" stroke-linecap="round" stroke-miterlimit="10" stroke-width="1.908"/>
            <path id="Trazado_158677" data-name="Trazado 158677" d="M986.413,2239.1s-16.064-13.922-22.706-26.8" transform="translate(-930.325 -1829.971)" fill="none" stroke="#5179aa" stroke-linecap="round" stroke-miterlimit="10" stroke-width="1.908"/>
            <path id="Trazado_158678" data-name="Trazado 158678" d="M1075.315,2212.3s-27.79,29.011-37.846,34.171" transform="translate(-947.111 -1829.971)" fill="none" stroke="#1d272d" stroke-linecap="round" stroke-miterlimit="10" stroke-width="1.908"/>
            <path id="Trazado_158679" data-name="Trazado 158679" d="M1073.512,2234.422s-28.979,22.241-43.969,25.185" transform="translate(-945.307 -1835.005)" fill="none" stroke="#1d272d" stroke-linecap="round" stroke-miterlimit="10" stroke-width="1.908"/>
            <path id="Trazado_158680" data-name="Trazado 158680" d="M977.5,2414.979s32.415,14.115,34.265,14.673,2.018,3.685,1.469,5.157-66.629-1.059-70.684-1.243-9.025.184-10.678-1.283-2.2-12.953,1.282-22.917l4.538-45.761s-2.287-5.576,1.333-7.4c0,0,27.4,4.831,48.888,3.107,0,0-1.641,8.289-3.992,12.767C978.873,2381.665,977.5,2414.979,977.5,2414.979Z" transform="translate(-922.786 -1862.719)" fill="#db8804"/>
            <path id="Trazado_158681" data-name="Trazado 158681" d="M1060.048,2395.261s32.428,14.122,34.271,14.668,2.016,3.687,1.467,5.159-66.62-1.053-70.675-1.243c-4.062-.172-9.028.19-10.687-1.282s-2.2-12.951,1.282-22.914l4.547-45.758s-2.287-5.588,1.327-7.4c0,0,27.388,4.824,48.884,3.1,0,0-1.632,8.294-3.991,12.779C1061.43,2361.953,1060.048,2395.261,1060.048,2395.261Z" transform="translate(-941.572 -1858.233)" fill="#db8804"/>
            <path id="Trazado_158682" data-name="Trazado 158682" d="M939.793,2380.559" transform="translate(-924.883 -1868.26)" fill="#00111c"/>
          </g>
          <path id="Trazado_158683" data-name="Trazado 158683" d="M1247.107,2030.823l-32.829-31.145a3.381,3.381,0,1,0-4.656,4.9l32.834,31.157Z" transform="translate(-986.047 -1781.373)" fill="#1d272d"/>
          <path id="Trazado_158684" data-name="Trazado 158684" d="M1333.25,2120.9l29.41,27.9,3.666-3.871-29.4-27.9Z" transform="translate(-1014.42 -1808.291)" fill="#1d272d"/>
        </g>
        <line id="Línea_1699" data-name="Línea 1699" x1="14.079" y1="44.886" transform="translate(18.533 169.868)" fill="none" stroke="#1d272d" stroke-linecap="round" stroke-miterlimit="10" stroke-width="1.908"/>
      </g>
      <path id="Trazado_158685" data-name="Trazado 158685" d="M961.631,2092.37s-10.793-2.208-19.589,1.108c0,0,1.053,14.746,0,18.429s-5.838,14.733-3.63,18.053c0,0,1.838,3.684,5.521,2.95,0,0,4.78,5.329,8.848,3.594,0,0,7.006,2.447,8.85.344a5.212,5.212,0,0,0,5.515-1.361c2.6-2.577,2.957-17.871,1.853-20.816s-2.948-6.819-4.309-9.767S961.631,2092.37,961.631,2092.37Z" transform="translate(-9.218 -85.18)" fill="#db8804"/>
      <path id="Trazado_158686" data-name="Trazado 158686" d="M996.463,2242.188v-60.437a14.74,14.74,0,0,0-14.733-14.74H912.062a14.734,14.734,0,0,0-14.73,14.74v60.437Z" transform="translate(0 -102.33)" fill="#008f85"/>
      <path id="Trazado_158687" data-name="Trazado 158687" d="M987.027,2181.016v61.173h29.848v-60.437a14.74,14.74,0,0,0-14.733-14.74S987.027,2167.012,987.027,2181.016Z" transform="translate(-20.411 -102.33)" fill="#62a8a4"/>
      <rect id="Rectángulo_34391" data-name="Rectángulo 34391" width="69.284" height="8.479" transform="translate(897.332 2131.38)" fill="#00111c"/>
      <rect id="Rectángulo_34392" data-name="Rectángulo 34392" width="29.848" height="8.479" transform="translate(966.616 2131.38)" fill="#152a36"/>
      <path id="Trazado_158688" data-name="Trazado 158688" d="M996.566,2229.82c0,5.971,3.135,10.8,7,10.8s7-4.834,7-10.8-3.141-10.808-7-10.808S996.566,2223.851,996.566,2229.82Z" transform="translate(-22.582 -114.164)" fill="#a2c2e7" stroke="#00111c" stroke-linejoin="round" stroke-width="2.712"/>
      <path id="Trazado_158689" data-name="Trazado 158689" d="M1005.633,2189s21.03,6.382,37.707,32.922c9.52,15.147,28.5,67.326,53.314,49.14s27.1-52.57,26.29-88.938c-.986-44.1,18.436-128.9,35.87-142.5" transform="translate(-24.645 -73.341)" fill="none" stroke="#1d272d" stroke-linecap="round" stroke-linejoin="round" stroke-width="5.725"/>
    </g>
    <g id="Grupo_121033" data-name="Grupo 121033" transform="translate(197.646 2227.155)">
      <g id="Grupo_90783" data-name="Grupo 90783" transform="translate(21.87 19.11)">
        <g id="Grupo_90780" data-name="Grupo 90780" transform="translate(76.762 10.023)">
          <path id="Trazado_149804" data-name="Trazado 149804" d="M230.375,166.667a6.519,6.519,0,0,1-1.415-.606c-5.508-3.086-10.461-6.036-10.51-6.065a.423.423,0,0,1,.433-.726c.049.03,4.993,2.973,10.491,6.053,1.289.722,2.277.833,2.938.332,1.61-1.222,1.453-5.983.466-10.056-1.256-5.184-8.952-7.636-11.821-7.5a26.275,26.275,0,0,0-6.391,1.278.423.423,0,0,1-.281-.8,26.64,26.64,0,0,1,6.63-1.325c3.635-.179,11.4,2.852,12.684,8.14.786,3.244,1.508,9.2-.776,10.929A2.669,2.669,0,0,1,230.375,166.667Z" transform="translate(-214.002 -147.252)" fill="#efebe9"/>
        </g>
        <g id="Grupo_90781" data-name="Grupo 90781" transform="translate(0 12.031)">
          <path id="Trazado_149805" data-name="Trazado 149805" d="M114,166.53a25.566,25.566,0,0,1-2.758-.938c-4.257-1.737-7-4.346-8.151-7.753-1.073-3.174-.99-5.32.254-6.559,2.485-2.474,8.953-.255,13.674,1.367.669.229,1.3.446,1.874.633,6.048,1.979,9.105.893,9.136.882a.423.423,0,1,1,.293.793c-.134.05-3.366,1.19-9.691-.871-.578-.188-1.213-.406-1.886-.637-4.258-1.461-10.691-3.67-12.8-1.567-.98.976-1,2.89-.05,5.689,1.07,3.165,3.65,5.6,7.67,7.241,8.086,3.3,20.644,2.457,26.469-.5a.423.423,0,1,1,.383.754C133.036,167.795,122.316,168.854,114,166.53Z" transform="translate(-102.348 -150.173)" fill="#97e8ce"/>
        </g>
        <path id="Trazado_149806" data-name="Trazado 149806" d="M196.551,155.651l-5.164-11.6a.849.849,0,0,0-.518-.466c-2.528-.786-4.517-2.313-13.036-8.518-8.916-6.493-18.406,1.975-23.526,4.933-3.823,2.208-12.653,6.73-15.67,8.267a.856.856,0,0,0-.226,1.358l10.029,10.369a.86.86,0,0,0,.7.256c6.652-.637,7.307,1.394,16.611,2.658,9.493,1.289,15.522-.732,20.432-4.335a11.986,11.986,0,0,1,9.417-1.733A.856.856,0,0,0,196.551,155.651Z" transform="translate(-113.542 -132.674)" fill="#b2f2ef"/>
        <path id="Trazado_149807" data-name="Trazado 149807" d="M144.916,151.783a1.172,1.172,0,0,1,.306-1.857c4.034-2.075,9.508-4.929,12.359-6.577.848-.49,1.781-1.1,2.768-1.75,4.078-2.679,9.661-6.346,14.823-4.9a9.975,9.975,0,0,1,3.173,1.575l1.671,1.218c6.295,4.589,8.658,6.312,10.93,7.25a1.166,1.166,0,0,1,.621.6l2.78,6.245a1.175,1.175,0,0,1-.982,1.645,13.085,13.085,0,0,0-6.676,2.448c-5.083,3.729-10.816,4.922-18.589,3.866A50.961,50.961,0,0,1,160.668,160l-.98-.276a20.7,20.7,0,0,0-7.449-.948,1.171,1.171,0,0,1-.9-.355Z" transform="translate(-115.547 -133.829)" fill="#00a79e"/>
        <g id="Grupo_90782" data-name="Grupo 90782" transform="translate(29.785 4.59)">
          <path id="Trazado_149808" data-name="Trazado 149808" d="M157.915,147.25c.9-.521,1.891-1.171,2.938-1.859,4.262-2.8,10.1-6.632,15.428-5.143a10.265,10.265,0,0,1,3.262,1.62l1.767,1.288c6.674,4.865,9.172,6.686,11.6,7.69a.278.278,0,0,0,.144.016l-.312-.7c-2.265-1.016-4.825-2.882-11.105-7.46l-1.766-1.287a10.8,10.8,0,0,0-3.442-1.707c-5.576-1.56-11.536,2.355-15.891,5.215-1.04.682-2.021,1.327-2.909,1.84-2.753,1.591-7.824,4.247-11.962,6.382l.409.424C150.2,151.443,155.186,148.826,157.915,147.25Z" transform="translate(-145.671 -139.35)" fill="#008f85"/>
          <path id="Trazado_149809" data-name="Trazado 149809" d="M195.722,156.169c-2.37-.978-4.852-2.787-11.489-7.626l-1.766-1.287a10.807,10.807,0,0,0-3.442-1.707c-5.576-1.56-11.537,2.355-15.9,5.222-1.035.68-2.014,1.322-2.9,1.834-2.371,1.37-6.46,3.53-10.192,5.466l.408.423c3.7-1.919,7.718-4.045,10.065-5.4.9-.52,1.884-1.166,2.938-1.858,4.263-2.8,10.1-6.633,15.428-5.143a10.242,10.242,0,0,1,3.262,1.62l1.77,1.29c6.673,4.864,9.17,6.684,11.6,7.688a.277.277,0,0,0,.369-.153A.283.283,0,0,0,195.722,156.169Z" transform="translate(-147.034 -141.176)" fill="#008f85"/>
          <path id="Trazado_149810" data-name="Trazado 149810" d="M185.058,153.1a10.808,10.808,0,0,0-3.442-1.708c-5.576-1.559-11.536,2.356-15.9,5.223-1.035.68-2.014,1.321-2.9,1.833-2,1.156-5.224,2.874-8.425,4.546l.013.014a1.175,1.175,0,0,0,.569.319c3.1-1.623,6.186-3.27,8.126-4.391.9-.519,1.884-1.166,2.938-1.858,4.262-2.8,10.1-6.633,15.428-5.143a10.244,10.244,0,0,1,3.262,1.62l1.767,1.288c3.431,2.5,5.756,4.2,7.538,5.391q.378-.1.752-.177c-1.822-1.2-4.237-2.957-7.96-5.671Z" transform="translate(-148.396 -143.002)" fill="#008f85"/>
          <path id="Trazado_149811" data-name="Trazado 149811" d="M189.467,158.942a10.794,10.794,0,0,0-3.442-1.708c-5.576-1.559-11.537,2.356-15.89,5.215-1.039.683-2.02,1.327-2.91,1.841-.74.428-1.648.933-2.659,1.483.264.065.529.135.8.208.8-.441,1.533-.848,2.145-1.2.9-.522,1.892-1.171,2.938-1.858,4.263-2.8,10.1-6.634,15.428-5.143a10.255,10.255,0,0,1,3.262,1.62l1.77,1.29c1.3.945,2.434,1.774,3.446,2.505q.281-.153.562-.289c-1.068-.771-2.281-1.656-3.68-2.675Z" transform="translate(-151.576 -144.828)" fill="#008f85"/>
          <path id="Trazado_149812" data-name="Trazado 149812" d="M193.251,164.786a10.834,10.834,0,0,0-3.442-1.708c-5.575-1.559-11.536,2.356-15.89,5.215-.4.265-.794.52-1.178.769.253.054.514.109.785.163l.7-.461c4.262-2.8,10.1-6.632,15.427-5.143a10.245,10.245,0,0,1,3.262,1.62l1.73,1.261c.164-.11.327-.226.489-.341l-.122-.089Z" transform="translate(-154.13 -146.654)" fill="#008f85"/>
        </g>
      </g>
      <g id="Grupo_90787" data-name="Grupo 90787" transform="translate(46.796 31.83)">
        <g id="Grupo_90784" data-name="Grupo 90784" transform="translate(76.762 10.023)">
          <path id="Trazado_149813" data-name="Trazado 149813" d="M266.631,185.169a6.51,6.51,0,0,1-1.414-.606c-5.508-3.086-10.461-6.035-10.511-6.064a.423.423,0,0,1,.433-.727c.049.03,4.993,2.974,10.491,6.054,1.288.722,2.277.834,2.938.332,1.61-1.222,1.453-5.983.466-10.056-1.256-5.184-8.952-7.636-11.822-7.494a26.224,26.224,0,0,0-6.391,1.278.423.423,0,0,1-.281-.8,26.659,26.659,0,0,1,6.63-1.325c3.635-.179,11.4,2.852,12.685,8.14.786,3.244,1.508,9.2-.777,10.929A2.667,2.667,0,0,1,266.631,185.169Z" transform="translate(-250.258 -165.754)" fill="#efebe9"/>
        </g>
        <g id="Grupo_90785" data-name="Grupo 90785" transform="translate(0 12.031)">
          <path id="Trazado_149814" data-name="Trazado 149814" d="M150.261,185.032a25.239,25.239,0,0,1-2.758-.938c-4.257-1.737-7-4.346-8.152-7.753-1.073-3.174-.99-5.32.255-6.559,2.485-2.474,8.952-.255,13.674,1.367.668.229,1.3.446,1.873.633,6.049,1.979,9.106.893,9.136.882a.423.423,0,0,1,.293.793c-.135.05-3.366,1.189-9.692-.872-.578-.188-1.213-.406-1.885-.637-4.258-1.46-10.691-3.67-12.8-1.567-.98.976-1,2.89-.05,5.689,1.069,3.165,3.65,5.6,7.67,7.241,8.086,3.3,20.643,2.458,26.469-.5a.423.423,0,1,1,.383.754C169.292,186.3,158.573,187.356,150.261,185.032Z" transform="translate(-138.604 -168.675)" fill="#9de2f5"/>
        </g>
        <path id="Trazado_149815" data-name="Trazado 149815" d="M232.808,174.153l-5.164-11.6a.844.844,0,0,0-.518-.465c-2.529-.787-4.517-2.314-13.036-8.519-8.916-6.494-18.407,1.975-23.526,4.933-3.823,2.208-12.653,6.73-15.67,8.267a.856.856,0,0,0-.227,1.359L184.7,178.5a.863.863,0,0,0,.7.256c6.652-.637,7.307,1.394,16.611,2.657,9.493,1.289,15.522-.732,20.432-4.335a11.986,11.986,0,0,1,9.417-1.733A.855.855,0,0,0,232.808,174.153Z" transform="translate(-149.798 -151.176)" fill="#b2f2ef"/>
        <path id="Trazado_149816" data-name="Trazado 149816" d="M181.173,170.285a1.172,1.172,0,0,1,.305-1.857c4.034-2.075,9.509-4.929,12.36-6.576.848-.49,1.781-1.1,2.768-1.751,4.078-2.678,9.661-6.346,14.823-4.9a9.966,9.966,0,0,1,3.173,1.575l1.671,1.218c6.295,4.588,8.658,6.311,10.931,7.25a1.167,1.167,0,0,1,.621.6l2.78,6.246a1.174,1.174,0,0,1-.982,1.644,13.085,13.085,0,0,0-6.676,2.448c-5.083,3.73-10.816,4.922-18.59,3.867a51.081,51.081,0,0,1-7.433-1.545l-.979-.275a20.7,20.7,0,0,0-7.449-.949,1.171,1.171,0,0,1-.9-.355Z" transform="translate(-151.804 -152.331)" fill="#00a79e"/>
        <g id="Grupo_90786" data-name="Grupo 90786" transform="translate(29.785 4.59)">
          <path id="Trazado_149817" data-name="Trazado 149817" d="M194.171,165.752c.9-.521,1.89-1.17,2.938-1.858,4.262-2.8,10.1-6.633,15.428-5.143a10.251,10.251,0,0,1,3.261,1.62l1.767,1.288c6.675,4.865,9.173,6.686,11.6,7.69a.272.272,0,0,0,.145.016l-.313-.7c-2.265-1.016-4.825-2.882-11.105-7.46l-1.766-1.287a10.816,10.816,0,0,0-3.442-1.707c-5.576-1.559-11.537,2.355-15.891,5.215-1.039.683-2.021,1.327-2.909,1.84-2.753,1.591-7.824,4.247-11.963,6.383l.41.423C186.452,169.945,191.443,167.329,194.171,165.752Z" transform="translate(-181.927 -157.853)" fill="#008f85"/>
          <path id="Trazado_149818" data-name="Trazado 149818" d="M231.978,174.671c-2.369-.978-4.851-2.787-11.489-7.626l-1.766-1.286a10.8,10.8,0,0,0-3.442-1.708c-5.575-1.559-11.536,2.356-15.9,5.222-1.035.68-2.013,1.322-2.9,1.834-2.37,1.37-6.46,3.53-10.192,5.466l.409.423c3.7-1.92,7.718-4.045,10.065-5.4.9-.519,1.883-1.166,2.938-1.858,4.262-2.8,10.1-6.634,15.428-5.143a10.248,10.248,0,0,1,3.262,1.62l1.77,1.29c6.673,4.865,9.169,6.685,11.6,7.688a.276.276,0,0,0,.368-.153A.282.282,0,0,0,231.978,174.671Z" transform="translate(-183.29 -159.679)" fill="#008f85"/>
          <path id="Trazado_149819" data-name="Trazado 149819" d="M221.315,171.6a10.807,10.807,0,0,0-3.442-1.708c-5.576-1.559-11.537,2.356-15.9,5.223-1.035.68-2.013,1.322-2.9,1.833-2,1.156-5.224,2.874-8.425,4.547l.013.014a1.17,1.17,0,0,0,.568.318c3.1-1.622,6.186-3.27,8.126-4.391.9-.519,1.883-1.165,2.938-1.858,4.262-2.8,10.1-6.633,15.428-5.143a10.254,10.254,0,0,1,3.261,1.62l1.767,1.288c3.431,2.5,5.757,4.2,7.539,5.391.252-.067.5-.126.752-.177-1.822-1.2-4.237-2.956-7.961-5.671Z" transform="translate(-184.652 -161.505)" fill="#008f85"/>
          <path id="Trazado_149820" data-name="Trazado 149820" d="M225.724,177.445a10.81,10.81,0,0,0-3.442-1.707c-5.575-1.56-11.536,2.355-15.89,5.215-1.038.682-2.019,1.326-2.91,1.841-.74.427-1.648.932-2.659,1.483.264.065.529.135.8.207.8-.441,1.533-.848,2.145-1.2.9-.523,1.892-1.172,2.938-1.858,4.262-2.8,10.1-6.634,15.428-5.143a10.261,10.261,0,0,1,3.262,1.62l1.77,1.291c1.3.945,2.434,1.774,3.445,2.505q.281-.153.562-.289c-1.068-.771-2.28-1.655-3.68-2.675Z" transform="translate(-187.832 -163.331)" fill="#008f85"/>
          <path id="Trazado_149821" data-name="Trazado 149821" d="M229.508,183.288a10.8,10.8,0,0,0-3.442-1.707c-5.576-1.559-11.536,2.355-15.89,5.215-.4.265-.795.52-1.178.769.253.054.513.109.785.163l.7-.461c4.263-2.8,10.1-6.632,15.428-5.142a10.241,10.241,0,0,1,3.261,1.62l1.73,1.261c.164-.11.327-.226.489-.341l-.122-.089Z" transform="translate(-190.387 -165.157)" fill="#008f85"/>
        </g>
      </g>
      <g id="Grupo_90795" data-name="Grupo 90795" transform="translate(0 0)">
        <g id="Grupo_90788" data-name="Grupo 90788" transform="translate(24.43 9.798)">
          <rect id="Rectángulo_33170" data-name="Rectángulo 33170" width="9.683" height="9.683" transform="translate(12.214 9.203) rotate(161.881)" fill="#cfd8dc"/>
          <rect id="Rectángulo_33171" data-name="Rectángulo 33171" width="6.584" height="9.683" transform="matrix(-0.95, 0.311, -0.311, -0.95, 10.741, 9.684)" fill="#37474f"/>
          <rect id="Rectángulo_33172" data-name="Rectángulo 33172" width="2.634" height="9.683" transform="translate(8.864 10.299) rotate(161.882)" fill="#fff"/>
        </g>
        <path id="Trazado_149822" data-name="Trazado 149822" d="M106.321,106.8l2.553,7.8a2.79,2.79,0,0,1-1.783,3.518l-12.81,4.191a2.788,2.788,0,0,1-3.517-1.783l-.674-2.062a2.789,2.789,0,0,0-3.518-1.783l-15.166,4.962L70.538,119,102.8,105.016A2.79,2.79,0,0,1,106.321,106.8Z" transform="translate(-70.538 -104.877)" fill="#fff"/>
        <g id="Grupo_90790" data-name="Grupo 90790" transform="translate(23.167 16.485)">
          <rect id="Rectángulo_33173" data-name="Rectángulo 33173" width="17.816" height="6.817" rx="1.662" transform="translate(0 5.541) rotate(-18.119)" fill="#37474f"/>
          <g id="Grupo_90789" data-name="Grupo 90789" transform="translate(1.855 1.534)">
            <path id="Trazado_149823" data-name="Trazado 149823" d="M126.18,131.122a.736.736,0,0,1,.928.471l1.06,3.239a.736.736,0,0,1-1.4.458l-1.059-3.24A.735.735,0,0,1,126.18,131.122Z" transform="translate(-112.79 -131.086)" fill="#2a383e"/>
            <path id="Trazado_149824" data-name="Trazado 149824" d="M122.433,132.348a.736.736,0,0,1,.928.471l1.06,3.239a.736.736,0,1,1-1.4.458l-1.059-3.239A.736.736,0,0,1,122.433,132.348Z" transform="translate(-111.618 -131.469)" fill="#2a383e"/>
            <path id="Trazado_149825" data-name="Trazado 149825" d="M118.685,133.575a.735.735,0,0,1,.928.47l1.06,3.24a.736.736,0,0,1-1.4.458l-1.059-3.24A.735.735,0,0,1,118.685,133.575Z" transform="translate(-110.447 -131.852)" fill="#2a383e"/>
            <path id="Trazado_149826" data-name="Trazado 149826" d="M114.937,134.8a.736.736,0,0,1,.928.471l1.06,3.239a.736.736,0,1,1-1.4.458l-1.059-3.24A.736.736,0,0,1,114.937,134.8Z" transform="translate(-109.276 -132.235)" fill="#2a383e"/>
            <path id="Trazado_149827" data-name="Trazado 149827" d="M111.189,136.027a.736.736,0,0,1,.928.471l1.06,3.239a.736.736,0,1,1-1.4.457l-1.059-3.239A.736.736,0,0,1,111.189,136.027Z" transform="translate(-108.105 -132.618)" fill="#2a383e"/>
            <path id="Trazado_149828" data-name="Trazado 149828" d="M107.441,137.254a.736.736,0,0,1,.928.47l1.06,3.24a.736.736,0,0,1-1.4.458l-1.06-3.24A.735.735,0,0,1,107.441,137.254Z" transform="translate(-106.934 -133.002)" fill="#2a383e"/>
          </g>
        </g>
        <path id="Trazado_149829" data-name="Trazado 149829" d="M77.914,116.939c3.794-1.125,7.61-2.522,11.566-2.414a3.5,3.5,0,0,1,1.974.5,9.637,9.637,0,0,1,1.376,1.681,4.479,4.479,0,0,0,3.646,1.307,13.25,13.25,0,0,0,3.859-1.035c1.576-.6,3.266-1.29,4.143-2.731,1.807-2.969.376-6.439-2.082-9.054l.409-.177a2.79,2.79,0,0,1,3.518,1.783l2.553,7.8a2.79,2.79,0,0,1-1.783,3.518l-12.81,4.191a2.788,2.788,0,0,1-3.517-1.783l-.674-2.062a2.789,2.789,0,0,0-3.518-1.783l-15.166,4.962L70.538,119l1.925-.834A34.59,34.59,0,0,0,77.914,116.939Z" transform="translate(-70.538 -104.877)" fill="#cfd8dc"/>
        <g id="Grupo_90792" data-name="Grupo 90792" transform="translate(17.253 23.614)">
          <g id="Grupo_90791" data-name="Grupo 90791">
            <path id="Trazado_149830" data-name="Trazado 149830" d="M96,166.907c-2.6-11.227,9.483-23.387,9.483-23.387l3.45-1.129,6.225-2.037,3.45-1.129s16.936,2.664,21.471,13.259,11.4,42.217,8.923,46.086c-1.211,1.884-6.072,5.327-12.192,7.955q-.373.16-.752.315a33.809,33.809,0,0,1-4.686,1.533q-.395.1-.787.189c-6.49,1.5-12.446,1.594-14.537.791C111.758,207.7,98.607,178.136,96,166.907Z" transform="translate(-95.633 -139.225)" fill="#cfd8dc"/>
            <path id="Trazado_149831" data-name="Trazado 149831" d="M134.033,206.72c.732-.239,1.464-.509,2.175-.8q.365-.15.725-.3c5.97-2.564,10.363-5.8,11.274-7.168.505-1.123.341-7.208-2.178-19.476-2.046-9.967-4.813-19.915-6.886-24.753-3.649-8.524-16.847-11.471-19.478-11.979l-12.157,3.978c-1.819,1.961-10.726,12.143-8.632,21.177,1.19,5.129,4.839,14.789,9.079,24.035,5.222,11.386,8.687,16.39,9.758,17,1.543.569,7,.579,13.333-.883q.374-.088.756-.181C132.549,207.175,133.3,206.959,134.033,206.72Z" transform="translate(-96.548 -140.167)" fill="#fff"/>
          </g>
          <path id="Trazado_149832" data-name="Trazado 149832" d="M129.142,197.6c-4.266-11.739-8.383-23.8-10.243-30a53.042,53.042,0,0,1-1.781-22.085l4.254-1.392a53,53,0,0,1,11.617,18.867c2.168,6.1,5.976,18.263,9.475,30.256,1.62,5.552,2.866,10.01,3.794,13.475-.918.46-1.879.91-2.874,1.337q-.373.16-.752.315a33.808,33.808,0,0,1-4.686,1.533q-.4.1-.786.189c-1.056.243-2.1.45-3.111.621C132.748,207.369,131.117,203.037,129.142,197.6Z" transform="translate(-102.206 -140.755)" fill="#bdbdbd"/>
        </g>
        <g id="Grupo_90794" data-name="Grupo 90794" transform="translate(21.323 45.014)">
          <path id="Trazado_149833" data-name="Trazado 149833" d="M108.932,203.544A112.358,112.358,0,0,0,148.9,190.466q-2.715-9.766-5.594-20.114a112.483,112.483,0,0,1-41.753,13.662Z" transform="translate(-101.553 -170.352)" fill="#ebfdff"/>
          <g id="Grupo_90793" data-name="Grupo 90793" transform="translate(17.604 11.515)">
            <path id="Trazado_149834" data-name="Trazado 149834" d="M127.158,193.686q1.892-.5,3.765-1.06l-1.276-3.827q2.615-.785,5.19-1.7l1.233,3.841q1.843-.653,3.664-1.371.822,2.637,1.633,5.234-1.8.708-3.623,1.353.6,1.855,1.185,3.691-2.5.885-5.046,1.651l-1.226-3.677q-1.85.557-3.721,1.05Z" transform="translate(-127.158 -187.101)" fill="#0090b8"/>
          </g>
        </g>
      </g>
      <g id="Grupo_90798" data-name="Grupo 90798" transform="translate(4.532 47.141)">
        <path id="Trazado_149835" data-name="Trazado 149835" d="M90.7,207.832,103.663,356.91a8.958,8.958,0,0,0,8.924,8.182h83.392a8.958,8.958,0,0,0,8.924-8.182l12.965-149.078Z" transform="translate(-81.37 -184.192)" fill="#d93328"/>
        <path id="Trazado_149836" data-name="Trazado 149836" d="M191.268,224.689H114.086a11.989,11.989,0,0,0-11.944,13.028L112.88,353.4a5.884,5.884,0,0,0,5.862,5.374h77a5.883,5.883,0,0,0,5.883-5.884l-4.469-122.314A5.883,5.883,0,0,0,191.268,224.689Z" transform="translate(-84.932 -189.46)" fill="#b42218"/>
        <path id="Trazado_149837" data-name="Trazado 149837" d="M138.649,328.535H123.165a3.847,3.847,0,0,0-3.833,4.181l4.2,48.245a3.841,3.841,0,0,0,5.412,3.171q5.606-2.549,11.765-4.862a5.882,5.882,0,0,0,3.822-5.5V334.412A5.877,5.877,0,0,0,138.649,328.535Z" transform="translate(-90.314 -221.911)" fill="#d93328"/>
        <path id="Trazado_149838" data-name="Trazado 149838" d="M219.657,173.447H80.43a3.625,3.625,0,0,0-3.3,3.916l.17,15.9a3.609,3.609,0,0,0,3.3,3.819H219.487a3.609,3.609,0,0,0,3.3-3.819l.17-15.9A3.626,3.626,0,0,0,219.657,173.447Z" transform="translate(-77.131 -173.447)" fill="#b42218"/>
        <g id="Grupo_90796" data-name="Grupo 90796" transform="translate(6.234 6.188)">
          <path id="Trazado_149839" data-name="Trazado 149839" d="M135.4,182.447H88.247a2.048,2.048,0,0,0-2.048,2.071l.076,7.167a2.049,2.049,0,0,0,2.049,2.027h13.269a1.073,1.073,0,0,0,.788-.324c3.462-3.7,15.835-6.877,33.135-8.839a1.058,1.058,0,0,0,.94-1.046h0A1.055,1.055,0,0,0,135.4,182.447Z" transform="translate(-86.199 -182.447)" fill="#d93328"/>
        </g>
        <g id="Grupo_90797" data-name="Grupo 90797" transform="translate(35.487 45.087)">
          <path id="Trazado_149840" data-name="Trazado 149840" d="M186.584,278.879c-.8-.464-1.6-.869-2.317-1.376a1.044,1.044,0,0,1-.295-.886,4.488,4.488,0,0,0-3.072-5.193c-.223-.065-.531-.34-.543-.533-.059-.877-.026-1.759-.026-2.625a14.84,14.84,0,0,0,2.811-29.207c3.836-.366,10.712,4.461,13.5,9.551a19.584,19.584,0,0,1,1.126,16.682c13.529,2.246,19.1,15.777,15.718,25.207.954-8.847-2.19-15.214-10.869-17.678C196.108,270.973,190.753,273.464,186.584,278.879Z" transform="translate(-144.865 -239.031)" fill="#f8f8f8"/>
          <path id="Trazado_149841" data-name="Trazado 149841" d="M195.923,315.551c-6.589,8.05-21.044,9.973-29.955-.737-4.823,5.461-10.826,7.989-18.105,6.973a18.2,18.2,0,0,1-11.066-5.8c6.5,4.637,13.164,5.255,19.456.007,5.7-4.751,6.454-10.981,3.77-17.833.769-.451,1.541-.942,2.355-1.351a.93.93,0,0,1,.746.2,4.419,4.419,0,0,0,5.884,0,.981.981,0,0,1,.836-.1c.792.393,1.541.874,2.314,1.326-2.994,7.715-1.782,14.46,5.268,19.118C183.83,321.592,190.165,320.379,195.923,315.551Z" transform="translate(-131.263 -257.075)" fill="#f8f8f8"/>
          <path id="Trazado_149842" data-name="Trazado 149842" d="M156.714,278.76a14.993,14.993,0,0,0-18.026-5.638,14.608,14.608,0,0,0-7.644,7.1,15.262,15.262,0,0,0-1.155,10.273c-3.607-8.421,1.309-23.1,15.328-25.41-4.818-13.835,5.3-24.879,14.762-26.058a15.362,15.362,0,0,0-8.35,5.663,14.432,14.432,0,0,0-2.859,9.74,14.977,14.977,0,0,0,13.868,13.833c0,.868.041,1.753-.027,2.628a1.05,1.05,0,0,1-.579.651,4.484,4.484,0,0,0-2.814,5.094,1.058,1.058,0,0,1-.328.847C158.22,277.951,157.481,278.321,156.714,278.76Z" transform="translate(-128.748 -239.027)" fill="#f8f8f8"/>
          <path id="Trazado_149843" data-name="Trazado 149843" d="M163.73,308.341A18.415,18.415,0,0,1,152.5,290.057c.03-.575.188-.88.829-.712,1.075.283,2.175.491,3.22.855a1.3,1.3,0,0,1,.686.969,13.76,13.76,0,0,0,7.072,12.2,1.064,1.064,0,0,1,.483.82C164.5,305.549,164.112,306.89,163.73,308.341Z" transform="translate(-136.161 -254.737)" fill="#f8f8f8"/>
          <path id="Trazado_149844" data-name="Trazado 149844" d="M200.423,289.375a18.148,18.148,0,0,1-11.059,19.144c-.365-1.438-.754-2.839-1.044-4.26-.041-.2.36-.572.633-.735a13.646,13.646,0,0,0,6.669-9.351,15.6,15.6,0,0,0,.268-2.744c.014-.537.139-.884.676-1.026C197.825,290.069,199.083,289.732,200.423,289.375Z" transform="translate(-147.364 -254.76)" fill="#f8f8f8"/>
          <path id="Trazado_149845" data-name="Trazado 149845" d="M185.352,269.322c-1.064,1.039-2.047,2.034-3.083,2.971a.941.941,0,0,1-.853.011,13.834,13.834,0,0,0-14.282-.013,1.02,1.02,0,0,1-.929-.045c-1.017-.912-1.973-1.893-2.961-2.861C168.541,264.8,178.327,263.882,185.352,269.322Z" transform="translate(-139.528 -247.326)" fill="#f8f8f8"/>
        </g>
      </g>
    </g>
    <g id="Grupo_121032" data-name="Grupo 121032" transform="translate(279.548 2370.322)">
      <path id="Trazado_150393" data-name="Trazado 150393" d="M-99.713,344.635l-36.1-20.587a8.452,8.452,0,0,0-8.572-.005l-36.274,20.618a4.23,4.23,0,0,0-2.192,3.764,4.232,4.232,0,0,0,2.185,3.765l36.165,20.62a8.461,8.461,0,0,0,8.584,0l36.2-20.65a4.231,4.231,0,0,0,2.186-3.763A4.231,4.231,0,0,0-99.713,344.635Z" transform="translate(182.846 -278.743)" fill="#b2b2b2" fill-rule="evenodd"/>
      <path id="Trazado_150394" data-name="Trazado 150394" d="M-99.713,342.889l-36.1-20.587a8.448,8.448,0,0,0-8.572-.007l-36.274,20.619a4.229,4.229,0,0,0-2.192,3.763,4.23,4.23,0,0,0,2.185,3.765l36.165,20.622a8.458,8.458,0,0,0,8.584,0l36.2-20.648a4.233,4.233,0,0,0,2.186-3.763A4.23,4.23,0,0,0-99.713,342.889Z" transform="translate(182.846 -279.322)" fill="#fff" fill-rule="evenodd"/>
      <path id="Trazado_150395" data-name="Trazado 150395" d="M-172.207,350.857a9.474,9.474,0,0,0-.6,1.575l-.326.86H-173a8.49,8.49,0,0,0-.13,1.471c0,8.716,13.332,15.786,29.771,15.786s29.77-7.07,29.77-15.786a8.493,8.493,0,0,0-.13-1.471h.133l-.33-.871a9.556,9.556,0,0,0-.586-1.548l-20.89-55.2c-1.393-3.681-4.422-5.938-7.966-5.938s-6.575,2.258-7.967,5.938Z" transform="translate(186.067 -289.73)" fill="#ccc" fill-rule="evenodd"/>
      <path id="Trazado_150396" data-name="Trazado 150396" d="M-171.748,359.232c4.2,6.021,15.121,10.317,27.935,10.317a52.661,52.661,0,0,0,12.436-1.442l-8.5-66.513c-.654-5.118-1.049-7.451-3.936-8.6-2.946-1.172-5.881,2.02-7.126,5.314l-20.58,60.411C-171.6,358.888-171.679,359.059-171.748,359.232Z" transform="translate(186.524 -288.731)" fill="#e5e5e5" fill-rule="evenodd"/>
      <path id="Trazado_150397" data-name="Trazado 150397" d="M-169.993,331.262q-1.564,4.134-3.128,8.264c-.841,11.472,16.426,17.257,29.773,17.257,7.954,0,32.028-3.7,29.639-17.257.128,0-2.687-7.45-3-8.266-3.716,6.673-14.526,10.8-26.644,10.8S-166.353,337.78-169.993,331.262Z" transform="translate(186.06 -275.965)" fill="#de9318" fill-rule="evenodd"/>
      <path id="Trazado_150398" data-name="Trazado 150398" d="M-171.708,345.489c4.767,6.945,17.507,10.443,27.882,10.443a58.3,58.3,0,0,0,12.412-1.616l-1.817-14.227a49.489,49.489,0,0,1-10.594,1.116c-9.842,0-18.872-2.821-23.868-7.374l-3.839,11.269C-171.595,345.231-171.653,345.359-171.708,345.489Z" transform="translate(186.538 -275.113)" fill="#f9a825" fill-rule="evenodd"/>
      <path id="Trazado_150399" data-name="Trazado 150399" d="M-166.774,323.819c1.9,6.862,10.562,10.9,21.313,10.9s20.227-4.341,21.2-11.2l-4.657-12.309c-1.11,4.432-7.673,8.749-16.539,8.749s-15.08-3.393-16.655-8.444Z" transform="translate(188.173 -282.612)" fill="#de9318" fill-rule="evenodd"/>
      <path id="Trazado_150400" data-name="Trazado 150400" d="M-165.225,326.891c3.587,4.43,10.77,6.941,19.25,6.941a36.614,36.614,0,0,0,8.817-1.043l-1.876-14.673a24.934,24.934,0,0,1-6.941.952c-6.793,0-12.031-1.989-14.816-5.193Z" transform="translate(188.686 -281.727)" fill="#f9a825" fill-rule="evenodd"/>
      <path id="Trazado_150401" data-name="Trazado 150401" d="M-159.792,306.368c1.261,3.728,7.165,5.583,12.016,5.583s11.064-2.086,12.015-5.583l-4.049-10.7c-1.393-3.681-4.422-5.938-7.966-5.938s-6.575,2.258-7.967,5.938Z" transform="translate(190.487 -289.73)" fill="#de9318" fill-rule="evenodd"/>
      <path id="Trazado_150402" data-name="Trazado 150402" d="M-158.538,308.323c2.409,2.128,6.679,3.189,10.347,3.189a20.308,20.308,0,0,0,5.045-.67l-1.109-8.686c-.654-5.118-.553-9.737-3.932-10.871-4.33-1.454-5.885,4.29-7.13,7.584Z" transform="translate(190.903 -289.292)" fill="#f9a825" fill-rule="evenodd"/>
    </g>
  </g>
</svg>
