<svg xmlns="http://www.w3.org/2000/svg" xmlns:xlink="http://www.w3.org/1999/xlink" width="432" height="119" viewBox="0 0 432 119">
  <defs>
    <linearGradient id="linear-gradient" x1="0.5" x2="0.5" y2="1" gradientUnits="objectBoundingBox">
      <stop offset="0" stop-color="#fff"/>
      <stop offset="1" stop-color="#f8f8f8"/>
    </linearGradient>
    <filter id="Rectángulo_32726" x="0" y="0" width="432" height="119" filterUnits="userSpaceOnUse">
      <feOffset dy="3" input="SourceAlpha"/>
      <feGaussianBlur stdDeviation="3" result="blur"/>
      <feFlood flood-opacity="0.161"/>
      <feComposite operator="in" in2="blur"/>
      <feComposite in="SourceGraphic"/>
    </filter>
  </defs>
  <g id="img7" transform="translate(-578 -6491)">
    <g transform="matrix(1, 0, 0, 1, 578, 6491)" filter="url(#Rectángulo_32726)">
      <rect id="Rectángulo_32726-2" data-name="Rectángulo 32726" width="414" height="101" rx="5" transform="translate(9 6)" opacity="0.997" fill="url(#linear-gradient)"/>
    </g>
    <path id="Trazado_158794" data-name="Trazado 158794" d="M27.237,30.232l4.956-18.115h6.7L30.518,37H23.956L15.65,12.117H22.3ZM53.111,37H47.334V18.611l-5.674,1.658V15.894l10.92-3.777h.53Zm32.71-12.339H70V20.218H85.821Zm0,7.5H70V27.72H85.821Z" transform="translate(634 6527)" fill="#1d272b"/>
    <path id="Trazado_158792" data-name="Trazado 158792" d="M16.871,30.232l4.956-18.115h6.7L20.152,37H13.59L5.284,12.117h6.648ZM47.342,37H29.979V33.24l8-8.408q2.957-3.367,2.957-5.349a3.721,3.721,0,0,0-.7-2.444A2.5,2.5,0,0,0,38.2,16.2a2.533,2.533,0,0,0-2.136,1.119,4.6,4.6,0,0,0-.82,2.794H29.466a8.172,8.172,0,0,1,1.145-4.23,8.03,8.03,0,0,1,3.179-3.033,9.442,9.442,0,0,1,4.546-1.094,9.289,9.289,0,0,1,6.212,1.863,6.65,6.65,0,0,1,2.179,5.349,7.768,7.768,0,0,1-.547,2.863,12.553,12.553,0,0,1-1.7,2.922,42.834,42.834,0,0,1-3.717,4.093L37.55,32.557h9.792ZM63.458,20.654l-5.571-1.536L59,15.89l5.452,2.236-.427-6.009h3.657l-.444,6.129,5.3-2.185,1.111,3.261L68,20.859l3.743,4.529L68.79,27.4,65.662,22.38l-3.145,4.854L59.561,25.3Zm40.981,7.921a9.087,9.087,0,0,1-1.4,4.589,8.458,8.458,0,0,1-3.6,3.085,12.244,12.244,0,0,1-5.289,1.094,9.771,9.771,0,0,1-7.725-3.2q-2.82-3.2-2.82-9.023v-1.23a15.062,15.062,0,0,1,1.273-6.4,9.647,9.647,0,0,1,3.666-4.238,10.228,10.228,0,0,1,5.537-1.5,10.725,10.725,0,0,1,7.28,2.384,9.42,9.42,0,0,1,3.127,6.571H98.509a4.457,4.457,0,0,0-1.145-3.264,4.709,4.709,0,0,0-3.281-.991A3.583,3.583,0,0,0,90.8,18.133a10.764,10.764,0,0,0-1.094,5.349v1.76q0,3.982,1,5.691a3.659,3.659,0,0,0,3.444,1.709,4.606,4.606,0,0,0,3.162-.974,4.134,4.134,0,0,0,1.162-3.093ZM124.281,37H106.917V33.24l8-8.408q2.957-3.367,2.957-5.349a3.721,3.721,0,0,0-.7-2.444,2.5,2.5,0,0,0-2.034-.837A2.533,2.533,0,0,0,113,17.321a4.6,4.6,0,0,0-.82,2.794H106.4a8.172,8.172,0,0,1,1.145-4.23,8.029,8.029,0,0,1,3.179-3.033,9.442,9.442,0,0,1,4.546-1.094,9.289,9.289,0,0,1,6.212,1.863,6.65,6.65,0,0,1,2.179,5.349,7.768,7.768,0,0,1-.547,2.863,12.554,12.554,0,0,1-1.7,2.922,42.834,42.834,0,0,1-3.717,4.093l-3.213,3.708h9.792Z" transform="translate(763 6507)" fill="#1d272b"/>
    <path id="Trazado_158793" data-name="Trazado 158793" d="M65.893,28.575a9.087,9.087,0,0,1-1.4,4.589,8.458,8.458,0,0,1-3.6,3.085A12.244,12.244,0,0,1,55.6,37.342a9.771,9.771,0,0,1-7.725-3.2q-2.82-3.2-2.82-9.023v-1.23a15.062,15.062,0,0,1,1.273-6.4A9.647,9.647,0,0,1,50,13.254a10.228,10.228,0,0,1,5.537-1.5,10.725,10.725,0,0,1,7.28,2.384,9.42,9.42,0,0,1,3.127,6.571H59.963a4.457,4.457,0,0,0-1.145-3.264,4.709,4.709,0,0,0-3.281-.991,3.583,3.583,0,0,0-3.281,1.675,10.764,10.764,0,0,0-1.094,5.349v1.76q0,3.982,1,5.691A3.659,3.659,0,0,0,55.6,32.642a4.606,4.606,0,0,0,3.162-.974,4.134,4.134,0,0,0,1.162-3.093ZM81.137,37H75.361V18.611l-5.674,1.658V15.894l10.92-3.777h.53Z" transform="translate(763 6552)" fill="#1d272b"/>
    <rect id="Rectángulo_34413" data-name="Rectángulo 34413" width="157" height="4" transform="translate(749 6548)" fill="#1d272b"/>
    <rect id="Rectángulo_34416" data-name="Rectángulo 34416" width="6" height="48" transform="translate(995 6524)" fill="#008f85"/>
    <rect id="Rectángulo_34417" data-name="Rectángulo 34417" width="6" height="48" transform="translate(587 6524)" fill="#008f85"/>
  </g>
</svg>
