<svg xmlns="http://www.w3.org/2000/svg" xmlns:xlink="http://www.w3.org/1999/xlink" width="770" height="81" viewBox="0 0 770 81">
  <defs>
    <linearGradient id="linear-gradient" x1="0.5" x2="0.5" y2="1" gradientUnits="objectBoundingBox">
      <stop offset="0" stop-color="#fff"/>
      <stop offset="1" stop-color="#f8f8f8"/>
    </linearGradient>
    <filter id="Rectángulo_32726" x="0" y="0" width="770" height="81" filterUnits="userSpaceOnUse">
      <feOffset dy="3" input="SourceAlpha"/>
      <feGaussianBlur stdDeviation="3" result="blur"/>
      <feFlood flood-opacity="0.161"/>
      <feComposite operator="in" in2="blur"/>
      <feComposite in="SourceGraphic"/>
    </filter>
  </defs>
  <g id="img8" transform="translate(-429 -6498)">
    <g transform="matrix(1, 0, 0, 1, 429, 6498)" filter="url(#Rectángulo_32726)">
      <rect id="Rectángulo_32726-2" data-name="Rectángulo 32726" width="752" height="63" rx="5" transform="translate(9 6)" opacity="0.997" fill="url(#linear-gradient)"/>
    </g>
    <path id="Trazado_158795" data-name="Trazado 158795" d="M29.733,28.575a9.087,9.087,0,0,1-1.4,4.589,8.458,8.458,0,0,1-3.6,3.085,12.244,12.244,0,0,1-5.289,1.094,9.771,9.771,0,0,1-7.725-3.2Q8.9,30.95,8.9,25.123v-1.23a15.062,15.062,0,0,1,1.273-6.4,9.647,9.647,0,0,1,3.666-4.238,10.228,10.228,0,0,1,5.537-1.5,10.725,10.725,0,0,1,7.28,2.384,9.42,9.42,0,0,1,3.127,6.571H23.8a4.457,4.457,0,0,0-1.145-3.264,4.709,4.709,0,0,0-3.281-.991A3.583,3.583,0,0,0,16.1,18.133,10.764,10.764,0,0,0,15,23.482v1.76q0,3.982,1,5.691a3.659,3.659,0,0,0,3.444,1.709,4.606,4.606,0,0,0,3.162-.974,4.134,4.134,0,0,0,1.162-3.093ZM44.978,37H39.2V18.611l-5.674,1.658V15.894l10.92-3.777h.53ZM68.972,24.661H53.146V20.218H68.972Zm0,7.5H53.146V27.72H68.972Zm13.057-7.318,1.521-12.728H98.093v4.478H88.232l-.564,4.943a6.793,6.793,0,0,1,1.615-.635,8.125,8.125,0,0,1,7.656,1.921,8.846,8.846,0,0,1,1.991,6.161,8.83,8.83,0,0,1-1.068,4.332,7.341,7.341,0,0,1-3,2.982A9.469,9.469,0,0,1,90.3,37.342a10.189,10.189,0,0,1-4.392-.965,7.879,7.879,0,0,1-3.213-2.647,6.431,6.431,0,0,1-1.145-3.8h5.776A3.267,3.267,0,0,0,88.2,32.1a2.766,2.766,0,0,0,2.068.8q2.905,0,2.905-4.3,0-3.974-3.555-3.974a3.547,3.547,0,0,0-3.008,1.3ZM101.972,16.9a4.884,4.884,0,0,1,1.5-3.726,6.483,6.483,0,0,1,8.083-.009,5.013,5.013,0,0,1,1.487,3.82v1.23a4.858,4.858,0,0,1-1.487,3.708,5.618,5.618,0,0,1-4.016,1.4,5.771,5.771,0,0,1-4.042-1.393,4.907,4.907,0,0,1-1.53-3.82Zm3.708,1.312a2.066,2.066,0,0,0,.5,1.435,1.744,1.744,0,0,0,1.367.552q1.794,0,1.794-2.275V16.906a2.178,2.178,0,0,0-.479-1.452,1.667,1.667,0,0,0-1.35-.569,1.7,1.7,0,0,0-1.333.552,2.167,2.167,0,0,0-.5,1.5ZM113.8,30.9a4.836,4.836,0,0,1,1.512-3.726,5.686,5.686,0,0,1,4.025-1.4,5.747,5.747,0,0,1,4.05,1.384,4.987,4.987,0,0,1,1.5,3.862v1.2A4.879,4.879,0,0,1,123.4,35.94a5.642,5.642,0,0,1-4.033,1.4,5.771,5.771,0,0,1-4.042-1.393,4.907,4.907,0,0,1-1.53-3.82Zm3.691,1.312a2.021,2.021,0,0,0,.547,1.4,1.733,1.733,0,0,0,1.333.6,1.572,1.572,0,0,0,1.794-1.562l.017-1.749a2.091,2.091,0,0,0-.5-1.452,1.929,1.929,0,0,0-2.666-.034,2.064,2.064,0,0,0-.53,1.4Zm-8.853,2.927-2.683-1.35L118.1,14.339l2.683,1.35Zm50.62-4.9,4.956-18.115h6.7L162.539,37h-6.562L147.67,12.117h6.648ZM185.131,37h-5.776V18.611l-5.674,1.658V15.894l10.92-3.777h.53Zm23.994-12.339H193.3V20.218h15.825Zm0,7.5H193.3V27.72h15.825ZM226.2,29.122a11.123,11.123,0,0,1,.564-3.939,6.161,6.161,0,0,1,1.829-2.5,12.158,12.158,0,0,0,1.923-1.94,3.166,3.166,0,0,0,.658-1.94q0-2.581-2.222-2.581a2.061,2.061,0,0,0-1.658.752A3.2,3.2,0,0,0,226.625,19h-5.776A6.89,6.89,0,0,1,223,13.681a8.585,8.585,0,0,1,5.947-1.906,8.918,8.918,0,0,1,5.9,1.76,6.178,6.178,0,0,1,2.094,5.007,5.832,5.832,0,0,1-.564,2.581,8.721,8.721,0,0,1-1.812,2.375l-1.965,1.829a4.623,4.623,0,0,0-1.162,1.649,6.535,6.535,0,0,0-.359,2.145Zm-.7,5.2a2.652,2.652,0,0,1,.914-2.076,3.612,3.612,0,0,1,4.563,0,2.815,2.815,0,0,1,0,4.153,3.612,3.612,0,0,1-4.563,0A2.652,2.652,0,0,1,225.5,34.317Zm95.669-5.742a9.087,9.087,0,0,1-1.4,4.589,8.458,8.458,0,0,1-3.6,3.085,12.244,12.244,0,0,1-5.289,1.094,9.771,9.771,0,0,1-7.725-3.2q-2.82-3.2-2.82-9.023v-1.23a15.062,15.062,0,0,1,1.273-6.4,9.647,9.647,0,0,1,3.666-4.238,10.228,10.228,0,0,1,5.537-1.5,10.725,10.725,0,0,1,7.28,2.384,9.419,9.419,0,0,1,3.127,6.571h-5.981a4.457,4.457,0,0,0-1.145-3.264,4.709,4.709,0,0,0-3.281-.991,3.583,3.583,0,0,0-3.281,1.675,10.764,10.764,0,0,0-1.094,5.349v1.76q0,3.982,1,5.691a3.659,3.659,0,0,0,3.444,1.709,4.606,4.606,0,0,0,3.162-.974,4.134,4.134,0,0,0,1.162-3.093ZM341.008,37H323.645V33.24l8-8.408q2.957-3.367,2.957-5.349a3.721,3.721,0,0,0-.7-2.444,2.5,2.5,0,0,0-2.034-.837,2.533,2.533,0,0,0-2.136,1.119,4.6,4.6,0,0,0-.82,2.794h-5.776a8.172,8.172,0,0,1,1.145-4.23,8.029,8.029,0,0,1,3.179-3.033A9.442,9.442,0,0,1,332,11.758a9.289,9.289,0,0,1,6.212,1.863,6.65,6.65,0,0,1,2.179,5.349,7.767,7.767,0,0,1-.547,2.863,12.554,12.554,0,0,1-1.7,2.922,42.834,42.834,0,0,1-3.717,4.093l-3.213,3.708h9.792Zm19.4-12.339H344.58V20.218H360.4Zm0,7.5H344.58V27.72H360.4ZM390.4,26.832q0,5.042-2.264,7.776a8.848,8.848,0,0,1-12.809-.017q-2.273-2.751-2.273-7.759V22.286q0-5.042,2.264-7.776a8.848,8.848,0,0,1,12.809.017Q390.4,17.278,390.4,22.3Zm-5.759-5.281a8.875,8.875,0,0,0-.7-4.008,2.342,2.342,0,0,0-2.222-1.324,2.287,2.287,0,0,0-2.162,1.23,8.36,8.36,0,0,0-.726,3.726v6.357a8.941,8.941,0,0,0,.7,4.076,2.351,2.351,0,0,0,2.222,1.29,2.319,2.319,0,0,0,2.17-1.256,8.536,8.536,0,0,0,.718-3.939Zm12.407,9.861a3.279,3.279,0,0,1,2.273.812,2.833,2.833,0,0,1,0,4.153,3.585,3.585,0,0,1-4.554-.009,2.832,2.832,0,0,1,0-4.136A3.251,3.251,0,0,1,397.045,31.412ZM421.33,37H403.967V33.24l8-8.408q2.957-3.367,2.957-5.349a3.721,3.721,0,0,0-.7-2.444,2.5,2.5,0,0,0-2.034-.837,2.533,2.533,0,0,0-2.136,1.119,4.6,4.6,0,0,0-.82,2.794h-5.776a8.172,8.172,0,0,1,1.145-4.23,8.029,8.029,0,0,1,3.179-3.033,9.442,9.442,0,0,1,4.546-1.094,9.289,9.289,0,0,1,6.212,1.863,6.65,6.65,0,0,1,2.179,5.349,7.767,7.767,0,0,1-.547,2.863,12.554,12.554,0,0,1-1.7,2.922,42.834,42.834,0,0,1-3.717,4.093l-3.213,3.708h9.792Zm2.922-20.1a4.884,4.884,0,0,1,1.5-3.726,6.483,6.483,0,0,1,8.083-.009,5.013,5.013,0,0,1,1.487,3.82v1.23a4.858,4.858,0,0,1-1.487,3.708,5.618,5.618,0,0,1-4.016,1.4,5.771,5.771,0,0,1-4.042-1.393,4.907,4.907,0,0,1-1.53-3.82Zm3.708,1.312a2.066,2.066,0,0,0,.5,1.435,1.744,1.744,0,0,0,1.367.552q1.794,0,1.794-2.275V16.906a2.178,2.178,0,0,0-.479-1.452,1.667,1.667,0,0,0-1.35-.569,1.7,1.7,0,0,0-1.333.552,2.167,2.167,0,0,0-.5,1.5ZM436.079,30.9a4.836,4.836,0,0,1,1.512-3.726,5.686,5.686,0,0,1,4.025-1.4,5.747,5.747,0,0,1,4.05,1.384,4.987,4.987,0,0,1,1.5,3.862v1.2a4.879,4.879,0,0,1-1.487,3.726,5.642,5.642,0,0,1-4.033,1.4,5.771,5.771,0,0,1-4.042-1.393,4.907,4.907,0,0,1-1.53-3.82Zm3.691,1.312a2.021,2.021,0,0,0,.547,1.4,1.733,1.733,0,0,0,1.333.6,1.572,1.572,0,0,0,1.794-1.562l.017-1.749a2.091,2.091,0,0,0-.5-1.452,1.929,1.929,0,0,0-2.666-.034,2.064,2.064,0,0,0-.53,1.4Zm-8.853,2.927-2.683-1.35,12.151-19.448,2.683,1.35Zm46.741-4.9,4.956-18.115h6.7L480.939,37h-6.562l-8.306-24.883h6.648ZM508.129,37H490.766V33.24l8-8.408q2.957-3.367,2.957-5.349a3.721,3.721,0,0,0-.7-2.444,2.5,2.5,0,0,0-2.034-.837,2.533,2.533,0,0,0-2.136,1.119,4.6,4.6,0,0,0-.82,2.794h-5.776a8.172,8.172,0,0,1,1.145-4.23,8.029,8.029,0,0,1,3.179-3.033,9.442,9.442,0,0,1,4.546-1.094,9.289,9.289,0,0,1,6.212,1.863,6.65,6.65,0,0,1,2.179,5.349,7.767,7.767,0,0,1-.547,2.863,12.554,12.554,0,0,1-1.7,2.922,42.834,42.834,0,0,1-3.717,4.093l-3.213,3.708h9.792Zm19.4-12.339H511.7V20.218h15.825Zm0,7.5H511.7V27.72h15.825ZM553.007,37h-5.776V18.611l-5.674,1.658V15.894l10.92-3.777h.53Zm24.78-10.168q0,5.042-2.264,7.776a8.848,8.848,0,0,1-12.809-.017q-2.273-2.751-2.273-7.759V22.286q0-5.042,2.264-7.776a8.848,8.848,0,0,1,12.809.017q2.273,2.751,2.273,7.776Zm-5.759-5.281a8.875,8.875,0,0,0-.7-4.008,2.342,2.342,0,0,0-2.222-1.324,2.287,2.287,0,0,0-2.162,1.23,8.36,8.36,0,0,0-.726,3.726v6.357a8.942,8.942,0,0,0,.7,4.076,2.351,2.351,0,0,0,2.222,1.29,2.319,2.319,0,0,0,2.17-1.256,8.537,8.537,0,0,0,.718-3.939Zm26.028,5.281q0,5.042-2.264,7.776a8.848,8.848,0,0,1-12.809-.017q-2.273-2.751-2.273-7.759V22.286q0-5.042,2.264-7.776a8.848,8.848,0,0,1,12.809.017q2.273,2.751,2.273,7.776ZM592.3,21.551a8.875,8.875,0,0,0-.7-4.008,2.342,2.342,0,0,0-2.222-1.324,2.287,2.287,0,0,0-2.162,1.23,8.36,8.36,0,0,0-.726,3.726v6.357a8.942,8.942,0,0,0,.7,4.076,2.351,2.351,0,0,0,2.222,1.29,2.319,2.319,0,0,0,2.17-1.256A8.537,8.537,0,0,0,592.3,27.7Zm26.028,5.281q0,5.042-2.264,7.776a8.848,8.848,0,0,1-12.809-.017q-2.273-2.751-2.273-7.759V22.286q0-5.042,2.264-7.776a8.848,8.848,0,0,1,12.809.017q2.273,2.751,2.273,7.776Zm-5.759-5.281a8.875,8.875,0,0,0-.7-4.008,2.342,2.342,0,0,0-2.222-1.324,2.287,2.287,0,0,0-2.162,1.23,8.36,8.36,0,0,0-.726,3.726v6.357a8.942,8.942,0,0,0,.7,4.076,2.351,2.351,0,0,0,2.222,1.29,2.319,2.319,0,0,0,2.17-1.256,8.537,8.537,0,0,0,.718-3.939Zm23-3.042.188,2.17a6.358,6.358,0,0,1,5.281-2.512q3.5,0,4.734,2.786a6.154,6.154,0,0,1,5.435-2.786q5.623,0,5.776,6.8V37h-5.776V25.328a3.525,3.525,0,0,0-.479-2.068,2.037,2.037,0,0,0-1.743-.649,2.729,2.729,0,0,0-2.546,1.521l.017.239V37h-5.776V25.362a3.705,3.705,0,0,0-.461-2.1,2.031,2.031,0,0,0-1.76-.649,2.762,2.762,0,0,0-2.529,1.521V37h-5.759V18.509ZM666.347,37h-5.776V10.75h5.776Z" transform="translate(476 6511)" fill="#1d272b"/>
    <rect id="Rectángulo_34414" data-name="Rectángulo 34414" width="6" height="48" transform="translate(1184 6509)" fill="#008f85"/>
    <rect id="Rectángulo_34415" data-name="Rectángulo 34415" width="6" height="48" transform="translate(438 6509)" fill="#008f85"/>
  </g>
</svg>
