<svg xmlns="http://www.w3.org/2000/svg" xmlns:xlink="http://www.w3.org/1999/xlink" width="640" height="119" viewBox="0 0 640 119">
  <defs>
    <linearGradient id="linear-gradient" x1="0.5" x2="0.5" y2="1" gradientUnits="objectBoundingBox">
      <stop offset="0" stop-color="#fff"/>
      <stop offset="1" stop-color="#f8f8f8"/>
    </linearGradient>
    <filter id="Rectángulo_32726" x="0" y="0" width="640" height="119" filterUnits="userSpaceOnUse">
      <feOffset dy="3" input="SourceAlpha"/>
      <feGaussianBlur stdDeviation="3" result="blur"/>
      <feFlood flood-opacity="0.161"/>
      <feComposite operator="in" in2="blur"/>
      <feComposite in="SourceGraphic"/>
    </filter>
  </defs>
  <g id="img9" transform="translate(-474 -6491)">
    <g transform="matrix(1, 0, 0, 1, 474, 6491)" filter="url(#Rectángulo_32726)">
      <rect id="Rectángulo_32726-2" data-name="Rectángulo 32726" width="622" height="101" rx="5" transform="translate(9 6)" opacity="0.997" fill="url(#linear-gradient)"/>
    </g>
    <path id="Trazado_158796" data-name="Trazado 158796" d="M27.237,30.232l4.956-18.115h6.7L30.518,37H23.956L15.65,12.117H22.3ZM53.111,37H47.334V18.611l-5.674,1.658V15.894l10.92-3.777h.53Zm32.71-12.339H70V20.218H85.821Zm0,7.5H70V27.72H85.821Z" transform="translate(524 6528)" fill="#1d272b"/>
    <path id="Trazado_158799" data-name="Trazado 158799" d="M19.4,24.661H3.574V20.218H19.4Zm0,7.5H3.574V27.72H19.4Zm27.925-4.888h2.529v4.443H47.324V37H41.564V31.719H31.943L31.6,28.2l9.963-16.03v-.051h5.759Zm-10.237,0h4.478V19.62l-.359.581Zm32.573-.444q0,5.042-2.264,7.776a7.825,7.825,0,0,1-6.383,2.734,7.867,7.867,0,0,1-6.426-2.751q-2.273-2.751-2.273-7.759V22.286q0-5.042,2.264-7.776a7.845,7.845,0,0,1,6.4-2.734,7.848,7.848,0,0,1,6.409,2.751Q69.66,17.278,69.66,22.3ZM63.9,21.551a8.875,8.875,0,0,0-.7-4.008,2.342,2.342,0,0,0-2.222-1.324,2.287,2.287,0,0,0-2.162,1.23,8.36,8.36,0,0,0-.726,3.726v6.357a8.942,8.942,0,0,0,.7,4.076,2.351,2.351,0,0,0,2.222,1.29,2.319,2.319,0,0,0,2.17-1.256A8.536,8.536,0,0,0,63.9,27.7Zm23-3.042.188,2.17a6.358,6.358,0,0,1,5.281-2.512q3.5,0,4.734,2.786a6.154,6.154,0,0,1,5.435-2.786q5.623,0,5.776,6.8V37h-5.776V25.328a3.525,3.525,0,0,0-.479-2.068,2.037,2.037,0,0,0-1.743-.649,2.729,2.729,0,0,0-2.546,1.521l.017.239V37H92.014V25.362a3.705,3.705,0,0,0-.461-2.1,2.031,2.031,0,0,0-1.76-.649,2.762,2.762,0,0,0-2.529,1.521V37H81.5V18.509ZM117.683,37h-5.776V10.75h5.776Z" transform="translate(943 6528)" fill="#1d272b"/>
    <path id="Trazado_158797" data-name="Trazado 158797" d="M92.969,37H87.193V18.611l-5.674,1.658V15.894l10.92-3.777h.53Zm24.78-10.168q0,5.042-2.264,7.776a8.848,8.848,0,0,1-12.809-.017q-2.273-2.751-2.273-7.759V22.286q0-5.042,2.264-7.776a8.848,8.848,0,0,1,12.809.017q2.273,2.751,2.273,7.776Zm-5.759-5.281a8.875,8.875,0,0,0-.7-4.008,2.342,2.342,0,0,0-2.222-1.324,2.287,2.287,0,0,0-2.162,1.23,8.36,8.36,0,0,0-.726,3.726v6.357a8.942,8.942,0,0,0,.7,4.076A2.351,2.351,0,0,0,109.1,32.9a2.319,2.319,0,0,0,2.17-1.256,8.536,8.536,0,0,0,.718-3.939Zm26.028,5.281q0,5.042-2.264,7.776a8.848,8.848,0,0,1-12.809-.017q-2.273-2.751-2.273-7.759V22.286q0-5.042,2.264-7.776a8.848,8.848,0,0,1,12.809.017q2.273,2.751,2.273,7.776Zm-5.759-5.281a8.875,8.875,0,0,0-.7-4.008,2.342,2.342,0,0,0-2.222-1.324,2.287,2.287,0,0,0-2.162,1.23,8.36,8.36,0,0,0-.726,3.726v6.357a8.942,8.942,0,0,0,.7,4.076,2.351,2.351,0,0,0,2.222,1.29,2.319,2.319,0,0,0,2.17-1.256,8.536,8.536,0,0,0,.718-3.939Zm26.028,5.281q0,5.042-2.264,7.776a8.848,8.848,0,0,1-12.809-.017q-2.273-2.751-2.273-7.759V22.286q0-5.042,2.264-7.776a8.848,8.848,0,0,1,12.809.017q2.273,2.751,2.273,7.776Zm-5.759-5.281a8.875,8.875,0,0,0-.7-4.008,2.342,2.342,0,0,0-2.222-1.324,2.287,2.287,0,0,0-2.162,1.23,8.36,8.36,0,0,0-.726,3.726v6.357a8.942,8.942,0,0,0,.7,4.076,2.351,2.351,0,0,0,2.222,1.29,2.319,2.319,0,0,0,2.17-1.256,8.536,8.536,0,0,0,.718-3.939Zm23-3.042.188,2.17A6.358,6.358,0,0,1,181,18.167q3.5,0,4.734,2.786a6.154,6.154,0,0,1,5.435-2.786q5.623,0,5.776,6.8V37h-5.776V25.328a3.525,3.525,0,0,0-.479-2.068,2.037,2.037,0,0,0-1.743-.649,2.729,2.729,0,0,0-2.546,1.521l.017.239V37H180.64V25.362a3.705,3.705,0,0,0-.461-2.1,2.031,2.031,0,0,0-1.76-.649,2.762,2.762,0,0,0-2.529,1.521V37H170.13V18.509ZM206.309,37h-5.776V10.75h5.776Zm16.663-16.346L217.4,19.117l1.111-3.227,5.452,2.236-.427-6.009h3.657l-.444,6.129,5.3-2.185,1.111,3.261-5.64,1.536,3.743,4.529L228.3,27.4l-3.127-5.024-3.145,4.854L219.075,25.3Zm29.053,6.178q0,5.042-2.264,7.776a8.848,8.848,0,0,1-12.809-.017q-2.273-2.751-2.273-7.759V22.286q0-5.042,2.264-7.776a8.848,8.848,0,0,1,12.809.017q2.273,2.751,2.273,7.776Zm-5.759-5.281a8.875,8.875,0,0,0-.7-4.008,2.342,2.342,0,0,0-2.222-1.324,2.287,2.287,0,0,0-2.162,1.23,8.36,8.36,0,0,0-.726,3.726v6.357a8.942,8.942,0,0,0,.7,4.076,2.351,2.351,0,0,0,2.222,1.29,2.319,2.319,0,0,0,2.17-1.256,8.536,8.536,0,0,0,.718-3.939Zm12.407,9.861a3.279,3.279,0,0,1,2.273.812,2.833,2.833,0,0,1,0,4.153,3.585,3.585,0,0,1-4.554-.009,2.832,2.832,0,0,1,0-4.136A3.251,3.251,0,0,1,258.672,31.412ZM282.957,37H265.594V33.24l8-8.408q2.957-3.367,2.957-5.349a3.721,3.721,0,0,0-.7-2.444,2.5,2.5,0,0,0-2.034-.837,2.533,2.533,0,0,0-2.136,1.119,4.6,4.6,0,0,0-.82,2.794h-5.776a8.172,8.172,0,0,1,1.145-4.23,8.029,8.029,0,0,1,3.179-3.033,9.442,9.442,0,0,1,4.546-1.094,9.289,9.289,0,0,1,6.212,1.863,6.65,6.65,0,0,1,2.179,5.349,7.767,7.767,0,0,1-.547,2.863,12.554,12.554,0,0,1-1.7,2.922,42.834,42.834,0,0,1-3.717,4.093l-3.213,3.708h9.792Zm2.922-20.1a4.884,4.884,0,0,1,1.5-3.726,6.483,6.483,0,0,1,8.083-.009,5.013,5.013,0,0,1,1.487,3.82v1.23a4.858,4.858,0,0,1-1.487,3.708,5.618,5.618,0,0,1-4.016,1.4,5.771,5.771,0,0,1-4.042-1.393,4.907,4.907,0,0,1-1.53-3.82Zm3.708,1.312a2.066,2.066,0,0,0,.5,1.435,1.744,1.744,0,0,0,1.367.552q1.794,0,1.794-2.275V16.906a2.178,2.178,0,0,0-.479-1.452,1.667,1.667,0,0,0-1.35-.569,1.7,1.7,0,0,0-1.333.552,2.167,2.167,0,0,0-.5,1.5ZM297.706,30.9a4.836,4.836,0,0,1,1.512-3.726,5.686,5.686,0,0,1,4.025-1.4,5.747,5.747,0,0,1,4.05,1.384,4.987,4.987,0,0,1,1.5,3.862v1.2a4.879,4.879,0,0,1-1.487,3.726,5.642,5.642,0,0,1-4.033,1.4,5.771,5.771,0,0,1-4.042-1.393,4.907,4.907,0,0,1-1.53-3.82Zm3.691,1.312a2.021,2.021,0,0,0,.547,1.4,1.733,1.733,0,0,0,1.333.6,1.572,1.572,0,0,0,1.794-1.562l.017-1.749a2.091,2.091,0,0,0-.5-1.452,1.929,1.929,0,0,0-2.666-.034,2.064,2.064,0,0,0-.53,1.4Zm-8.853,2.927-2.683-1.35,12.151-19.448,2.683,1.35Z" transform="translate(582 6508)" fill="#1d272b"/>
    <path id="Trazado_158798" data-name="Trazado 158798" d="M44.24,24.845l1.521-12.728H60.3v4.478H50.444l-.564,4.943a6.793,6.793,0,0,1,1.615-.635,8.125,8.125,0,0,1,7.656,1.921,8.846,8.846,0,0,1,1.991,6.161,8.83,8.83,0,0,1-1.068,4.332,7.341,7.341,0,0,1-3,2.982,9.469,9.469,0,0,1-4.563,1.042,10.189,10.189,0,0,1-4.392-.965,7.879,7.879,0,0,1-3.213-2.647,6.431,6.431,0,0,1-1.145-3.8h5.776A3.267,3.267,0,0,0,50.41,32.1a2.766,2.766,0,0,0,2.068.8q2.905,0,2.905-4.3,0-3.974-3.555-3.974a3.547,3.547,0,0,0-3.008,1.3ZM64.184,16.9a4.884,4.884,0,0,1,1.5-3.726,6.483,6.483,0,0,1,8.083-.009,5.013,5.013,0,0,1,1.487,3.82v1.23a4.858,4.858,0,0,1-1.487,3.708,5.618,5.618,0,0,1-4.016,1.4,5.771,5.771,0,0,1-4.042-1.393,4.907,4.907,0,0,1-1.53-3.82Zm3.708,1.312a2.066,2.066,0,0,0,.5,1.435,1.744,1.744,0,0,0,1.367.552q1.794,0,1.794-2.275V16.906a2.178,2.178,0,0,0-.479-1.452,1.667,1.667,0,0,0-1.35-.569,1.7,1.7,0,0,0-1.333.552,2.167,2.167,0,0,0-.5,1.5ZM76.01,30.9a4.836,4.836,0,0,1,1.512-3.726,5.686,5.686,0,0,1,4.025-1.4,5.747,5.747,0,0,1,4.05,1.384,4.987,4.987,0,0,1,1.5,3.862v1.2a4.879,4.879,0,0,1-1.487,3.726,5.642,5.642,0,0,1-4.033,1.4,5.771,5.771,0,0,1-4.042-1.393,4.907,4.907,0,0,1-1.53-3.82ZM79.7,32.211a2.021,2.021,0,0,0,.547,1.4,1.733,1.733,0,0,0,1.333.6,1.572,1.572,0,0,0,1.794-1.562l.017-1.749a2.091,2.091,0,0,0-.5-1.452,1.929,1.929,0,0,0-2.666-.034,2.064,2.064,0,0,0-.53,1.4Zm-8.853,2.927-2.683-1.35L80.317,14.339,83,15.689Z" transform="translate(711 6553)" fill="#1d272b"/>
    <path id="Trazado_158800" data-name="Trazado 158800" d="M0,0H287V4H0Z" transform="translate(632 6549)" fill="#1d272b"/>
    <rect id="Rectángulo_34416" data-name="Rectángulo 34416" width="6" height="48" transform="translate(1102 6524)" fill="#008f85"/>
    <rect id="Rectángulo_34417" data-name="Rectángulo 34417" width="6" height="48" transform="translate(480 6524)" fill="#008f85"/>
  </g>
</svg>
