<svg id="icon8" xmlns="http://www.w3.org/2000/svg" xmlns:xlink="http://www.w3.org/1999/xlink" width="101.975" height="101.975" viewBox="0 0 101.975 101.975">
  <defs>
    <radialGradient id="radial-gradient" cx="0.076" cy="0.019" r="1.465" gradientTransform="translate(0.001)" gradientUnits="objectBoundingBox">
      <stop offset="0" stop-color="#f6f6f7"/>
      <stop offset="0.477" stop-color="#f9f9fa"/>
      <stop offset="0.715" stop-color="#fff"/>
    </radialGradient>
  </defs>
  <g id="Grupo_18423" data-name="Grupo 18423" transform="translate(0 0)">
    <g id="Grupo_18421" data-name="Grupo 18421">
      <g id="Grupo_18420" data-name="Grupo 18420">
        <g id="Grupo_18419" data-name="Grupo 18419">
          <path id="Trazado_40936" data-name="Trazado 40936" d="M296.6,2196.707a50.987,50.987,0,1,1-50.987-50.986A50.986,50.986,0,0,1,296.6,2196.707Z" transform="translate(-194.623 -2145.721)" fill="#fff"/>
        </g>
      </g>
    </g>
    <path id="Trazado_40937" data-name="Trazado 40937" d="M296.149,2196.218a50.986,50.986,0,1,0-50.987,50.988A50.787,50.787,0,0,0,296.149,2196.218Z" transform="translate(-194.174 -2145.232)" fill="url(#radial-gradient)"/>
    <path id="Trazado_40938" data-name="Trazado 40938" d="M280.132,2192.289a38.918,38.918,0,1,0-38.918,38.918A38.772,38.772,0,0,0,280.132,2192.289Z" transform="translate(-190.071 -2141.133)" fill="none" stroke="#008f85" stroke-miterlimit="10" stroke-width="4"/>
    <g id="Grupo_18422" data-name="Grupo 18422" transform="translate(9.033 28.626)">
      <path id="Trazado_40939" data-name="Trazado 40939" d="M288.331,2164.488a50.994,50.994,0,0,1-87.786,50.776,50.832,50.832,0,0,0,87.786-50.776Z" transform="translate(-200.545 -2164.488)" fill="#eceef0"/>
    </g>
  </g>
  <g id="Grupo_117564" data-name="Grupo 117564" transform="translate(-5212.516 -956.221)">
    <path id="Trazado_151106" data-name="Trazado 151106" d="M5479.625,951.49v-6.2c0-4.249-.008-8.5,0-12.747.008-3.38,2-4.724,4.876-3.534a19.942,19.942,0,0,1,2.031-2.716,2.642,2.642,0,0,1,1.847-.483c1.746.127,2.562,1.208,2.966,3.654,3.2-1.32,5.253.156,5.308,3.513.229-.081.434-.146.632-.226,2.348-.952,4.57.35,4.591,2.873.054,6.465,0,12.932-.045,19.4-.013,1.733-.083,3.474-.263,5.2a11.7,11.7,0,0,1-3.842,7.2,2.751,2.751,0,0,0-.939,2.2c.038,3.065.008,6.131.047,9.2a2.953,2.953,0,0,0,.4,1.3c.726,1.334.685,2.431-.609,3.186a14.249,14.249,0,0,1-13,.791c-2.269-1.058-2.624-2.1-1.547-4.317a1.914,1.914,0,0,0,.207-.806c.015-3.069.026-6.137-.013-9.205a1.545,1.545,0,0,0-.491-1.067,22.559,22.559,0,0,1-6.011-8.124c-1.559-3.172-3.053-6.377-4.559-9.575a3.2,3.2,0,0,1,.335-3.59,2.649,2.649,0,0,1,3.029-1,5.2,5.2,0,0,1,2.106,1.526c.967,1.138,1.762,2.423,2.629,3.647Zm16.719,30.733a10.644,10.644,0,0,1-.56-2.236c-.017-3.537.113-7.076.033-10.61a2.627,2.627,0,0,1,.968-2.428,11,11,0,0,0,4.068-8.092c.129-2.063-.017-4.143-.021-6.215-.006-5.569.023-11.138-.035-16.707a2.769,2.769,0,0,0-.753-1.972,2.377,2.377,0,0,0-2.136-.3,2.976,2.976,0,0,0-1.289,2.083c-.133,3.488-.05,6.983-.078,10.475a5.64,5.64,0,0,1-.321,1.3l-.514-.1c-.031-.5-.088-1-.088-1.5-.008-4.295,0-8.59-.013-12.885,0-.56.074-1.272-.223-1.644-.479-.6-1.225-1.32-1.884-1.346a3.063,3.063,0,0,0-1.978,1.193,3.02,3.02,0,0,0-.289,1.767c-.022,4.342-.005,8.684-.023,13.026a10.1,10.1,0,0,1-.225,1.479l-.48-.014a11.635,11.635,0,0,1-.2-1.525c-.016-5.192-.009-10.383-.013-15.575a11.6,11.6,0,0,0-.044-1.7,2.078,2.078,0,0,0-2.261-1.873,1.969,1.969,0,0,0-1.981,1.988c-.047.515-.031,1.037-.033,1.556,0,5.192,0,10.383-.018,15.575a10.57,10.57,0,0,1-.24,1.575l-.551-.027a11.931,11.931,0,0,1-.2-1.533c-.016-4.625,0-9.25-.016-13.876-.006-1.784-1.1-2.785-2.635-2.432-1.375.316-1.656,1.348-1.653,2.59q.02,10.336-.008,20.672a3.945,3.945,0,0,1-.354,1.114,3.746,3.746,0,0,1-.964-.678c-1.2-1.634-2.327-3.323-3.531-4.953-.732-.991-1.664-1.575-2.92-.841a2.2,2.2,0,0,0-.71,3.1c1.685,3.581,3.355,7.171,5.142,10.7a18.791,18.791,0,0,0,5.4,6.821,1.862,1.862,0,0,1,.512,1.327q.063,5.451,0,10.9a6.727,6.727,0,0,1-.579,1.719C5484.036,985.045,5494.882,985.052,5496.345,982.223Z" transform="translate(-224 52.201)" fill="#1d272b"/>
  </g>
</svg>
