<svg id="icon11" xmlns="http://www.w3.org/2000/svg" xmlns:xlink="http://www.w3.org/1999/xlink" width="101.975" height="101.975" viewBox="0 0 101.975 101.975">
  <defs>
    <radialGradient id="radial-gradient" cx="0.076" cy="0.019" r="1.465" gradientTransform="translate(0.001)" gradientUnits="objectBoundingBox">
      <stop offset="0" stop-color="#f6f6f7"/>
      <stop offset="0.477" stop-color="#f9f9fa"/>
      <stop offset="0.715" stop-color="#fff"/>
    </radialGradient>
  </defs>
  <g id="Grupo_18423" data-name="Grupo 18423" transform="translate(0 0)">
    <g id="Grupo_18421" data-name="Grupo 18421">
      <g id="Grupo_18420" data-name="Grupo 18420">
        <g id="Grupo_18419" data-name="Grupo 18419">
          <path id="Trazado_40936" data-name="Trazado 40936" d="M296.6,2196.707a50.987,50.987,0,1,1-50.987-50.986A50.986,50.986,0,0,1,296.6,2196.707Z" transform="translate(-194.623 -2145.721)" fill="#fff"/>
        </g>
      </g>
    </g>
    <path id="Trazado_40937" data-name="Trazado 40937" d="M296.149,2196.218a50.986,50.986,0,1,0-50.987,50.988A50.787,50.787,0,0,0,296.149,2196.218Z" transform="translate(-194.174 -2145.232)" fill="url(#radial-gradient)"/>
    <path id="Trazado_40938" data-name="Trazado 40938" d="M280.132,2192.289a38.918,38.918,0,1,0-38.918,38.918A38.772,38.772,0,0,0,280.132,2192.289Z" transform="translate(-190.071 -2141.133)" fill="none" stroke="#008f85" stroke-miterlimit="10" stroke-width="4"/>
    <g id="Grupo_18422" data-name="Grupo 18422" transform="translate(9.033 28.626)">
      <path id="Trazado_40939" data-name="Trazado 40939" d="M288.331,2164.488a50.994,50.994,0,0,1-87.786,50.776,50.832,50.832,0,0,0,87.786-50.776Z" transform="translate(-200.545 -2164.488)" fill="#eceef0"/>
    </g>
  </g>
  <g id="Grupo_117567" data-name="Grupo 117567" transform="translate(-4996.492 -636.281)">
    <path id="Trazado_151096" data-name="Trazado 151096" d="M5071.534,683.537c2.906,5.814,3,11.873-.144,17.512a8.761,8.761,0,0,1,2.033,2.108c.208.444-.4,1.4-.832,1.99-1.494,2.026-2.493-.4-3.968-.433-5.75,5.619-12.914,8.208-21.057,8.173-8.112-.035-15.364-2.393-21.2-8.177a13.449,13.449,0,0,1-3.233,1.089c-.407.036-.989-1.022-1.359-1.658-.684-1.175-.571-1.313,1.9-2.929-3.24-5.8-3.2-11.7-.269-17.608-2.337-1.715-2.337-1.715-1.273-3.476.869-1.438.9-1.439,3.628-.095,4.817-3.847,9.669-7.629,14.417-11.539s9.395-4.068,14.213-.293q6.059,4.748,12.132,9.481a5.574,5.574,0,0,1,.906.793c.98,1.192,1.85,1.863,3.515.741,1.307-.881,1.705.739,2.256,1.571a1.253,1.253,0,0,1-.46,2.022C5072.354,683.027,5071.982,683.266,5071.534,683.537Zm-47.169.655c-3.012,4.016-2.866,12.558.326,16.455.834-.351,1.7-1.1,2.54.093,1.123,1.6,1.168,2.155.085,3.456,10.44,10.926,30.951,10.093,40.436-.173-1.78-.87-.73-1.921-.2-2.979.733-1.454,1.774-.922,2.759-.4,3.429-4.649,3.1-12.51.242-16.5-.959.306-1.928,1.4-2.882-.087-1.167-1.821-1.181-1.993.39-3.555a19.82,19.82,0,0,0-1.775-1.795c-4.452-3.509-8.875-7.06-13.436-10.422a10.845,10.845,0,0,0-4.4-1.735c-3.05-.555-5.5.893-7.8,2.779-3.244,2.658-6.61,5.166-9.9,7.764-1.357,1.07-2.66,2.209-4.011,3.338,1.715,1.495,1.736,1.6.791,3.2C5026.693,685.052,5026.693,685.052,5024.365,684.192Zm-2.058-2.443,3.909,2.249,1.1-1.917-3.911-2.21Zm50.377,0-1.168-1.883-3.866,2.222,1.1,1.893Zm-5.028,21.087,3.909,2.223c.42-.724.742-1.278,1.1-1.892l-3.905-2.224Zm-40.337,0-1.143-1.887-3.863,2.224,1.1,1.88Z" fill="#1d272b"/>
    <path id="Trazado_151102" data-name="Trazado 151102" d="M5078.858,686.551a8.787,8.787,0,0,1,5.411,2.035c2.949,2.316,5.906,4.621,8.838,6.959.249.2.333.6.494.911-.351-.06-.788-.007-1.039-.2-2.732-2.084-5.457-4.18-8.139-6.328-1.671-1.339-3.37-2.421-5.652-2.392a8.652,8.652,0,0,0-5.408,2.323c-2.72,2.173-5.482,4.293-8.252,6.4-.245.187-.674.131-1.019.189.165-.311.254-.717.507-.918,2.937-2.331,5.907-4.619,8.848-6.945A8.852,8.852,0,0,1,5078.858,686.551Z" transform="translate(-31.365 -15.431)" fill="#1d272b"/>
    <path id="Trazado_151103" data-name="Trazado 151103" d="M5097.878,792.952a6.153,6.153,0,0,1,1.107-.207c3.038-.017,6.076-.027,9.113.011a3.207,3.207,0,0,1,1.089.468c-.353.163-.705.462-1.06.466-3.037.037-6.076.031-9.113.009a5.613,5.613,0,0,1-1.16-.255C5097.862,793.281,5097.871,793.117,5097.878,792.952Z" transform="translate(-56.069 -93.122)" fill="#1d272b"/>
    <path id="Trazado_151104" data-name="Trazado 151104" d="M5097.5,812.017h11.633C5108.118,812.955,5098.369,812.921,5097.5,812.017Z" transform="translate(-55.812 -107.235)" fill="#1d272b"/>
    <path id="Trazado_151105" data-name="Trazado 151105" d="M5108.55,802.929c-1.072,0-2.145.024-3.216-.02-.236-.01-.464-.262-.7-.4.214-.167.426-.474.642-.478q3.283-.055,6.566,0c.216,0,.428.317.642.486-.241.139-.477.389-.723.4C5110.7,802.955,5109.623,802.93,5108.55,802.929Z" transform="translate(-61.033 -99.905)" fill="#1d272b"/>
  </g>
</svg>
