<svg xmlns="http://www.w3.org/2000/svg" xmlns:xlink="http://www.w3.org/1999/xlink" width="126.927" height="126.927" viewBox="0 0 126.927 126.927">
  <defs>
    <radialGradient id="radial-gradient" cx="0.076" cy="0.019" r="1.465" gradientTransform="translate(0.001)" gradientUnits="objectBoundingBox">
      <stop offset="0" stop-color="#f6f6f7"/>
      <stop offset="0.477" stop-color="#f9f9fa"/>
      <stop offset="0.715" stop-color="#fff"/>
    </radialGradient>
  </defs>
  <g id="icon5" transform="translate(-217 -741.333)">
    <g id="Grupo_42274" data-name="Grupo 42274" transform="translate(217 741.333)">
      <g id="Grupo_18423" data-name="Grupo 18423" transform="translate(0 0)">
        <g id="Grupo_18421" data-name="Grupo 18421">
          <g id="Grupo_18420" data-name="Grupo 18420">
            <g id="Grupo_18419" data-name="Grupo 18419">
              <path id="Trazado_40936" data-name="Trazado 40936" d="M321.55,2209.183a63.464,63.464,0,1,1-63.463-63.462A63.463,63.463,0,0,1,321.55,2209.183Z" transform="translate(-194.623 -2145.721)" fill="#fff"/>
            </g>
          </g>
        </g>
        <path id="Trazado_40937" data-name="Trazado 40937" d="M320.783,2208.346a63.462,63.462,0,1,0-63.463,63.465A63.213,63.213,0,0,0,320.783,2208.346Z" transform="translate(-193.856 -2144.885)" fill="url(#radial-gradient)"/>
        <path id="Trazado_40938" data-name="Trazado 40938" d="M298.935,2201.548a48.442,48.442,0,1,0-48.441,48.441A48.262,48.262,0,0,0,298.935,2201.548Z" transform="translate(-186.837 -2137.874)" fill="none" stroke="#008f85" stroke-miterlimit="10" stroke-width="4"/>
        <g id="Grupo_18422" data-name="Grupo 18422" transform="translate(11.243 35.63)">
          <path id="Trazado_40939" data-name="Trazado 40939" d="M309.812,2164.488a63.471,63.471,0,0,1-109.267,63.2,63.27,63.27,0,0,0,109.267-63.2Z" transform="translate(-200.545 -2164.488)" fill="#eceef0"/>
        </g>
      </g>
    </g>
    <g id="Grupo_121052" data-name="Grupo 121052" transform="translate(-451.654 453.358)">
      <path id="Trazado_158753" data-name="Trazado 158753" d="M728.635,339.557c0-3.52.054-6.787-.022-10.051-.04-1.713.551-2.395,2.343-2.375,7.785.088,6.23-.848,6.382,6.175.043,1.986.007,3.973.007,6.15,2.849-.182,3.155,1.564,2.9,3.7a10.2,10.2,0,0,0,1.892,7.235,15.2,15.2,0,0,1,2.511,9.272c-.148,9.962-.047,19.927-.058,29.891,0,3.677-1.5,5.177-5.17,5.191-4.411.017-8.822.026-13.232,0-3.153-.02-4.78-1.6-4.787-4.706-.024-10.96-.08-21.922.061-32.88a11.68,11.68,0,0,1,1.587-5.2c1.735-3.16,3.315-6.258,2.71-10.033C725.437,339.912,726.811,339.545,728.635,339.557Zm-4.338,20c0,3.29,0,6.2,0,9.113q0,10.355,0,20.711c0,1.177-.017,2.4,1.66,2.4,4.7.01,9.392.054,14.085-.064.549-.014,1.317-.871,1.546-1.5a8.124,8.124,0,0,0,.064-2.584c-5.12-.418-10.133.261-15.053-.382l.01-1h14.834a13.808,13.808,0,0,0,.206-1.47c.01-9.181.044-18.363-.03-27.543a8.187,8.187,0,0,0-.947-3.436c-2.571-5.148-2.62-4.893-8.372-5.221-3.267-.186-5.23.769-6.286,3.809-.622,1.789-1.365,3.537-2.2,5.669,4.855,0,8.972-.046,13.086.038a8.966,8.966,0,0,1,2.479.81,10.977,10.977,0,0,1-2.471.618C732.808,359.591,728.7,359.556,724.3,359.556Zm12.926-16.82h-8.386v2.853h8.386Zm-2.4-6.521-1.348-3.3,1.149-2.824h-2.955v6.123Z" transform="translate(0 -6.924)" fill="#1d272b"/>
      <path id="Trazado_158754" data-name="Trazado 158754" d="M765.345,343.992c1.584,1.573,3.156,3.116,4.692,4.694a.779.779,0,0,1,.026.747c-.126.182-.63.36-.7.287-1.539-1.658-3.041-3.35-4.536-5.049A6.189,6.189,0,0,1,765.345,343.992Z" transform="translate(-24.902 -16.586)" fill="#1d272b"/>
      <path id="Trazado_158755" data-name="Trazado 158755" d="M765.42,329.385c-.212-1.57,3.285-5.14,5.357-5.054Z" transform="translate(-25.236 -5.319)" fill="#1d272b"/>
      <path id="Trazado_158756" data-name="Trazado 158756" d="M775.565,339.969c-1.1,1.345-6.069,1.5-7.733,0Z" transform="translate(-26.624 -14.281)" fill="#1d272b"/>
      <path id="Trazado_158757" data-name="Trazado 158757" d="M779.471,357.978l3.687,3.616A3.249,3.249,0,0,1,779.471,357.978Z" transform="translate(-33.279 -24.6)" fill="#1d272b"/>
      <path id="Trazado_158758" data-name="Trazado 158758" d="M778.732,317.895c.179-1.53,1.279-2.255,2.532-2.848l.65.575-2.549,2.831Z" transform="translate(-32.87 0)" fill="#1d272b"/>
      <path id="Trazado_158759" data-name="Trazado 158759" d="M789.222,339.824c.147-.138.3-.4.44-.393,1.018.045,2.033.144,3.049.226-.07.307-.125.875-.211.88-1.1.061-2.2.04-3.294.04Z" transform="translate(-38.871 -13.972)" fill="#1d272b"/>
    </g>
  </g>
</svg>
