<svg id="icon9" xmlns="http://www.w3.org/2000/svg" xmlns:xlink="http://www.w3.org/1999/xlink" width="101.975" height="101.975" viewBox="0 0 101.975 101.975">
  <defs>
    <radialGradient id="radial-gradient" cx="0.076" cy="0.019" r="1.465" gradientTransform="translate(0.001)" gradientUnits="objectBoundingBox">
      <stop offset="0" stop-color="#f6f6f7"/>
      <stop offset="0.477" stop-color="#f9f9fa"/>
      <stop offset="0.715" stop-color="#fff"/>
    </radialGradient>
  </defs>
  <g id="Grupo_18423" data-name="Grupo 18423" transform="translate(0 0)">
    <g id="Grupo_18421" data-name="Grupo 18421">
      <g id="Grupo_18420" data-name="Grupo 18420">
        <g id="Grupo_18419" data-name="Grupo 18419">
          <path id="Trazado_40936" data-name="Trazado 40936" d="M296.6,2196.707a50.987,50.987,0,1,1-50.987-50.986A50.986,50.986,0,0,1,296.6,2196.707Z" transform="translate(-194.623 -2145.721)" fill="#fff"/>
        </g>
      </g>
    </g>
    <path id="Trazado_40937" data-name="Trazado 40937" d="M296.149,2196.218a50.986,50.986,0,1,0-50.987,50.988A50.787,50.787,0,0,0,296.149,2196.218Z" transform="translate(-194.174 -2145.232)" fill="url(#radial-gradient)"/>
    <path id="Trazado_40938" data-name="Trazado 40938" d="M280.132,2192.289a38.918,38.918,0,1,0-38.918,38.918A38.772,38.772,0,0,0,280.132,2192.289Z" transform="translate(-190.071 -2141.133)" fill="none" stroke="#008f85" stroke-miterlimit="10" stroke-width="4"/>
    <g id="Grupo_18422" data-name="Grupo 18422" transform="translate(9.033 28.626)">
      <path id="Trazado_40939" data-name="Trazado 40939" d="M288.331,2164.488a50.994,50.994,0,0,1-87.786,50.776,50.832,50.832,0,0,0,87.786-50.776Z" transform="translate(-200.545 -2164.488)" fill="#eceef0"/>
    </g>
  </g>
  <g id="w1LOms" transform="translate(-5194.483 -1684.454)">
    <g id="Grupo_117565" data-name="Grupo 117565" transform="translate(5221.803 1709.257)">
      <path id="Trazado_157841" data-name="Trazado 157841" d="M5245.9,1756.716q-11.3,0-22.6,0c-1.435,0-1.583-.18-1.459-1.617.339-3.936.689-7.872.988-11.811a4.883,4.883,0,0,1,2.446-4.1c2.648-1.61,5.245-3.3,7.882-4.933a1.465,1.465,0,0,0,.792-1.291c.293-5.068.668-10.131.914-15.2s3.762-8.5,8.839-8.476a46.771,46.771,0,0,1,6.122.147,8.237,8.237,0,0,1,7.146,8.074c.27,5.137.658,10.267.938,15.4a1.609,1.609,0,0,0,.918,1.423c2.631,1.637,5.234,3.32,7.875,4.941a4.523,4.523,0,0,1,2.279,3.658q.533,6.159,1.037,12.32c.105,1.305-.068,1.464-1.42,1.464Q5257.246,1756.717,5245.9,1756.716Zm22.336-1.63a4.615,4.615,0,0,0,.039-.555q-.457-5.756-.926-11.51a2.979,2.979,0,0,0-1.544-2.383c-2.866-1.776-5.723-3.566-8.545-5.411a2.043,2.043,0,0,1-.878-1.318c-.392-5.506-.713-11.016-1.046-16.526a6.564,6.564,0,0,0-5.649-6.313,49.092,49.092,0,0,0-6.221-.161,6.8,6.8,0,0,0-6.951,6.6c-.327,5.407-.68,10.813-.981,16.222a1.724,1.724,0,0,1-.93,1.541c-2.7,1.663-5.326,3.435-8.059,5.033a3.959,3.959,0,0,0-2.126,3.551c-.108,2.209-.364,4.411-.542,6.617-.122,1.508-.219,3.018-.329,4.552h8.222v-1.158c0-1.977-.009-3.954.01-5.931.006-.612-.206-1.468.777-1.473,1.034-.005.836.877.843,1.529.017,1.5,0,3,0,4.5v2.532h11.475a2.5,2.5,0,0,0,.1-.446q.011-7.414,0-14.828a.9.9,0,0,0-.223-.621,3.361,3.361,0,0,0-2.8-.117,3.591,3.591,0,0,1-4.5-.468,3.325,3.325,0,0,1-.376-4.391,3.428,3.428,0,0,0,.911-3.176,3.627,3.627,0,0,1,0-.817c.065-.9.483-1.185,1.361-.89,1.418.478,2.831.978,4.245,1.47a6.5,6.5,0,0,0,4.5-.049c1.566-.572,3.131-1.147,4.707-1.689.987-.339,1.444-.026,1.449,1.01,0,.814-.131,1.629-.118,2.443a2.037,2.037,0,0,0,.34,1.174,3.564,3.564,0,0,1-4.751,5.273,1.238,1.238,0,0,0-.784-.262c-.755.146-1.492.387-2.213.585a2.22,2.22,0,0,0-.073.362c0,4.909.007,9.817-.022,14.726,0,.772.395.785.962.783,3.307-.013,6.613,0,9.92-.01.293,0,.586-.043.934-.071,0-2.479,0-4.862,0-7.246,0-.632-.021-1.329.869-1.317.864.011.757.716.759,1.286.009,2.147,0,4.3.009,6.443,0,.437-.084.916.62.912C5263.18,1755.077,5265.662,1755.086,5268.231,1755.086Zm-28.545-24.184c-.1,1.118-.042,1.62.951,1.713a3.338,3.338,0,0,1,2.856,3.131c.1,1.44.21,1.59,1.668,1.713a15.045,15.045,0,0,0,2.127-.087c.818-.048,1.134-.4,1.086-1.3a3.345,3.345,0,0,1,2.517-3.416,11.178,11.178,0,0,1,1.568-.178c.051-.511.1-1,.185-1.851C5248.279,1732.96,5244.053,1733.558,5239.686,1730.9Zm-1.582,5.16a1.882,1.882,0,1,0,1.86-1.884A1.828,1.828,0,0,0,5238.1,1736.061Zm15.63.031a1.821,1.821,0,0,0-1.818-1.918,1.888,1.888,0,1,0-.052,3.776A1.79,1.79,0,0,0,5253.734,1736.092Z" transform="translate(-5221.803 -1709.257)" fill="#1d272b"/>
      <path id="Trazado_157842" data-name="Trazado 157842" d="M5306.756,1763.663c2.007,0,4.016,0,6.024,0,1.936,0,2.445.485,2.451,2.385,0,.987.027,1.975-.011,2.961a1.59,1.59,0,0,1-1.8,1.748c-1.5.021-3,.037-4.492-.011a2.44,2.44,0,0,1-1.321-.406,1.279,1.279,0,0,0-1.808.041,1.809,1.809,0,0,1-1.028.36c-1.667.035-3.336.041-5,0a1.41,1.41,0,0,1-1.493-1.484c-.044-1.359-.054-2.723,0-4.082.042-1,.676-1.477,1.937-1.494,2.178-.03,4.356-.008,6.535-.008Zm-6.847,5.472c1,0,1.876-.026,2.754.006a4.637,4.637,0,0,0,3.466-.856,1.245,1.245,0,0,1,1.193,0c1.932,1.536,4.105.571,6.2.873v-3.735H5299.91Z" transform="translate(-5282.605 -1752.531)" fill="#1d272b"/>
    </g>
  </g>
</svg>
