<svg xmlns="http://www.w3.org/2000/svg" xmlns:xlink="http://www.w3.org/1999/xlink" width="126.927" height="126.927" viewBox="0 0 126.927 126.927">
  <defs>
    <radialGradient id="radial-gradient" cx="0.076" cy="0.019" r="1.465" gradientTransform="translate(0.001)" gradientUnits="objectBoundingBox">
      <stop offset="0" stop-color="#f6f6f7"/>
      <stop offset="0.477" stop-color="#f9f9fa"/>
      <stop offset="0.715" stop-color="#fff"/>
    </radialGradient>
  </defs>
  <g id="icon6" transform="translate(-217 -741.333)">
    <g id="Grupo_42274" data-name="Grupo 42274" transform="translate(217 741.333)">
      <g id="Grupo_18423" data-name="Grupo 18423" transform="translate(0 0)">
        <g id="Grupo_18421" data-name="Grupo 18421">
          <g id="Grupo_18420" data-name="Grupo 18420">
            <g id="Grupo_18419" data-name="Grupo 18419">
              <path id="Trazado_40936" data-name="Trazado 40936" d="M321.55,2209.183a63.464,63.464,0,1,1-63.463-63.462A63.463,63.463,0,0,1,321.55,2209.183Z" transform="translate(-194.623 -2145.721)" fill="#fff"/>
            </g>
          </g>
        </g>
        <path id="Trazado_40937" data-name="Trazado 40937" d="M320.783,2208.346a63.462,63.462,0,1,0-63.463,63.465A63.213,63.213,0,0,0,320.783,2208.346Z" transform="translate(-193.856 -2144.885)" fill="url(#radial-gradient)"/>
        <path id="Trazado_40938" data-name="Trazado 40938" d="M298.935,2201.548a48.442,48.442,0,1,0-48.441,48.441A48.262,48.262,0,0,0,298.935,2201.548Z" transform="translate(-186.837 -2137.874)" fill="none" stroke="#008f85" stroke-miterlimit="10" stroke-width="4"/>
        <g id="Grupo_18422" data-name="Grupo 18422" transform="translate(11.243 35.63)">
          <path id="Trazado_40939" data-name="Trazado 40939" d="M309.812,2164.488a63.471,63.471,0,0,1-109.267,63.2,63.27,63.27,0,0,0,109.267-63.2Z" transform="translate(-200.545 -2164.488)" fill="#eceef0"/>
        </g>
      </g>
    </g>
    <g id="Grupo_121053" data-name="Grupo 121053" transform="translate(-335.942 403.506)">
      <path id="Trazado_158760" data-name="Trazado 158760" d="M633.663,414.153c0,4.173.079,8.348-.02,12.519-.119,5.027-3.457,8.282-8.507,8.341-5.2.062-10.393.071-15.588,0-4.968-.07-8.3-3.193-8.369-8.138-.116-8.523-.051-17.051.057-25.574a14.517,14.517,0,0,1,4.715-10.964c3.67-3.247,4.8-6.922,4.584-11.718-.364-7.926-.694-7.067,6.857-7.073,7.61-.006,7.061-.725,6.785,6.858-.171,4.71.65,8.5,4.441,11.772,3.677,3.169,4.988,7.686,4.915,12.563-.056,3.805-.011,7.611-.011,11.416Zm-13.165-12.7.173,1.236a13.809,13.809,0,0,1-2.586.529q-5.566.082-11.133-.006c-1.442-.022-2.27.348-2.244,2,.113,7.232.1,14.467.285,21.7.065,2.536,1.517,4.206,4.216,4.235,5.473.058,10.949.091,16.421-.028,2.818-.062,4.089-1.79,3.866-4.926-3.689,0-7.4.118-11.094-.034-3.552-.145-7.2.665-10.671-.494l0-1.062h21.848a22.3,22.3,0,0,0,.292-2.22c.026-5.654-.211-11.322.106-16.959.378-6.737-2.419-11.824-7.262-16.078a4.178,4.178,0,0,0-2.048-1.216c-4.26-.337-8.587-.728-11.176,3.891-.443.791-1.378,1.316-1.785,2.117-1.083,2.132-2,4.347-3.343,7.321Zm-1.9-23.259.06,1.113-4.211.785v3.917h5.777v-8.606a33.214,33.214,0,0,0-4.3.057c-.6.081-1.107.784-1.657,1.2a8.839,8.839,0,0,0,1.784,1.1A15.611,15.611,0,0,0,618.594,378.2Z" fill="#1d272b"/>
      <path id="Trazado_158761" data-name="Trazado 158761" d="M639.741,425.662c.3-.183.614-.547.892-.519,1.37.135,2.73.375,4.093.578-.1.326-.2.931-.314.936-1.554.063-3.111.042-4.667.042Z" transform="translate(-17.099 -23.74)" fill="#1d272b"/>
    </g>
  </g>
</svg>
