<svg id="icon3" xmlns="http://www.w3.org/2000/svg" xmlns:xlink="http://www.w3.org/1999/xlink" width="114.636" height="114.636" viewBox="0 0 114.636 114.636">
  <defs>
    <radialGradient id="radial-gradient" cx="0.076" cy="0.019" r="1.465" gradientTransform="translate(0.001)" gradientUnits="objectBoundingBox">
      <stop offset="0" stop-color="#f6f6f7"/>
      <stop offset="0.477" stop-color="#f9f9fa"/>
      <stop offset="0.715" stop-color="#fff"/>
    </radialGradient>
  </defs>
  <g id="Grupo_18423" data-name="Grupo 18423" transform="translate(0 0)">
    <g id="Grupo_18421" data-name="Grupo 18421">
      <g id="Grupo_18420" data-name="Grupo 18420">
        <g id="Grupo_18419" data-name="Grupo 18419">
          <path id="Trazado_40936" data-name="Trazado 40936" d="M309.259,2203.037a57.318,57.318,0,1,1-57.317-57.316A57.317,57.317,0,0,1,309.259,2203.037Z" transform="translate(-194.623 -2145.721)" fill="#fff"/>
        </g>
      </g>
    </g>
    <path id="Trazado_40937" data-name="Trazado 40937" d="M308.648,2202.372a57.316,57.316,0,1,0-57.317,57.319A57.091,57.091,0,0,0,308.648,2202.372Z" transform="translate(-194.013 -2145.056)" fill="url(#radial-gradient)"/>
    <path id="Trazado_40938" data-name="Trazado 40938" d="M289.672,2196.986a43.75,43.75,0,1,0-43.75,43.75A43.587,43.587,0,0,0,289.672,2196.986Z" transform="translate(-188.43 -2139.479)" fill="none" stroke="#00223d" stroke-miterlimit="10" stroke-width="4"/>
    <g id="Grupo_18422" data-name="Grupo 18422" transform="translate(10.154 32.18)">
      <path id="Trazado_40939" data-name="Trazado 40939" d="M299.231,2164.488a57.325,57.325,0,0,1-98.686,57.081,57.143,57.143,0,0,0,98.686-57.081Z" transform="translate(-200.545 -2164.488)" fill="#eceef0"/>
    </g>
  </g>
  <g id="p7HnNc" transform="translate(-3420.287 14.729)">
    <g id="Grupo_121014" data-name="Grupo 121014" transform="translate(3456.427 18.929)">
      <path id="Trazado_158639" data-name="Trazado 158639" d="M3491.444,62.491c-.706,0-1.414-.026-2.118.016a.744.744,0,0,0-.56.347c-1.652,4.611-6.247,6.493-10.565,6.124-4.882-.417-7.945-3.219-9.778-7.588-.431-1.028-.225-1-1.313-.625-1.655.566-3.273,1.245-4.892,1.914-.744.307-1.089.266-1.507-.42-4.082-6.7-5.458-13.8-3.205-21.465a35.808,35.808,0,0,0,1.1-16.443,1,1,0,0,1,.524-1.129c6.638-4.058,13.68-5.458,21.275-3.255a37.548,37.548,0,0,0,15.428,1.341c.636-.082,1.268-.2,1.9-.311.787-.144,1.1.034,1.307.82A33.094,33.094,0,0,1,3499.985,32a47.07,47.07,0,0,1-1.811,10.083,23.005,23.005,0,0,0,1.674,16.426c.21.445.441.88.669,1.316.5.957.317,1.378-.751,1.671a30.806,30.806,0,0,1-6.844,1.009c-.491.021-.984,0-1.477,0Zm-16.564-25.54c.107-1.745.655-3.27,2.527-3.656,1.979-.409,3.031.829,3.614,2.528a8.634,8.634,0,0,1,1.114-.246,3.205,3.205,0,0,1,3.3,3.445c-.028.778,0,1.557,0,2.373a3.3,3.3,0,0,0,.384-.045,2.879,2.879,0,0,1,3.577,2.951q-.022,8.092-.052,16.183a1.128,1.128,0,0,0,.069.261,31.617,31.617,0,0,0,9.09-.729c.015-.1.037-.149.023-.182q-.108-.267-.231-.527a25.128,25.128,0,0,1-1.617-18.362,36.581,36.581,0,0,0,1.217-16.19c-.1-.643-.255-1.278-.382-1.9a2.542,2.542,0,0,0-.3,0,38.757,38.757,0,0,1-17.518-1.292,21.778,21.778,0,0,0-6.4-.905,25.307,25.307,0,0,0-12.454,3.546c-.415.237-.413.524-.359.9a37.649,37.649,0,0,1-.731,13.959c-.455,1.957-1.1,3.883-1.385,5.862a23.165,23.165,0,0,0,2.113,13.253c.418.906.912,1.777,1.347,2.619l5.579-2.031c-.037-.132-.071-.275-.116-.414-.646-2.016-1.342-4.018-1.924-6.053a14.918,14.918,0,0,1-.7-3.629,2.3,2.3,0,0,1,3.711-1.961,10.8,10.8,0,0,1,1.686,1.813,5.164,5.164,0,0,1,.361.517,1.657,1.657,0,0,0,.113-.7c0-2.74-.021-5.479,0-8.218a3.206,3.206,0,0,1,3.256-3.383A9.5,9.5,0,0,1,3474.881,36.951Zm12.773,14.831h.088c0-1.927.009-3.854-.005-5.781a15.267,15.267,0,0,0-.117-2.045,1.033,1.033,0,0,0-1.036-.962,1.059,1.059,0,0,0-1.041.954,3.812,3.812,0,0,0-.074.829c0,1.713.011,3.426.009,5.139a1.5,1.5,0,0,1-.1.808c-.19.255-.549.554-.815.537s-.568-.362-.77-.626c-.106-.139-.042-.414-.043-.628-.007-3.53,0-7.06-.027-10.59a3.957,3.957,0,0,0-.259-1.367.97.97,0,0,0-1.092-.714,1.844,1.844,0,0,0-1.031.719,2.522,2.522,0,0,0-.276,1.286c-.015,3.532,0,7.064,0,10.6,0,.742-.288,1.126-.832,1.141-.575.016-.872-.369-.886-1.151,0-.064,0-.129,0-.193q-.019-6.324-.04-12.648a4.669,4.669,0,0,0-.065-.958,1.414,1.414,0,0,0-1.257-1.191,1.37,1.37,0,0,0-1.22,1.143,3.056,3.056,0,0,0-.1.757c-.011.942,0,1.884,0,2.826q0,5.2.007,10.4c0,.633-.315,1-.827,1.014s-.859-.357-.9-.959c-.015-.213-.008-.428-.009-.642,0-3.06,0-6.119-.012-9.178,0-1.075-.564-1.819-1.32-1.824s-1.316.764-1.322,1.819c-.006,1.156,0,2.313,0,3.469q0,4.882.006,9.764c0,.776-.482,1.259-1.084,1.015a1.541,1.541,0,0,1-.67-.766c-.667-1.431-1.257-2.9-1.951-4.315a4.338,4.338,0,0,0-1.067-1.263c-.514-.451-1.07-.2-1.129.481a2.7,2.7,0,0,0,.058.955c1.2,4.172,2.261,8.4,4.185,12.31a9.038,9.038,0,0,0,8.86,5.344c4.7-.092,7.832-2.948,8.136-7.614C3487.794,57.056,3487.654,54.415,3487.654,51.782Z" transform="translate(-3456.427 -18.929)" fill="#1d272b"/>
      <path id="Trazado_158640" data-name="Trazado 158640" d="M3543.812,58.61a24.141,24.141,0,0,1,6.247.907c1.833.5,3.687.929,5.536,1.367.648.154.98.494.895,1.022a.86.86,0,0,1-1.166.683c-2.061-.478-4.126-.942-6.164-1.506a19.334,19.334,0,0,0-10.33-.038c-.145.038-.288.084-.434.114a.866.866,0,1,1-.425-1.677A22.375,22.375,0,0,1,3543.812,58.61Z" transform="translate(-3526.886 -53.511)" fill="#1d272b"/>
      <path id="Trazado_158641" data-name="Trazado 158641" d="M3568.425,81.759a21.549,21.549,0,0,1,6.2.976c.454.141.824.421.736.9a1.668,1.668,0,0,1-.622.788c-.1.088-.372.035-.545-.017a19.668,19.668,0,0,0-7.738-.8c-.7.07-1.1-.2-1.144-.731a.814.814,0,0,1,.811-.955C3566.886,81.838,3567.657,81.809,3568.425,81.759Z" transform="translate(-3551.313 -73.685)" fill="#1d272b"/>
    </g>
  </g>
</svg>
