<svg id="icon12" xmlns="http://www.w3.org/2000/svg" xmlns:xlink="http://www.w3.org/1999/xlink" width="101.975" height="101.975" viewBox="0 0 101.975 101.975">
  <defs>
    <radialGradient id="radial-gradient" cx="0.076" cy="0.019" r="1.465" gradientTransform="translate(0.001)" gradientUnits="objectBoundingBox">
      <stop offset="0" stop-color="#f6f6f7"/>
      <stop offset="0.477" stop-color="#f9f9fa"/>
      <stop offset="0.715" stop-color="#fff"/>
    </radialGradient>
  </defs>
  <g id="Grupo_18423" data-name="Grupo 18423" transform="translate(0 0)">
    <g id="Grupo_18421" data-name="Grupo 18421">
      <g id="Grupo_18420" data-name="Grupo 18420">
        <g id="Grupo_18419" data-name="Grupo 18419">
          <path id="Trazado_40936" data-name="Trazado 40936" d="M296.6,2196.707a50.987,50.987,0,1,1-50.987-50.986A50.986,50.986,0,0,1,296.6,2196.707Z" transform="translate(-194.623 -2145.721)" fill="#fff"/>
        </g>
      </g>
    </g>
    <path id="Trazado_40937" data-name="Trazado 40937" d="M296.149,2196.218a50.986,50.986,0,1,0-50.987,50.988A50.787,50.787,0,0,0,296.149,2196.218Z" transform="translate(-194.174 -2145.232)" fill="url(#radial-gradient)"/>
    <path id="Trazado_40938" data-name="Trazado 40938" d="M280.132,2192.289a38.918,38.918,0,1,0-38.918,38.918A38.772,38.772,0,0,0,280.132,2192.289Z" transform="translate(-190.071 -2141.133)" fill="none" stroke="#008f85" stroke-miterlimit="10" stroke-width="4"/>
    <g id="Grupo_18422" data-name="Grupo 18422" transform="translate(9.033 28.626)">
      <path id="Trazado_40939" data-name="Trazado 40939" d="M288.331,2164.488a50.994,50.994,0,0,1-87.786,50.776,50.832,50.832,0,0,0,87.786-50.776Z" transform="translate(-200.545 -2164.488)" fill="#eceef0"/>
    </g>
  </g>
  <g id="Oo8fv0" transform="translate(-5463.286 -1646.875)">
    <g id="Grupo_117568" data-name="Grupo 117568" transform="translate(5494.094 1677.114)">
      <path id="Trazado_157843" data-name="Trazado 157843" d="M5531.968,1721.1h-35.387c-1.856-.593-2.533-1.911-2.485-3.8.063-2.471.016-4.944.016-7.417q0-11.223,0-22.446c0-1.154.128-2.363,1.224-2.892,1.115-.538,1.1-1.337,1.057-2.281-.02-.422.031-.849-.01-1.268a3.434,3.434,0,0,1,2.353-3.885h31.282a3.323,3.323,0,0,1,2.37,3.755,19.958,19.958,0,0,0,0,2.535c.011.252.119.629.3.725,1.442.763,1.765,2.02,1.762,3.52q-.03,14.828.005,29.656C5534.459,1719.182,5533.829,1720.51,5531.968,1721.1Zm-17.727-1.762q8.358,0,16.716,0c1.3,0,1.757-.447,1.758-1.756q.007-15.1,0-30.2c0-1.342-.472-1.81-1.837-1.811q-16.618-.008-33.236,0c-1.349,0-1.808.475-1.808,1.842q-.007,15.052,0,30.1c0,1.409.44,1.823,1.888,1.823Zm-16.093-35.541h32.383a1.314,1.314,0,0,0,.072-.257c.007-.944.014-1.888.013-2.832,0-1.525-.3-1.829-1.816-1.829h-28.816c-.2,0-.392-.012-.586,0a1.191,1.191,0,0,0-1.242,1.23C5498.126,1681.313,5498.148,1682.516,5498.148,1683.794Z" transform="translate(-5494.093 -1677.114)" fill="#1d272b"/>
      <path id="Trazado_157844" data-name="Trazado 157844" d="M5530.366,1751.135a12.946,12.946,0,1,1,12.929,13A12.985,12.985,0,0,1,5530.366,1751.135Zm24.129.084a11.215,11.215,0,1,0-11.218,11.19A11.286,11.286,0,0,0,5554.495,1751.22Z" transform="translate(-5523.275 -1726.272)" fill="#1d272b"/>
      <path id="Trazado_157845" data-name="Trazado 157845" d="M5529.916,1696.241c-.318-.339-.848-.643-.909-1.023-.124-.768.516-.922,1.153-.92.617,0,1.132.206,1.118.91s-.507.909-1.161.813Z" transform="translate(-5522.169 -1690.939)" fill="#1d272b"/>
      <path id="Trazado_157846" data-name="Trazado 157846" d="M5547.077,1696.239c-.821-.162-1.312-.31-1.308-1.063s.537-.866,1.129-.88c.667-.016,1.255.243,1.151.952C5547.994,1695.618,5547.418,1695.911,5547.077,1696.239Z" transform="translate(-5535.667 -1690.936)" fill="#1d272b"/>
      <path id="Trazado_157847" data-name="Trazado 157847" d="M5562.911,1810.758c-4.186-.069-7.913-3.775-7.974-7.681,0-.3.272-.613.418-.92.188.276.506.535.544.831a7.386,7.386,0,0,0,6.77,6.786c.3.034.565.344.847.526Z" transform="translate(-5543.042 -1777.713)" fill="#1d272b"/>
    </g>
  </g>
</svg>
