<svg xmlns="http://www.w3.org/2000/svg" xmlns:xlink="http://www.w3.org/1999/xlink" width="126.927" height="126.927" viewBox="0 0 126.927 126.927">
  <defs>
    <radialGradient id="radial-gradient" cx="0.076" cy="0.019" r="1.465" gradientTransform="translate(0.001)" gradientUnits="objectBoundingBox">
      <stop offset="0" stop-color="#f6f6f7"/>
      <stop offset="0.477" stop-color="#f9f9fa"/>
      <stop offset="0.715" stop-color="#fff"/>
    </radialGradient>
  </defs>
  <g id="icon4" transform="translate(-217 -741.333)">
    <g id="Grupo_42274" data-name="Grupo 42274" transform="translate(217 741.333)">
      <g id="Grupo_18423" data-name="Grupo 18423" transform="translate(0 0)">
        <g id="Grupo_18421" data-name="Grupo 18421">
          <g id="Grupo_18420" data-name="Grupo 18420">
            <g id="Grupo_18419" data-name="Grupo 18419">
              <path id="Trazado_40936" data-name="Trazado 40936" d="M321.55,2209.183a63.464,63.464,0,1,1-63.463-63.462A63.463,63.463,0,0,1,321.55,2209.183Z" transform="translate(-194.623 -2145.721)" fill="#fff"/>
            </g>
          </g>
        </g>
        <path id="Trazado_40937" data-name="Trazado 40937" d="M320.783,2208.346a63.462,63.462,0,1,0-63.463,63.465A63.213,63.213,0,0,0,320.783,2208.346Z" transform="translate(-193.856 -2144.885)" fill="url(#radial-gradient)"/>
        <path id="Trazado_40938" data-name="Trazado 40938" d="M298.935,2201.548a48.442,48.442,0,1,0-48.441,48.441A48.262,48.262,0,0,0,298.935,2201.548Z" transform="translate(-186.837 -2137.874)" fill="none" stroke="#008f85" stroke-miterlimit="10" stroke-width="4"/>
        <g id="Grupo_18422" data-name="Grupo 18422" transform="translate(11.243 35.63)">
          <path id="Trazado_40939" data-name="Trazado 40939" d="M309.812,2164.488a63.471,63.471,0,0,1-109.267,63.2,63.27,63.27,0,0,0,109.267-63.2Z" transform="translate(-200.545 -2164.488)" fill="#eceef0"/>
        </g>
      </g>
    </g>
    <g id="Grupo_121051" data-name="Grupo 121051" transform="translate(-569.966 460.401)">
      <path id="Trazado_158751" data-name="Trazado 158751" d="M847.1,322.44a11.332,11.332,0,0,1,.052-2.844,8.108,8.108,0,0,1,1.324-2.036c.306-.447.618-.89,1.22-1.755-3.023,0-5.456.016-7.888,0-2.365-.019-3.715-1.181-3.727-3.159-.012-2.009,1.307-3.191,3.681-3.2q7.047-.035,14.095,0c2.141.009,3.46,1.056,3.671,2.821.2,1.676-.794,2.921-2.753,3.537a1.649,1.649,0,0,0-.959.694c-.108.235.171.94.35.968,2.185.34,1.679,2,1.739,3.393.02.458.043.917.075,1.589,2.253-.269,2.569,1.165,2.325,2.862a6.051,6.051,0,0,0,2.524,6.194c3.629,2.689,4.549,6.284,4.424,10.748-.3,10.715-.094,21.445-.1,32.169,0,3.763-1.2,4.945-5.018,4.948q-9.826.007-19.653,0c-3.333-.006-4.74-1.4-4.743-4.685-.007-11.972.014-23.944-.021-35.915a6.05,6.05,0,0,1,1.844-4.636c.807-.782,1.519-1.673,2.379-2.389,2.067-1.721,3.178-3.761,2.707-6.544C844.36,323.5,844.923,322.3,847.1,322.44Zm17.343,46.667c0-.839,0-1.364,0-1.89,0-8.87-.079-17.742.045-26.611a8.358,8.358,0,0,0-2.277-5.988c-2.472-2.921-5.2-3.821-9.017-3.972-4.89-.193-8.469,1.092-11.392,4.977a4.972,4.972,0,0,0-1.122,4.623c3.679,0,7.309,0,10.939,0,1.522,0,3.047-.024,4.564.066a5.017,5.017,0,0,1,1.47.591,12.019,12.019,0,0,1-1.564.7,4.348,4.348,0,0,1-1.185.021c-4.236,0-8.471,0-12.707.013a14.413,14.413,0,0,0-1.662.192l.066.6c3.092,0,6.184-.025,9.275.021a8.38,8.38,0,0,1,1.828.439l-.141.835H840.477c0,10.657-.023,20.977.066,31.3a2.169,2.169,0,0,0,1.47,1.527c6.948.1,13.9.057,20.848.074,1.081,0,1.6-.446,1.574-1.533-.017-.767,0-1.535,0-2.647H842.02q-.043-.384-.085-.768a11.241,11.241,0,0,1,1.981-.362c6.273-.034,12.546-.026,18.819-.045a13.209,13.209,0,0,0,1.521-.174,2.164,2.164,0,0,0-1.542-.6c-4.743-.024-9.486.007-14.227-.075a14.1,14.1,0,0,1-2.928-.676,14.19,14.19,0,0,1,2.83-.608C853.652,369.076,858.917,369.107,864.44,369.107Zm-6.966-43.687h-10.02v2.572h10.02Zm-7.59-3h5.172V320.4h-5.172Zm-8.948-10.052c2.716,1.069,14.749.805,15.8,0Z" fill="#1d272b"/>
      <path id="Trazado_158752" data-name="Trazado 158752" d="M895.387,387.778c-1.054,1.423-2.934,1.466-4.332,0Z" transform="translate(-32.149 -47.228)" fill="#1d272b"/>
    </g>
  </g>
</svg>
