<svg id="icon6" xmlns="http://www.w3.org/2000/svg" xmlns:xlink="http://www.w3.org/1999/xlink" width="222.94" height="222.945" viewBox="0 0 222.94 222.945">
  <defs>
    <radialGradient id="radial-gradient" cx="0.076" cy="0.019" r="1.465" gradientTransform="translate(0)" gradientUnits="objectBoundingBox">
      <stop offset="0" stop-color="#f6f6f7"/>
      <stop offset="0.477" stop-color="#f9f9fa"/>
      <stop offset="0.715" stop-color="#fff"/>
    </radialGradient>
  </defs>
  <g id="Grupo_42274" data-name="Grupo 42274" transform="translate(0 0)">
    <g id="Grupo_18423" data-name="Grupo 18423" transform="translate(0 0)">
      <g id="Grupo_18421" data-name="Grupo 18421">
        <g id="Grupo_18420" data-name="Grupo 18420">
          <g id="Grupo_18419" data-name="Grupo 18419">
            <path id="Trazado_40936" data-name="Trazado 40936" d="M417.562,2257.189a111.47,111.47,0,1,1-111.468-111.468A111.468,111.468,0,0,1,417.562,2257.189Z" transform="translate(-194.623 -2145.721)" fill="#fff"/>
          </g>
        </g>
      </g>
      <path id="Trazado_40937" data-name="Trazado 40937" d="M415.569,2255.017A111.467,111.467,0,1,0,304.1,2366.492,111.031,111.031,0,0,0,415.569,2255.017Z" transform="translate(-192.629 -2143.547)" fill="url(#radial-gradient)"/>
      <path id="Trazado_40938" data-name="Trazado 40938" d="M389.579,2246.181a94.349,94.349,0,1,0-94.349,94.35A94.011,94.011,0,0,0,389.579,2246.181Z" transform="translate(-183.54 -2134.468)" fill="none" stroke="#1d272b" stroke-miterlimit="10" stroke-width="5"/>
      <g id="Grupo_18422" data-name="Grupo 18422" transform="translate(19.748 62.583)">
        <path id="Trazado_40939" data-name="Trazado 40939" d="M392.465,2164.488A111.483,111.483,0,0,1,200.545,2275.5a111.8,111.8,0,0,0,11.094,14.849,111.485,111.485,0,0,0,180.826-125.859Z" transform="translate(-200.545 -2164.488)" fill="#eceef0"/>
      </g>
      <g id="mQYvRO.tif" transform="translate(263.774 -221.338)">
        <g id="Grupo_91845" data-name="Grupo 91845" transform="translate(-210.702 289.012)">
          <path id="Trazado_150931" data-name="Trazado 150931" d="M-219.173,292.981c.147-.061.381-.084.428-.188,2.971-6.753,7.863-10.778,15.509-10.031,7,.683,11,5.335,13.039,14.291.6,2.622,1.185,5.247,1.984,8.785,3.262-1.8,6.326-3.239,9.13-5.076,15.52-10.163,26.31-10.182,41.778-.049,2.747,1.8,5.715,3.264,9.146,5.2.933-4.145,1.665-7.638,2.51-11.1,1.955-8.016,8.649-13.141,15.805-12.165,7.587,1.034,12.634,7.08,12.7,15.357.06,7.307.081,14.616-.056,21.921-.022,1.2-.944,2.373-1.45,3.559-.71-1.168-2-2.322-2.035-3.508-.193-7.3-.036-14.613-.125-21.919-.082-6.682-3.739-11.142-9.415-11.741-5.785-.61-10.213,2.828-11.836,9.329-.88,3.526-1.583,7.1-2.416,10.874,1.478.627,2.743,1.193,4.03,1.7,3.978,1.577,6.136,4.515,6.086,8.768-.135,11.529-.409,23.059-.622,34.195,3.02-1.115,6.317-5.055,6.439-10.276.337-14.447.3-28.9.163-43.354-.011-1.24-1.808-2.462-2.774-3.692-1.207,1.016-2.86,1.807-3.512,3.1-.9,1.79-.919,4.007-1.6,5.941-.23.653-1.328,1-2.029,1.488-.417-.756-1.292-1.6-1.172-2.256a37.238,37.238,0,0,1,2.082-8.262c1.349-3.1,4.488-4.853,7.422-3.382,2.269,1.138,4.878,4.087,5.071,6.417.64,7.732.259,15.549.262,23.332,0,6.037.074,12.074-.028,18.11-.146,8.593-4.253,14.661-11.875,18.585-2.1,1.081-3.849,2.846-6.709,5.021A23.118,23.118,0,0,0-100.9,340.668c.187-3.167-.041-6.362.209-9.522.08-1.013,1.083-1.953,1.664-2.925.63.891,1.712,1.729,1.826,2.682,2.231,18.791-6.661,31.221-25.043,35.556-3.155.744-6.058,2.507-9.123,3.68-4.7,1.8-9.352,4.615-14.189,5.023-14.5,1.22-29.306,2.976-42.144-6.829a10.019,10.019,0,0,0-4.456-1.5c-13.9-2.132-23.115-9.63-27.016-23.318Zm18.441,59.194c-.434-6.584-.967-12.847-1.172-19.12-.047-1.449,1.026-2.934,1.584-4.4.67,1.536,1.722,3.023,1.925,4.618.337,2.66.054,5.393.167,8.09.681,16.259,14.483,30.11,30.77,30.735,5.869.225,11.758.178,17.632.036a32.628,32.628,0,0,0,31.769-31.7c.178-7.146-.143-14.305.137-21.444.183-4.63-1.911-6.664-6.044-8.3a117.391,117.391,0,0,1-17.829-8.757c-11.043-6.73-21.679-6.883-32.667.035-4.8,3.018-9.827,6.017-15.166,7.724-6.145,1.963-9.951,4.615-8.709,11.641a2.781,2.781,0,0,1-.213,1.853c-.38.57-1.147,1.246-1.716,1.22a2.363,2.363,0,0,1-1.551-1.394,11.808,11.808,0,0,1,6.578-14.955c1.116-.455,2.182-1.032,3.383-1.607-.936-4.319-1.619-8.394-2.726-12.351a10.617,10.617,0,0,0-11.641-7.762,10.252,10.252,0,0,0-9.174,9.952c-.142,14.932-.375,29.878.128,44.795.375,11.125,10.051,20.312,22.265,20.973-2.893-2.226-4.623-4.021-6.724-5.088-7.659-3.893-11.738-9.962-11.905-18.556-.1-4.924-.019-9.851-.021-14.775q-.006-13.107-.019-26.214c-.009-3.653,1.737-6.15,5.178-7.087a6.016,6.016,0,0,1,7.532,3.492,40.69,40.69,0,0,1,2.271,8.7c.12.624-.824,1.452-1.278,2.186-.7-.484-1.8-.829-2.025-1.479-.627-1.783-.524-3.9-1.4-5.5-.849-1.539-2.566-2.6-3.9-3.87-.926,1.438-2.64,2.866-2.657,4.314q-.258,20.729.03,41.463C-207.852,345.019-205.279,349.215-200.732,352.176Z" transform="translate(219.173 -282.53)" fill="#008f85"/>
          <path id="Trazado_150932" data-name="Trazado 150932" d="M-156.646,347.026c5.865,0,11.729-.023,17.593.013,3.631.021,6.3,1.469,6.328,5.466.024,4.043-2.758,5.491-6.322,5.508q-17.592.085-35.185-.037c-3.552-.021-6.366-1.339-6.316-5.453.048-3.992,2.665-5.471,6.31-5.491C-168.375,347-162.51,347.022-156.646,347.026Zm-.131,7.467c5.555,0,11.116.122,16.664-.1,1.23-.048,2.414-1.293,3.618-1.987-1.108-.575-2.21-1.636-3.325-1.647q-16.9-.177-33.809.024c-1.051.013-2.087,1.2-3.131,1.84,1.105.621,2.194,1.741,3.318,1.779C-167.892,354.592-162.333,354.491-156.776,354.493Z" transform="translate(217.664 -285.049)" fill="#1d272b"/>
          <path id="Trazado_150933" data-name="Trazado 150933" d="M-157.122,327.459c-5.548,0-11.1.03-16.644-.01-3.72-.027-6.773-1.216-6.767-5.551s3.021-5.531,6.765-5.538q17.121-.029,34.24-.011c3.73.006,6.765,1.217,6.776,5.54.012,4.35-3.062,5.508-6.775,5.532-5.865.037-11.73.01-17.6.01Zm-.006-3.636c5.7,0,11.395.116,17.083-.092,1.217-.045,2.39-1.267,3.583-1.947-1.108-.589-2.209-1.677-3.323-1.689q-16.847-.19-33.7,0c-1.12.012-2.229,1.088-3.344,1.669,1.187.684,2.351,1.909,3.564,1.957C-167.891,323.936-162.507,323.814-157.128,323.823Z" transform="translate(217.664 -283.85)" fill="#1d272b"/>
          <path id="Trazado_150934" data-name="Trazado 150934" d="M-156.491,331.862c5.862,0,11.724.023,17.586-.011,3.765-.022,6.242,1.553,6.161,5.522-.076,3.681-2.5,5.258-6,5.263q-17.824.029-35.647,0c-3.721,0-6.2-1.634-6.155-5.593.042-3.764,2.486-5.19,6-5.185Q-165.521,331.873-156.491,331.862Zm-.145,7.123c5.712,0,11.426.074,17.133-.069,1.021-.026,2.02-.952,3.03-1.463-1.019-.709-2.028-2.021-3.056-2.035q-17.133-.238-34.268-.035c-1.015.012-2.014,1.359-3.02,2.085,1.015.509,2.02,1.433,3.047,1.459C-168.062,339.071-162.348,339-156.636,338.985Z" transform="translate(217.664 -284.456)" fill="#1d272b"/>
        </g>
      </g>
    </g>
  </g>
</svg>
