<svg xmlns="http://www.w3.org/2000/svg" xmlns:xlink="http://www.w3.org/1999/xlink" width="222.94" height="222.945" viewBox="0 0 222.94 222.945">
  <defs>
    <radialGradient id="radial-gradient" cx="0.076" cy="0.019" r="1.465" gradientTransform="translate(0)" gradientUnits="objectBoundingBox">
      <stop offset="0" stop-color="#f6f6f7"/>
      <stop offset="0.477" stop-color="#f9f9fa"/>
      <stop offset="0.715" stop-color="#fff"/>
    </radialGradient>
  </defs>
  <g id="icon5" transform="translate(-390.109 -2809.742)">
    <g id="Grupo_91843" data-name="Grupo 91843" transform="translate(-311.64 2047.947)">
      <g id="Grupo_91009" data-name="Grupo 91009" transform="translate(701.749 761.795)">
        <g id="Grupo_42274" data-name="Grupo 42274" transform="translate(0 0)">
          <g id="Grupo_18423" data-name="Grupo 18423" transform="translate(0 0)">
            <g id="Grupo_18421" data-name="Grupo 18421">
              <g id="Grupo_18420" data-name="Grupo 18420">
                <g id="Grupo_18419" data-name="Grupo 18419">
                  <path id="Trazado_40936" data-name="Trazado 40936" d="M417.562,2257.189a111.47,111.47,0,1,1-111.468-111.468A111.468,111.468,0,0,1,417.562,2257.189Z" transform="translate(-194.623 -2145.721)" fill="#fff"/>
                </g>
              </g>
            </g>
            <path id="Trazado_40937" data-name="Trazado 40937" d="M415.569,2255.017A111.467,111.467,0,1,0,304.1,2366.492,111.031,111.031,0,0,0,415.569,2255.017Z" transform="translate(-192.629 -2143.547)" fill="url(#radial-gradient)"/>
            <path id="Trazado_40938" data-name="Trazado 40938" d="M389.579,2246.181a94.349,94.349,0,1,0-94.349,94.35A94.011,94.011,0,0,0,389.579,2246.181Z" transform="translate(-183.54 -2134.468)" fill="none" stroke="#008f85" stroke-miterlimit="10" stroke-width="5"/>
            <g id="Grupo_18422" data-name="Grupo 18422" transform="translate(19.748 62.583)">
              <path id="Trazado_40939" data-name="Trazado 40939" d="M392.465,2164.488A111.483,111.483,0,0,1,200.545,2275.5a111.8,111.8,0,0,0,11.094,14.849,111.485,111.485,0,0,0,180.826-125.859Z" transform="translate(-200.545 -2164.488)" fill="#eceef0"/>
            </g>
          </g>
        </g>
      </g>
    </g>
    <g id="yIFsoG.tif" transform="translate(936.838 2981.842)">
      <g id="Grupo_91844" data-name="Grupo 91844" transform="translate(-480.944 -126)">
        <path id="Trazado_150928" data-name="Trazado 150928" d="M-466.74-126c1.491,1.635,3.01,3.245,4.467,4.91,3.65,4.173,7.27,8.371,10.86,12.509a14.523,14.523,0,0,1,2.725-1.244,5,5,0,0,1,5.1,1.592c1.348,1.508,2.659,3.049,4.044,4.641.372-.324.683-.6,1-.868a5.243,5.243,0,0,1,7.816.548q8.323,9.569,16.623,19.157Q-402.49-71.36-390.87-57.967c.125.143.261.276.488.515,1.01-.873,2-1.749,3.013-2.6a4.77,4.77,0,0,1,5.822-.7,5.48,5.48,0,0,1,2.867,5.664,6.744,6.744,0,0,1-1.444,2.774,22.465,22.465,0,0,1-2.886,2.615,1.629,1.629,0,0,1-2.439-.094,1.64,1.64,0,0,1,.229-2.52c.7-.65,1.437-1.261,2.151-1.9,1.22-1.088,1.393-2.092.534-3.048s-1.749-.911-2.979.168q-12.591,11.05-25.174,22.108c-.517.454-1.039.9-1.553,1.361-1.194,1.06-1.36,1.98-.539,2.953s1.8.962,2.975-.071q7.078-6.2,14.142-12.413c1.207-1.06,2.4-2.13,3.624-3.177.951-.817,1.793-.807,2.515-.015a1.663,1.663,0,0,1-.259,2.6c-.955.88-1.941,1.725-3.049,2.7l14.066,16.23c1.885-1.65,3.656-3.28,5.513-4.805a5.282,5.282,0,0,1,8.439,2.328,5.277,5.277,0,0,1-1.762,5.987q-4.995,4.4-10,8.778c-.661.58-1.287,1.209-1.993,1.728-1.154.85-2.36,1.629-3.544,2.438h-2.064a1.215,1.215,0,0,0-.263-.2c-4.686-1.82-5.524-6.435-1.766-9.7,1.608-1.4,3.2-2.815,4.858-4.276l-14.083-16.233c-4.15,3.643-8.173,7.17-12.189,10.705A5.357,5.357,0,0,1-411.2-26.48a5.678,5.678,0,0,1-5.12-3.614,4.752,4.752,0,0,1,1.29-5.63c1.013-.961,2.076-1.87,3.147-2.829l-5.75-6.617v1.55q0,14.237-.008,28.473a9.477,9.477,0,0,1-.185,2.16c-.613,2.591-2.459,3.926-4.88,4.629h-23.161l-3.418-1.57-3.232,1.57h-23.391c-.205-.085-.406-.185-.617-.252a5.864,5.864,0,0,1-4.348-5.466c-.11-4.706-.057-9.416-.031-14.125a1.621,1.621,0,0,1,1.741-1.723,1.675,1.675,0,0,1,1.674,1.791c.026.9.005,1.807.005,2.689h26.436V-41.25H-477.5c0,1.355.023,2.616-.008,3.876a1.454,1.454,0,0,1-1.531,1.522,1.582,1.582,0,0,1-1.809-1.241,4.169,4.169,0,0,1-.078-1.024c-.005-2.871,0-5.742,0-8.613a9.083,9.083,0,0,1,2.205-6.119c2.111-2.472,4.069-5.094,6.347-7.4,1.721-1.74,1.521-3.641,1.365-5.774-.471,0-.885,0-1.3,0-1.783-.009-2.285-.515-2.293-2.339q-.011-2.527,0-5.053c.008-1.882.483-2.36,2.391-2.363,4.012-.008,8.024,0,12.035,0,1.49,0,2.981-.037,4.47.008a1.657,1.657,0,0,1,1.836,1.866q.042,3.043,0,6.086a1.654,1.654,0,0,1-1.789,1.793c-.6.024-1.194,0-1.878,0,0,1.258-.019,2.362.013,3.464a1.438,1.438,0,0,0,.276.832q3.975,4.733,7.99,9.441c2.556-3.017,5.079-5.987,7.587-8.97a2.161,2.161,0,0,0,.613-1.05c.077-1.205.029-2.419.029-3.711h-1.38c-1.711,0-2.283-.555-2.291-2.244-.007-1.57-.047-3.141.016-4.708a23.883,23.883,0,0,1,.383-2.619,3.929,3.929,0,0,0-.913-1.395c-2.4-2.775-4.837-5.525-7.2-8.332a5.178,5.178,0,0,1,.439-7.332c.4-.385.817-.757,1.266-1.173l-3.9-4.5a4.875,4.875,0,0,1-1.192-4.793,19.554,19.554,0,0,1,1.726-3.259c-.141-.17-.4-.5-.677-.813q-6.69-7.715-13.382-15.428c-1.3-1.494-1.249-2.09.253-3.389Zm57.747,52.4c-1.621,1.422-3.169,2.778-4.713,4.137a1.7,1.7,0,0,1-2.068.467,1.709,1.709,0,0,1-.343-2.929c1.582-1.437,3.2-2.832,4.85-4.285l-3.969-4.588c-.178.046-.267.044-.319.087-.554.468-1.1.95-1.654,1.417-1,.836-1.88.841-2.612.026s-.64-1.7.321-2.585c.613-.562,1.239-1.11,1.891-1.692l-4.092-4.69c-1.674,1.468-3.235,2.871-4.836,4.226-1.138.963-2.587.6-2.846-.792a2.445,2.445,0,0,1,.7-1.848c1.489-1.462,3.105-2.794,4.718-4.215l-4.08-4.7c-.749.647-1.4,1.241-2.079,1.788a1.641,1.641,0,0,1-2.435-.169,1.61,1.61,0,0,1,.2-2.431c.634-.6,1.3-1.16,2.021-1.8-.953-1.11-1.835-2.154-2.737-3.182-1.3-1.487-2.041-1.526-3.543-.207q-6.292,5.526-12.581,11.053c-1.378,1.211-1.449,2-.25,3.392,3.025,3.5,6.076,6.981,9.081,10.5a2.166,2.166,0,0,0,1.847.861c4.126-.038,8.252-.025,12.379-.013,1.51,0,2.205.553,2.236,1.847q.073,3.042.006,6.086a1.716,1.716,0,0,1-1.9,1.822c-.559.015-1.118,0-1.762,0,0,1.13-.024,2.119.012,3.106a2.082,2.082,0,0,0,.269,1.177c2.295,2.755,4.634,5.473,7.028,8.281l16.313-14.326Zm-12.175,48.214V-41.256h-26.26v15.874Zm-56.271-19.409H-452.4a2.1,2.1,0,0,0,.793-.026c.253-.112.61-.371.622-.584a6.948,6.948,0,0,0-1.356-5.19c-2.4-2.832-4.78-5.678-7.211-8.481a1.89,1.89,0,0,0-1.253-.556q-3.438-.081-6.878,0a1.891,1.891,0,0,0-1.243.582c-2.38,2.746-4.7,5.547-7.065,8.3C-477.465-49.03-477.618-47.041-477.439-44.791Zm29.974-.088h26.34c.176-2.186.054-4.189-1.431-5.895-2.383-2.737-4.716-5.517-7.118-8.238a2.062,2.062,0,0,0-1.345-.606c-2.135-.066-4.274-.008-6.411-.051a1.985,1.985,0,0,0-1.756.787c-2.188,2.652-4.388,5.3-6.671,7.866A7.417,7.417,0,0,0-447.465-44.879Zm-29.973,23.05c0,2.62-.079,5.175.032,7.721a2.434,2.434,0,0,0,2.586,2.276q10.594.042,21.188,0a2.412,2.412,0,0,0,2.575-2.278c.111-2.547.032-5.1.032-7.719Zm29.92-.019c0,2.3,0,4.477,0,6.655,0,2.513.865,3.379,3.37,3.38q9.456,0,18.912,0c3.617,0,4.159-.548,4.159-4.2v-5.834Zm64.193,10.277a16.082,16.082,0,0,0,1.636-1.062c1.713-1.468,3.4-2.969,5.093-4.458,2.586-2.271,5.179-4.534,7.753-6.818,1.156-1.026,1.17-2.277.062-3.12a1.822,1.822,0,0,0-2.567.288q-4.08,3.612-8.183,7.2-2.456,2.158-4.911,4.317a1.6,1.6,0,0,0-.49,2.148A8.661,8.661,0,0,0-383.325-11.571Zm-30.651-34.643,4.691,5.4,6.855-6.025-4.7-5.4Zm20.985-8.915-4.677-5.414-6.865,6.026,4.7,5.4Zm-49.14-46.181c-1.405-1.611-2.71-3.157-4.073-4.649a1.689,1.689,0,0,0-2.463-.139q-1.678,1.384-3.276,2.866a1.6,1.6,0,0,0-.307,2.275c1.314,1.668,2.739,3.248,4.147,4.9Zm40.436,36.146-16.293,14.319,1.771,2.007,16.29-14.312Zm-25.7-7.061h-13.778v2.682H-427.4Zm-43.7,2.688h13.736v-2.712H-471.1Zm33.567,6.367h6.448v-2.772h-6.448Zm-23.513,0v-2.76H-467.4v2.76Z" transform="translate(480.944 126)" fill="#1d272b"/>
        <path id="Trazado_150929" data-name="Trazado 150929" d="M-433.614,274.991c-1.907,0-3.814,0-5.721,0a1.642,1.642,0,0,1-1.815-1.25,1.666,1.666,0,0,1,1.679-2.168q5.835-.053,11.671,0a1.555,1.555,0,0,1,1.748,1.678,1.616,1.616,0,0,1-1.727,1.735C-429.723,275.03-431.669,274.992-433.614,274.991Z" transform="translate(450.344 -180.2)" fill="#008f85"/>
        <path id="Trazado_150930" data-name="Trazado 150930" d="M-303.339,275c-1.943,0-3.887.05-5.827-.015a1.639,1.639,0,0,1-1.633-2.266,1.555,1.555,0,0,1,1.643-1.148c3.886,0,7.771-.019,11.657.009a1.548,1.548,0,0,1,1.72,1.692,1.605,1.605,0,0,1-1.732,1.713C-299.453,275.034-301.4,275-303.339,275Z" transform="translate(349.976 -180.216)" fill="#008f85"/>
      </g>
    </g>
  </g>
</svg>
