<svg id="icon1" xmlns="http://www.w3.org/2000/svg" xmlns:xlink="http://www.w3.org/1999/xlink" width="114.636" height="114.636" viewBox="0 0 114.636 114.636">
  <defs>
    <radialGradient id="radial-gradient" cx="0.076" cy="0.019" r="1.465" gradientTransform="translate(0.001)" gradientUnits="objectBoundingBox">
      <stop offset="0" stop-color="#f6f6f7"/>
      <stop offset="0.477" stop-color="#f9f9fa"/>
      <stop offset="0.715" stop-color="#fff"/>
    </radialGradient>
  </defs>
  <g id="Grupo_18423" data-name="Grupo 18423" transform="translate(0 0)">
    <g id="Grupo_18421" data-name="Grupo 18421">
      <g id="Grupo_18420" data-name="Grupo 18420">
        <g id="Grupo_18419" data-name="Grupo 18419">
          <path id="Trazado_40936" data-name="Trazado 40936" d="M309.259,2203.037a57.318,57.318,0,1,1-57.317-57.316A57.317,57.317,0,0,1,309.259,2203.037Z" transform="translate(-194.623 -2145.721)" fill="#fff"/>
        </g>
      </g>
    </g>
    <path id="Trazado_40937" data-name="Trazado 40937" d="M308.648,2202.372a57.316,57.316,0,1,0-57.317,57.319A57.091,57.091,0,0,0,308.648,2202.372Z" transform="translate(-194.013 -2145.056)" fill="url(#radial-gradient)"/>
    <path id="Trazado_40938" data-name="Trazado 40938" d="M289.672,2196.986a43.75,43.75,0,1,0-43.75,43.75A43.587,43.587,0,0,0,289.672,2196.986Z" transform="translate(-188.43 -2139.479)" fill="none" stroke="#00223d" stroke-miterlimit="10" stroke-width="4"/>
    <g id="Grupo_18422" data-name="Grupo 18422" transform="translate(10.154 32.18)">
      <path id="Trazado_40939" data-name="Trazado 40939" d="M299.231,2164.488a57.325,57.325,0,0,1-98.686,57.081,57.143,57.143,0,0,0,98.686-57.081Z" transform="translate(-200.545 -2164.488)" fill="#eceef0"/>
    </g>
  </g>
  <g id="ZTgz18.tif" transform="translate(-2486.348 -71.884)">
    <g id="Grupo_121012" data-name="Grupo 121012" transform="translate(2516.444 114.581)">
      <path id="Trazado_158633" data-name="Trazado 158633" d="M2516.444,116.871a2.086,2.086,0,0,1,1.735-1.482,1.916,1.916,0,0,1,2.073,1.787c.025.334,0,.672,0,1.049h6.331c0-.537-.011-1.061,0-1.584a1.9,1.9,0,0,1,2.07-2.055q14.131-.007,28.261,0a1.908,1.908,0,0,1,2.095,2.032c.009.249,0,.5,0,.826h.763q3.469,0,6.938,0c1.708,0,2.374.679,2.38,2.4,0,.313,0,.626,0,1.031h.8c3.119,0,6.238-.005,9.357.007a3.642,3.642,0,0,1,1.186.161,1.847,1.847,0,0,1,1.168,1.98,1.881,1.881,0,0,1-1.628,1.627,6.45,6.45,0,0,1-.825.041q-4.615,0-9.229,0h-.832c0,.445,0,.82,0,1.194a1.963,1.963,0,0,1-2.229,2.228c-2.376.009-4.752,0-7.129,0h-.723c0,.327.009.594,0,.86a1.9,1.9,0,0,1-2.057,2.006c-1.353.011-2.706,0-4.086,0-.043.726-.064,1.4-.124,2.065a5.568,5.568,0,0,1-5.052,5.036c-.38.034-.763.036-1.145.036q-9.739,0-19.477,0a2.252,2.252,0,0,0-2.487,2.019,2.191,2.191,0,0,0,2.087,2.4c.486.03.976.011,1.464.012q9.038,0,18.077,0a6.152,6.152,0,0,1,1.2,12.206,3.746,3.746,0,0,0-.414.126h-29.028a2.463,2.463,0,0,1-1.528-1.526v-.89a2.352,2.352,0,0,1,2.482-1.435c8.953.033,17.906.019,26.86.016a5.387,5.387,0,0,0,.95-.058,2.293,2.293,0,0,0,1.93-2.452,2.342,2.342,0,0,0-2.567-2.173c-6.3,0-12.6.013-18.9-.019a7.606,7.606,0,0,1-2.49-.4,5.653,5.653,0,0,1-3.809-4.4,5.776,5.776,0,0,1,1.835-5.65,6.26,6.26,0,0,1,4.494-1.6h17.822c.743,0,1.486.016,2.227-.013a1.578,1.578,0,0,0,1.574-1.17,12.329,12.329,0,0,0,.195-2.14h-.905q-9.675,0-19.349,0a1.946,1.946,0,0,1-2.2-2.182c-.006-.481,0-.963,0-1.46h-6.33c0,.376.021.713,0,1.047a1.913,1.913,0,0,1-2.072,1.786,2.083,2.083,0,0,1-1.736-1.479Zm38.723,10.274V118.44h-3.334c0,.59.015,1.139,0,1.686a1.907,1.907,0,1,1-3.812-.039c-.011-.544,0-1.089,0-1.646h-3.438c0,.591.014,1.14,0,1.687a1.907,1.907,0,1,1-3.812-.043c-.01-.544,0-1.089,0-1.646h-3.438c0,.548.005,1.053,0,1.559a1.914,1.914,0,1,1-3.817.025c-.008-.523,0-1.047,0-1.595h-3.054v8.717Zm3.886-2.9h6.166V121.3h-6.166Zm-38.76-.8h6.236v-1.33h-6.236Z" transform="translate(-2516.444 -114.581)" fill="#1d272b"/>
      <path id="Trazado_158634" data-name="Trazado 158634" d="M2516.444,418.629a2.463,2.463,0,0,0,1.528,1.526h-1.528Z" transform="translate(-2516.444 -379.843)" fill="#1d272b"/>
    </g>
  </g>
</svg>
