<svg xmlns="http://www.w3.org/2000/svg" xmlns:xlink="http://www.w3.org/1999/xlink" width="249.918" height="229.028" viewBox="0 0 249.918 229.028">
  <defs>
    <linearGradient id="linear-gradient" y1="0.5" x2="1" y2="0.5" gradientUnits="objectBoundingBox">
      <stop offset="0.494" stop-color="#ebeff2"/>
      <stop offset="1" stop-color="#fff"/>
    </linearGradient>
    <linearGradient id="linear-gradient-3" x1="0.73" y1="0.758" x2="-0.115" y2="-0.571" gradientUnits="objectBoundingBox">
      <stop offset="0" stop-color="#f5f5f5"/>
      <stop offset="0.25" stop-color="#f5f5f5"/>
      <stop offset="1" stop-color="#a7b3cf"/>
    </linearGradient>
    <linearGradient id="linear-gradient-4" x1="0.688" y1="1.104" x2="0.376" y2="-0.135" xlink:href="#linear-gradient-3"/>
    <linearGradient id="linear-gradient-5" x1="0.425" y1="0.687" x2="0.693" y2="-0.203" gradientUnits="objectBoundingBox">
      <stop offset="0" stop-color="#311944"/>
      <stop offset="1" stop-color="#6b3976"/>
    </linearGradient>
    <linearGradient id="linear-gradient-6" x1="0.464" y1="0.589" x2="0.756" y2="-0.579" xlink:href="#linear-gradient-5"/>
    <linearGradient id="linear-gradient-7" x1="0.5" y1="0" x2="0.5" y2="1" xlink:href="#linear-gradient-3"/>
    <clipPath id="clip-path">
      <path id="Trazado_150181" data-name="Trazado 150181" d="M-2541.994,1302.052c-103.023-1.784-119.071,2.06-119.671-9.2s-3.865-161.824,20.834-170.1,90.121-14.6,95.128,36.259S-2541.994,1302.052-2541.994,1302.052Z" transform="translate(2703.23 -1117.15)" fill="none"/>
    </clipPath>
    <radialGradient id="radial-gradient" cx="0.5" cy="0.5" r="0.5" gradientUnits="objectBoundingBox">
      <stop offset="0" stop-color="#f5f5f5"/>
      <stop offset="0.25" stop-color="#f5f5f5"/>
      <stop offset="1" stop-color="#4c5872"/>
    </radialGradient>
  </defs>
  <g id="img13" transform="translate(-1107.109 -7382.127)">
    <g id="Grupo_103729" data-name="Grupo 103729" transform="translate(682.195 6864.415)">
      <g id="Grupo_91912" data-name="Grupo 91912" transform="translate(436.777 542.239)">
        <rect id="Rectángulo_34130" data-name="Rectángulo 34130" width="16.484" height="2.488" transform="translate(35.77 3.11)" fill="#fff"/>
        <rect id="Rectángulo_34131" data-name="Rectángulo 34131" width="12.752" height="2.488" transform="translate(5.601 3.11)" fill="#fff"/>
        <rect id="Rectángulo_34132" data-name="Rectángulo 34132" width="13.063" height="2.488" transform="translate(84.289 3.11)" fill="#d8dee8"/>
        <rect id="Rectángulo_34133" data-name="Rectángulo 34133" width="13.063" height="2.488" transform="translate(127.832 3.11)" fill="#fff"/>
        <g id="Grupo_91900" data-name="Grupo 91900" transform="translate(31.105)">
          <rect id="Rectángulo_34134" data-name="Rectángulo 34134" width="16.484" height="64.381" transform="translate(8.709 9.642)" fill="#d8dee8"/>
          <rect id="Rectángulo_34135" data-name="Rectángulo 34135" width="8.709" height="64.381" transform="translate(0 9.642)" fill="#97a6b7"/>
          <rect id="Rectángulo_34136" data-name="Rectángulo 34136" width="2.799" height="13.374" transform="translate(3.732)" fill="#97a6b7"/>
          <rect id="Rectángulo_34137" data-name="Rectángulo 34137" width="2.799" height="13.374" transform="translate(18.35)" fill="#d8dee8"/>
        </g>
        <g id="Grupo_91901" data-name="Grupo 91901" transform="translate(121.3)">
          <rect id="Rectángulo_34138" data-name="Rectángulo 34138" width="16.173" height="64.381" transform="translate(8.709 9.642)" fill="#d8dee8"/>
          <rect id="Rectángulo_34139" data-name="Rectángulo 34139" width="8.709" height="64.381" transform="translate(0 9.642)" fill="#97a6b7"/>
          <rect id="Rectángulo_34140" data-name="Rectángulo 34140" width="3.11" height="13.374" transform="translate(3.421)" fill="#97a6b7"/>
          <rect id="Rectángulo_34141" data-name="Rectángulo 34141" width="3.11" height="13.374" transform="translate(18.039)" fill="#d8dee8"/>
        </g>
        <g id="Grupo_91902" data-name="Grupo 91902" transform="translate(77.758)">
          <rect id="Rectángulo_34142" data-name="Rectángulo 34142" width="15.862" height="64.381" transform="translate(9.331 9.642)" fill="#d8dee8"/>
          <rect id="Rectángulo_34143" data-name="Rectángulo 34143" width="9.331" height="64.381" transform="translate(0 9.642)" fill="#97a6b7"/>
          <rect id="Rectángulo_34144" data-name="Rectángulo 34144" width="2.799" height="13.374" transform="translate(3.732)" fill="#97a6b7"/>
          <rect id="Rectángulo_34145" data-name="Rectángulo 34145" width="2.799" height="13.374" transform="translate(18.35)" fill="#d8dee8"/>
        </g>
        <g id="Grupo_91903" data-name="Grupo 91903" transform="translate(1.247)">
          <rect id="Rectángulo_34146" data-name="Rectángulo 34146" width="13.685" height="64.381" transform="translate(7.464 9.642)" fill="#d8dee8"/>
          <rect id="Rectángulo_34147" data-name="Rectángulo 34147" width="7.464" height="64.381" transform="translate(0 9.642)" fill="#97a6b7"/>
          <rect id="Rectángulo_34148" data-name="Rectángulo 34148" width="2.488" height="13.374" transform="translate(3.11)" fill="#97a6b7"/>
          <rect id="Rectángulo_34149" data-name="Rectángulo 34149" width="3.11" height="13.374" transform="translate(15.24)" fill="#d8dee8"/>
        </g>
        <path id="Trazado_150963" data-name="Trazado 150963" d="M579.574,1734.205l-39.8-3.618V1611.256l39.8-2.1Z" transform="translate(-538.269 -1539.804)" fill="#d8dee8"/>
        <path id="Trazado_150964" data-name="Trazado 150964" d="M559.636,1586.21l-37.386,1.284v-6.883l37.386-1.479Z" transform="translate(-522.25 -1512.359)" fill="#97a6b7"/>
        <path id="Trazado_150965" data-name="Trazado 150965" d="M559.636,2182.736l-37.386-.125v-6.883l37.386-.069Z" transform="translate(-522.25 -2057.574)" fill="#97a6b7"/>
        <path id="Trazado_150966" data-name="Trazado 150966" d="M1097.276,1721.943,988.435,1726.2V1600.33l108.841,2.1Z" transform="translate(-948.335 -1531.734)" fill="#fff"/>
        <path id="Trazado_150967" data-name="Trazado 150967" d="M1071.156,1581l-114.268-.127v-7.41l114.268.519Z" transform="translate(-919.503 -1507.176)" fill="#d8dee8"/>
        <path id="Trazado_150968" data-name="Trazado 150968" d="M1071.156,2157.311l-114.268,2.6V2152.8l114.268-2.226Z" transform="translate(-919.503 -2034.648)" fill="#d8dee8"/>
        <path id="Trazado_150969" data-name="Trazado 150969" d="M1071.156,2980.574l-114.268,6.274v-1.185l114.268-6.212Z" transform="translate(-919.503 -2792.228)" fill="#d8dee8"/>
        <g id="Grupo_91907" data-name="Grupo 91907" transform="translate(47.335 80.86)">
          <g id="Grupo_91904" data-name="Grupo 91904" transform="translate(0 0.162)">
            <path id="Trazado_150970" data-name="Trazado 150970" d="M1098.185,1775.977l-25.627.437V1744.85l25.627-.062Z" transform="translate(-1072.558 -1744.788)" fill="#d8dee8"/>
          </g>
          <g id="Grupo_91905" data-name="Grupo 91905" transform="translate(36.18 0.083)">
            <path id="Trazado_150971" data-name="Trazado 150971" d="M1517.9,1774.531l-24.723.42v-31.035l24.723-.055Z" transform="translate(-1493.175 -1743.861)" fill="#d8dee8"/>
          </g>
          <g id="Grupo_91906" data-name="Grupo 91906" transform="translate(71.154)">
            <path id="Trazado_150972" data-name="Trazado 150972" d="M1923.892,1773.068l-24.12.408v-30.52l24.12-.055Z" transform="translate(-1899.772 -1742.901)" fill="#d8dee8"/>
          </g>
        </g>
        <g id="Grupo_91910" data-name="Grupo 91910" transform="translate(47.335 144.012)">
          <g id="Grupo_91908" data-name="Grupo 91908" transform="translate(0 2.303)">
            <path id="Trazado_150973" data-name="Trazado 150973" d="M1098.185,2534.773l-25.627,1.217v-31.269l25.627-.846Z" transform="translate(-1072.558 -2503.875)" fill="#d8dee8"/>
          </g>
          <g id="Grupo_91909" data-name="Grupo 91909" transform="translate(71.154)">
            <path id="Trazado_150974" data-name="Trazado 150974" d="M1923.892,2506.982l-24.12,1.143v-30.234l24.12-.794Z" transform="translate(-1899.772 -2477.097)" fill="#d8dee8"/>
          </g>
        </g>
        <path id="Trazado_150975" data-name="Trazado 150975" d="M988.435,1663.093s21.918,2.951,31.356,17.532c9.356,14.453,30.467,8.4,48.858,12.185,18.071,3.715,28.834,12.544,28.834,12.544l-109.049,2.435Z" transform="translate(-948.336 -1589.098)" fill="#97a6b7" opacity="0.1" style="mix-blend-mode: multiply;isolation: isolate"/>
        <path id="Trazado_150976" data-name="Trazado 150976" d="M988.435,2530.544s21.918,2.205,31.356,16.465c9.356,14.134,30.467,7.367,48.858,10.522,18.071,3.1,28.834,11.564,28.834,11.564l-109.049,6.145Z" transform="translate(-948.336 -2381.934)" fill="#97a6b7" opacity="0.1" style="mix-blend-mode: multiply;isolation: isolate"/>
        <path id="Trazado_150977" data-name="Trazado 150977" d="M1517.9,2468.1l-24.723,1.277v-44.957l24.723-.75Z" transform="translate(-1409.66 -2284.252)" fill="#e4e9f2"/>
        <path id="Trazado_150978" data-name="Trazado 150978" d="M1483.374,2382.032l-32.26,1.011v-6.392l32.26-.914Z" transform="translate(-1371.216 -2240.444)" fill="#d8dee8"/>
        <g id="Grupo_91911" data-name="Grupo 91911" transform="translate(70.551 179.78)">
          <path id="Trazado_150979" data-name="Trazado 150979" d="M1454.352,2896.641l-38.29,1.97v-3.782l38.29-1.9Z" transform="translate(-1409.731 -2892.927)" fill="url(#linear-gradient)"/>
          <path id="Trazado_150980" data-name="Trazado 150980" d="M1413.119,2937.514l-46.129,2.468v-3.79l46.129-2.386Z" transform="translate(-1364.88 -2930.29)" fill="#d8dee8"/>
          <path id="Trazado_150981" data-name="Trazado 150981" d="M1393.106,2979.149l-50.652,2.8v-3.793l50.652-2.707Z" transform="translate(-1342.454 -2968.348)" fill="url(#linear-gradient)"/>
        </g>
      </g>
      <g id="Grupo_91916" data-name="Grupo 91916" transform="translate(488.829 517.713)">
        <g id="Grupo_91915" data-name="Grupo 91915" transform="translate(0)">
          <path id="Trazado_150989" data-name="Trazado 150989" d="M587.146,618.876a10.572,10.572,0,0,1-5.754-1.488A111.24,111.24,0,0,1,561.4,602.236c-8.859-8.636-13.948-17.414-15.062-26.033l-.017-.135-.216-36.78c0-7.269,4.741-13.169,13.642-17.047,7.354-3.2,17.1-4.79,27.4-4.492,10.178.295,19.6,2.394,26.566,5.894,8.286,4.16,12.634,10.005,12.634,16.935l-.2,35.144-.016.129c-1.018,8.254-5.7,16.786-13.977,25.414a115.425,115.425,0,0,1-19.293,15.8A10.951,10.951,0,0,1,587.146,618.876Z" transform="translate(-546.104 -517.713)" fill="#364246"/>
          <path id="Trazado_150990" data-name="Trazado 150990" d="M616.389,618.876a10.326,10.326,0,0,1-5.678-1.488,109.913,109.913,0,0,1-19.728-15.152c-8.741-8.636-13.764-17.414-14.863-26.033l-.017-.135-.213-36.78c0-7.269,4.678-13.169,13.462-17.047,7.257-3.2,16.876-4.79,27.037-4.492,10.043.295,19.337,2.394,26.215,5.894,8.177,4.16,12.467,10.005,12.467,16.935l-.194,35.144-.016.129c-1,8.254-5.625,16.786-13.793,25.414a114.21,114.21,0,0,1-19.038,15.8A10.707,10.707,0,0,1,616.389,618.876Z" transform="translate(-573.328 -517.713)" fill="#1d272b"/>
          <path id="Trazado_150991" data-name="Trazado 150991" d="M604.122,563.319l.215,36.594c2.409,18.671,24.352,33.788,33.909,39.532a8.437,8.437,0,0,0,8.956-.241c9.357-6.157,30.1-21.659,32.315-39.611l.2-35.047C679.714,538.545,604.122,536.168,604.122,563.319Z" transform="translate(-599.132 -541.719)" fill="url(#linear-gradient-3)"/>
          <path id="Trazado_150992" data-name="Trazado 150992" d="M719.727,706.409a1.306,1.306,0,0,1-.708-.187,103.864,103.864,0,0,1-18.2-13.892c-7.168-7.041-11.3-13.887-12.25-20.316l-.21-35.988c.009-3.453,2.742-6.408,8.1-8.773,5.981-2.64,14.476-4.025,23.267-3.816,8.7.207,16.95,1.959,22.663,4.794,5.054,2.508,7.608,5.464,7.617,8.8l-.2,34.743c-.885,6.221-4.765,12.929-11.577,19.979a107.925,107.925,0,0,1-17.8,14.44A1.354,1.354,0,0,1,719.727,706.409Z" transform="translate(-676.124 -614.322)" fill="#1d272b"/>
          <path id="Trazado_150993" data-name="Trazado 150993" d="M734.811,728.089a100.94,100.94,0,0,1-17.206-13.241c-6.736-6.629-10.634-12.991-11.551-18.877l-.209-35.779c.006-2.469,2.276-4.734,6.728-6.705,5.666-2.509,13.785-3.831,22.237-3.641,8.372.188,16.262,1.841,21.685,4.524,4.213,2.084,6.345,4.359,6.351,6.766l-.2,34.615c-.86,5.711-4.537,11.957-10.967,18.6A104.815,104.815,0,0,1,734.811,728.089Z" transform="translate(-692.106 -638.462)" fill="url(#linear-gradient-4)"/>
        </g>
        <path id="Trazado_150994" data-name="Trazado 150994" d="M872.606,891.2a3.605,3.605,0,0,1-3.052-1.591l-9.878-15.362a3.349,3.349,0,0,1,1.045-4.359,3,3,0,0,1,4.355.408l7.267,10.664,10.844-20.412a5.611,5.611,0,0,1,5.818-2.75,2.988,2.988,0,0,1,1.986,4.661l-15.072,26.871a3.785,3.785,0,0,1-3.185,1.869Z" transform="translate(-832.311 -828.447)" fill="#008f85"/>
      </g>
      <g id="Grupo_91936" data-name="Grupo 91936" transform="translate(520.521 560.678)">
        <g id="Grupo_91918" data-name="Grupo 91918" transform="translate(0 10.218)">
          <path id="Trazado_150995" data-name="Trazado 150995" d="M1032.718,2173.874c-5.57-14.5,2.291-38.271,7.243-49.045,14.432-31.4,40.95-32.46,62.69-33.331,21.355-.855,41.971-1.68,57.058,22.4,9.856,15.734,18.919,44.6,12.875,59.971-6.357,16.168-24.008,3.638-65.988,3.417C1060.423,2177.047,1039.672,2191.984,1032.718,2173.874Z" transform="translate(-1030.802 -2009.025)" fill="#1d272b"/>
          <path id="Trazado_150996" data-name="Trazado 150996" d="M1642.272,2105.831c0,3.954-9.652,8.7-21.559,8.7s-21.56-4.744-21.56-8.7,9.653-2.186,21.56-2.186S1642.272,2101.877,1642.272,2105.831Z" transform="translate(-1550.266 -2020.053)" fill="#008f85"/>
          <path id="Trazado_150997" data-name="Trazado 150997" d="M1666.136,1812.63c-3.278,0,4.289,23.034-7.629,26.2a1.311,1.311,0,0,0-.293,2.423c3.2,1.734,9.191,3.929,19.019,3.929a24.258,24.258,0,0,0,13.479-4.038,1.311,1.311,0,0,0-.141-2.254c-3.674-1.893-8.774-7.916-7.252-25.667Z" transform="translate(-1603.617 -1754.431)" fill="#e8b698"/>
          <path id="Trazado_150998" data-name="Trazado 150998" d="M1641.85,1351.955c.049.289,1.04,21.314,5.846,31.814,1.379,3.014,8.221,2.652,12.649,2.29,3.846-.315,9.875,1.089,11.573-1.566,6.826-10.675,5.669-37.116,5.669-37.116s-3.5-8.8-17.839-8.556S1641.85,1351.955,1641.85,1351.955Z" transform="translate(-1589.29 -1321.372)" fill="#e8b698"/>
          <path id="Trazado_150999" data-name="Trazado 150999" d="M1587,1580.64s-3-3.486-5.827-3.951-4.668,6.857-.812,11.622,8.314.814,8.314.814Z" transform="translate(-1531.082 -1538.765)" fill="#e8b698"/>
          <path id="Trazado_151000" data-name="Trazado 151000" d="M2002.946,1580.64s3-3.486,5.827-3.951,4.669,6.857.812,11.622-8.314.814-8.314.814Z" transform="translate(-1917.795 -1538.765)" fill="#e8b698"/>
          <path id="Trazado_151001" data-name="Trazado 151001" d="M1585.662,1177.632c.378.693.81,1.338,1.1,1.262,1.212-.316-3.464-12.131.843-16.268,2.227-2.138,4.735-.189,13.858-.6,9.187-.416,11.537-2.614,14.314-.93,2.53,1.534,4.794,5.913,2.918,18.885l1.567-.361c-.7-4.249.064-6.93.942-8.619.64-1.233,1.8-2.822,1.709-5.118-.056-1.423-.527-1.487-.6-2.652-.228-3.417,3.671-4.336,3.859-7.711.145-2.6-2.1-3.189-1.687-5.9.348-2.31,2.1-2.741,1.822-4.41-.3-1.8-2.643-3.141-4.289-3.608-1.678-.477-2.285.052-3.269-.626-1.59-1.1-.826-3.045-1.975-3.768-2.047-1.287-6.116,3.854-8.746,2.574-1.592-.775-.979-3.088-2.389-3.648-2.724-1.084-7.536,6.546-9.472,5.533-.927-.485-.033-2.344-1.333-3.712-1.526-1.607-5.191-1.6-6.862.1-1.557,1.585-.235,3.479-1.883,5.487-1.48,1.8-3.19,1.061-4.861,2.507-2.838,2.455-1.85,8.012-1.5,9.994,1.214,6.826,4.993,8.207,4.145,12.861a10.452,10.452,0,0,0-.362,4.459A9.155,9.155,0,0,0,1585.662,1177.632Z" transform="translate(-1532.095 -1136.019)" fill="url(#linear-gradient-5)"/>
          <g id="Grupo_91917" data-name="Grupo 91917" transform="translate(47.178 10.461)" opacity="0.3" style="mix-blend-mode: multiply;isolation: isolate">
            <path id="Trazado_151002" data-name="Trazado 151002" d="M1620.579,1274.046c-.335-3.356,2.265-4.917,1.828-7.312-.351-1.923-2.526-3.652-4.57-4.021-4.359-.788-7.181,5.631-11.516,4.935-3.352-.538-2.98-4.587-6.763-6.215-6-2.581-12.281,5.287-16.269,3.107-1.2-.655-2.41-2.338-2.5-6.9-2.286,2.626-1.389,7.68-1.057,9.551,1.214,6.826,4.993,8.207,4.145,12.861a10.454,10.454,0,0,0-.362,4.459,9.153,9.153,0,0,0,2.151,4.281c.378.693.81,1.338,1.1,1.262,1.212-.316-3.464-12.131.844-16.268,2.227-2.139,4.735-.19,13.858-.6,9.187-.416,11.537-2.614,14.314-.93,2.53,1.534,4.794,5.913,2.918,18.885l1.567-.361c-.7-4.249.064-6.93.942-8.619.264-.508.615-1.078.932-1.731a15.431,15.431,0,0,0-.655-3.635C1621.026,1275.275,1620.687,1275.125,1620.579,1274.046Z" transform="translate(-1579.281 -1257.636)" fill="url(#linear-gradient-6)"/>
          </g>
        </g>
        <g id="Grupo_91921" data-name="Grupo 91921" transform="translate(25.276 92.29)">
          <g id="Grupo_91919" data-name="Grupo 91919">
            <path id="Trazado_151003" data-name="Trazado 151003" d="M1371.649,2137.149v44.764h-42.58a3.382,3.382,0,0,1-3.378-3.335l-.353-26.724-.682-51.592a1.742,1.742,0,0,1,.94-1.567l2.281-1.174,2.435-1.254,16.038-5.94a2.526,2.526,0,0,1,3.141,1.25l21.809,44.074A3.373,3.373,0,0,1,1371.649,2137.149Z" transform="translate(-1324.656 -2090.17)" fill="url(#linear-gradient-7)"/>
            <path id="Trazado_151004" data-name="Trazado 151004" d="M1328.741,2223.746a4.815,4.815,0,0,1-.966,2.977l-2.438,3.24-.682-51.592a1.743,1.743,0,0,1,.94-1.567l2.281-1.173Z" transform="translate(-1324.656 -2168.279)" fill="#008f85" opacity="0.7" style="mix-blend-mode: multiply;isolation: isolate"/>
            <rect id="Rectángulo_34150" data-name="Rectángulo 34150" width="46.031" height="11.819" transform="translate(0.962 62.508)" fill="#fff"/>
            <path id="Trazado_151005" data-name="Trazado 151005" d="M1586.851,2135.64l-21.808-44.074a2.527,2.527,0,0,0-3.142-1.249l-1.408.522a2.526,2.526,0,0,1,.542.727l21.791,44.074a3.364,3.364,0,0,1,.331,1.5V2181.9h4.043v-44.765A3.38,3.38,0,0,0,1586.851,2135.64Z" transform="translate(-1540.206 -2090.159)" fill="#e4e9f2"/>
          </g>
          <g id="Grupo_91920" data-name="Grupo 91920" transform="translate(46.993)">
            <path id="Trazado_151006" data-name="Trazado 151006" d="M1870.987,2137.149v44.764h42.6a3.381,3.381,0,0,0,3.378-3.335l.354-26.724.681-51.592a1.742,1.742,0,0,0-.94-1.567l-2.281-1.174-2.434-1.254-16.038-5.94a2.526,2.526,0,0,0-3.141,1.25l-21.82,44.074A3.383,3.383,0,0,0,1870.987,2137.149Z" transform="translate(-1870.987 -2090.17)" fill="url(#linear-gradient-7)"/>
            <path id="Trazado_151007" data-name="Trazado 151007" d="M2370.06,2223.746a4.816,4.816,0,0,0,.966,2.977l2.438,3.24.682-51.592a1.743,1.743,0,0,0-.94-1.567l-2.281-1.173Z" transform="translate(-2327.131 -2168.279)" opacity="0.7" fill="url(#linear-gradient-7)" style="mix-blend-mode: multiply;isolation: isolate"/>
            <rect id="Rectángulo_34151" data-name="Rectángulo 34151" width="46.342" height="11.819" transform="translate(0 62.508)" fill="url(#linear-gradient-7)"/>
            <path id="Trazado_151008" data-name="Trazado 151008" d="M1871.346,2135.64l21.814-44.074a2.53,2.53,0,0,1,3.145-1.249l1.41.522a2.525,2.525,0,0,0-.542.727l-21.8,44.074a3.375,3.375,0,0,0-.342,1.5V2181.9h-4.043v-44.765A3.39,3.39,0,0,1,1871.346,2135.64Z" transform="translate(-1870.987 -2090.159)" fill="url(#linear-gradient-7)"/>
          </g>
        </g>
        <g id="Grupo_91922" data-name="Grupo 91922" transform="translate(54.865 62.117)">
          <path id="Trazado_151009" data-name="Trazado 151009" d="M1669.225,1739.5a.233.233,0,0,0-.316-.1l-.137.073a.233.233,0,0,0-.1.316l4.036,7.541a.234.234,0,0,0,.316.1l.137-.073a.233.233,0,0,0,.1-.316Z" transform="translate(-1668.649 -1739.376)" fill="#fff"/>
          <path id="Trazado_151010" data-name="Trazado 151010" d="M1991.358,1739.477l-.137-.073a.233.233,0,0,0-.316.1l-4.036,7.541a.233.233,0,0,0,.1.316l.137.073a.234.234,0,0,0,.316-.1l4.036-7.541A.233.233,0,0,0,1991.358,1739.477Z" transform="translate(-1959.472 -1739.376)" fill="#fff"/>
        </g>
        <g id="Grupo_91929" data-name="Grupo 91929" transform="translate(52.627 50.318)">
          <g id="Grupo_91925" data-name="Grupo 91925" transform="translate(4.004 6.669)">
            <path id="Trazado_151011" data-name="Trazado 151011" d="M1717.577,1684.663c0,.165-.006.33-.012.491a12.407,12.407,0,0,1-1.415,6.158c-1.169,2.684-2.914,4.777-4.675,5.62a.381.381,0,0,1-.074.031,4.524,4.524,0,0,1-.433.174c-.109.075-.174.115-.174.115l-.351.025a72.37,72.37,0,0,1-14.12,0l-.351-.025s-.065-.04-.174-.115c-.1-.034-.2-.072-.3-.115-.068-.028-.14-.056-.208-.09-1.76-.843-3.437-2.936-4.606-5.62a10.329,10.329,0,0,1-1.347-6.158v-.062a1.063,1.063,0,0,0-.05-.252.71.71,0,0,1-.031-.177,15.292,15.292,0,0,1,.084-1.956,1.02,1.02,0,0,1,.638-.827,43.365,43.365,0,0,1,26.832,0,1.038,1.038,0,0,1,.653.827,15.251,15.251,0,0,1,.112,1.8C1717.577,1684.56,1717.577,1684.613,1717.577,1684.663Z" transform="translate(-1689.25 -1679.738)" fill="#fff"/>
            <path id="Trazado_151012" data-name="Trazado 151012" d="M1717.51,1709.877c0,.165-.006.33-.012.491a12.409,12.409,0,0,1-1.415,6.158c-1.169,2.684-2.914,4.777-4.675,5.62a.4.4,0,0,1-.075.031c-3.462.283-11.542.165-15.9.059-.068-.028-.14-.056-.208-.09-1.76-.843-3.437-2.936-4.606-5.62a10.328,10.328,0,0,1-1.347-6.158v-.062c0-.068-.065-.137-.062-.205,0,0-.025-.006-.025-.009l.037-.037a3.6,3.6,0,0,1,1.661-1c3.008-.831,14.6-3.558,25.522.218l1.1.451C1717.51,1709.775,1717.51,1709.827,1717.51,1709.877Z" transform="translate(-1689.182 -1704.952)" fill="#eeebf5" opacity="0.3"/>
            <g id="Grupo_91923" data-name="Grupo 91923" transform="translate(0.884 7.638)" style="mix-blend-mode: soft-light;isolation: isolate">
              <path id="Trazado_151013" data-name="Trazado 151013" d="M1711.321,1769.749a60.057,60.057,0,0,1-11.719-.867.178.178,0,0,1,.079-.346c.086.019,8.76,1.925,26.308,0a.178.178,0,1,1,.039.353A135.075,135.075,0,0,1,1711.321,1769.749Z" transform="translate(-1699.465 -1768.531)" fill="#1d272b"/>
            </g>
            <g id="Grupo_91924" data-name="Grupo 91924" transform="translate(3.938 12.258)" style="mix-blend-mode: soft-light;isolation: isolate">
              <path id="Trazado_151014" data-name="Trazado 151014" d="M1744.523,1823.46a39.128,39.128,0,0,1-9.432-.869.178.178,0,1,1,.1-.342c.068.02,7.029,1.92,21.109-.005a.178.178,0,0,1,.048.352A87.475,87.475,0,0,1,1744.523,1823.46Z" transform="translate(-1734.961 -1822.242)" fill="#1d272b"/>
            </g>
          </g>
          <g id="Grupo_91928" data-name="Grupo 91928">
            <g id="Grupo_91926" data-name="Grupo 91926" transform="translate(0 0.183)">
              <path id="Trazado_151015" data-name="Trazado 151015" d="M1647.791,1613.547a.355.355,0,0,1-.31-.181l-4.8-8.5a.355.355,0,0,1,.619-.349l4.8,8.5a.355.355,0,0,1-.309.53Z" transform="translate(-1642.636 -1604.333)" fill="#fff"/>
            </g>
            <g id="Grupo_91927" data-name="Grupo 91927" transform="translate(31.308)">
              <path id="Trazado_151016" data-name="Trazado 151016" d="M2006.975,1612.5a.361.361,0,0,1-.069-.007.355.355,0,0,1-.28-.417l1.888-9.58a.356.356,0,0,1,.7.137l-1.888,9.58A.356.356,0,0,1,2006.975,1612.5Z" transform="translate(-2006.619 -1602.208)" fill="#fff"/>
            </g>
          </g>
        </g>
        <g id="Grupo_91934" data-name="Grupo 91934" transform="translate(50.498 44.891)">
          <g id="Grupo_91930" data-name="Grupo 91930" transform="translate(0 2.916)">
            <path id="Trazado_151017" data-name="Trazado 151017" d="M1618.545,1573.015c-.526,0-.666.414-.666.94v1.441c0,.526.14.73.666.73h1.511v-3.11Z" transform="translate(-1617.879 -1573.015)" fill="#008f85"/>
            <path id="Trazado_151018" data-name="Trazado 151018" d="M2049.692,1573.015a.947.947,0,0,1,.959.94v1.441c0,.526-.433.73-.959.73h-1.53v-3.11Z" transform="translate(-2011.151 -1573.015)" fill="#008f85"/>
          </g>
          <g id="Grupo_91933" data-name="Grupo 91933" transform="translate(1.866)">
            <g id="Grupo_91931" data-name="Grupo 91931" transform="translate(0.311 0.373)">
              <path id="Trazado_151019" data-name="Trazado 151019" d="M1678.335,1545.088v4.409a5.259,5.259,0,0,1-4.681,5.186l-4.142.465a6.558,6.558,0,0,1-5.655-2.033l-2.312-2.453h-1.487l-2.309,2.453a6.588,6.588,0,0,1-5.651,2.087l-4.2-.492a5.306,5.306,0,0,1-4.705-5.213v-4.409a1.752,1.752,0,0,1,1.81-1.632l15.785.669,15.776-.669a1.692,1.692,0,0,1,1.235.45A1.669,1.669,0,0,1,1678.335,1545.088Z" transform="translate(-1643.19 -1543.453)" fill="#e4cbb7"/>
              <path id="Trazado_151020" data-name="Trazado 151020" d="M1676.22,1572.95a5.2,5.2,0,0,1-2.58,1.034l-4.134.465a6.55,6.55,0,0,1-5.651-2.033l-2.309-2.453h-1.487l-2.309,2.453a6.588,6.588,0,0,1-5.651,2.087l-4.2-.492a5.306,5.306,0,0,1-4.705-5.213v-4.227a13.833,13.833,0,0,0,7.627,2.2C1659.8,1567.124,1671.9,1563.031,1676.22,1572.95Z" transform="translate(-1643.19 -1562.754)" fill="#fff" opacity="0.5" style="mix-blend-mode: soft-light;isolation: isolate"/>
            </g>
            <g id="Grupo_91932" data-name="Grupo 91932">
              <path id="Trazado_151021" data-name="Trazado 151021" d="M1665.769,1551.694a6.751,6.751,0,0,1-5.122-2.169l-2.192-2.2h-1.176l-2.248,2.217a6.7,6.7,0,0,1-5.079,2.092,8.323,8.323,0,0,1-.922-.064l-4.267-.47a5.793,5.793,0,0,1-5.191-5.56v-4.411a2.163,2.163,0,0,1,.832-1.449,2.466,2.466,0,0,1,1.668-.556l15.755.671,15.78-.673a1.725,1.725,0,0,1,1.732,1.991v4.427a5.455,5.455,0,0,1-4.779,5.6l-3.943.51A7.631,7.631,0,0,1,1665.769,1551.694Zm-8.8-5h1.8l2.42,2.379a6.02,6.02,0,0,0,4.58,1.927,6.927,6.927,0,0,0,.761-.07l4-.523a4.787,4.787,0,0,0,4.185-4.876v-4.411a1.18,1.18,0,0,0-.264-.912,1.13,1.13,0,0,0-.812-.351h-.068l-15.73.671-15.836-.672a1.527,1.527,0,0,0-.993.351c-.466.446-.51.742-.51.912v4.411a4.948,4.948,0,0,0,4.435,4.815l4.2.464a7.326,7.326,0,0,0,.826.047,5.9,5.9,0,0,0,4.532-1.775Z" transform="translate(-1639.574 -1539.118)" fill="#008f85"/>
            </g>
          </g>
        </g>
        <g id="Grupo_91935" data-name="Grupo 91935" transform="translate(43.246 0)">
          <path id="Rectángulo_34152" data-name="Rectángulo 34152" d="M24.734,0h0A24.734,24.734,0,0,1,49.469,24.734V31a0,0,0,0,1,0,0H0a0,0,0,0,1,0,0V24.734A24.734,24.734,0,0,1,24.734,0Z" transform="translate(2.809 3.127)" fill="#db8804"/>
          <path id="Rectángulo_34153" data-name="Rectángulo 34153" d="M6.88,0h0a6.88,6.88,0,0,1,6.88,6.88V34.128a0,0,0,0,1,0,0H0a0,0,0,0,1,0,0V6.88A6.88,6.88,0,0,1,6.88,0Z" transform="translate(20.664)" fill="#f7b242"/>
          <rect id="Rectángulo_34154" data-name="Rectángulo 34154" width="55.088" height="5.989" rx="2.994" transform="translate(0 33.769)" fill="#f7b242"/>
          <path id="Trazado_151022" data-name="Trazado 151022" d="M1574.934,1475.333c1.037,4.727,11.378,8.439,23.986,8.439s22.949-3.713,23.985-8.439Z" transform="translate(-1571.376 -1435.928)" fill="#db8804"/>
        </g>
      </g>
      <g id="Grupo_91940" data-name="Grupo 91940" transform="translate(565.626 650.185)">
        <g id="Grupo_91938" data-name="Grupo 91938" transform="translate(0 0)">
          <g id="Grupo_91937" data-name="Grupo 91937">
            <path id="Trazado_151023" data-name="Trazado 151023" d="M2027.275,2154.2a7.012,7.012,0,0,1-6.12-10.535l47.539-82.33a7.069,7.069,0,0,1,12.241.009l47.539,82.342a7,7,0,0,1-6.12,10.514Z" transform="translate(-2020.21 -2057.808)" fill="#1d272b"/>
            <path id="Trazado_151024" data-name="Trazado 151024" d="M2158.356,2182a4.089,4.089,0,0,1-3.466,2.09h-95.079a4.115,4.115,0,0,1-3.464-6.137l47.538-82.362a4.019,4.019,0,0,1,2.7-1.938,3.913,3.913,0,0,1,.767-.08,4,4,0,0,1,3.466,2l47.539,82.383A4.085,4.085,0,0,1,2158.356,2182Z" transform="translate(-2052.748 -2090.493)" fill="#db8804"/>
          </g>
        </g>
        <g id="Grupo_91939" data-name="Grupo 91939" transform="translate(48.699 29.432)">
          <path id="Trazado_151026" data-name="Trazado 151026" d="M2595.575,2433.45l-4.143-.1a2.294,2.294,0,0,1-2.17-2.177l-1.517-29.187a1.893,1.893,0,0,1,.6-1.5,1.985,1.985,0,0,1,1.582-.5l7.135.5a2.183,2.183,0,0,1,1.544.692,2.211,2.211,0,0,1,.58,1.592l-1.476,28.655A2.111,2.111,0,0,1,2595.575,2433.45Z" transform="translate(-2587.625 -2399.979)" fill="#fff"/>
          <path id="Trazado_151027" data-name="Trazado 151027" d="M2587.935,2856.712a5.918,5.918,0,0,1,4.362-1.436,6.16,6.16,0,0,1,4.393,1.524,5.773,5.773,0,0,1,1.5,4.306,5.649,5.649,0,0,1-1.53,4.23,5.967,5.967,0,0,1-4.359,1.5,5.9,5.9,0,0,1-4.344-1.557,5.753,5.753,0,0,1-1.574-4.273A5.67,5.67,0,0,1,2587.935,2856.712Z" transform="translate(-2586.378 -2816.112)" fill="#fff"/>
        </g>
      </g>
    </g>
    <g id="Grupo_103730" data-name="Grupo 103730" transform="translate(1066.015 7429.596)">
      <g id="Grupo_90984" data-name="Grupo 90984" transform="translate(0 -3.343)" clip-path="url(#clip-path)">
        <g id="Grupo_91824" data-name="Grupo 91824" transform="translate(3.274 5.442)">
          <path id="Trazado_150872" data-name="Trazado 150872" d="M1051.926,1075.224c-7.8-33.666-20.187-98.475-20.187-98.475l-70.181-.758c-11.131,6.406-9.014,84.795-11.777,92.373s-32.259,54.942-29.171,71.864,30.039,3.1,30.039,3.1,24.481-37.211,30.866-46.5c7.2-10.472,9.318-17.312,9.318-17.312,7.927-15.3,11.708-40.6,11.708-40.6,1.207,26.078,10.715,46.763,9.7,50.907,0,0,12.635,55.929,16.779,60.074s22.663,4.138,29.744-8.981C1058.764,1140.913,1057.06,1097.417,1051.926,1075.224Z" transform="translate(-898.859 -795.12)" fill="url(#linear-gradient-7)"/>
          <path id="Trazado_150873" data-name="Trazado 150873" d="M975.423,992.465c5.08-3.113,41.174,2.267,57.886-7.775-.966-4.977-1.531-7.941-1.531-7.941l-70.181-.758c-11.131,6.406-9.014,84.795-11.777,92.373-2.725,7.475-31.413,53.587-29.256,71.106l33.863-1.818c.11-.163.21-.322.321-.486-5.667-.855-18.833-3.556-19.623-10.357-1.009-8.68,12.855-2.466,12.83-9.364s-6.271-13.815-2.805-17.958,19.665-5.41,19.164-17.551-6.4-25.26,0-34.929,15.933-14.5,13.93-25.545S969.779,995.917,975.423,992.465Z" transform="translate(-898.898 -795.12)" fill="url(#radial-gradient)"/>
          <path id="Trazado_150874" data-name="Trazado 150874" d="M1151.58,1202.844c4.142,4.139,22.663,4.137,29.744-8.981,0,0-.171-4.271-.561-10.814-3.151,1.305-19.081,7.569-24.031,3.225-5.5-4.837,5.959-20.714,3.339-32.455s-11.967-11.146-14.2-20.767,6.792-16.52,4.009-23.424-13.145-24.169-11.071-31.766-7.654-13.373-7.654-13.373-2.744,12.863-5.936,29.486c1.6,25.071,10.567,44.764,9.58,48.8C1134.8,1142.77,1147.436,1198.7,1151.58,1202.844Z" transform="translate(-1021.419 -848.07)" fill="#7999c6"/>
          <path id="Trazado_150875" data-name="Trazado 150875" d="M1149,1202.652s21.613,20.129,32.218,23.476" transform="translate(-1035.648 -930.738)" fill="none" stroke="#5179aa" stroke-linecap="round" stroke-miterlimit="10" stroke-width="2.579"/>
          <path id="Trazado_150876" data-name="Trazado 150876" d="M1157.326,1248.207s24.848,6.615,34.521,10.04" transform="translate(-1040.629 -957.995)" fill="none" stroke="#5179aa" stroke-linecap="round" stroke-miterlimit="10" stroke-width="2.579"/>
          <g id="Grupo_91823" data-name="Grupo 91823" transform="translate(27.423 0)">
            <g id="Grupo_91822" data-name="Grupo 91822">
              <g id="Grupo_91821" data-name="Grupo 91821">
                <path id="Trazado_150881" data-name="Trazado 150881" d="M1198.576,716.621s8.289,3.424,10.875,6.993-.935,50.289-7.721,61.655S1198.576,716.621,1198.576,716.621Z" transform="translate(-1092.153 -639.93)" fill="url(#linear-gradient-7)"/>
                <g id="Grupo_91819" data-name="Grupo 91819" transform="translate(6.501 69.985)">
                  <g id="Grupo_91818" data-name="Grupo 91818">
                    <g id="Grupo_91817" data-name="Grupo 91817">
                      <path id="Trazado_150886" data-name="Trazado 150886" d="M1089.031,957.4s-.011,10.161-2.432,10.892c0,0-41.521,10.205-73.625-4.949l-.9-9.417Z" transform="translate(-987.643 -851.902)" fill="#1d272b"/>
                      <path id="Trazado_150887" data-name="Trazado 150887" d="M1031.226,699.926s-30.142,6.763-34.252,11.589,7.937,44.493,9.059,48.984-4.413,38.825-3.292,43.686,52.085,13.2,76.745,1.24c0,0,1.384-52.785,1.384-53.908s6.728-45.743-4.778-46.255c-3-.129-15.77-5.335-15.77-5.335Z" transform="translate(-978.099 -699.926)" fill="#ecedea"/>
                      <path id="Trazado_150888" data-name="Trazado 150888" d="M1012.378,810.674c1.122,4.858,52.085,13.2,76.745,1.24,0,0,1.384-52.785,1.384-53.908s6.728-45.743-4.778-46.255a19.347,19.347,0,0,1-4-.978l-6.915,5.773h-33.335S1018.8,724,1016.85,729.694c-1.075,3.137-1.249,18.427-1.958,34.459.375,1.329.65,2.319.778,2.835C1016.792,771.469,1011.256,805.814,1012.378,810.674Z" transform="translate(-987.736 -706.416)" fill="url(#linear-gradient-7)"/>
                      <path id="Trazado_150890" data-name="Trazado 150890" d="M1193.482,711.742s3.877,58.738,4.563,82.752c0,0,6.479-56.028,1.47-75.909C1197.834,711.9,1197.4,711.742,1193.482,711.742Z" transform="translate(-1096.186 -706.996)" fill="#1d272b"/>
                      <path id="Trazado_150891" data-name="Trazado 150891" d="M1011.609,715.385s28.338,45.409-2.322,86.036c0,0-4.207,4.713,0,6.616,0,0,23.789-18.408,20.686-54.517,0,0-3.542-27.392-13.854-39.692C1016.118,713.829,1012.579,711.983,1011.609,715.385Z" transform="translate(-984.858 -707.945)" fill="#1d272b"/>
                      <path id="Trazado_150892" data-name="Trazado 150892" d="M1094.916,793H1079.47V782.7h15.445Z" transform="translate(-1027.969 -749.452)" fill="#008f85"/>
                      <rect id="Rectángulo_34024" data-name="Rectángulo 34024" width="12.665" height="1.599" transform="translate(53.746 37.598)" fill="#1d272b"/>
                      <path id="Trazado_150893" data-name="Trazado 150893" d="M1099.834,770.918l-1.031,6.648h-2.818l-.21-6.648Z" transform="translate(-1037.725 -742.403)" fill="#1d272b"/>
                    </g>
                  </g>
                </g>
                <path id="Trazado_150894" data-name="Trazado 150894" d="M1095.077,533.246c-2.173-1.764-10.112-6.474-22.635-7.512-8.634-.711-17.432,7.611-23.622,15.018-4.64,5.559-2.242,22.4-.974,29.87,0,0-2.274,22.165-.262,28.393,0,0,36.246,7.488,40.479,6.741s9.979-4.732,11.965-8.718,1.822-23.794,1.822-23.794S1100.31,537.487,1095.077,533.246Z" transform="translate(-1001.495 -525.691)" fill="#ecedea"/>
                <path id="Trazado_150895" data-name="Trazado 150895" d="M1103,567.422s.715-14.247-2.242-17.611-22.18-3.628-26.808-1.817-6.187,21.166-5.93,26.509c0,0-9.323-5.091-10.613-3.24s10.875,3.774,10.094,5.918-8.542,1.4-9.058,4.1,9.577-1.246,10.1.862,1.814.864-.52,3.168-12.168,3.858-9.061,5.41,11.966-3.541,11.679-1.38-15.044,6.814-12.195,8.242,12.717-3.77,12.444-1.431-14.794,6.856-10.646,7.313,8.07-2.012,10.646,0c1.875,1.468.9,7.431.22,11.537,10.1,1.9,21.415,3.832,23.67,3.433,3.482-.614,7.969-3.416,10.569-6.6.234-6.3.918-22.837-1.407-33.638Z" transform="translate(-1008.212 -538.37)" fill="url(#linear-gradient-7)"/>
                <path id="Trazado_150896" data-name="Trazado 150896" d="M1122.9,580.511a22.329,22.329,0,0,1,.205,9.9,12.271,12.271,0,0,0,.2,5.981c.96,2.823,1.947,15.593-1.658,21.521-2.54,4.172-17.353,7.809-24.533,0-5.962-6.48-6.765-20.444-6.6-25.095s1.439-17.2,13.322-16.087C1114.888,577.763,1122.333,575.92,1122.9,580.511Z" transform="translate(-1028.065 -556.186)" fill="#fca977"/>
                <path id="Trazado_150897" data-name="Trazado 150897" d="M1119.966,592.587s2.407.394.664,1.64-6.276.441-8.89.937a4.511,4.511,0,0,1,2.154-1.783C1115.637,592.5,1119.966,592.587,1119.966,592.587Z" transform="translate(-1040.776 -565.716)" fill="#1a1715"/>
                <path id="Trazado_150898" data-name="Trazado 150898" d="M1159.025,595.8s-1.62.392-.448,1.637,3.542.31,5.3.81a.849.849,0,0,0,.026-1.555C1162.732,595.825,1159.025,595.8,1159.025,595.8Z" transform="translate(-1068.546 -567.642)" fill="#1a1715"/>
                <path id="Trazado_150899" data-name="Trazado 150899" d="M1124.935,612.49c0,1.168.543,2.118,1.2,2.118s1.205-.951,1.205-2.118-.538-2.12-1.205-2.12S1124.935,611.318,1124.935,612.49Z" transform="translate(-1048.671 -576.358)" fill="#1a1715"/>
                <path id="Trazado_150900" data-name="Trazado 150900" d="M1161.244,612.49c0,1.168.38,2.118.849,2.118s.853-.951.853-2.118-.38-2.12-.853-2.12S1161.244,611.319,1161.244,612.49Z" transform="translate(-1070.396 -576.358)" fill="#1a1715"/>
                <path id="Trazado_150901" data-name="Trazado 150901" d="M1105.129,609.667s-.389,6.913,1.326,8.417,15.828-1.922,16.829-2.567c0,0,9.165,2.616,9.245,2.083s.836-7.177.4-9.426l-23.368-.592Z" transform="translate(-1036.798 -574.689)" fill="#8e2f2b" opacity="0.5" style="mix-blend-mode: multiply;isolation: isolate"/>
                <g id="Grupo_91820" data-name="Grupo 91820" transform="translate(67.151 32.678)">
                  <path id="Trazado_150902" data-name="Trazado 150902" d="M1117.149,607.048l-.085,0h0Z" transform="translate(-1111.113 -607.047)" fill="#1d272b"/>
                  <path id="Trazado_150903" data-name="Trazado 150903" d="M1132.169,607.906l-1.332-.049c.11.935.794,7.416-1.06,8.226,0,0-6.24-1.622-8.485-1.622s-12.555,3.177-14.873,2.465-1.675-7.561-1.675-7.561l3.418-2.287-5.534,2.287s-1.682,9.085,2.035,9.861,15.107-3.753,17.438-3.105,8.1,2.625,9.1,1.96S1132.169,607.906,1132.169,607.906Z" transform="translate(-1102.248 -607.065)" fill="#1d272b"/>
                </g>
                <path id="Trazado_150904" data-name="Trazado 150904" d="M1090.544,610.553s6.984-3.2,9.759-3.83,23.783-.495,24.863,0c0,0,.712,1.01-1.342,1.214,0,0-18.919-1.2-23.521,0l-9.488,3.562Z" transform="translate(-1028.094 -573.924)" fill="#1d272b"/>
                <path id="Trazado_150905" data-name="Trazado 150905" d="M1130.918,632.912a7.085,7.085,0,0,0-4.746,0c-3.314,1.015-11.117,5.768-11.343,7.67s4.522,12.428,9.9,13.894c3.9,1.065,10.776-1.389,13.619-11.093,0,0,.576-4.114-.7-6.341S1130.918,632.912,1130.918,632.912Z" transform="translate(-1042.62 -589.612)" fill="#eeebf5"/>
                <path id="Trazado_150906" data-name="Trazado 150906" d="M1101.623,639.515s-9.424-5.942-10.508-6.992l.113,2.318,9.417,5.741Z" transform="translate(-1028.436 -589.612)" fill="#eeebf5"/>
                <path id="Trazado_150907" data-name="Trazado 150907" d="M1108.281,667.353s-7.761-.8-9.541-1.373l.629,1.373,9.4,1.489Z" transform="translate(-1032.998 -609.63)" fill="#eeebf5"/>
                <path id="Trazado_150908" data-name="Trazado 150908" d="M1096.119,692.821l4.462,6.384s-5.65,13.09-19.767,14.647-42.6-13.98-42.6-13.98l3.855-9.083s28.352,14.457,40.164,11.584C1095.277,699.205,1096.119,692.821,1096.119,692.821Z" transform="translate(-996.785 -624.474)" fill="#008f85"/>
                <path id="Trazado_150909" data-name="Trazado 150909" d="M1069.4,706.916l-28.1-11.662-3.088,7.289s20.035,10.925,34.827,13.533Z" transform="translate(-996.785 -627.146)" fill="#008f85"/>
                <path id="Trazado_150910" data-name="Trazado 150910" d="M1086.218,702.373c-11.812,2.873-40.163-11.584-40.163-11.584l-1.181,2.776c7.744,3.929,28.225,13.615,39.511,12.373a24.754,24.754,0,0,0,17.422-10.682l-1.7-2.435S1099.26,699.205,1086.218,702.373Z" transform="translate(-1000.768 -624.474)" fill="#1d272b"/>
                <path id="Trazado_150911" data-name="Trazado 150911" d="M981.445,728.511s7.252-2.074,12.428,7.914,9,45.358,9,45.358,32.734,44.047,35.78,45.53-.474,11.438-9.673,12.952c-6.3,1.037-43.808-33.811-46.949-39.489,0,0-1.552,1.036-11.465-50.607C968.847,741.2,972.725,728.33,981.445,728.511Z" transform="translate(-956.069 -646.938)" fill="#ecedea"/>
                <path id="Trazado_151028" data-name="Trazado 151028" d="M1025.156,728.511s-6.842-2.074-11.726,7.914-8.493,45.358-8.493,45.358-30.885,44.047-33.758,45.53.447,11.438,9.126,12.952c5.94,1.037,41.333-33.811,44.3-39.489,0,0,1.464,1.036,10.817-50.607C1037.042,741.2,1033.384,728.33,1025.156,728.511Z" transform="translate(-907.737 -646.937)" fill="#ecedea"/>
              </g>
            </g>
            <path id="Trazado_150913" data-name="Trazado 150913" d="M1018.331,838.906s-18.9,3.184-18.63,14.11" transform="translate(-973.738 -713.097)" fill="none" stroke="#868695" stroke-linecap="round" stroke-miterlimit="10" stroke-width="2.579"/>
            <line id="Línea_1693" data-name="Línea 1693" x1="21.017" y1="1.958" transform="translate(21.634 121.955)" fill="none" stroke="#868695" stroke-linecap="round" stroke-miterlimit="10" stroke-width="2.579"/>
            <path id="Trazado_150914" data-name="Trazado 150914" d="M1001.107,806.439s-15.151-10.252-19.164-12.908" transform="translate(-963.115 -685.948)" fill="none" stroke="#868695" stroke-linecap="round" stroke-miterlimit="10" stroke-width="2.579"/>
          </g>
          <path id="Trazado_150917" data-name="Trazado 150917" d="M1355.029,830.844a1.55,1.55,0,0,0,1.55,1.553h0a1.551,1.551,0,0,0,1.552-1.553v-6.56a1.549,1.549,0,0,0-1.552-1.553h0a1.548,1.548,0,0,0-1.55,1.553Z" transform="translate(-1158.921 -703.419)" fill="#f7b242"/>
          <path id="Trazado_150918" data-name="Trazado 150918" d="M1362.127,828.419a1.555,1.555,0,0,0,1.558,1.553h0a1.552,1.552,0,0,0,1.554-1.553v-6.558a1.552,1.552,0,0,0-1.554-1.552h0a1.554,1.554,0,0,0-1.558,1.552Z" transform="translate(-1163.168 -701.97)" fill="#f7b242"/>
          <path id="Trazado_150919" data-name="Trazado 150919" d="M1369.873,826.607a1.551,1.551,0,0,0,1.548,1.55h0a1.556,1.556,0,0,0,1.558-1.55v-6.563a1.554,1.554,0,0,0-1.558-1.552h0a1.548,1.548,0,0,0-1.548,1.552Z" transform="translate(-1167.802 -700.883)" fill="#f7b242"/>
          <path id="Trazado_150920" data-name="Trazado 150920" d="M1377.607,825.795a1.551,1.551,0,0,0,1.552,1.555h0a1.553,1.553,0,0,0,1.553-1.555v-6.557a1.553,1.553,0,0,0-1.553-1.558h0a1.552,1.552,0,0,0-1.552,1.558Z" transform="translate(-1172.43 -700.397)" fill="#f7b242"/>
          <path id="Trazado_150922" data-name="Trazado 150922" d="M1116.372,975.992l9.313,11.722s1.6-.094,4.748,1.729,5.264,1.156,5.892,3.29,1.05,1.63.638,3.008,3.435,3.766,3.185,6.22-5.194,4.923-8.74,6.517c-.893.4-6.835.978-9.295-.482s-5.377-10.809-6.625-12.935-11.437-10.5-11.437-10.5A24.4,24.4,0,0,1,1116.372,975.992Z" transform="translate(-1008.754 -795.12)" fill="#f7b242"/>
          <path id="Trazado_150923" data-name="Trazado 150923" d="M901.21,1399.575s17.926,17.2,19.006,18.016.437,2.92-.284,3.762-43.652-16.933-46.28-18.044-6-2.078-6.728-3.453,1.712-9.068,6.433-14.783l14.142-29.05s-.149-4.238,2.677-4.553c0,0,16.883,9.86,31.464,13.956,0,0-3.1,5.071-5.743,7.45C910.238,1377.96,901.21,1399.575,901.21,1399.575Z" transform="translate(-866.796 -1019.78)" fill="#00111c"/>
          <path id="Trazado_150924" data-name="Trazado 150924" d="M1217.12,1417.811s24.48,4.242,25.829,4.313,2,2.175,1.864,3.275-45.654,10.368-48.453,10.917-6.133,1.629-7.512.9-3.648-8.478-2.931-15.855l-4.519-31.992s-2.488-3.43-.32-5.272c0,0,19.5-1.26,33.889-6.019,0,0,.262,5.939-.6,9.391C1212.517,1394.842,1217.12,1417.811,1217.12,1417.811Z" transform="translate(-1054.31 -1035.698)" fill="#00111c"/>
          <path id="Trazado_150925" data-name="Trazado 150925" d="M1003.334,1209.52s5.358,17.13,10.572,31.076" transform="translate(-948.491 -934.847)" fill="none" stroke="#5179aa" stroke-linecap="round" stroke-miterlimit="10" stroke-width="2.579"/>
          <path id="Trazado_150926" data-name="Trazado 150926" d="M981.943,1240.6s12.784,21.6,19.164,26.185" transform="translate(-935.692 -953.444)" fill="none" stroke="#5179aa" stroke-linecap="round" stroke-miterlimit="10" stroke-width="2.579"/>
        </g>
      </g>
    </g>
  </g>
</svg>
