<svg xmlns="http://www.w3.org/2000/svg" width="89.146" height="129.77" viewBox="0 0 89.146 129.77">
  <g id="img16" transform="translate(-752.927 -8090.149)">
    <path id="Trazado_151093" data-name="Trazado 151093" d="M5231.187,1546.639h53.661c0,2.047.014,4.08,0,6.113a265.809,265.809,0,0,1-2.806,36.6c-1.233,8.388-2,16.854-3.494,25.192-1.642,9.167.441,17.641,3.476,26.115a44.691,44.691,0,0,1,3,15.81c-.069,3.9-.916,7.784-1.481,11.666-.355,2.439-.833,4.86-1.263,7.321h-19.371c-.117-.814-.181-1.59-.347-2.344a18.157,18.157,0,0,0-.813-2.964c-1.216-2.949-2.1-3.333-5.04-2.306-1.074.375-2.123.818-3.145,1.216-.052,3.08-.252,3.449-3.215,4.172-1.967.48-4,1.856-5.977-.014-1.859,2.686-7.746,3.422-9.691,1.259-2.249,2.455-8.119,2.6-9.776.249-2.178,2.26-8.077,1.958-9.785-.5-2.537,1.787-8.13.874-9.751-1.591-1.847.834-7.2-.05-8.433-1.523a3.6,3.6,0,0,1-.615-2,42.018,42.018,0,0,0-.176-5.346,12.756,12.756,0,0,1,1.6-9.24,2.334,2.334,0,0,1,2.323-1.265c8.278-.076,16.149-1.825,23.033-6.6,8.627-5.986,14.037-13.95,14.761-24.782a187.482,187.482,0,0,0-1.089-33.219c-1.027-9.271-2.176-18.528-3.375-27.778-.529-4.079-1.32-8.123-1.98-12.185C5231.314,1548.053,5231.27,1547.4,5231.187,1546.639Zm52.618,11.287h-49.657c.046.6.054,1.081.122,1.55.554,3.771,1.26,7.526,1.655,11.314,1.128,10.822,2.367,21.642,3.105,32.493.553,8.148.765,16.356-.85,24.469a1.982,1.982,0,0,0,.539,1.5c4.366,4.442,8.994,8.647,13.113,13.3a22.311,22.311,0,0,0,18.12,7.934,30.989,30.989,0,0,0,12.878-2.8c-.277-1.11-.482-2.115-.779-3.09-1.376-4.5-2.892-8.965-4.145-13.5-1.821-6.591-.86-13.218.017-19.84,1.667-12.6,3.355-25.207,4.846-37.832C5283.366,1568.372,5283.464,1563.267,5283.805,1557.926Zm-45.952,71.636c-.884,1.887-1.478,3.337-2.22,4.707-7.332,13.531-19.278,19.322-34.1,20.028-2.155.1-3.227.814-3.785,2.717-.187.636-.486,1.242-.638,1.885-.907,3.84-.188,5.161,3.45,6.378,8.953,3,18.176,3.912,27.571,3.741a86.142,86.142,0,0,0,25.645-4.394c9.621-3.18,19.322-6.113,28.979-9.187.424-.135,1.072-.627,1.053-.915-.125-1.841-.408-3.67-.62-5.364-3.17.756-6,1.688-8.91,2.072-6.3.831-12.615.605-17.936-3.311-3.079-2.267-5.551-5.363-8.283-8.1C5244.7,1636.455,5241.348,1633.076,5237.854,1629.562Zm-5.456-81.87c.518,3.124,1.007,6.078,1.493,9.02H5283.8v-9.02Zm49.017,126.644c.816-5,1.61-9.854,2.5-15.286l-22.838,7.055c1.123,2.856,2.137,5.434,3.237,8.231Zm-83.647-8.921-.386.471c.573.564,1.044,1.374,1.733,1.656,7.9,3.234,16.227,4.316,24.675,4.529,9.309.234,18.536-.533,27.429-3.5,10.878-3.624,21.551-7.88,32.881-10.375-.058-.632-.11-1.2-.17-1.845a20.757,20.757,0,0,0-2.133.418c-8.119,2.536-16.317,4.854-24.324,7.705a88.466,88.466,0,0,1-26.326,5.539C5219.762,1670.462,5208.533,1669.624,5197.768,1665.415Zm35.611,7.5-7.511.349c-.263,1.575.534,2.133,1.792,2.139,1.389.006,2.778-.157,4.168-.206C5233.164,1675.147,5233.68,1674.5,5233.379,1672.912Zm1.747.036c.571.769.972,1.732,1.325,1.715a44.3,44.3,0,0,0,6.069-.75c.3-.057.491-.978.608-1.526.025-.113-.527-.524-.774-.493C5240.1,1672.183,5237.854,1672.54,5235.126,1672.948Zm-11.247.229-7.444-.427c-.657,1.434.054,2.094,1.335,2.251,1.44.177,2.9.209,4.354.251C5223.318,1675.287,5223.843,1674.619,5223.879,1673.177Zm-19.21-2.523-7.044-2.343c-.659,1.229-.536,2.108.855,2.57,1.419.471,2.824,1,4.266,1.385C5203.878,1672.571,5204.6,1672.1,5204.668,1670.654Zm8.156,3.837,1.3-1.349a5.409,5.409,0,0,0-1.456-.884,42.36,42.36,0,0,0-4.468-.752,6.174,6.174,0,0,0-1.67.265c.41.591.707,1.528,1.25,1.7A42.189,42.189,0,0,0,5212.824,1674.491Zm39.369-5c-1.969.549-3.839,1.028-5.676,1.612a5.836,5.836,0,0,0-1.412.975c.6.331,1.256,1,1.8.927a28.879,28.879,0,0,0,4.542-1.154C5252.605,1671.492,5252.909,1670.705,5252.193,1669.492Z" transform="translate(-4442.954 6543.51)" fill="#1d272b"/>
  </g>
</svg>
