<svg xmlns="http://www.w3.org/2000/svg" xmlns:xlink="http://www.w3.org/1999/xlink" width="222.94" height="222.945" viewBox="0 0 222.94 222.945">
  <defs>
    <radialGradient id="radial-gradient" cx="0.076" cy="0.019" r="1.465" gradientTransform="translate(0)" gradientUnits="objectBoundingBox">
      <stop offset="0" stop-color="#f6f6f7"/>
      <stop offset="0.477" stop-color="#f9f9fa"/>
      <stop offset="0.715" stop-color="#fff"/>
    </radialGradient>
  </defs>
  <g id="img1" transform="translate(-390.109 -494.742)">
    <g id="Grupo_120368" data-name="Grupo 120368" transform="translate(-311.64 -267.053)">
      <g id="Grupo_91009" data-name="Grupo 91009" transform="translate(701.749 761.795)">
        <g id="Grupo_42274" data-name="Grupo 42274" transform="translate(0 0)">
          <g id="Grupo_18423" data-name="Grupo 18423" transform="translate(0 0)">
            <g id="Grupo_18421" data-name="Grupo 18421">
              <g id="Grupo_18420" data-name="Grupo 18420">
                <g id="Grupo_18419" data-name="Grupo 18419">
                  <path id="Trazado_40936" data-name="Trazado 40936" d="M417.562,2257.189a111.47,111.47,0,1,1-111.468-111.468A111.468,111.468,0,0,1,417.562,2257.189Z" transform="translate(-194.623 -2145.721)" fill="#fff"/>
                </g>
              </g>
            </g>
            <path id="Trazado_40937" data-name="Trazado 40937" d="M415.569,2255.017A111.467,111.467,0,1,0,304.1,2366.492,111.031,111.031,0,0,0,415.569,2255.017Z" transform="translate(-192.629 -2143.547)" fill="url(#radial-gradient)"/>
            <path id="Trazado_40938" data-name="Trazado 40938" d="M389.579,2246.181a94.349,94.349,0,1,0-94.349,94.35A94.011,94.011,0,0,0,389.579,2246.181Z" transform="translate(-183.54 -2134.468)" fill="none" stroke="#008f85" stroke-miterlimit="10" stroke-width="5"/>
            <g id="Grupo_18422" data-name="Grupo 18422" transform="translate(19.748 62.583)">
              <path id="Trazado_40939" data-name="Trazado 40939" d="M392.465,2164.488A111.483,111.483,0,0,1,200.545,2275.5a111.8,111.8,0,0,0,11.094,14.849,111.485,111.485,0,0,0,180.826-125.859Z" transform="translate(-200.545 -2164.488)" fill="#eceef0"/>
            </g>
          </g>
        </g>
      </g>
    </g>
    <g id="WNbm2B.tif" transform="translate(-860.601 605.537)">
      <g id="Grupo_121010" data-name="Grupo 121010" transform="translate(1309.189 -63.149)">
        <path id="Trazado_158614" data-name="Trazado 158614" d="M1380.832,59.147c-1.835-.8-3.946-1.263-5.431-2.487a7.332,7.332,0,0,0-5.185-1.608c-14.567.049-29.134.027-43.7.026-2.324,0-2.864-.441-3.164-2.762q-2.091-16.152-4.151-32.307c-1.2-9.307-2.412-18.613-3.647-28.136-1.172,0-2.345.006-3.517,0-2.192-.013-2.835-.659-2.839-2.854,0-2.269-.014-4.538,0-6.807.013-1.779.772-2.551,2.551-2.568,2.5-.023,5-.006,7.659-.006v-1.373c0-4.7.022-9.394-.016-14.091a4.153,4.153,0,0,1,1.009-2.83c2.148-2.613,4.221-5.287,6.369-7.9a3.253,3.253,0,0,0,.806-2.258c-.043-3.9-.024-7.8-.016-11.7,0-1.9.711-2.619,2.578-2.624q5.552-.016,11.1,0c1.873.005,2.582.723,2.587,2.615.009,3.98-.025,7.961.032,11.941a3.235,3.235,0,0,0,.645,1.8q3.136,4.063,6.4,8.024A4.44,4.44,0,0,1,1352-35.715c-.046,4.617-.019,9.235-.019,13.852v1.4h4.075c0-2.178-.015-4.353,0-6.527.045-5.277-.532-3.762,3.079-7.432,3.177-3.229,3.2-3.209,3.053-7.721-.005-.156-.036-.31-.076-.635-1.179,0-2.36.016-3.54,0-1.839-.031-2.583-.857-2.466-2.7.656-10.305,8.4-17.625,18.714-17.658,6.408-.02,12.816-.006,19.224,0,2.107,0,2.778.679,2.783,2.792,0,2.309.013,4.618,0,6.926-.012,1.74-.737,2.464-2.469,2.485a37.3,37.3,0,0,1-4.415-.026,5.257,5.257,0,0,0-5.044,2.191l5.59,11.206-3.628,1.825-5.287-10.536c-.987.789-1.912,1.51-2.81,2.265a1.285,1.285,0,0,0-.282.618,1.7,1.7,0,0,0-.012.475c.016,1.79-.437,3.768.183,5.316.6,1.5,2.3,2.566,3.527,3.807,1.737,1.752,3.461,3.52,5.247,5.223a3.752,3.752,0,0,1,1.285,3.059c-.068,1.662-.017,3.329-.017,5.153,2.257,0,4.43,0,6.6,0a13.656,13.656,0,0,1,1.55.028,1.943,1.943,0,0,1,1.972,2q.1,4.116-.006,8.235c-.035,1.263-.8,1.9-2.112,1.951-1.347.05-2.7.011-4.187.011l-3.973,30.877c2.946.6,5.431,2.633,8.507,2.254a18.4,18.4,0,0,0,4.8-1.225,19.632,19.632,0,0,1,11.722-.98c5.23,1.079,8.408,4.533,9.548,9.793a3.178,3.178,0,0,0,.218.529V48.4a2.862,2.862,0,0,0-.208.538,12.147,12.147,0,0,1-4.338,7.419,14.14,14.14,0,0,1-6.2,2.791h-6.448a64.465,64.465,0,0,0-6.164-2.06,11.9,11.9,0,0,0-4.905-.285,72.206,72.206,0,0,0-7.558,2.345ZM1319.679-8.067l7.617,59.024h43.688a14.028,14.028,0,0,1-.454-2.354c-.1-4.572-.2-9.146-.183-13.719A12.219,12.219,0,0,1,1381.919,22.5c.823-.064,1.65-.078,2.551-.119,1.31-10.184,2.609-20.289,3.915-30.438h-22.121c0,1.256.065,2.446-.021,3.625a1.539,1.539,0,0,0,1.049,1.713c3.534,1.725,7.069,3.455,10.529,5.322a6.312,6.312,0,0,1,3.118,6.361,6.537,6.537,0,0,1-4.944,5.642,6.85,6.85,0,0,1-4.853-.669c-1.573-.807-3.161-1.586-4.878-2.444v1.525c0,5.094.031,10.188-.009,15.281a8.1,8.1,0,0,1-8.343,8.4c-6.684.045-13.369.014-20.053.008a8.083,8.083,0,0,1-5.194-1.791,8.561,8.561,0,0,1-3.1-7.165q.014-17.131,0-34.263V-8.067Zm14.033-8.156c-.021.478-.057.9-.057,1.331q0,21.25,0,42.5a10.47,10.47,0,0,0,.12,1.783,3.792,3.792,0,0,0,4,3.118V14.357h4.064V32.571h4.077V14.39h4.108V32.539h4.108V14.37h3.994V32.552a3.95,3.95,0,0,0,4.063-4.259c.021-6.446,0-12.893.009-19.34,0-2.534,1.354-3.364,3.63-2.232,2.455,1.221,4.9,2.467,7.36,3.671a2.391,2.391,0,0,0,2.794-.242,2.191,2.191,0,0,0,.75-2.579,4.339,4.339,0,0,0-1.8-1.883c-3.691-1.941-7.438-3.778-11.18-5.621a2.535,2.535,0,0,1-1.567-2.547c.039-4.138.015-8.277.015-12.416v-1.328ZM1384.6,26.491c-.913.045-1.828.06-2.738.14a8.033,8.033,0,0,0-7.419,7.562,7.874,7.874,0,0,0,5.873,8.24,16.228,16.228,0,0,0,10.828-.971,13.145,13.145,0,0,1,11.326-.01,17.55,17.55,0,0,0,9.557,1.268,8.007,8.007,0,0,0,7.187-7.532,7.885,7.885,0,0,0-5.753-8.214,15.668,15.668,0,0,0-10.5.777,14.162,14.162,0,0,1-12.23.015A13.742,13.742,0,0,0,1384.6,26.491Zm-10.249,17.694c.06,1.227.036,2.578.208,3.9a7.823,7.823,0,0,0,6.8,6.83,17.1,17.1,0,0,0,9.681-1.189,12.883,12.883,0,0,1,11-.221,20.348,20.348,0,0,0,8.575,1.6c5.507-.038,9.668-4.316,8.455-11.121a19.569,19.569,0,0,1-2.1,1.348,17.466,17.466,0,0,1-14.572.378,13.115,13.115,0,0,0-11.128.028c-3.663,1.687-7.624,1.586-11.474.745A31.78,31.78,0,0,1,1374.354,44.184Zm-50.82-64.626h24.277V-34.528h-24.277Zm36.606-.023h24.484c0-1.491.052-2.883-.028-4.268A2.439,2.439,0,0,0,1384-26.17c-1.673-1.758-3.591-3.31-5.087-5.2a8,8,0,0,0-7.923-3.283c-1.955.255-4.186-.424-5.884.289s-2.9,2.639-4.313,4.033a1.772,1.772,0,0,0-.328.343,1.727,1.727,0,0,0-.314.733C1360.133-26.356,1360.141-23.457,1360.141-20.465Zm.224-26.394c5.06,0,10.026.008,14.991-.018a1.717,1.717,0,0,0,.94-.419q3.882-3.071,7.73-6.184c.233-.188.553-.462.56-.7.05-1.611.026-3.224.026-4.853-3.875,0-7.582-.184-11.264.04A14.187,14.187,0,0,0,1360.365-46.859Zm34.341,30.669h-28.376V-12.3h28.376Zm-49.063-22.58c-1.605-2.012-3.019-3.829-4.5-5.591a1.679,1.679,0,0,0-1.139-.4c-1.707-.042-3.415-.025-5.123-.016-1.428.007-3.071-.4-4.226.169-1.2.592-1.932,2.134-2.854,3.272-.655.808-1.286,1.634-2.018,2.566Zm-13.971-10.189h8.006V-58.983h-8.006Zm-18.346,32.735v3.915h16.153v-3.915Zm60.98-22.533v-3.921h-7.974v3.921Zm18.384-16.313v-3.92h-3.9v3.92Z" transform="translate(-1309.189 63.149)" fill="#1d272b"/>
        <path id="Trazado_158615" data-name="Trazado 158615" d="M1576.331,133.077v3.892h-28.377v-3.892Z" transform="translate(-1490.814 -86.117)" fill="#008f85"/>
        <path id="Trazado_158616" data-name="Trazado 158616" d="M1403.132-35.715V-45.74h8.006v10.025Z" transform="translate(-1380.65 49.906)" fill="#008f85"/>
        <path id="Trazado_158617" data-name="Trazado 158617" d="M1326.471,132.936h16.153v3.915h-16.153Z" transform="translate(-1322.335 -86.01)" fill="#008f85"/>
        <path id="Trazado_158618" data-name="Trazado 158618" d="M1645.714-41.848h-3.9v-3.92h3.9Z" transform="translate(-1562.214 49.928)" fill="#008f85"/>
        <path id="Trazado_158619" data-name="Trazado 158619" d="M1641.8,328.934h3.909v3.918H1641.8Z" transform="translate(-1562.199 -235.103)" fill="#008f85"/>
        <path id="Trazado_158620" data-name="Trazado 158620" d="M1607.785,337.329h3.9v3.954h-3.9Z" transform="translate(-1536.327 -241.489)" fill="#008f85"/>
        <path id="Trazado_158621" data-name="Trazado 158621" d="M1696.631,341.372h-3.888V337.42h3.888Z" transform="translate(-1600.954 -241.558)" fill="#008f85"/>
        <path id="Trazado_158622" data-name="Trazado 158622" d="M1730.709,332.913h-3.9V328.97h3.9Z" transform="translate(-1626.868 -235.131)" fill="#008f85"/>
      </g>
    </g>
  </g>
</svg>
