<svg xmlns="http://www.w3.org/2000/svg" width="108.668" height="53.249" viewBox="0 0 108.668 53.249">
  <g id="img17" transform="translate(-4984.01 -973.221)">
    <path id="Trazado_151094" data-name="Trazado 151094" d="M4989.484,987.3a40.213,40.213,0,0,1,.61-4.994,11.962,11.962,0,0,1,11.623-9.06q36.612-.047,73.224,0a11.927,11.927,0,0,1,12.066,11.746c.031.726.077,1.45.119,2.246a10.759,10.759,0,0,0,1.074.149c4.141.125,4.465.445,4.472,4.523s.005,8.175,0,12.262c0,2.413-.994,3.539-3.651,3.4-2-.1-2.831.673-3.4,2.416-3.63,11.067-17.174,18.216-28.837,16.118a110.763,110.763,0,0,1-14.424-4.141,12.458,12.458,0,0,0-8.036.015c-4.826,1.555-9.647,3.4-14.618,4.174-12.526,1.944-25.476-5.726-29.029-17.139a1.677,1.677,0,0,0-2.013-1.4,8.26,8.26,0,0,1-2.793-.154c-1.421-.4-1.856-1.595-1.854-2.988,0-4.213-.009-8.427-.009-12.64,0-3.812.524-4.337,4.407-4.445C4988.743,987.38,4989.067,987.337,4989.484,987.3Zm48.91-12.758c-12.073,0-24.146-.027-36.218.011a10.809,10.809,0,0,0-11.065,11.079c-.036,5.835-.192,11.679.083,17.5a20.612,20.612,0,0,0,1.856,8.127c3.617,7.175,9.714,11.391,17.517,13.173,6.546,1.5,12.874.369,18.832-2.268,6.03-2.669,11.811-2.971,17.739-.036a21.407,21.407,0,0,0,2.628.983c7.225,2.459,14.466,2.883,21.551-.353,8.712-3.98,14.141-10.458,14.407-20.406.142-5.291-.022-10.589-.041-15.884-.025-7.395-4.526-11.923-11.874-11.925Q5056.1,974.54,5038.394,974.544Zm48.647,31.674c4.684.293,4.425.264,4.277-3.692-.024-.666,0-1.335,0-2,0-3.336-.018-6.671,0-10.007.008-1.478-.931-1.843-2.108-1.746-.789.064-2.132-.594-2.147.977C5087.009,995.192,5087.041,1000.638,5087.041,1006.217Zm-97.368-.074V988.907c-3.522-.328-4.165-.064-4.2,1.711-.075,4.022-.161,8.046-.085,12.066.072,3.784.269,3.876,4.114,3.563C4989.563,1006.242,4989.618,1006.179,4989.673,1006.144Z" transform="translate(0 0)" fill="#1d272b"/>
    <path id="Trazado_151095" data-name="Trazado 151095" d="M5056.405,988.784q17.391,0,34.781,0c5.238,0,7.295,2.074,7.309,7.306.011,4.548-.169,9.1.051,13.641.475,9.744-6.115,17.024-15.5,19.13-5.011,1.124-9.839.283-14.587-1.4q-3.969-1.406-7.956-2.761c-3.832-1.3-7.5-.48-11.184.775a94.943,94.943,0,0,1-11.291,3.455c-6.913,1.427-13.14-.457-18.507-5-3.936-3.333-5.556-7.8-5.667-12.818-.113-5.157-.029-10.32-.022-15.48.006-4.514,2.255-6.83,6.785-6.841C5032.548,988.764,5044.477,988.784,5056.405,988.784Zm-.043,1.47q-17.892,0-35.785,0c-3.708,0-5.255,1.541-5.268,5.234-.019,5.293-.17,10.592.03,15.877a17.647,17.647,0,0,0,1.474,6.924c3.075,6.3,12.152,10.857,19.148,9.537a84.189,84.189,0,0,0,12.67-3.651,20.5,20.5,0,0,1,15.072.044c1.863.743,3.763,1.394,5.66,2.047,4.7,1.618,9.451,2.381,14.373.984,7.317-2.078,13.856-8.327,13.468-15.929-.269-5.276-.109-10.574-.145-15.861-.024-3.664-1.588-5.2-5.314-5.205Q5074.053,990.249,5056.362,990.254Z" transform="translate(-17.801 -9.296)" fill="#1d272b"/>
  </g>
</svg>
