<svg xmlns="http://www.w3.org/2000/svg" xmlns:xlink="http://www.w3.org/1999/xlink" width="222.94" height="222.945" viewBox="0 0 222.94 222.945">
  <defs>
    <radialGradient id="radial-gradient" cx="0.076" cy="0.019" r="1.465" gradientTransform="translate(0)" gradientUnits="objectBoundingBox">
      <stop offset="0" stop-color="#f6f6f7"/>
      <stop offset="0.477" stop-color="#f9f9fa"/>
      <stop offset="0.715" stop-color="#fff"/>
    </radialGradient>
  </defs>
  <g id="img2" transform="translate(-701.749 -761.795)">
    <g id="Grupo_91009" data-name="Grupo 91009" transform="translate(701.749 761.795)">
      <g id="Grupo_42274" data-name="Grupo 42274" transform="translate(0 0)">
        <g id="Grupo_18423" data-name="Grupo 18423" transform="translate(0 0)">
          <g id="Grupo_18421" data-name="Grupo 18421">
            <g id="Grupo_18420" data-name="Grupo 18420">
              <g id="Grupo_18419" data-name="Grupo 18419">
                <path id="Trazado_40936" data-name="Trazado 40936" d="M417.562,2257.189a111.47,111.47,0,1,1-111.468-111.468A111.468,111.468,0,0,1,417.562,2257.189Z" transform="translate(-194.623 -2145.721)" fill="#fff"/>
              </g>
            </g>
          </g>
          <path id="Trazado_40937" data-name="Trazado 40937" d="M415.569,2255.017A111.467,111.467,0,1,0,304.1,2366.492,111.031,111.031,0,0,0,415.569,2255.017Z" transform="translate(-192.629 -2143.547)" fill="url(#radial-gradient)"/>
          <path id="Trazado_40938" data-name="Trazado 40938" d="M389.579,2246.181a94.349,94.349,0,1,0-94.349,94.35A94.011,94.011,0,0,0,389.579,2246.181Z" transform="translate(-183.54 -2134.468)" fill="none" stroke="#1d272b" stroke-miterlimit="10" stroke-width="5"/>
          <g id="Grupo_18422" data-name="Grupo 18422" transform="translate(19.748 62.583)">
            <path id="Trazado_40939" data-name="Trazado 40939" d="M392.465,2164.488A111.483,111.483,0,0,1,200.545,2275.5a111.8,111.8,0,0,0,11.094,14.849,111.485,111.485,0,0,0,180.826-125.859Z" transform="translate(-200.545 -2164.488)" fill="#eceef0"/>
          </g>
          <g id="xy6fUB" transform="translate(-1866.697 -66.596)">
            <g id="Grupo_121011" data-name="Grupo 121011" transform="translate(1912.354 129.179)">
              <path id="Trazado_158623" data-name="Trazado 158623" d="M2145.739,248.236c-2.638-2.443-3.2-5.1-1.817-8.217-2.787-2.228-3.591-5.012-2.107-8.395l-1.576-1.456a4.4,4.4,0,0,0-.7.638,4.567,4.567,0,0,1-4.552,1.784,2.207,2.207,0,0,1-2.327-2.359q-.041-2.754,0-5.509a1.182,1.182,0,0,0-.723-1.283,6.23,6.23,0,0,1,.01-11.166c.545-.28.792-.585.7-1.172a.755.755,0,0,1,0-.11c0-1.579.4-3.318-.132-4.69-.516-1.323-1.945-2.334-3.085-3.358-1.2-1.077-.946-2.453-.993-3.964-1.234,0-2.43.006-3.624,0-1.92-.011-2.637-.742-2.638-2.685q0-3.526.007-7.052c0-2.244.645-2.895,2.871-2.895h49.576c2.645,0,5.289-.011,7.933,0,1.824.005,2.627.8,2.641,2.607.012,1.616-.064,3.236.024,4.847a3.86,3.86,0,0,1-1.358,3.2c-1.86,1.773-3.65,3.621-5.466,5.44-.172.173-.328.362-.645.714,6.177-.248,10.015,2.484,11.5,8.381h4.354c0-.664-.017-1.308,0-1.951a2.043,2.043,0,0,1,2.214-2.193q6.169-.032,12.34,0c1.483.008,2.227.875,2.228,2.525q.008,13.332,0,26.664c0,2.057.011,4.113,0,6.17a2.145,2.145,0,0,1-2.454,2.412q-5.84.016-11.68,0c-1.7,0-2.169-.342-2.766-2.067-1.239,0-2.52-.035-3.8.03a1.072,1.072,0,0,0-.705.632,8.122,8.122,0,0,1-5.313,5.19c-.711.231-.6.7-.6,1.2q0,10.743,0,21.486c0,2.347-.641,2.976-3.023,2.977h-33.936c-2.295,0-2.953-.654-2.952-2.936,0-6.28.053-12.561-.027-18.841a4.292,4.292,0,0,1,1.633-3.845C2145.071,248.763,2145.357,248.534,2145.739,248.236Zm1.632,15.788h31.519V263q0-9.972,0-19.944a6,6,0,0,0-6.087-6.295,2.1,2.1,0,0,1-2.3-2.34c-.021-1.763.036-3.528-.032-5.288a2.3,2.3,0,0,0-.58-1.407,16.749,16.749,0,0,1-3.984-6.016c-.682-1.888-1.187-3.839-1.8-5.853h-10.546v4.123c1.423,0,2.956-.024,4.487.006a5.935,5.935,0,0,1,4.688,2.3,6.334,6.334,0,0,1,.713,7.043c2.791,2.3,3.615,5.08,2.079,8.438.115.093.2.16.286.231a6.381,6.381,0,0,1,2.173,7.287,6.286,6.286,0,0,1-6.295,4.08c-2.718.006-5.447.15-8.151-.044-2.277-.164-4.074.368-5.39,2.27-.261.377-.737.755-.742,1.138C2147.349,256.465,2147.372,260.2,2147.372,264.023ZM2193.53,238.9V215.775c-2.023,0-3.967.012-5.911,0a2.141,2.141,0,0,1-2.413-2.354,5.975,5.975,0,0,0-6.336-6.034q-15.977,0-31.954,0h-1.192a5.435,5.435,0,0,0,5.35,4.2c4.885.008,9.771,0,14.656,0,1.859,0,2.513.627,2.658,2.446.064.8.179,1.606.314,2.4,1.041,6.117,4.877,10.324,10.605,11.562,1.206.261,2.453.326,3.706.485v4.078a20.8,20.8,0,0,1-8.279-1.576V232.7c6.178,1.561,8.739,5.7,8.361,11.934a3.864,3.864,0,0,0,2.108-3.323c.124-1.777.787-2.409,2.56-2.415C2189.666,238.891,2191.568,238.9,2193.53,238.9Zm-60.875-48.264c0,2.287.148,4.46-.042,6.6a5.3,5.3,0,0,0,2.087,5.05,3.423,3.423,0,0,0,2.322.916c11.23-.03,22.46-.01,33.691-.047a2.54,2.54,0,0,0,1.6-.649c2.407-2.314,4.641-4.822,7.156-7.006,1.629-1.414,1.71-2.975,1.421-4.867Zm73.479,50.286V211.663h-8.251v29.255Zm-58.707,29.4h31.41v-1.976h-31.41Zm4.2-41.947c1.983,0,3.965.012,5.948,0,1.491-.012,2.411-.861,2.38-2.151a2.11,2.11,0,0,0-2.376-2.045q-6-.016-12,.006a2.136,2.136,0,0,0-2.391,2.041,2.087,2.087,0,0,0,2.277,2.144C2147.52,228.411,2149.576,228.377,2151.631,228.373Zm-10.549-8.4v-.008c2.018,0,4.037.015,6.054-.005a2.106,2.106,0,1,0-.027-4.185q-6-.017-12,0a2.168,2.168,0,0,0-2.439,2.106,2.2,2.2,0,0,0,2.469,2.09C2137.119,219.987,2139.1,219.978,2141.082,219.978Zm12.674,16.791v-.005c2.02,0,4.039.015,6.058-.006a2.11,2.11,0,0,0,2.271-2.048,2.161,2.161,0,0,0-2.2-2.133c-.22-.017-.44-.035-.66-.035-3.855.007-7.71.009-11.564.03a2.117,2.117,0,0,0-2.36,2.066,2.069,2.069,0,0,0,2.292,2.118C2149.645,236.8,2151.7,236.768,2153.756,236.768Zm2.011,8.391c2.091,0,4.183.024,6.274-.009a2.022,2.022,0,0,0,2.115-1.951,2.1,2.1,0,0,0-1.978-2.219,8.267,8.267,0,0,0-.989-.05q-5.668.016-11.336.044a2.187,2.187,0,0,0-2.465,2.089c-.009,1.261.938,2.089,2.435,2.1C2151.8,245.17,2153.785,245.162,2155.767,245.159Zm-18.843-33.648h5.83l-1.677-4.065h-4.153Zm-10.463-20.893v4.075h1.9v-4.075Zm10.472,33.583v3.353c.87-1.275,2.322-1.734,2.28-3.353Z" transform="translate(-2075.931 -173.742)" fill="#008f85"/>
              <path id="Trazado_158624" data-name="Trazado 158624" d="M1960.414,384.007c1.875,1.849,3.7,3.659,5.534,5.453.779.76,1.37,1.568.876,2.717a2.377,2.377,0,0,1-2.535,1.34c-8.3-.016-16.6.053-24.9-.027a27.322,27.322,0,1,1,21.747-10.413C1960.94,383.338,1960.736,383.6,1960.414,384.007Zm-.942,5.294.134-.3c-.943-.918-1.894-1.828-2.826-2.757-1.84-1.835-1.838-2.506-.1-4.408a22.59,22.59,0,0,0,6.1-14.972,23.1,23.1,0,1,0-23.205,22.432c6.39.054,12.782.006,19.172,0Z" transform="translate(-1912.354 -292.645)" fill="#008f85"/>
              <path id="Trazado_158625" data-name="Trazado 158625" d="M1955.054,141.941,1953.9,145.9c-2.046-.59-4-1.159-5.965-1.718-2.787-.8-5.579-1.574-8.362-2.38a2.221,2.221,0,0,1-1.927-2.437,6.3,6.3,0,0,0-12.572-.07c-.146,1.827-.672,2.355-2.506,2.519a6.3,6.3,0,0,0-.043,12.577c1.944.185,2.376.624,2.544,2.583a6.393,6.393,0,0,0,6.354,5.837,6.321,6.321,0,0,0,6.222-5.948,2.238,2.238,0,0,1,2-2.49c4.687-1.354,9.379-2.691,14.228-4.08l1.184,4c-2,.579-3.919,1.141-5.844,1.691-2.187.625-4.375,1.247-6.567,1.85a1.359,1.359,0,0,0-1.107,1.147,10.457,10.457,0,0,1-20.144.715,2.129,2.129,0,0,0-1.6-1.637,10.452,10.452,0,0,1,.1-19.982,1.8,1.8,0,0,0,1.431-1.375,10.453,10.453,0,0,1,20.225.59c.177.738.6.913,1.18,1.076q5.614,1.582,11.223,3.179C1954.3,141.65,1954.63,141.79,1955.054,141.941Z" transform="translate(-1912.439 -129.179)" fill="#008f85"/>
              <path id="Trazado_158626" data-name="Trazado 158626" d="M2473.9,330.485h-8.252V301.23h8.252Z" transform="translate(-2343.701 -263.309)" fill="#1d272b"/>
              <path id="Trazado_158627" data-name="Trazado 158627" d="M2236.734,560.373V558.4h31.41v1.976Z" transform="translate(-2165.238 -463.794)" fill="#1d272b"/>
              <path id="Trazado_158628" data-name="Trazado 158628" d="M2141.608,205.75h1.9v4.075h-1.9Z" transform="translate(-2091.079 -188.873)" fill="#1d272b"/>
              <path id="Trazado_158629" data-name="Trazado 158629" d="M2208.2,215.3h4.052v4.056H2208.2Z" transform="translate(-2142.995 -196.318)" fill="#008f85"/>
              <path id="Trazado_158630" data-name="Trazado 158630" d="M2183.686,219.494h-4.051v-4.051h4.051Z" transform="translate(-2120.724 -196.43)" fill="#008f85"/>
              <path id="Trazado_158631" data-name="Trazado 158631" d="M1969.454,377.054a18.917,18.917,0,1,1-18.9,18.937A18.96,18.96,0,0,1,1969.454,377.054Zm.052,4.2a14.705,14.705,0,1,0,14.665,14.67A14.75,14.75,0,0,0,1969.506,381.251Z" transform="translate(-1942.133 -322.421)" fill="#1d272b"/>
              <path id="Trazado_158632" data-name="Trazado 158632" d="M1991.926,439.2l3.079-3.047,2.348,2.9,11.1-11.134,2.961,3.008a4.829,4.829,0,0,1-.386.469q-5.795,5.8-11.6,11.587c-1.419,1.414-2.413,1.4-3.846-.017q-1.721-1.7-3.426-3.421A2.619,2.619,0,0,1,1991.926,439.2Z" transform="translate(-1974.388 -362.075)" fill="#1d272b"/>
            </g>
          </g>
        </g>
      </g>
    </g>
  </g>
</svg>
