<svg xmlns="http://www.w3.org/2000/svg" width="144.359" height="145.047" viewBox="0 0 144.359 145.047">
  <g id="img4" transform="translate(-695.025 -15.247)">
    <g id="Grupo_121006" data-name="Grupo 121006" transform="translate(695.025 15.247)">
      <path id="Trazado_158587" data-name="Trazado 158587" d="M770.771,111.18c2.707-.306,5.247-.531,7.757-.935.423-.068.878-.856,1.051-1.4.759-2.371,1.4-4.78,2.122-7.164.7-2.329,2.247-3.392,4.168-2.926,2.087.506,3.005,2.216,2.365,4.657-.687,2.621-1.4,5.244-2.274,7.8a2.685,2.685,0,0,0,.7,3.126,35.593,35.593,0,0,1,2.6,3.442c3.147-1.384,6.26-2.818,9.427-4.122a3.309,3.309,0,0,1,4.586,1.75c.716,1.735.036,3.4-1.825,4.38-.712.374-1.461.678-2.2,1.006-2.325,1.033-4.651,2.062-7.11,3.152.433.9.734,1.632,1.123,2.314,1.782,3.133,2.174,3.287,5.768,2.885,2.7-.3,5.4-.569,8.108-.733,2.3-.139,3.866,1.211,3.937,3.188.067,1.854-1.3,3.243-3.5,3.483-2.84.309-5.684.577-8.526.863-.244,2.562-.483,5.063-.745,7.8,2.48,1.286,5.209,2.689,7.926,4.115,2.337,1.227,3.151,3.119,2.171,4.971s-2.947,2.222-5.357.994c-2.351-1.2-4.764-2.3-7.009-3.673s-4.379-1.837-6.9-.1c.91,3.565,1.861,7.3,2.814,11.03.417,1.632.887,3.253,1.247,4.9.468,2.141-.5,3.861-2.329,4.3a3.327,3.327,0,0,1-4.169-2.611c-1.275-4.664-2.452-9.355-3.674-14.033-.147-.56-.326-1.112-.614-2.086-2.048,1.493-3.958,2.787-5.726,4.255-.349.289-.355,1.32-.158,1.881.923,2.625,2,5.194,2.967,7.8.757,2.052.065,3.891-1.652,4.629-1.862.8-3.7-.015-4.59-2.149-.984-2.359-1.875-4.758-2.819-7.17a37.7,37.7,0,0,0-4.417,1.375,3.316,3.316,0,0,0-1.417,1.73c-1.552,3.8-2.994,7.639-4.521,11.447-.655,1.631-2.042,2.6-3.653,2.018a6.151,6.151,0,0,1-2.75-2.7c-.328-.562.129-1.694.43-2.494,1.366-3.631,2.8-7.236,4.224-10.876l-6.6-3.438c-2.3,2.653-4.617,5.389-7,8.064-1.741,1.953-4.368,1.912-5.627-.049-1.025-1.6-.634-3.065.551-4.422,2.075-2.377,4.082-4.817,6.232-7.124,1.018-1.092,1.047-1.786.26-3.158-1.378-2.4-2.97-2.846-5.544-2.149-3.457.937-7.032,1.443-10.557,2.127-2.4.466-4.168-.521-4.606-2.555-.408-1.894.772-3.523,3.1-4.019,3.8-.81,7.606-1.591,11.434-2.234,1.6-.268,2.7-.723,3.059-2.5a11.176,11.176,0,0,1,1.433-2.674c-2.694-1.329-5.309-2.607-7.912-3.907-2.443-1.22-3.284-2.963-2.382-4.874s2.879-2.393,5.286-1.231c2.97,1.434,5.948,2.856,8.87,4.382a1.963,1.963,0,0,0,2.671-.435,12.283,12.283,0,0,0,3.457-7.421c.067-.438-.49-1.132-.939-1.463-3.247-2.394-6.546-4.718-9.816-7.08-2.264-1.636-2.819-3.667-1.506-5.383,1.254-1.639,3.24-1.7,5.452-.123,3.64,2.6,7.263,5.212,10.893,7.82l5.809-3.852q-1.32-6.218-2.639-12.441c-.521-2.464.333-4.158,2.352-4.69,1.963-.517,3.645.681,4.2,3.128C769.133,103.462,769.935,107.322,770.771,111.18Zm-5.839,44.427a31,31,0,0,0,4.827-2.992c5.4-4.673,11.127-8.486,18.414-9.672,3.7-.6,4.757-3.025,3.509-6.561a17.053,17.053,0,0,0-1.385-2.738q-2.94-5.124-5.924-10.223a27.556,27.556,0,0,0-2.889-4.636,4.894,4.894,0,0,0-3.357-1.66c-5.266.346-10.319,1.675-14.438,5.174a8.531,8.531,0,0,0-2.833,4.271c-.97,4.57-3.523,7.973-6.861,10.979-1.362,1.227-2.678,2.5-4,3.776a2.228,2.228,0,0,0-.306,3.315c1.658,2.142,3.188,4.4,4.974,6.425C757.108,153.842,760.43,154.978,764.932,155.607Z" transform="translate(-725.352 -74.783)" fill="#868695"/>
      <path id="Trazado_158588" data-name="Trazado 158588" d="M942.763,103.012c-.531,5.479-7.641,10.513-12.506,8.474a7.1,7.1,0,0,1-3.109-3.194,45.786,45.786,0,0,1-2.605-6.751,18.3,18.3,0,0,0-7.6-9.915,56.879,56.879,0,0,1-6.735-4.934c-4.765-4.209-4.278-10.579.953-14.281a6.888,6.888,0,0,1,7.317-.568,28.324,28.324,0,0,1,6.649,4.189,66.44,66.44,0,0,1,14.564,18.627C941.041,97.272,941.756,100.218,942.763,103.012Z" transform="translate(-826.78 -60.637)" fill="#008f85"/>
      <path id="Trazado_158589" data-name="Trazado 158589" d="M910.023,299.716a54.3,54.3,0,0,1,2.2-7.535,65.843,65.843,0,0,1,14-20.623,20.632,20.632,0,0,1,6.734-4.378c4.813-1.847,11.795,3.541,11.429,8.706a6.986,6.986,0,0,1-1.986,3.976,50.172,50.172,0,0,1-5.776,4.731,18.592,18.592,0,0,0-6.908,10.163,54.814,54.814,0,0,1-3.272,9.3c-1.893,3.89-5.3,4.973-9.934,3.746C912.406,306.71,910.383,304.077,910.023,299.716Z" transform="translate(-828.517 -169.996)" fill="#008f85"/>
      <path id="Trazado_158590" data-name="Trazado 158590" d="M1000.032,203.757c.361-1.967.985-5.274,1.57-8.588a14.61,14.61,0,0,0-.84-8.8,20.029,20.029,0,0,1-1.128-14.377,11.717,11.717,0,0,1,17.633-6.036,8.883,8.883,0,0,1,3.811,8.216c-.188,3.491-1.062,6.94-1.382,10.431a22.877,22.877,0,0,0,.294,5.987c.721,4.1,2.195,8.121,2.433,12.229.561,9.659-5.172,14.21-14.67,12.158C1002.425,213.825,999.916,210.637,1000.032,203.757Zm18.169-1.071c-.531-2.393-.9-5.885-2.109-9.058-1.576-4.139-1.371-8.067-.453-12.246a34.825,34.825,0,0,0,.671-8.691,4.666,4.666,0,0,0-2.163-3.24,7.066,7.066,0,0,0-10.555,5.208,16.228,16.228,0,0,0,1.289,9.886c1.892,3.921,1.87,7.886,1.057,12.012a71.54,71.54,0,0,0-1.375,9.106,4.764,4.764,0,0,0,1.451,3.64,9.186,9.186,0,0,0,9.011.938C1017.909,209.121,1017.918,206.3,1018.2,202.686Z" transform="translate(-878.102 -112.543)" fill="#1d272b"/>
      <path id="Trazado_158591" data-name="Trazado 158591" d="M871.23,76.907a4.115,4.115,0,0,1-3.8-3.188c-1.9-6.83-3.789-13.664-5.559-20.529a4.493,4.493,0,1,1,8.686-2.3q2.807,10.144,5.442,20.336C876.782,74.293,874.68,76.926,871.23,76.907Z" transform="translate(-801.519 -47.455)" fill="#1d272b"/>
      <path id="Trazado_158592" data-name="Trazado 158592" d="M853.489,302.193a10.335,10.335,0,0,1-1.373,2.447q-6.475,7.193-13.1,14.247c-2.026,2.164-4.7,2.284-6.623.45a4.424,4.424,0,0,1-.039-6.481q6.587-7.241,13.272-14.392a4.238,4.238,0,0,1,5.2-1.136C852.575,298.132,853.489,299.549,853.489,302.193Z" transform="translate(-784.349 -186.793)" fill="#db8804"/>
      <path id="Trazado_158593" data-name="Trazado 158593" d="M964.966,319.947c1.019-1.547,1.557-2.993,2.59-3.824,4.962-3.991,10.032-7.85,15.12-11.682a4.465,4.465,0,0,1,6.29.688,4.376,4.376,0,0,1-.848,6.413c-5,3.944-10.071,7.8-15.124,11.68-1.523,1.169-3.322,1.608-4.9.478C966.91,322.845,966.144,321.4,964.966,319.947Z" transform="translate(-859.211 -190.468)" fill="#1d272b"/>
      <path id="Trazado_158594" data-name="Trazado 158594" d="M941.8,175.7c1.136.914,2.614,1.612,3.35,2.778,3.206,5.079,6.239,10.27,9.245,15.472a4.423,4.423,0,0,1-1.568,6.288,4.355,4.355,0,0,1-6.1-1.652c-3.167-5.191-6.3-10.407-9.309-15.69C935.573,179.67,937.842,176.007,941.8,175.7Z" transform="translate(-843.456 -119.1)" fill="#1d272b"/>
      <path id="Trazado_158595" data-name="Trazado 158595" d="M926.108,229.474a4.221,4.221,0,0,1-2.692,4.171c-5.187,2.2-10.393,4.361-15.634,6.429a4.466,4.466,0,0,1-3.464-8.23c5.24-2.261,10.512-4.455,15.834-6.514A4.351,4.351,0,0,1,926.108,229.474Z" transform="translate(-823.851 -146.649)" fill="#d93328"/>
      <path id="Trazado_158596" data-name="Trazado 158596" d="M798.335,295.232a4.248,4.248,0,0,1-2.824,4.082c-4.9,1.934-9.816,3.838-14.762,5.654a4.482,4.482,0,1,1-3.226-8.362c4.889-1.964,9.8-3.87,14.761-5.654A4.4,4.4,0,0,1,798.335,295.232Z" transform="translate(-752.891 -183.313)" fill="#1d272b"/>
      <path id="Trazado_158597" data-name="Trazado 158597" d="M893.618,284.015c.009,3.029-1.512,4.9-3.668,5.236a4.258,4.258,0,0,1-5.072-3.166c-1.064-5.373-1.975-10.781-2.765-16.2a4.337,4.337,0,0,1,3.794-4.643,4.189,4.189,0,0,1,4.9,3.084C891.913,273.762,892.779,279.25,893.618,284.015Z" transform="translate(-812.904 -169.081)" fill="#1d272b"/>
      <path id="Trazado_158598" data-name="Trazado 158598" d="M808.638,350.435c-.613-.536-2.244-1.352-2.913-2.66-1.893-3.7-3.46-7.571-5.023-11.428a4.481,4.481,0,0,1,8.282-3.424c1.693,3.723,3.346,7.469,4.865,11.265C815.115,347.352,812.909,350.519,808.638,350.435Z" transform="translate(-767.254 -205.39)" fill="#1d272b"/>
      <path id="Trazado_158599" data-name="Trazado 158599" d="M998.53,140.844c-3.491-.3-5.9-3.717-4.324-6.592,2.178-3.964,4.646-7.781,7.186-11.527a4.169,4.169,0,0,1,5.712-.963,4.3,4.3,0,0,1,1.7,5.733c-2.224,3.859-4.588,7.647-7.1,11.32C1001.041,139.766,999.606,140.182,998.53,140.844Z" transform="translate(-875.269 -88.57)" fill="#1d272b"/>
      <path id="Trazado_158600" data-name="Trazado 158600" d="M825.949,155.04a4.041,4.041,0,0,1,4.337,3.709,3.964,3.964,0,0,1-4.207,3.821c-2.424.027-4.3-1.57-4.332-3.694A3.976,3.976,0,0,1,825.949,155.04Z" transform="translate(-779.202 -107.557)" fill="#1d272b"/>
      <path id="Trazado_158601" data-name="Trazado 158601" d="M830.867,192.092a2.731,2.731,0,0,1-2.894-2.648,2.518,2.518,0,0,1,2.769-2.49c1.657-.044,2.857.671,3,2.472A2.712,2.712,0,0,1,830.867,192.092Z" transform="translate(-782.678 -125.384)" fill="#1d272b"/>
      <path id="Trazado_158602" data-name="Trazado 158602" d="M800.09,203.5c-1.453-.166-2.885-.538-2.975-2.284s1.194-2.4,2.732-2.457c1.6-.058,3.039.436,3.088,2.314C802.981,202.852,801.566,203.286,800.09,203.5Z" transform="translate(-765.44 -131.978)" fill="#1d272b"/>
      <path id="Trazado_158603" data-name="Trazado 158603" d="M1025.255,244.972a3.492,3.492,0,0,1-3.348,3.638,3.572,3.572,0,0,1-3.163-3.828c.054-2.015,1.636-3.759,3.35-3.694S1025.3,242.989,1025.255,244.972Z" transform="translate(-889.252 -155.625)" fill="#1d272b"/>
      <path id="Trazado_158604" data-name="Trazado 158604" d="M1024.28,188.1c-.143,1.622-.884,2.877-2.63,2.962s-2.675-1.07-2.873-2.72a2.87,2.87,0,0,1,2.711-3.133C1023.239,185.3,1024.042,186.439,1024.28,188.1Z" transform="translate(-889.263 -124.41)" fill="#1d272b"/>
    </g>
  </g>
</svg>
